<?xml version="1.0" encoding="UTF-8" standalone="no"?>
<!-- This is a Stata 15.1 generated SVG file (http://www.stata.com) -->

<svg version="1.1" width="5.50in" height="4.00in" viewBox="0 0 3960 2880" xmlns="http://www.w3.org/2000/svg" xmlns:xlink="http://www.w3.org/1999/xlink">
	<desc>Stata Graph - pub</desc>
	<rect x="0" y="0" width="3960" height="2880" style="fill:#FFFFFF;stroke:none"/>
	<rect x="0.00" y="0.00" width="3959.88" height="2880.00" style="fill:#FFFFFF"/>
	<rect x="2.88" y="2.88" width="3954.12" height="2874.24" style="fill:none;stroke:#FFFFFF;stroke-width:5.76"/>
	<rect x="63.36" y="207.91" width="3833.16" height="1257.09" style="fill:#FFFFFF"/>
	<rect x="65.52" y="210.07" width="3828.84" height="1252.77" style="fill:none;stroke:#FFFFFF;stroke-width:4.32"/>
	<rect x="110.88" y="255.43" width="1869.12" height="1162.05" style="fill:#FFFFFF"/>
	<rect x="112.50" y="257.05" width="1865.88" height="1158.81" style="fill:none;stroke:#FFFFFF;stroke-width:3.24"/>
	<rect x="309.76" y="411.99" width="1611.82" height="778.51" style="fill:none;stroke:#000000;stroke-width:3.24"/>
	<line x1="308.14" y1="919.61" x2="1923.20" y2="919.61" style="stroke:#E0E0E0;stroke-width:4.86"/>
	<line x1="308.14" y1="682.75" x2="1923.20" y2="682.75" style="stroke:#E0E0E0;stroke-width:4.86"/>
	<rect x="425.08" y="682.75" width="162.48" height="473.73" style="fill:#808080"/>
	<rect x="427.51" y="685.18" width="157.62" height="468.87" style="fill:none;stroke:#000000;stroke-width:4.86"/>
	<rect x="587.57" y="919.61" width="162.48" height="236.86" style="fill:#808080"/>
	<rect x="589.99" y="922.04" width="157.62" height="232.01" style="fill:none;stroke:#000000;stroke-width:4.86"/>
	<rect x="750.05" y="919.61" width="162.48" height="236.86" style="fill:#808080"/>
	<rect x="752.48" y="922.04" width="157.62" height="232.01" style="fill:none;stroke:#000000;stroke-width:4.86"/>
	<rect x="912.53" y="919.61" width="162.48" height="236.86" style="fill:#808080"/>
	<rect x="914.96" y="922.04" width="157.62" height="232.01" style="fill:none;stroke:#000000;stroke-width:4.86"/>
	<rect x="1237.62" y="919.61" width="162.48" height="236.86" style="fill:#808080"/>
	<rect x="1240.05" y="922.04" width="157.62" height="232.01" style="fill:none;stroke:#000000;stroke-width:4.86"/>
	<rect x="1562.59" y="682.75" width="162.48" height="473.73" style="fill:#808080"/>
	<rect x="1565.02" y="685.18" width="157.62" height="468.87" style="fill:none;stroke:#000000;stroke-width:4.86"/>
	<rect x="1725.08" y="919.61" width="162.48" height="236.86" style="fill:#808080"/>
	<rect x="1727.50" y="922.04" width="157.62" height="232.01" style="fill:none;stroke:#000000;stroke-width:4.86"/>
	<line x1="308.14" y1="1192.12" x2="308.14" y2="410.37" style="stroke:#000000;stroke-width:3.24"/>
	<line x1="308.14" y1="919.61" x2="285.62" y2="919.61" style="stroke:#000000;stroke-width:3.24"/>
	<text x="260.90" y="919.61" style="font-family:'Helvetica';font-size:45.05px;fill:#000000" transform="rotate(-90 260.90,919.61)" text-anchor="middle">1</text>
	<line x1="308.14" y1="682.75" x2="285.62" y2="682.75" style="stroke:#000000;stroke-width:3.24"/>
	<text x="260.90" y="682.75" style="font-family:'Helvetica';font-size:45.05px;fill:#000000" transform="rotate(-90 260.90,682.75)" text-anchor="middle">2</text>
	<line x1="308.14" y1="446.01" x2="285.62" y2="446.01" style="stroke:#000000;stroke-width:3.24"/>
	<text x="260.90" y="446.01" style="font-family:'Helvetica';font-size:45.05px;fill:#000000" transform="rotate(-90 260.90,446.01)" text-anchor="middle">3</text>
	<text x="210.29" y="801.18" style="font-family:'Helvetica';font-size:45.05px;fill:#000000" transform="rotate(-90 210.29,801.18)" text-anchor="middle">Number</text>
	<line x1="308.14" y1="1192.12" x2="1923.20" y2="1192.12" style="stroke:#000000;stroke-width:3.24"/>
	<line x1="343.78" y1="1192.12" x2="343.78" y2="1214.52" style="stroke:#000000;stroke-width:3.24"/>
	<text x="359.57" y="1225.78" style="font-family:'Helvetica';font-size:45.05px;fill:#000000" transform="rotate(-90 359.57,1225.78)" text-anchor="end">2016</text>
	<line x1="506.26" y1="1192.12" x2="506.26" y2="1214.52" style="stroke:#000000;stroke-width:3.24"/>
	<text x="522.06" y="1225.78" style="font-family:'Helvetica';font-size:45.05px;fill:#000000" transform="rotate(-90 522.06,1225.78)" text-anchor="end">2017</text>
	<line x1="668.87" y1="1192.12" x2="668.87" y2="1214.52" style="stroke:#000000;stroke-width:3.24"/>
	<text x="684.67" y="1225.78" style="font-family:'Helvetica';font-size:45.05px;fill:#000000" transform="rotate(-90 684.67,1225.78)" text-anchor="end">2018</text>
	<line x1="831.35" y1="1192.12" x2="831.35" y2="1214.52" style="stroke:#000000;stroke-width:3.24"/>
	<text x="847.15" y="1225.78" style="font-family:'Helvetica';font-size:45.05px;fill:#000000" transform="rotate(-90 847.15,1225.78)" text-anchor="end">2019</text>
	<line x1="993.84" y1="1192.12" x2="993.84" y2="1214.52" style="stroke:#000000;stroke-width:3.24"/>
	<text x="1009.63" y="1225.78" style="font-family:'Helvetica';font-size:45.05px;fill:#000000" transform="rotate(-90 1009.63,1225.78)" text-anchor="end">2020</text>
	<line x1="1156.32" y1="1192.12" x2="1156.32" y2="1214.52" style="stroke:#000000;stroke-width:3.24"/>
	<text x="1172.12" y="1225.78" style="font-family:'Helvetica';font-size:45.05px;fill:#000000" transform="rotate(-90 1172.12,1225.78)" text-anchor="end">2021</text>
	<line x1="1318.80" y1="1192.12" x2="1318.80" y2="1214.52" style="stroke:#000000;stroke-width:3.24"/>
	<text x="1334.60" y="1225.78" style="font-family:'Helvetica';font-size:45.05px;fill:#000000" transform="rotate(-90 1334.60,1225.78)" text-anchor="end">2022</text>
	<line x1="1481.29" y1="1192.12" x2="1481.29" y2="1214.52" style="stroke:#000000;stroke-width:3.24"/>
	<text x="1497.08" y="1225.78" style="font-family:'Helvetica';font-size:45.05px;fill:#000000" transform="rotate(-90 1497.08,1225.78)" text-anchor="end">2023</text>
	<line x1="1643.90" y1="1192.12" x2="1643.90" y2="1214.52" style="stroke:#000000;stroke-width:3.24"/>
	<text x="1659.69" y="1225.78" style="font-family:'Helvetica';font-size:45.05px;fill:#000000" transform="rotate(-90 1659.69,1225.78)" text-anchor="end">2024</text>
	<line x1="1806.38" y1="1192.12" x2="1806.38" y2="1214.52" style="stroke:#000000;stroke-width:3.24"/>
	<text x="1822.18" y="1225.78" style="font-family:'Helvetica';font-size:45.05px;fill:#000000" transform="rotate(-90 1822.18,1225.78)" text-anchor="end">2025</text>
	<text x="1115.73" y="376.92" style="font-family:'Helvetica';font-size:78.70px;fill:#000000" text-anchor="middle">Over the years</text>
	<rect x="1980.00" y="255.43" width="1869.00" height="1162.05" style="fill:#FFFFFF"/>
	<rect x="1981.62" y="257.05" width="1865.76" height="1158.81" style="fill:none;stroke:#FFFFFF;stroke-width:3.24"/>
	<rect x="2178.88" y="411.99" width="1611.82" height="576.18" style="fill:none;stroke:#000000;stroke-width:3.24"/>
	<line x1="2177.26" y1="989.78" x2="3792.32" y2="989.78" style="stroke:#E0E0E0;stroke-width:4.86"/>
	<line x1="2177.26" y1="885.21" x2="3792.32" y2="885.21" style="stroke:#E0E0E0;stroke-width:4.86"/>
	<line x1="2177.26" y1="780.64" x2="3792.32" y2="780.64" style="stroke:#E0E0E0;stroke-width:4.86"/>
	<line x1="2177.26" y1="676.19" x2="3792.32" y2="676.19" style="stroke:#E0E0E0;stroke-width:4.86"/>
	<line x1="2177.26" y1="571.62" x2="3792.32" y2="571.62" style="stroke:#E0E0E0;stroke-width:4.86"/>
	<line x1="2177.26" y1="467.05" x2="3792.32" y2="467.05" style="stroke:#E0E0E0;stroke-width:4.86"/>
	<rect x="2252.25" y="525.09" width="91.33" height="464.70" style="fill:#606060"/>
	<rect x="2253.87" y="526.71" width="88.09" height="461.46" style="fill:none;stroke:#606060;stroke-width:3.24"/>
	<rect x="2404.83" y="641.29" width="91.45" height="348.49" style="fill:#606060"/>
	<rect x="2406.45" y="642.91" width="88.21" height="345.25" style="fill:none;stroke:#606060;stroke-width:3.24"/>
	<rect x="2557.42" y="757.50" width="91.45" height="232.29" style="fill:#606060"/>
	<rect x="2559.04" y="759.12" width="88.21" height="229.05" style="fill:none;stroke:#606060;stroke-width:3.24"/>
	<rect x="2710.13" y="757.50" width="91.33" height="232.29" style="fill:#606060"/>
	<rect x="2711.74" y="759.12" width="88.09" height="229.05" style="fill:none;stroke:#606060;stroke-width:3.24"/>
	<rect x="2862.71" y="873.58" width="91.45" height="116.20" style="fill:#606060"/>
	<rect x="2864.33" y="875.20" width="88.21" height="112.96" style="fill:none;stroke:#606060;stroke-width:3.24"/>
	<rect x="3015.42" y="873.58" width="91.33" height="116.20" style="fill:#606060"/>
	<rect x="3017.04" y="875.20" width="88.09" height="112.96" style="fill:none;stroke:#606060;stroke-width:3.24"/>
	<rect x="3168.00" y="873.58" width="91.45" height="116.20" style="fill:#606060"/>
	<rect x="3169.62" y="875.20" width="88.21" height="112.96" style="fill:none;stroke:#606060;stroke-width:3.24"/>
	<rect x="3320.71" y="873.58" width="91.33" height="116.20" style="fill:#606060"/>
	<rect x="3322.33" y="875.20" width="88.09" height="112.96" style="fill:none;stroke:#606060;stroke-width:3.24"/>
	<rect x="3473.29" y="873.58" width="91.45" height="116.20" style="fill:#606060"/>
	<rect x="3474.91" y="875.20" width="88.21" height="112.96" style="fill:none;stroke:#606060;stroke-width:3.24"/>
	<rect x="3625.88" y="873.58" width="91.45" height="116.20" style="fill:#606060"/>
	<rect x="3627.49" y="875.20" width="88.21" height="112.96" style="fill:none;stroke:#606060;stroke-width:3.24"/>
	<line x1="2177.26" y1="989.78" x2="2177.26" y2="410.37" style="stroke:#000000;stroke-width:3.24"/>
	<line x1="2177.26" y1="989.78" x2="2154.74" y2="989.78" style="stroke:#000000;stroke-width:3.24"/>
	<text x="2129.90" y="989.78" style="font-family:'Helvetica';font-size:45.05px;fill:#000000" transform="rotate(-90 2129.90,989.78)" text-anchor="middle">0</text>
	<line x1="2177.26" y1="885.21" x2="2154.74" y2="885.21" style="stroke:#000000;stroke-width:3.24"/>
	<text x="2129.90" y="885.21" style="font-family:'Helvetica';font-size:45.05px;fill:#000000" transform="rotate(-90 2129.90,885.21)" text-anchor="middle">10</text>
	<line x1="2177.26" y1="780.64" x2="2154.74" y2="780.64" style="stroke:#000000;stroke-width:3.24"/>
	<text x="2129.90" y="780.64" style="font-family:'Helvetica';font-size:45.05px;fill:#000000" transform="rotate(-90 2129.90,780.64)" text-anchor="middle">20</text>
	<line x1="2177.26" y1="676.19" x2="2154.74" y2="676.19" style="stroke:#000000;stroke-width:3.24"/>
	<text x="2129.90" y="676.19" style="font-family:'Helvetica';font-size:45.05px;fill:#000000" transform="rotate(-90 2129.90,676.19)" text-anchor="middle">30</text>
	<line x1="2177.26" y1="571.62" x2="2154.74" y2="571.62" style="stroke:#000000;stroke-width:3.24"/>
	<text x="2129.90" y="571.62" style="font-family:'Helvetica';font-size:45.05px;fill:#000000" transform="rotate(-90 2129.90,571.62)" text-anchor="middle">40</text>
	<line x1="2177.26" y1="467.05" x2="2154.74" y2="467.05" style="stroke:#000000;stroke-width:3.24"/>
	<text x="2129.90" y="467.05" style="font-family:'Helvetica';font-size:45.05px;fill:#000000" transform="rotate(-90 2129.90,467.05)" text-anchor="middle">50</text>
	<text x="2079.28" y="700.08" style="font-family:'Helvetica';font-size:45.05px;fill:#000000" transform="rotate(-90 2079.28,700.08)" text-anchor="middle">Percentage</text>
	<line x1="2177.26" y1="989.78" x2="3792.32" y2="989.78" style="stroke:#000000;stroke-width:3.24"/>
	<text x="2313.71" y="1012.31" style="font-family:'Helvetica';font-size:45.05px;fill:#000000" transform="rotate(-90 2313.71,1012.31)" text-anchor="end">Demonetisation</text>
	<text x="2466.29" y="1012.31" style="font-family:'Helvetica';font-size:45.05px;fill:#000000" transform="rotate(-90 2466.29,1012.31)" text-anchor="end">Networks</text>
	<text x="2619.00" y="1012.31" style="font-family:'Helvetica';font-size:45.05px;fill:#000000" transform="rotate(-90 2619.00,1012.31)" text-anchor="end">Employment</text>
	<text x="2771.59" y="1012.31" style="font-family:'Helvetica';font-size:45.05px;fill:#000000" transform="rotate(-90 2771.59,1012.31)" text-anchor="end">Inequality</text>
	<text x="2924.29" y="1012.31" style="font-family:'Helvetica';font-size:45.05px;fill:#000000" transform="rotate(-90 2924.29,1012.31)" text-anchor="end">Covid</text>
	<text x="3076.88" y="1012.31" style="font-family:'Helvetica';font-size:45.05px;fill:#000000" transform="rotate(-90 3076.88,1012.31)" text-anchor="end">Gender</text>
	<text x="3229.46" y="1012.31" style="font-family:'Helvetica';font-size:45.05px;fill:#000000" transform="rotate(-90 3229.46,1012.31)" text-anchor="end">Income</text>
	<text x="3382.17" y="1012.31" style="font-family:'Helvetica';font-size:45.05px;fill:#000000" transform="rotate(-90 3382.17,1012.31)" text-anchor="end">Personality</text>
	<text x="3534.75" y="1012.31" style="font-family:'Helvetica';font-size:45.05px;fill:#000000" transform="rotate(-90 3534.75,1012.31)" text-anchor="end">Trust</text>
	<text x="3687.46" y="1012.31" style="font-family:'Helvetica';font-size:45.05px;fill:#000000" transform="rotate(-90 3687.46,1012.31)" text-anchor="end">Wealth</text>
	<text x="2984.73" y="376.92" style="font-family:'Helvetica';font-size:78.70px;fill:#000000" text-anchor="middle">Topics</text>
	<rect x="63.36" y="1465.00" width="3833.16" height="1257.09" style="fill:#FFFFFF"/>
	<rect x="65.52" y="1467.16" width="3828.84" height="1252.77" style="fill:none;stroke:#FFFFFF;stroke-width:4.32"/>
	<rect x="110.88" y="1512.52" width="1869.12" height="1162.05" style="fill:#FFFFFF"/>
	<rect x="112.50" y="1514.14" width="1865.88" height="1158.81" style="fill:none;stroke:#FFFFFF;stroke-width:3.24"/>
	<rect x="309.76" y="1669.08" width="1611.82" height="477.79" style="fill:none;stroke:#000000;stroke-width:3.24"/>
	<line x1="308.14" y1="2148.49" x2="1923.20" y2="2148.49" style="stroke:#E0E0E0;stroke-width:4.86"/>
	<line x1="308.14" y1="2007.04" x2="1923.20" y2="2007.04" style="stroke:#E0E0E0;stroke-width:4.86"/>
	<line x1="308.14" y1="1865.59" x2="1923.20" y2="1865.59" style="stroke:#E0E0E0;stroke-width:4.86"/>
	<rect x="391.17" y="1865.59" width="131.55" height="282.90" style="fill:#606060"/>
	<rect x="392.79" y="1867.21" width="128.31" height="279.66" style="fill:none;stroke:#606060;stroke-width:3.24"/>
	<rect x="610.71" y="1865.59" width="131.55" height="282.90" style="fill:#606060"/>
	<rect x="612.33" y="1867.21" width="128.31" height="279.66" style="fill:none;stroke:#606060;stroke-width:3.24"/>
	<rect x="830.36" y="2007.04" width="131.55" height="141.45" style="fill:#606060"/>
	<rect x="831.98" y="2008.66" width="128.31" height="138.21" style="fill:none;stroke:#606060;stroke-width:3.24"/>
	<rect x="1049.90" y="2007.04" width="131.55" height="141.45" style="fill:#606060"/>
	<rect x="1051.51" y="2008.66" width="128.31" height="138.21" style="fill:none;stroke:#606060;stroke-width:3.24"/>
	<rect x="1269.55" y="2007.04" width="131.55" height="141.45" style="fill:#606060"/>
	<rect x="1271.17" y="2008.66" width="128.31" height="138.21" style="fill:none;stroke:#606060;stroke-width:3.24"/>
	<rect x="1489.21" y="2007.04" width="131.42" height="141.45" style="fill:#606060"/>
	<rect x="1490.83" y="2008.66" width="128.18" height="138.21" style="fill:none;stroke:#606060;stroke-width:3.24"/>
	<rect x="1708.74" y="2007.04" width="131.55" height="141.45" style="fill:#606060"/>
	<rect x="1710.36" y="2008.66" width="128.31" height="138.21" style="fill:none;stroke:#606060;stroke-width:3.24"/>
	<line x1="308.14" y1="2148.49" x2="308.14" y2="1667.46" style="stroke:#000000;stroke-width:3.24"/>
	<line x1="308.14" y1="2148.49" x2="285.62" y2="2148.49" style="stroke:#000000;stroke-width:3.24"/>
	<text x="260.90" y="2148.49" style="font-family:'Helvetica';font-size:45.05px;fill:#000000" transform="rotate(-90 260.90,2148.49)" text-anchor="middle">0</text>
	<line x1="308.14" y1="2007.04" x2="285.62" y2="2007.04" style="stroke:#000000;stroke-width:3.24"/>
	<text x="260.90" y="2007.04" style="font-family:'Helvetica';font-size:45.05px;fill:#000000" transform="rotate(-90 260.90,2007.04)" text-anchor="middle">1</text>
	<line x1="308.14" y1="1865.59" x2="285.62" y2="1865.59" style="stroke:#000000;stroke-width:3.24"/>
	<text x="260.90" y="1865.59" style="font-family:'Helvetica';font-size:45.05px;fill:#000000" transform="rotate(-90 260.90,1865.59)" text-anchor="middle">2</text>
	<line x1="308.14" y1="1724.14" x2="285.62" y2="1724.14" style="stroke:#000000;stroke-width:3.24"/>
	<text x="260.90" y="1724.14" style="font-family:'Helvetica';font-size:45.05px;fill:#000000" transform="rotate(-90 260.90,1724.14)" text-anchor="middle">3</text>
	<text x="210.29" y="1907.91" style="font-family:'Helvetica';font-size:45.05px;fill:#000000" transform="rotate(-90 210.29,1907.91)" text-anchor="middle">Number</text>
	<line x1="308.14" y1="2148.49" x2="1923.20" y2="2148.49" style="stroke:#000000;stroke-width:3.24"/>
	<text x="472.68" y="2171.01" style="font-family:'Helvetica';font-size:45.05px;fill:#000000" transform="rotate(-90 472.68,2171.01)" text-anchor="end">DIALOGUE</text>
	<text x="692.34" y="2171.01" style="font-family:'Helvetica';font-size:45.05px;fill:#000000" transform="rotate(-90 692.34,2171.01)" text-anchor="end">MSH-Bx</text>
	<text x="911.87" y="2171.01" style="font-family:'Helvetica';font-size:45.05px;fill:#000000" transform="rotate(-90 911.87,2171.01)" text-anchor="end">Dauphine eclairages</text>
	<text x="1131.53" y="2171.01" style="font-family:'Helvetica';font-size:45.05px;fill:#000000" transform="rotate(-90 1131.53,2171.01)" text-anchor="end">IRD Le Mag</text>
	<text x="1351.06" y="2171.01" style="font-family:'Helvetica';font-size:45.05px;fill:#000000" transform="rotate(-90 1351.06,2171.01)" text-anchor="end">Ideas for India</text>
	<text x="1570.72" y="2171.01" style="font-family:'Helvetica';font-size:45.05px;fill:#000000" transform="rotate(-90 1570.72,2171.01)" text-anchor="end">Survey CTO</text>
	<text x="1790.25" y="2171.01" style="font-family:'Helvetica';font-size:45.05px;fill:#000000" transform="rotate(-90 1790.25,2171.01)" text-anchor="end">The Conversation</text>
	<text x="1115.73" y="1634.01" style="font-family:'Helvetica';font-size:78.70px;fill:#000000" text-anchor="middle">Where?</text>
	<rect x="1980.00" y="1512.52" width="1869.00" height="1162.05" style="fill:#FFFFFF"/>
	<rect x="1981.62" y="1514.14" width="1865.76" height="1158.81" style="fill:none;stroke:#FFFFFF;stroke-width:3.24"/>
	<rect x="2178.88" y="1669.08" width="1611.82" height="750.67" style="fill:none;stroke:#000000;stroke-width:3.24"/>
	<line x1="2177.26" y1="2421.37" x2="3792.32" y2="2421.37" style="stroke:#E0E0E0;stroke-width:4.86"/>
	<line x1="2177.26" y1="2222.12" x2="3792.32" y2="2222.12" style="stroke:#E0E0E0;stroke-width:4.86"/>
	<line x1="2177.26" y1="2023.00" x2="3792.32" y2="2023.00" style="stroke:#E0E0E0;stroke-width:4.86"/>
	<line x1="2177.26" y1="1823.76" x2="3792.32" y2="1823.76" style="stroke:#E0E0E0;stroke-width:4.86"/>
	<rect x="2331.70" y="2089.34" width="489.18" height="332.03" style="fill:#606060"/>
	<rect x="2333.32" y="2090.96" width="485.94" height="328.79" style="fill:none;stroke:#606060;stroke-width:3.24"/>
	<rect x="3148.57" y="1757.30" width="489.18" height="664.06" style="fill:#606060"/>
	<rect x="3150.19" y="1758.92" width="485.94" height="660.82" style="fill:none;stroke:#606060;stroke-width:3.24"/>
	<line x1="2177.26" y1="2421.37" x2="2177.26" y2="1667.46" style="stroke:#000000;stroke-width:3.24"/>
	<line x1="2177.26" y1="2421.37" x2="2154.74" y2="2421.37" style="stroke:#000000;stroke-width:3.24"/>
	<text x="2129.90" y="2421.37" style="font-family:'Helvetica';font-size:45.05px;fill:#000000" transform="rotate(-90 2129.90,2421.37)" text-anchor="middle">0</text>
	<line x1="2177.26" y1="2222.12" x2="2154.74" y2="2222.12" style="stroke:#000000;stroke-width:3.24"/>
	<text x="2129.90" y="2222.12" style="font-family:'Helvetica';font-size:45.05px;fill:#000000" transform="rotate(-90 2129.90,2222.12)" text-anchor="middle">20</text>
	<line x1="2177.26" y1="2023.00" x2="2154.74" y2="2023.00" style="stroke:#000000;stroke-width:3.24"/>
	<text x="2129.90" y="2023.00" style="font-family:'Helvetica';font-size:45.05px;fill:#000000" transform="rotate(-90 2129.90,2023.00)" text-anchor="middle">40</text>
	<line x1="2177.26" y1="1823.76" x2="2154.74" y2="1823.76" style="stroke:#000000;stroke-width:3.24"/>
	<text x="2129.90" y="1823.76" style="font-family:'Helvetica';font-size:45.05px;fill:#000000" transform="rotate(-90 2129.90,1823.76)" text-anchor="middle">60</text>
	<text x="2079.28" y="2044.41" style="font-family:'Helvetica';font-size:45.05px;fill:#000000" transform="rotate(-90 2079.28,2044.41)" text-anchor="middle">Number</text>
	<line x1="2177.26" y1="2421.37" x2="3792.32" y2="2421.37" style="stroke:#000000;stroke-width:3.24"/>
	<text x="2592.15" y="2443.89" style="font-family:'Helvetica';font-size:45.05px;fill:#000000" transform="rotate(-90 2592.15,2443.89)" text-anchor="end">English</text>
	<text x="3409.02" y="2443.89" style="font-family:'Helvetica';font-size:45.05px;fill:#000000" transform="rotate(-90 3409.02,2443.89)" text-anchor="end">French</text>
	<text x="2984.73" y="1634.01" style="font-family:'Helvetica';font-size:78.70px;fill:#000000" text-anchor="middle">Language</text>
	<text x="80.69" y="2781.24" style="fill:#000000">
		<tspan style="font-family:'Helvetica';font-style:italic;font-size:60.02px">Source:</tspan>
		<tspan style="font-family:'Helvetica';font-size:60.02px"> A. Natal. Updated in October 2025.</tspan>
	</text>
	<text x="1980.00" y="157.51" style="font-family:'Helvetica';font-size:110.01px;fill:#000000" text-anchor="middle">Blog posts (N=9)</text>
</svg>
