<?xml version="1.0" encoding="UTF-8" standalone="no"?>
<!-- This is a Stata 15.1 generated SVG file (http://www.stata.com) -->

<svg version="1.1" width="6.00in" height="4.00in" viewBox="0 0 4320 2880" xmlns="http://www.w3.org/2000/svg" xmlns:xlink="http://www.w3.org/1999/xlink">
	<desc>Stata Graph - pub</desc>
	<rect x="0" y="0" width="4320" height="2880" style="fill:#FFFFFF;stroke:none"/>
	<rect x="0.00" y="0.00" width="4320.00" height="2880.00" style="fill:#FFFFFF"/>
	<rect x="2.88" y="2.88" width="4314.24" height="2874.24" style="fill:none;stroke:#FFFFFF;stroke-width:5.76"/>
	<rect x="63.31" y="207.90" width="4193.24" height="1257.14" style="fill:#FFFFFF"/>
	<rect x="65.47" y="210.06" width="4188.92" height="1252.82" style="fill:none;stroke:#FFFFFF;stroke-width:4.32"/>
	<rect x="110.83" y="255.42" width="2049.17" height="1162.10" style="fill:#FFFFFF"/>
	<rect x="112.45" y="257.04" width="2045.93" height="1158.86" style="fill:none;stroke:#FFFFFF;stroke-width:3.24"/>
	<rect x="302.54" y="387.86" width="1800.77" height="804.21" style="fill:#E0E0E0"/>
	<rect x="304.15" y="389.48" width="1797.53" height="800.97" style="fill:none;stroke:#FFFFFF;stroke-width:3.24"/>
	<line x1="302.54" y1="912.07" x2="2103.30" y2="912.07" style="stroke:#FFFFFF;stroke-width:3.24"/>
	<line x1="302.54" y1="667.72" x2="2103.30" y2="667.72" style="stroke:#FFFFFF;stroke-width:3.24"/>
	<line x1="520.29" y1="1192.07" x2="520.29" y2="387.86" style="stroke:#FFFFFF;stroke-width:3.24"/>
	<line x1="702.27" y1="1192.07" x2="702.27" y2="387.86" style="stroke:#FFFFFF;stroke-width:3.24"/>
	<line x1="884.38" y1="1192.07" x2="884.38" y2="387.86" style="stroke:#FFFFFF;stroke-width:3.24"/>
	<line x1="1066.37" y1="1192.07" x2="1066.37" y2="387.86" style="stroke:#FFFFFF;stroke-width:3.24"/>
	<line x1="1248.48" y1="1192.07" x2="1248.48" y2="387.86" style="stroke:#FFFFFF;stroke-width:3.24"/>
	<line x1="1430.46" y1="1192.07" x2="1430.46" y2="387.86" style="stroke:#FFFFFF;stroke-width:3.24"/>
	<line x1="1612.58" y1="1192.07" x2="1612.58" y2="387.86" style="stroke:#FFFFFF;stroke-width:3.24"/>
	<line x1="1794.56" y1="1192.07" x2="1794.56" y2="387.86" style="stroke:#FFFFFF;stroke-width:3.24"/>
	<line x1="1976.67" y1="1192.07" x2="1976.67" y2="387.86" style="stroke:#FFFFFF;stroke-width:3.24"/>
	<rect x="429.17" y="667.72" width="182.11" height="488.71" style="fill:#B8B8B8"/>
	<rect x="430.78" y="669.34" width="178.88" height="485.47" style="fill:none;stroke:#000000;stroke-width:3.24"/>
	<rect x="611.28" y="912.07" width="181.98" height="244.35" style="fill:#B8B8B8"/>
	<rect x="612.90" y="913.69" width="178.74" height="241.11" style="fill:none;stroke:#000000;stroke-width:3.24"/>
	<rect x="793.26" y="912.07" width="182.12" height="244.35" style="fill:#B8B8B8"/>
	<rect x="794.88" y="913.69" width="178.88" height="241.11" style="fill:none;stroke:#000000;stroke-width:3.24"/>
	<rect x="975.38" y="912.07" width="181.98" height="244.35" style="fill:#B8B8B8"/>
	<rect x="976.99" y="913.69" width="178.74" height="241.11" style="fill:none;stroke:#000000;stroke-width:3.24"/>
	<rect x="1339.47" y="912.07" width="181.98" height="244.35" style="fill:#B8B8B8"/>
	<rect x="1341.09" y="913.69" width="178.74" height="241.11" style="fill:none;stroke:#000000;stroke-width:3.24"/>
	<rect x="1703.57" y="667.72" width="181.98" height="488.71" style="fill:#B8B8B8"/>
	<rect x="1705.18" y="669.34" width="178.74" height="485.47" style="fill:none;stroke:#000000;stroke-width:3.24"/>
	<rect x="1885.55" y="912.07" width="182.11" height="244.35" style="fill:#B8B8B8"/>
	<rect x="1887.16" y="913.69" width="178.88" height="241.11" style="fill:none;stroke:#000000;stroke-width:3.24"/>
	<line x1="302.54" y1="912.07" x2="279.99" y2="912.07" style="stroke:#606060;stroke-width:3.24"/>
	<text x="268.79" y="927.84" style="font-family:'Helvetica';font-size:44.95px;fill:#606060" text-anchor="end">1</text>
	<line x1="302.54" y1="667.72" x2="279.99" y2="667.72" style="stroke:#606060;stroke-width:3.24"/>
	<text x="268.79" y="683.49" style="font-family:'Helvetica';font-size:44.95px;fill:#606060" text-anchor="end">2</text>
	<line x1="302.54" y1="423.50" x2="279.99" y2="423.50" style="stroke:#606060;stroke-width:3.24"/>
	<text x="268.79" y="439.27" style="font-family:'Helvetica';font-size:44.95px;fill:#606060" text-anchor="end">3</text>
	<text x="210.28" y="789.90" style="font-family:'Helvetica';font-size:44.95px;fill:#000000" transform="rotate(-90 210.28,789.90)" text-anchor="middle">Number</text>
	<line x1="338.18" y1="1192.07" x2="338.18" y2="1214.61" style="stroke:#606060;stroke-width:3.24"/>
	<text x="353.94" y="1225.82" style="font-family:'Helvetica';font-size:44.95px;fill:#606060" transform="rotate(-90 353.94,1225.82)" text-anchor="end">2016</text>
	<line x1="520.29" y1="1192.07" x2="520.29" y2="1214.61" style="stroke:#606060;stroke-width:3.24"/>
	<text x="536.06" y="1225.82" style="font-family:'Helvetica';font-size:44.95px;fill:#606060" transform="rotate(-90 536.06,1225.82)" text-anchor="end">2017</text>
	<line x1="702.27" y1="1192.07" x2="702.27" y2="1214.61" style="stroke:#606060;stroke-width:3.24"/>
	<text x="718.04" y="1225.82" style="font-family:'Helvetica';font-size:44.95px;fill:#606060" transform="rotate(-90 718.04,1225.82)" text-anchor="end">2018</text>
	<line x1="884.38" y1="1192.07" x2="884.38" y2="1214.61" style="stroke:#606060;stroke-width:3.24"/>
	<text x="900.15" y="1225.82" style="font-family:'Helvetica';font-size:44.95px;fill:#606060" transform="rotate(-90 900.15,1225.82)" text-anchor="end">2019</text>
	<line x1="1066.37" y1="1192.07" x2="1066.37" y2="1214.61" style="stroke:#606060;stroke-width:3.24"/>
	<text x="1082.13" y="1225.82" style="font-family:'Helvetica';font-size:44.95px;fill:#606060" transform="rotate(-90 1082.13,1225.82)" text-anchor="end">2020</text>
	<line x1="1248.48" y1="1192.07" x2="1248.48" y2="1214.61" style="stroke:#606060;stroke-width:3.24"/>
	<text x="1264.25" y="1225.82" style="font-family:'Helvetica';font-size:44.95px;fill:#606060" transform="rotate(-90 1264.25,1225.82)" text-anchor="end">2021</text>
	<line x1="1430.46" y1="1192.07" x2="1430.46" y2="1214.61" style="stroke:#606060;stroke-width:3.24"/>
	<text x="1446.23" y="1225.82" style="font-family:'Helvetica';font-size:44.95px;fill:#606060" transform="rotate(-90 1446.23,1225.82)" text-anchor="end">2022</text>
	<line x1="1612.58" y1="1192.07" x2="1612.58" y2="1214.61" style="stroke:#606060;stroke-width:3.24"/>
	<text x="1628.34" y="1225.82" style="font-family:'Helvetica';font-size:44.95px;fill:#606060" transform="rotate(-90 1628.34,1225.82)" text-anchor="end">2023</text>
	<line x1="1794.56" y1="1192.07" x2="1794.56" y2="1214.61" style="stroke:#606060;stroke-width:3.24"/>
	<text x="1810.32" y="1225.82" style="font-family:'Helvetica';font-size:44.95px;fill:#606060" transform="rotate(-90 1810.32,1225.82)" text-anchor="end">2024</text>
	<line x1="1976.67" y1="1192.07" x2="1976.67" y2="1214.61" style="stroke:#606060;stroke-width:3.24"/>
	<text x="1992.44" y="1225.82" style="font-family:'Helvetica';font-size:44.95px;fill:#606060" transform="rotate(-90 1992.44,1225.82)" text-anchor="end">2025</text>
	<text x="1202.85" y="361.18" style="font-family:'Helvetica';font-size:56.30px;fill:#000000" text-anchor="middle">Over the years</text>
	<rect x="2160.00" y="255.42" width="2049.03" height="1162.10" style="fill:#FFFFFF"/>
	<rect x="2161.62" y="257.04" width="2045.79" height="1158.86" style="fill:none;stroke:#FFFFFF;stroke-width:3.24"/>
	<rect x="2377.89" y="387.86" width="1774.44" height="601.97" style="fill:#E0E0E0"/>
	<rect x="2379.51" y="389.48" width="1771.20" height="598.73" style="fill:none;stroke:#FFFFFF;stroke-width:3.24"/>
	<line x1="2377.89" y1="989.84" x2="4152.33" y2="989.84" style="stroke:#FFFFFF;stroke-width:3.24"/>
	<line x1="2377.89" y1="880.75" x2="4152.33" y2="880.75" style="stroke:#FFFFFF;stroke-width:3.24"/>
	<line x1="2377.89" y1="771.67" x2="4152.33" y2="771.67" style="stroke:#FFFFFF;stroke-width:3.24"/>
	<line x1="2377.89" y1="662.59" x2="4152.33" y2="662.59" style="stroke:#FFFFFF;stroke-width:3.24"/>
	<line x1="2377.89" y1="553.64" x2="4152.33" y2="553.64" style="stroke:#FFFFFF;stroke-width:3.24"/>
	<line x1="2377.89" y1="444.56" x2="4152.33" y2="444.56" style="stroke:#FFFFFF;stroke-width:3.24"/>
	<rect x="2454.84" y="505.18" width="101.11" height="484.66" style="fill:#808080"/>
	<rect x="2456.46" y="506.80" width="97.88" height="481.42" style="fill:none;stroke:#000000;stroke-width:3.24"/>
	<rect x="2623.59" y="626.27" width="101.11" height="363.56" style="fill:#808080"/>
	<rect x="2625.21" y="627.89" width="97.88" height="360.32" style="fill:none;stroke:#000000;stroke-width:3.24"/>
	<rect x="2792.47" y="747.51" width="101.12" height="242.33" style="fill:#808080"/>
	<rect x="2794.09" y="749.13" width="97.88" height="239.09" style="fill:none;stroke:#000000;stroke-width:3.24"/>
	<rect x="2961.36" y="747.51" width="101.11" height="242.33" style="fill:#808080"/>
	<rect x="2962.98" y="749.13" width="97.88" height="239.09" style="fill:none;stroke:#000000;stroke-width:3.24"/>
	<rect x="3130.11" y="868.60" width="101.11" height="121.23" style="fill:#808080"/>
	<rect x="3131.73" y="870.22" width="97.88" height="117.99" style="fill:none;stroke:#000000;stroke-width:3.24"/>
	<rect x="3298.99" y="868.60" width="101.12" height="121.23" style="fill:#808080"/>
	<rect x="3300.61" y="870.22" width="97.88" height="117.99" style="fill:none;stroke:#000000;stroke-width:3.24"/>
	<rect x="3467.88" y="868.60" width="100.98" height="121.23" style="fill:#808080"/>
	<rect x="3469.50" y="870.22" width="97.74" height="117.99" style="fill:none;stroke:#000000;stroke-width:3.24"/>
	<rect x="3636.63" y="868.60" width="101.11" height="121.23" style="fill:#808080"/>
	<rect x="3638.25" y="870.22" width="97.88" height="117.99" style="fill:none;stroke:#000000;stroke-width:3.24"/>
	<rect x="3805.51" y="868.60" width="101.12" height="121.23" style="fill:#808080"/>
	<rect x="3807.13" y="870.22" width="97.88" height="117.99" style="fill:none;stroke:#000000;stroke-width:3.24"/>
	<rect x="3974.40" y="868.60" width="100.98" height="121.23" style="fill:#808080"/>
	<rect x="3976.02" y="870.22" width="97.74" height="117.99" style="fill:none;stroke:#000000;stroke-width:3.24"/>
	<line x1="2377.89" y1="989.84" x2="2355.34" y2="989.84" style="stroke:#606060;stroke-width:3.24"/>
	<text x="2344.14" y="1005.60" style="font-family:'Helvetica';font-size:44.95px;fill:#606060" text-anchor="end">0</text>
	<line x1="2377.89" y1="880.75" x2="2355.34" y2="880.75" style="stroke:#606060;stroke-width:3.24"/>
	<text x="2344.14" y="896.52" style="font-family:'Helvetica';font-size:44.95px;fill:#606060" text-anchor="end">10</text>
	<line x1="2377.89" y1="771.67" x2="2355.34" y2="771.67" style="stroke:#606060;stroke-width:3.24"/>
	<text x="2344.14" y="787.44" style="font-family:'Helvetica';font-size:44.95px;fill:#606060" text-anchor="end">20</text>
	<line x1="2377.89" y1="662.59" x2="2355.34" y2="662.59" style="stroke:#606060;stroke-width:3.24"/>
	<text x="2344.14" y="678.36" style="font-family:'Helvetica';font-size:44.95px;fill:#606060" text-anchor="end">30</text>
	<line x1="2377.89" y1="553.64" x2="2355.34" y2="553.64" style="stroke:#606060;stroke-width:3.24"/>
	<text x="2344.14" y="569.41" style="font-family:'Helvetica';font-size:44.95px;fill:#606060" text-anchor="end">40</text>
	<line x1="2377.89" y1="444.56" x2="2355.34" y2="444.56" style="stroke:#606060;stroke-width:3.24"/>
	<text x="2344.14" y="460.33" style="font-family:'Helvetica';font-size:44.95px;fill:#606060" text-anchor="end">50</text>
	<line x1="2377.89" y1="989.84" x2="2377.89" y2="444.56" style="stroke:#000000;stroke-width:3.24"/>
	<text x="2259.31" y="688.78" style="font-family:'Helvetica';font-size:44.95px;fill:#000000" transform="rotate(-90 2259.31,688.78)" text-anchor="middle">Percentage</text>
	<text x="2521.10" y="1012.25" style="font-family:'Helvetica';font-size:44.95px;fill:#606060" transform="rotate(-90 2521.10,1012.25)" text-anchor="end">Demonetisation</text>
	<text x="2689.98" y="1012.25" style="font-family:'Helvetica';font-size:44.95px;fill:#606060" transform="rotate(-90 2689.98,1012.25)" text-anchor="end">Networks</text>
	<text x="2858.73" y="1012.25" style="font-family:'Helvetica';font-size:44.95px;fill:#606060" transform="rotate(-90 2858.73,1012.25)" text-anchor="end">Employment</text>
	<text x="3027.62" y="1012.25" style="font-family:'Helvetica';font-size:44.95px;fill:#606060" transform="rotate(-90 3027.62,1012.25)" text-anchor="end">Inequality</text>
	<text x="3196.50" y="1012.25" style="font-family:'Helvetica';font-size:44.95px;fill:#606060" transform="rotate(-90 3196.50,1012.25)" text-anchor="end">Covid</text>
	<text x="3365.25" y="1012.25" style="font-family:'Helvetica';font-size:44.95px;fill:#606060" transform="rotate(-90 3365.25,1012.25)" text-anchor="end">Gender</text>
	<text x="3534.14" y="1012.25" style="font-family:'Helvetica';font-size:44.95px;fill:#606060" transform="rotate(-90 3534.14,1012.25)" text-anchor="end">Income</text>
	<text x="3703.02" y="1012.25" style="font-family:'Helvetica';font-size:44.95px;fill:#606060" transform="rotate(-90 3703.02,1012.25)" text-anchor="end">Personality</text>
	<text x="3871.77" y="1012.25" style="font-family:'Helvetica';font-size:44.95px;fill:#606060" transform="rotate(-90 3871.77,1012.25)" text-anchor="end">Trust</text>
	<text x="4040.66" y="1012.25" style="font-family:'Helvetica';font-size:44.95px;fill:#606060" transform="rotate(-90 4040.66,1012.25)" text-anchor="end">Wealth</text>
	<text x="3265.11" y="361.18" style="font-family:'Helvetica';font-size:56.30px;fill:#000000" text-anchor="middle">Topics</text>
	<rect x="63.31" y="1465.04" width="4193.24" height="1257.00" style="fill:#FFFFFF"/>
	<rect x="65.47" y="1467.20" width="4188.92" height="1252.68" style="fill:none;stroke:#FFFFFF;stroke-width:4.32"/>
	<rect x="110.83" y="1512.56" width="2049.17" height="1161.96" style="fill:#FFFFFF"/>
	<rect x="112.45" y="1514.18" width="2045.93" height="1158.72" style="fill:none;stroke:#FFFFFF;stroke-width:3.24"/>
	<rect x="302.54" y="1644.87" width="1800.77" height="503.56" style="fill:#E0E0E0"/>
	<rect x="304.15" y="1646.49" width="1797.53" height="500.32" style="fill:none;stroke:#FFFFFF;stroke-width:3.24"/>
	<line x1="302.54" y1="2148.42" x2="2103.30" y2="2148.42" style="stroke:#FFFFFF;stroke-width:3.24"/>
	<line x1="302.54" y1="1999.52" x2="2103.30" y2="1999.52" style="stroke:#FFFFFF;stroke-width:3.24"/>
	<line x1="302.54" y1="1850.61" x2="2103.30" y2="1850.61" style="stroke:#FFFFFF;stroke-width:3.24"/>
	<rect x="388.80" y="1850.61" width="147.69" height="297.81" style="fill:#808080"/>
	<rect x="390.42" y="1852.23" width="144.45" height="294.57" style="fill:none;stroke:#000000;stroke-width:3.24"/>
	<rect x="635.58" y="1850.61" width="147.69" height="297.81" style="fill:#808080"/>
	<rect x="637.20" y="1852.23" width="144.45" height="294.57" style="fill:none;stroke:#000000;stroke-width:3.24"/>
	<rect x="882.23" y="1999.52" width="147.82" height="148.91" style="fill:#808080"/>
	<rect x="883.84" y="2001.14" width="144.59" height="145.67" style="fill:none;stroke:#000000;stroke-width:3.24"/>
	<rect x="1129.01" y="1999.52" width="147.82" height="148.91" style="fill:#808080"/>
	<rect x="1130.62" y="2001.14" width="144.59" height="145.67" style="fill:none;stroke:#000000;stroke-width:3.24"/>
	<rect x="1375.79" y="1999.52" width="147.69" height="148.91" style="fill:#808080"/>
	<rect x="1377.40" y="2001.14" width="144.45" height="145.67" style="fill:none;stroke:#000000;stroke-width:3.24"/>
	<rect x="1622.57" y="1999.52" width="147.69" height="148.91" style="fill:#808080"/>
	<rect x="1624.18" y="2001.14" width="144.45" height="145.67" style="fill:none;stroke:#000000;stroke-width:3.24"/>
	<rect x="1869.21" y="1999.52" width="147.83" height="148.91" style="fill:#808080"/>
	<rect x="1870.83" y="2001.14" width="144.59" height="145.67" style="fill:none;stroke:#000000;stroke-width:3.24"/>
	<line x1="302.54" y1="2148.42" x2="279.99" y2="2148.42" style="stroke:#606060;stroke-width:3.24"/>
	<text x="268.79" y="2164.19" style="font-family:'Helvetica';font-size:44.95px;fill:#606060" text-anchor="end">0</text>
	<line x1="302.54" y1="1999.52" x2="279.99" y2="1999.52" style="stroke:#606060;stroke-width:3.24"/>
	<text x="268.79" y="2015.28" style="font-family:'Helvetica';font-size:44.95px;fill:#606060" text-anchor="end">1</text>
	<line x1="302.54" y1="1850.61" x2="279.99" y2="1850.61" style="stroke:#606060;stroke-width:3.24"/>
	<text x="268.79" y="1866.38" style="font-family:'Helvetica';font-size:44.95px;fill:#606060" text-anchor="end">2</text>
	<line x1="302.54" y1="1701.57" x2="279.99" y2="1701.57" style="stroke:#606060;stroke-width:3.24"/>
	<text x="268.79" y="1717.33" style="font-family:'Helvetica';font-size:44.95px;fill:#606060" text-anchor="end">3</text>
	<line x1="302.54" y1="2148.42" x2="302.54" y2="1701.57" style="stroke:#000000;stroke-width:3.24"/>
	<text x="210.28" y="1896.64" style="font-family:'Helvetica';font-size:44.95px;fill:#000000" transform="rotate(-90 210.28,1896.64)" text-anchor="middle">Number</text>
	<text x="478.41" y="2170.97" style="font-family:'Helvetica';font-size:44.95px;fill:#606060" transform="rotate(-90 478.41,2170.97)" text-anchor="end">DIALOGUE</text>
	<text x="725.19" y="2170.97" style="font-family:'Helvetica';font-size:44.95px;fill:#606060" transform="rotate(-90 725.19,2170.97)" text-anchor="end">MSH-Bx</text>
	<text x="971.97" y="2170.97" style="font-family:'Helvetica';font-size:44.95px;fill:#606060" transform="rotate(-90 971.97,2170.97)" text-anchor="end">Dauphine eclairages</text>
	<text x="1218.62" y="2170.97" style="font-family:'Helvetica';font-size:44.95px;fill:#606060" transform="rotate(-90 1218.62,2170.97)" text-anchor="end">IRD Le Mag</text>
	<text x="1465.40" y="2170.97" style="font-family:'Helvetica';font-size:44.95px;fill:#606060" transform="rotate(-90 1465.40,2170.97)" text-anchor="end">Ideas for India</text>
	<text x="1712.18" y="2170.97" style="font-family:'Helvetica';font-size:44.95px;fill:#606060" transform="rotate(-90 1712.18,2170.97)" text-anchor="end">Survey CTO</text>
	<text x="1958.96" y="2170.97" style="font-family:'Helvetica';font-size:44.95px;fill:#606060" transform="rotate(-90 1958.96,2170.97)" text-anchor="end">The Conversation</text>
	<text x="1202.85" y="1618.19" style="font-family:'Helvetica';font-size:56.30px;fill:#000000" text-anchor="middle">Where?</text>
	<rect x="2160.00" y="1512.56" width="2049.03" height="1161.96" style="fill:#FFFFFF"/>
	<rect x="2161.62" y="1514.18" width="2045.79" height="1158.72" style="fill:none;stroke:#FFFFFF;stroke-width:3.24"/>
	<rect x="2377.89" y="1644.87" width="1774.44" height="776.53" style="fill:#E0E0E0"/>
	<rect x="2379.51" y="1646.49" width="1771.20" height="773.29" style="fill:none;stroke:#FFFFFF;stroke-width:3.24"/>
	<line x1="2377.89" y1="2421.40" x2="4152.33" y2="2421.40" style="stroke:#FFFFFF;stroke-width:3.24"/>
	<line x1="2377.89" y1="2215.79" x2="4152.33" y2="2215.79" style="stroke:#FFFFFF;stroke-width:3.24"/>
	<line x1="2377.89" y1="2010.05" x2="4152.33" y2="2010.05" style="stroke:#FFFFFF;stroke-width:3.24"/>
	<line x1="2377.89" y1="1804.44" x2="4152.33" y2="1804.44" style="stroke:#FFFFFF;stroke-width:3.24"/>
	<rect x="2542.72" y="2078.63" width="541.08" height="342.77" style="fill:#808080"/>
	<rect x="2544.34" y="2080.25" width="537.84" height="339.53" style="fill:none;stroke:#000000;stroke-width:3.24"/>
	<rect x="3446.42" y="1735.86" width="541.08" height="685.54" style="fill:#808080"/>
	<rect x="3448.03" y="1737.48" width="537.84" height="682.30" style="fill:none;stroke:#000000;stroke-width:3.24"/>
	<line x1="2377.89" y1="2421.40" x2="2355.34" y2="2421.40" style="stroke:#606060;stroke-width:3.24"/>
	<text x="2344.14" y="2437.17" style="font-family:'Helvetica';font-size:44.95px;fill:#606060" text-anchor="end">0</text>
	<line x1="2377.89" y1="2215.79" x2="2355.34" y2="2215.79" style="stroke:#606060;stroke-width:3.24"/>
	<text x="2344.14" y="2231.56" style="font-family:'Helvetica';font-size:44.95px;fill:#606060" text-anchor="end">20</text>
	<line x1="2377.89" y1="2010.05" x2="2355.34" y2="2010.05" style="stroke:#606060;stroke-width:3.24"/>
	<text x="2344.14" y="2025.81" style="font-family:'Helvetica';font-size:44.95px;fill:#606060" text-anchor="end">40</text>
	<line x1="2377.89" y1="1804.44" x2="2355.34" y2="1804.44" style="stroke:#606060;stroke-width:3.24"/>
	<text x="2344.14" y="1820.21" style="font-family:'Helvetica';font-size:44.95px;fill:#606060" text-anchor="end">60</text>
	<line x1="2377.89" y1="2421.40" x2="2377.89" y2="1701.57" style="stroke:#000000;stroke-width:3.24"/>
	<text x="2259.31" y="2033.13" style="font-family:'Helvetica';font-size:44.95px;fill:#000000" transform="rotate(-90 2259.31,2033.13)" text-anchor="middle">Number</text>
	<text x="2829.03" y="2443.94" style="font-family:'Helvetica';font-size:44.95px;fill:#606060" transform="rotate(-90 2829.03,2443.94)" text-anchor="end">English</text>
	<text x="3732.72" y="2443.94" style="font-family:'Helvetica';font-size:44.95px;fill:#606060" transform="rotate(-90 3732.72,2443.94)" text-anchor="end">French</text>
	<text x="3265.11" y="1618.19" style="font-family:'Helvetica';font-size:56.30px;fill:#000000" text-anchor="middle">Language</text>
	<text x="80.59" y="2781.35" style="fill:#000000">
		<tspan style="font-family:'Helvetica';font-style:italic;font-size:59.94px">Source:</tspan>
		<tspan style="font-family:'Helvetica';font-size:59.94px"> A. Natal. Updated in October 2025.</tspan>
	</text>
	<text x="2160.00" y="157.55" style="font-family:'Helvetica';font-size:110.03px;fill:#000000" text-anchor="middle">Blog posts (N=9)</text>
</svg>
