<?xml version="1.0" encoding="UTF-8" standalone="no"?>
<!-- This is a Stata 15.1 generated SVG file (http://www.stata.com) -->

<svg version="1.1" width="5.50in" height="4.00in" viewBox="0 0 3960 2880" xmlns="http://www.w3.org/2000/svg" xmlns:xlink="http://www.w3.org/1999/xlink">
	<desc>Stata Graph - pub</desc>
	<rect x="0" y="0" width="3960" height="2880" style="fill:#FFFFFF;stroke:none"/>
	<rect x="0.00" y="0.00" width="3959.88" height="2880.00" style="fill:#FFFFFF"/>
	<rect x="2.88" y="2.88" width="3954.12" height="2874.24" style="fill:none;stroke:#FFFFFF;stroke-width:5.76"/>
	<rect x="63.36" y="207.91" width="3833.16" height="1257.09" style="fill:#FFFFFF"/>
	<rect x="65.52" y="210.07" width="3828.84" height="1252.77" style="fill:none;stroke:#FFFFFF;stroke-width:4.32"/>
	<rect x="110.88" y="255.43" width="1869.12" height="1162.05" style="fill:#FFFFFF"/>
	<rect x="112.50" y="257.05" width="1865.88" height="1158.81" style="fill:none;stroke:#FFFFFF;stroke-width:3.24"/>
	<rect x="309.76" y="411.99" width="1611.82" height="778.51" style="fill:none;stroke:#000000;stroke-width:3.24"/>
	<line x1="308.14" y1="801.18" x2="1923.20" y2="801.18" style="stroke:#E0E0E0;stroke-width:4.86"/>
	<rect x="343.78" y="801.18" width="154.44" height="355.30" style="fill:#808080"/>
	<rect x="346.21" y="803.61" width="149.58" height="350.44" style="fill:none;stroke:#000000;stroke-width:4.86"/>
	<rect x="652.53" y="801.18" width="154.44" height="355.30" style="fill:#808080"/>
	<rect x="654.96" y="803.61" width="149.58" height="350.44" style="fill:none;stroke:#000000;stroke-width:4.86"/>
	<rect x="1115.73" y="801.18" width="154.32" height="355.30" style="fill:#808080"/>
	<rect x="1118.16" y="803.61" width="149.46" height="350.44" style="fill:none;stroke:#000000;stroke-width:4.86"/>
	<rect x="1424.49" y="801.18" width="154.32" height="355.30" style="fill:#808080"/>
	<rect x="1426.92" y="803.61" width="149.46" height="350.44" style="fill:none;stroke:#000000;stroke-width:4.86"/>
	<rect x="1578.80" y="801.18" width="154.44" height="355.30" style="fill:#808080"/>
	<rect x="1581.23" y="803.61" width="149.58" height="350.44" style="fill:none;stroke:#000000;stroke-width:4.86"/>
	<rect x="1733.24" y="801.18" width="154.32" height="355.30" style="fill:#808080"/>
	<rect x="1735.67" y="803.61" width="149.46" height="350.44" style="fill:none;stroke:#000000;stroke-width:4.86"/>
	<line x1="308.14" y1="1192.12" x2="308.14" y2="410.37" style="stroke:#000000;stroke-width:3.24"/>
	<line x1="308.14" y1="801.18" x2="285.62" y2="801.18" style="stroke:#000000;stroke-width:3.24"/>
	<text x="260.90" y="801.18" style="font-family:'Helvetica';font-size:45.05px;fill:#000000" transform="rotate(-90 260.90,801.18)" text-anchor="middle">1</text>
	<line x1="308.14" y1="446.01" x2="285.62" y2="446.01" style="stroke:#000000;stroke-width:3.24"/>
	<text x="260.90" y="446.01" style="font-family:'Helvetica';font-size:45.05px;fill:#000000" transform="rotate(-90 260.90,446.01)" text-anchor="middle">2</text>
	<text x="210.29" y="801.18" style="font-family:'Helvetica';font-size:45.05px;fill:#000000" transform="rotate(-90 210.29,801.18)" text-anchor="middle">Number</text>
	<line x1="308.14" y1="1192.12" x2="1923.20" y2="1192.12" style="stroke:#000000;stroke-width:3.24"/>
	<line x1="421.00" y1="1192.12" x2="421.00" y2="1214.52" style="stroke:#000000;stroke-width:3.24"/>
	<text x="436.79" y="1225.78" style="font-family:'Helvetica';font-size:45.05px;fill:#000000" transform="rotate(-90 436.79,1225.78)" text-anchor="end">2016</text>
	<line x1="575.31" y1="1192.12" x2="575.31" y2="1214.52" style="stroke:#000000;stroke-width:3.24"/>
	<text x="591.11" y="1225.78" style="font-family:'Helvetica';font-size:45.05px;fill:#000000" transform="rotate(-90 591.11,1225.78)" text-anchor="end">2017</text>
	<line x1="729.75" y1="1192.12" x2="729.75" y2="1214.52" style="stroke:#000000;stroke-width:3.24"/>
	<text x="745.55" y="1225.78" style="font-family:'Helvetica';font-size:45.05px;fill:#000000" transform="rotate(-90 745.55,1225.78)" text-anchor="end">2018</text>
	<line x1="884.19" y1="1192.12" x2="884.19" y2="1214.52" style="stroke:#000000;stroke-width:3.24"/>
	<text x="899.99" y="1225.78" style="font-family:'Helvetica';font-size:45.05px;fill:#000000" transform="rotate(-90 899.99,1225.78)" text-anchor="end">2019</text>
	<line x1="1038.51" y1="1192.12" x2="1038.51" y2="1214.52" style="stroke:#000000;stroke-width:3.24"/>
	<text x="1054.31" y="1225.78" style="font-family:'Helvetica';font-size:45.05px;fill:#000000" transform="rotate(-90 1054.31,1225.78)" text-anchor="end">2020</text>
	<line x1="1192.95" y1="1192.12" x2="1192.95" y2="1214.52" style="stroke:#000000;stroke-width:3.24"/>
	<text x="1208.75" y="1225.78" style="font-family:'Helvetica';font-size:45.05px;fill:#000000" transform="rotate(-90 1208.75,1225.78)" text-anchor="end">2021</text>
	<line x1="1347.27" y1="1192.12" x2="1347.27" y2="1214.52" style="stroke:#000000;stroke-width:3.24"/>
	<text x="1363.06" y="1225.78" style="font-family:'Helvetica';font-size:45.05px;fill:#000000" transform="rotate(-90 1363.06,1225.78)" text-anchor="end">2022</text>
	<line x1="1501.71" y1="1192.12" x2="1501.71" y2="1214.52" style="stroke:#000000;stroke-width:3.24"/>
	<text x="1517.50" y="1225.78" style="font-family:'Helvetica';font-size:45.05px;fill:#000000" transform="rotate(-90 1517.50,1225.78)" text-anchor="end">2023</text>
	<line x1="1656.02" y1="1192.12" x2="1656.02" y2="1214.52" style="stroke:#000000;stroke-width:3.24"/>
	<text x="1671.82" y="1225.78" style="font-family:'Helvetica';font-size:45.05px;fill:#000000" transform="rotate(-90 1671.82,1225.78)" text-anchor="end">2024</text>
	<line x1="1810.46" y1="1192.12" x2="1810.46" y2="1214.52" style="stroke:#000000;stroke-width:3.24"/>
	<text x="1826.26" y="1225.78" style="font-family:'Helvetica';font-size:45.05px;fill:#000000" transform="rotate(-90 1826.26,1225.78)" text-anchor="end">2025</text>
	<text x="1115.73" y="376.92" style="font-family:'Helvetica';font-size:78.70px;fill:#000000" text-anchor="middle">Over the years</text>
	<rect x="1980.00" y="255.43" width="1869.00" height="1162.05" style="fill:#FFFFFF"/>
	<rect x="1981.62" y="257.05" width="1865.76" height="1158.81" style="fill:none;stroke:#FFFFFF;stroke-width:3.24"/>
	<rect x="2178.88" y="411.99" width="1611.82" height="570.98" style="fill:none;stroke:#000000;stroke-width:3.24"/>
	<line x1="2177.26" y1="984.59" x2="3792.32" y2="984.59" style="stroke:#E0E0E0;stroke-width:4.86"/>
	<line x1="2177.26" y1="855.14" x2="3792.32" y2="855.14" style="stroke:#E0E0E0;stroke-width:4.86"/>
	<line x1="2177.26" y1="725.82" x2="3792.32" y2="725.82" style="stroke:#E0E0E0;stroke-width:4.86"/>
	<line x1="2177.26" y1="596.37" x2="3792.32" y2="596.37" style="stroke:#E0E0E0;stroke-width:4.86"/>
	<rect x="2260.17" y="553.30" width="131.55" height="431.28" style="fill:#606060"/>
	<rect x="2261.79" y="554.92" width="128.31" height="428.04" style="fill:none;stroke:#606060;stroke-width:3.24"/>
	<rect x="2479.83" y="768.88" width="131.55" height="215.70" style="fill:#606060"/>
	<rect x="2481.45" y="770.50" width="128.31" height="212.46" style="fill:none;stroke:#606060;stroke-width:3.24"/>
	<rect x="2699.36" y="768.88" width="131.55" height="215.70" style="fill:#606060"/>
	<rect x="2700.98" y="770.50" width="128.31" height="212.46" style="fill:none;stroke:#606060;stroke-width:3.24"/>
	<rect x="2919.01" y="768.88" width="131.55" height="215.70" style="fill:#606060"/>
	<rect x="2920.63" y="770.50" width="128.31" height="212.46" style="fill:none;stroke:#606060;stroke-width:3.24"/>
	<rect x="3138.67" y="876.80" width="131.42" height="107.79" style="fill:#606060"/>
	<rect x="3140.29" y="878.42" width="128.18" height="104.55" style="fill:none;stroke:#606060;stroke-width:3.24"/>
	<rect x="3358.20" y="876.80" width="131.55" height="107.79" style="fill:#606060"/>
	<rect x="3359.82" y="878.42" width="128.31" height="104.55" style="fill:none;stroke:#606060;stroke-width:3.24"/>
	<rect x="3577.86" y="876.80" width="131.42" height="107.79" style="fill:#606060"/>
	<rect x="3579.48" y="878.42" width="128.18" height="104.55" style="fill:none;stroke:#606060;stroke-width:3.24"/>
	<line x1="2177.26" y1="984.59" x2="2177.26" y2="410.37" style="stroke:#000000;stroke-width:3.24"/>
	<line x1="2177.26" y1="984.59" x2="2154.74" y2="984.59" style="stroke:#000000;stroke-width:3.24"/>
	<text x="2129.90" y="984.59" style="font-family:'Helvetica';font-size:45.05px;fill:#000000" transform="rotate(-90 2129.90,984.59)" text-anchor="middle">0</text>
	<line x1="2177.26" y1="855.14" x2="2154.74" y2="855.14" style="stroke:#000000;stroke-width:3.24"/>
	<text x="2129.90" y="855.14" style="font-family:'Helvetica';font-size:45.05px;fill:#000000" transform="rotate(-90 2129.90,855.14)" text-anchor="middle">20</text>
	<line x1="2177.26" y1="725.82" x2="2154.74" y2="725.82" style="stroke:#000000;stroke-width:3.24"/>
	<text x="2129.90" y="725.82" style="font-family:'Helvetica';font-size:45.05px;fill:#000000" transform="rotate(-90 2129.90,725.82)" text-anchor="middle">40</text>
	<line x1="2177.26" y1="596.37" x2="2154.74" y2="596.37" style="stroke:#000000;stroke-width:3.24"/>
	<text x="2129.90" y="596.37" style="font-family:'Helvetica';font-size:45.05px;fill:#000000" transform="rotate(-90 2129.90,596.37)" text-anchor="middle">60</text>
	<line x1="2177.26" y1="467.05" x2="2154.74" y2="467.05" style="stroke:#000000;stroke-width:3.24"/>
	<text x="2129.90" y="467.05" style="font-family:'Helvetica';font-size:45.05px;fill:#000000" transform="rotate(-90 2129.90,467.05)" text-anchor="middle">80</text>
	<text x="2079.28" y="697.48" style="font-family:'Helvetica';font-size:45.05px;fill:#000000" transform="rotate(-90 2079.28,697.48)" text-anchor="middle">Percentage</text>
	<line x1="2177.26" y1="984.59" x2="3792.32" y2="984.59" style="stroke:#000000;stroke-width:3.24"/>
	<text x="2341.80" y="1007.11" style="font-family:'Helvetica';font-size:45.05px;fill:#000000" transform="rotate(-90 2341.80,1007.11)" text-anchor="end">Employment</text>
	<text x="2561.33" y="1007.11" style="font-family:'Helvetica';font-size:45.05px;fill:#000000" transform="rotate(-90 2561.33,1007.11)" text-anchor="end">Debt</text>
	<text x="2780.99" y="1007.11" style="font-family:'Helvetica';font-size:45.05px;fill:#000000" transform="rotate(-90 2780.99,1007.11)" text-anchor="end">Gender</text>
	<text x="3000.52" y="1007.11" style="font-family:'Helvetica';font-size:45.05px;fill:#000000" transform="rotate(-90 3000.52,1007.11)" text-anchor="end">Personality</text>
	<text x="3220.18" y="1007.11" style="font-family:'Helvetica';font-size:45.05px;fill:#000000" transform="rotate(-90 3220.18,1007.11)" text-anchor="end">Decisionmaking</text>
	<text x="3439.71" y="1007.11" style="font-family:'Helvetica';font-size:45.05px;fill:#000000" transform="rotate(-90 3439.71,1007.11)" text-anchor="end">Migration</text>
	<text x="3659.37" y="1007.11" style="font-family:'Helvetica';font-size:45.05px;fill:#000000" transform="rotate(-90 3659.37,1007.11)" text-anchor="end">Networks</text>
	<text x="2984.73" y="376.92" style="font-family:'Helvetica';font-size:78.70px;fill:#000000" text-anchor="middle">Topics</text>
	<rect x="63.36" y="1465.00" width="3833.16" height="1257.09" style="fill:#FFFFFF"/>
	<rect x="65.52" y="1467.16" width="3828.84" height="1252.77" style="fill:none;stroke:#FFFFFF;stroke-width:4.32"/>
	<rect x="110.88" y="1512.52" width="1869.12" height="1162.05" style="fill:#FFFFFF"/>
	<rect x="112.50" y="1514.14" width="1865.88" height="1158.81" style="fill:none;stroke:#FFFFFF;stroke-width:3.24"/>
	<rect x="309.76" y="1669.08" width="1611.82" height="698.20" style="fill:none;stroke:#000000;stroke-width:3.24"/>
	<line x1="308.14" y1="2368.90" x2="1923.20" y2="2368.90" style="stroke:#E0E0E0;stroke-width:4.86"/>
	<line x1="308.14" y1="2153.94" x2="1923.20" y2="2153.94" style="stroke:#E0E0E0;stroke-width:4.86"/>
	<line x1="308.14" y1="1939.10" x2="1923.20" y2="1939.10" style="stroke:#E0E0E0;stroke-width:4.86"/>
	<rect x="428.18" y="1939.10" width="316.80" height="429.80" style="fill:#606060"/>
	<rect x="429.79" y="1940.72" width="313.56" height="426.56" style="fill:none;stroke:#606060;stroke-width:3.24"/>
	<rect x="957.33" y="1939.10" width="316.80" height="429.80" style="fill:#606060"/>
	<rect x="958.95" y="1940.72" width="313.56" height="426.56" style="fill:none;stroke:#606060;stroke-width:3.24"/>
	<rect x="1486.36" y="1939.10" width="316.80" height="429.80" style="fill:#606060"/>
	<rect x="1487.98" y="1940.72" width="313.56" height="426.56" style="fill:none;stroke:#606060;stroke-width:3.24"/>
	<line x1="308.14" y1="2368.90" x2="308.14" y2="1667.46" style="stroke:#000000;stroke-width:3.24"/>
	<line x1="308.14" y1="2368.90" x2="285.62" y2="2368.90" style="stroke:#000000;stroke-width:3.24"/>
	<text x="260.90" y="2368.90" style="font-family:'Helvetica';font-size:45.05px;fill:#000000" transform="rotate(-90 260.90,2368.90)" text-anchor="middle">0</text>
	<line x1="308.14" y1="2153.94" x2="285.62" y2="2153.94" style="stroke:#000000;stroke-width:3.24"/>
	<text x="260.90" y="2153.94" style="font-family:'Helvetica';font-size:45.05px;fill:#000000" transform="rotate(-90 260.90,2153.94)" text-anchor="middle">1</text>
	<line x1="308.14" y1="1939.10" x2="285.62" y2="1939.10" style="stroke:#000000;stroke-width:3.24"/>
	<text x="260.90" y="1939.10" style="font-family:'Helvetica';font-size:45.05px;fill:#000000" transform="rotate(-90 260.90,1939.10)" text-anchor="middle">2</text>
	<line x1="308.14" y1="1724.14" x2="285.62" y2="1724.14" style="stroke:#000000;stroke-width:3.24"/>
	<text x="260.90" y="1724.14" style="font-family:'Helvetica';font-size:45.05px;fill:#000000" transform="rotate(-90 260.90,1724.14)" text-anchor="middle">3</text>
	<text x="210.29" y="2018.18" style="font-family:'Helvetica';font-size:45.05px;fill:#000000" transform="rotate(-90 210.29,2018.18)" text-anchor="middle">Number</text>
	<line x1="308.14" y1="2368.90" x2="1923.20" y2="2368.90" style="stroke:#000000;stroke-width:3.24"/>
	<text x="602.37" y="2391.42" style="font-family:'Helvetica';font-size:45.05px;fill:#000000" transform="rotate(-90 602.37,2391.42)" text-anchor="end">Bordeaux</text>
	<text x="1131.53" y="2391.42" style="font-family:'Helvetica';font-size:45.05px;fill:#000000" transform="rotate(-90 1131.53,2391.42)" text-anchor="end">PSL</text>
	<text x="1660.56" y="2391.42" style="font-family:'Helvetica';font-size:45.05px;fill:#000000" transform="rotate(-90 1660.56,2391.42)" text-anchor="end">Paris Cité</text>
	<text x="1115.73" y="1634.01" style="font-family:'Helvetica';font-size:78.70px;fill:#000000" text-anchor="middle">Universities</text>
	<rect x="1980.00" y="1512.52" width="1869.00" height="1162.05" style="fill:#FFFFFF"/>
	<rect x="1981.62" y="1514.14" width="1865.76" height="1158.81" style="fill:none;stroke:#FFFFFF;stroke-width:3.24"/>
	<rect x="2178.88" y="1669.08" width="1611.82" height="750.67" style="fill:none;stroke:#000000;stroke-width:3.24"/>
	<line x1="2177.26" y1="2421.37" x2="3792.32" y2="2421.37" style="stroke:#E0E0E0;stroke-width:4.86"/>
	<line x1="2177.26" y1="2281.90" x2="3792.32" y2="2281.90" style="stroke:#E0E0E0;stroke-width:4.86"/>
	<line x1="2177.26" y1="2142.55" x2="3792.32" y2="2142.55" style="stroke:#E0E0E0;stroke-width:4.86"/>
	<line x1="2177.26" y1="2003.08" x2="3792.32" y2="2003.08" style="stroke:#E0E0E0;stroke-width:4.86"/>
	<line x1="2177.26" y1="1863.61" x2="3792.32" y2="1863.61" style="stroke:#E0E0E0;stroke-width:4.86"/>
	<rect x="2331.70" y="1863.61" width="489.18" height="557.76" style="fill:#606060"/>
	<rect x="2333.32" y="1865.23" width="485.94" height="554.52" style="fill:none;stroke:#606060;stroke-width:3.24"/>
	<rect x="3148.57" y="2142.55" width="489.18" height="278.82" style="fill:#606060"/>
	<rect x="3150.19" y="2144.17" width="485.94" height="275.58" style="fill:none;stroke:#606060;stroke-width:3.24"/>
	<line x1="2177.26" y1="2421.37" x2="2177.26" y2="1667.46" style="stroke:#000000;stroke-width:3.24"/>
	<line x1="2177.26" y1="2421.37" x2="2154.74" y2="2421.37" style="stroke:#000000;stroke-width:3.24"/>
	<text x="2129.90" y="2421.37" style="font-family:'Helvetica';font-size:45.05px;fill:#000000" transform="rotate(-90 2129.90,2421.37)" text-anchor="middle">0</text>
	<line x1="2177.26" y1="2281.90" x2="2154.74" y2="2281.90" style="stroke:#000000;stroke-width:3.24"/>
	<text x="2129.90" y="2281.90" style="font-family:'Helvetica';font-size:45.05px;fill:#000000" transform="rotate(-90 2129.90,2281.90)" text-anchor="middle">1</text>
	<line x1="2177.26" y1="2142.55" x2="2154.74" y2="2142.55" style="stroke:#000000;stroke-width:3.24"/>
	<text x="2129.90" y="2142.55" style="font-family:'Helvetica';font-size:45.05px;fill:#000000" transform="rotate(-90 2129.90,2142.55)" text-anchor="middle">2</text>
	<line x1="2177.26" y1="2003.08" x2="2154.74" y2="2003.08" style="stroke:#000000;stroke-width:3.24"/>
	<text x="2129.90" y="2003.08" style="font-family:'Helvetica';font-size:45.05px;fill:#000000" transform="rotate(-90 2129.90,2003.08)" text-anchor="middle">3</text>
	<line x1="2177.26" y1="1863.61" x2="2154.74" y2="1863.61" style="stroke:#000000;stroke-width:3.24"/>
	<text x="2129.90" y="1863.61" style="font-family:'Helvetica';font-size:45.05px;fill:#000000" transform="rotate(-90 2129.90,1863.61)" text-anchor="middle">4</text>
	<line x1="2177.26" y1="1724.14" x2="2154.74" y2="1724.14" style="stroke:#000000;stroke-width:3.24"/>
	<text x="2129.90" y="1724.14" style="font-family:'Helvetica';font-size:45.05px;fill:#000000" transform="rotate(-90 2129.90,1724.14)" text-anchor="middle">5</text>
	<text x="2079.28" y="2044.41" style="font-family:'Helvetica';font-size:45.05px;fill:#000000" transform="rotate(-90 2079.28,2044.41)" text-anchor="middle">Number</text>
	<line x1="2177.26" y1="2421.37" x2="3792.32" y2="2421.37" style="stroke:#000000;stroke-width:3.24"/>
	<text x="2592.15" y="2443.89" style="font-family:'Helvetica';font-size:45.05px;fill:#000000" transform="rotate(-90 2592.15,2443.89)" text-anchor="end">English</text>
	<text x="3409.02" y="2443.89" style="font-family:'Helvetica';font-size:45.05px;fill:#000000" transform="rotate(-90 3409.02,2443.89)" text-anchor="end">French</text>
	<text x="2984.73" y="1634.01" style="font-family:'Helvetica';font-size:78.70px;fill:#000000" text-anchor="middle">Language</text>
	<text x="80.69" y="2781.24" style="fill:#000000">
		<tspan style="font-family:'Helvetica';font-style:italic;font-size:60.02px">Source:</tspan>
		<tspan style="font-family:'Helvetica';font-size:60.02px"> A. Natal. Updated in October 2025.</tspan>
	</text>
	<text x="1980.00" y="157.51" style="font-family:'Helvetica';font-size:110.01px;fill:#000000" text-anchor="middle">Dissertations (N=6)</text>
</svg>
