<?xml version="1.0" encoding="UTF-8" standalone="no"?>
<!-- This is a Stata 15.1 generated SVG file (http://www.stata.com) -->

<svg version="1.1" width="5.50in" height="4.00in" viewBox="0 0 3960 2880" xmlns="http://www.w3.org/2000/svg" xmlns:xlink="http://www.w3.org/1999/xlink">
	<desc>Stata Graph - pub</desc>
	<rect x="0" y="0" width="3960" height="2880" style="fill:#FFFFFF;stroke:none"/>
	<rect x="0.00" y="0.00" width="3959.88" height="2880.00" style="fill:#FFFFFF"/>
	<rect x="2.88" y="2.88" width="3954.12" height="2874.24" style="fill:none;stroke:#FFFFFF;stroke-width:5.76"/>
	<rect x="63.36" y="207.91" width="3833.16" height="1257.09" style="fill:#FFFFFF"/>
	<rect x="65.52" y="210.07" width="3828.84" height="1252.77" style="fill:none;stroke:#FFFFFF;stroke-width:4.32"/>
	<rect x="110.88" y="255.43" width="1869.12" height="1162.05" style="fill:#FFFFFF"/>
	<rect x="112.50" y="257.05" width="1865.88" height="1158.81" style="fill:none;stroke:#FFFFFF;stroke-width:3.24"/>
	<rect x="309.76" y="411.99" width="1611.82" height="778.51" style="fill:none;stroke:#000000;stroke-width:3.24"/>
	<line x1="308.14" y1="978.77" x2="1923.20" y2="978.77" style="stroke:#E0E0E0;stroke-width:4.86"/>
	<line x1="308.14" y1="801.18" x2="1923.20" y2="801.18" style="stroke:#E0E0E0;stroke-width:4.86"/>
	<line x1="308.14" y1="623.60" x2="1923.20" y2="623.60" style="stroke:#E0E0E0;stroke-width:4.86"/>
	<rect x="484.11" y="978.77" width="93.55" height="177.71" style="fill:#808080"/>
	<rect x="486.54" y="981.20" width="88.70" height="172.85" style="fill:none;stroke:#000000;stroke-width:4.86"/>
	<rect x="577.66" y="978.77" width="93.56" height="177.71" style="fill:#808080"/>
	<rect x="580.09" y="981.20" width="88.70" height="172.85" style="fill:none;stroke:#000000;stroke-width:4.86"/>
	<rect x="764.90" y="978.77" width="93.56" height="177.71" style="fill:#808080"/>
	<rect x="767.33" y="981.20" width="88.70" height="172.85" style="fill:none;stroke:#000000;stroke-width:4.86"/>
	<rect x="952.01" y="978.77" width="93.56" height="177.71" style="fill:#808080"/>
	<rect x="954.44" y="981.20" width="88.70" height="172.85" style="fill:none;stroke:#000000;stroke-width:4.86"/>
	<rect x="1045.56" y="978.77" width="93.56" height="177.71" style="fill:#808080"/>
	<rect x="1047.99" y="981.20" width="88.70" height="172.85" style="fill:none;stroke:#000000;stroke-width:4.86"/>
	<rect x="1326.23" y="801.18" width="93.56" height="355.30" style="fill:#808080"/>
	<rect x="1328.66" y="803.61" width="88.70" height="350.44" style="fill:none;stroke:#000000;stroke-width:4.86"/>
	<rect x="1419.78" y="801.18" width="93.55" height="355.30" style="fill:#808080"/>
	<rect x="1422.21" y="803.61" width="88.70" height="350.44" style="fill:none;stroke:#000000;stroke-width:4.86"/>
	<rect x="1513.34" y="978.77" width="93.56" height="177.71" style="fill:#808080"/>
	<rect x="1515.77" y="981.20" width="88.70" height="172.85" style="fill:none;stroke:#000000;stroke-width:4.86"/>
	<rect x="1606.89" y="623.60" width="93.56" height="532.88" style="fill:#808080"/>
	<rect x="1609.32" y="626.03" width="88.70" height="528.02" style="fill:none;stroke:#000000;stroke-width:4.86"/>
	<rect x="1700.45" y="623.60" width="93.56" height="532.88" style="fill:#808080"/>
	<rect x="1702.88" y="626.03" width="88.70" height="528.02" style="fill:none;stroke:#000000;stroke-width:4.86"/>
	<rect x="1794.00" y="978.77" width="93.55" height="177.71" style="fill:#808080"/>
	<rect x="1796.43" y="981.20" width="88.70" height="172.85" style="fill:none;stroke:#000000;stroke-width:4.86"/>
	<line x1="308.14" y1="1192.12" x2="308.14" y2="410.37" style="stroke:#000000;stroke-width:3.24"/>
	<line x1="308.14" y1="978.77" x2="285.62" y2="978.77" style="stroke:#000000;stroke-width:3.24"/>
	<text x="260.90" y="978.77" style="font-family:'Helvetica';font-size:45.05px;fill:#000000" transform="rotate(-90 260.90,978.77)" text-anchor="middle">1</text>
	<line x1="308.14" y1="801.18" x2="285.62" y2="801.18" style="stroke:#000000;stroke-width:3.24"/>
	<text x="260.90" y="801.18" style="font-family:'Helvetica';font-size:45.05px;fill:#000000" transform="rotate(-90 260.90,801.18)" text-anchor="middle">2</text>
	<line x1="308.14" y1="623.60" x2="285.62" y2="623.60" style="stroke:#000000;stroke-width:3.24"/>
	<text x="260.90" y="623.60" style="font-family:'Helvetica';font-size:45.05px;fill:#000000" transform="rotate(-90 260.90,623.60)" text-anchor="middle">3</text>
	<line x1="308.14" y1="446.01" x2="285.62" y2="446.01" style="stroke:#000000;stroke-width:3.24"/>
	<text x="260.90" y="446.01" style="font-family:'Helvetica';font-size:45.05px;fill:#000000" transform="rotate(-90 260.90,446.01)" text-anchor="middle">4</text>
	<text x="210.29" y="801.18" style="font-family:'Helvetica';font-size:45.05px;fill:#000000" transform="rotate(-90 210.29,801.18)" text-anchor="middle">Number</text>
	<line x1="308.14" y1="1192.12" x2="1923.20" y2="1192.12" style="stroke:#000000;stroke-width:3.24"/>
	<line x1="343.78" y1="1192.12" x2="343.78" y2="1214.52" style="stroke:#000000;stroke-width:3.24"/>
	<text x="359.57" y="1225.78" style="font-family:'Helvetica';font-size:45.05px;fill:#000000" transform="rotate(-90 359.57,1225.78)" text-anchor="end">2010</text>
	<line x1="530.89" y1="1192.12" x2="530.89" y2="1214.52" style="stroke:#000000;stroke-width:3.24"/>
	<text x="546.68" y="1225.78" style="font-family:'Helvetica';font-size:45.05px;fill:#000000" transform="rotate(-90 546.68,1225.78)" text-anchor="end">2012</text>
	<line x1="718.00" y1="1192.12" x2="718.00" y2="1214.52" style="stroke:#000000;stroke-width:3.24"/>
	<text x="733.79" y="1225.78" style="font-family:'Helvetica';font-size:45.05px;fill:#000000" transform="rotate(-90 733.79,1225.78)" text-anchor="end">2014</text>
	<line x1="905.23" y1="1192.12" x2="905.23" y2="1214.52" style="stroke:#000000;stroke-width:3.24"/>
	<text x="921.03" y="1225.78" style="font-family:'Helvetica';font-size:45.05px;fill:#000000" transform="rotate(-90 921.03,1225.78)" text-anchor="end">2016</text>
	<line x1="1092.34" y1="1192.12" x2="1092.34" y2="1214.52" style="stroke:#000000;stroke-width:3.24"/>
	<text x="1108.14" y="1225.78" style="font-family:'Helvetica';font-size:45.05px;fill:#000000" transform="rotate(-90 1108.14,1225.78)" text-anchor="end">2018</text>
	<line x1="1279.45" y1="1192.12" x2="1279.45" y2="1214.52" style="stroke:#000000;stroke-width:3.24"/>
	<text x="1295.25" y="1225.78" style="font-family:'Helvetica';font-size:45.05px;fill:#000000" transform="rotate(-90 1295.25,1225.78)" text-anchor="end">2020</text>
	<line x1="1466.56" y1="1192.12" x2="1466.56" y2="1214.52" style="stroke:#000000;stroke-width:3.24"/>
	<text x="1482.36" y="1225.78" style="font-family:'Helvetica';font-size:45.05px;fill:#000000" transform="rotate(-90 1482.36,1225.78)" text-anchor="end">2022</text>
	<line x1="1653.67" y1="1192.12" x2="1653.67" y2="1214.52" style="stroke:#000000;stroke-width:3.24"/>
	<text x="1669.47" y="1225.78" style="font-family:'Helvetica';font-size:45.05px;fill:#000000" transform="rotate(-90 1669.47,1225.78)" text-anchor="end">2024</text>
	<line x1="1840.78" y1="1192.12" x2="1840.78" y2="1214.52" style="stroke:#000000;stroke-width:3.24"/>
	<text x="1856.58" y="1225.78" style="font-family:'Helvetica';font-size:45.05px;fill:#000000" transform="rotate(-90 1856.58,1225.78)" text-anchor="end">2026</text>
	<text x="1115.73" y="376.92" style="font-family:'Helvetica';font-size:78.70px;fill:#000000" text-anchor="middle">Papers over the years</text>
	<rect x="1980.00" y="255.43" width="1869.00" height="1162.05" style="fill:#FFFFFF"/>
	<rect x="1981.62" y="257.05" width="1865.76" height="1158.81" style="fill:none;stroke:#FFFFFF;stroke-width:3.24"/>
	<rect x="3024.58" y="411.99" width="766.11" height="806.61" style="fill:none;stroke:#000000;stroke-width:3.24"/>
	<line x1="3022.97" y1="1220.21" x2="3022.97" y2="410.37" style="stroke:#E0E0E0;stroke-width:4.86"/>
	<line x1="3201.17" y1="1220.21" x2="3201.17" y2="410.37" style="stroke:#E0E0E0;stroke-width:4.86"/>
	<line x1="3379.24" y1="1220.21" x2="3379.24" y2="410.37" style="stroke:#E0E0E0;stroke-width:4.86"/>
	<line x1="3557.44" y1="1220.21" x2="3557.44" y2="410.37" style="stroke:#E0E0E0;stroke-width:4.86"/>
	<rect x="3022.97" y="1124.55" width="178.20" height="32.42" style="fill:#606060"/>
	<rect x="3024.58" y="1126.17" width="174.96" height="29.18" style="fill:none;stroke:#606060;stroke-width:3.24"/>
	<rect x="3022.97" y="1070.22" width="534.48" height="32.55" style="fill:#606060"/>
	<rect x="3024.58" y="1071.84" width="531.24" height="29.31" style="fill:none;stroke:#606060;stroke-width:3.24"/>
	<rect x="3022.97" y="1016.02" width="178.20" height="32.42" style="fill:#606060"/>
	<rect x="3024.58" y="1017.64" width="174.96" height="29.18" style="fill:none;stroke:#606060;stroke-width:3.24"/>
	<rect x="3022.97" y="961.82" width="178.20" height="32.42" style="fill:#606060"/>
	<rect x="3024.58" y="963.44" width="174.96" height="29.18" style="fill:none;stroke:#606060;stroke-width:3.24"/>
	<rect x="3022.97" y="907.49" width="178.20" height="32.55" style="fill:#606060"/>
	<rect x="3024.58" y="909.11" width="174.96" height="29.31" style="fill:none;stroke:#606060;stroke-width:3.24"/>
	<rect x="3022.97" y="853.28" width="178.20" height="32.42" style="fill:#606060"/>
	<rect x="3024.58" y="854.90" width="174.96" height="29.18" style="fill:none;stroke:#606060;stroke-width:3.24"/>
	<rect x="3022.97" y="798.95" width="178.20" height="32.55" style="fill:#606060"/>
	<rect x="3024.58" y="800.57" width="174.96" height="29.31" style="fill:none;stroke:#606060;stroke-width:3.24"/>
	<rect x="3022.97" y="744.75" width="178.20" height="32.55" style="fill:#606060"/>
	<rect x="3024.58" y="746.37" width="174.96" height="29.31" style="fill:none;stroke:#606060;stroke-width:3.24"/>
	<rect x="3022.97" y="690.55" width="178.20" height="32.42" style="fill:#606060"/>
	<rect x="3024.58" y="692.17" width="174.96" height="29.18" style="fill:none;stroke:#606060;stroke-width:3.24"/>
	<rect x="3022.97" y="636.22" width="534.48" height="32.55" style="fill:#606060"/>
	<rect x="3024.58" y="637.84" width="531.24" height="29.31" style="fill:none;stroke:#606060;stroke-width:3.24"/>
	<rect x="3022.97" y="582.01" width="178.20" height="32.55" style="fill:#606060"/>
	<rect x="3024.58" y="583.63" width="174.96" height="29.31" style="fill:none;stroke:#606060;stroke-width:3.24"/>
	<rect x="3022.97" y="527.81" width="178.20" height="32.42" style="fill:#606060"/>
	<rect x="3024.58" y="529.43" width="174.96" height="29.18" style="fill:none;stroke:#606060;stroke-width:3.24"/>
	<rect x="3022.97" y="473.48" width="178.20" height="32.55" style="fill:#606060"/>
	<rect x="3024.58" y="475.10" width="174.96" height="29.31" style="fill:none;stroke:#606060;stroke-width:3.24"/>
	<line x1="3022.97" y1="1220.21" x2="3792.32" y2="1220.21" style="stroke:#000000;stroke-width:3.24"/>
	<line x1="3022.97" y1="1220.21" x2="3022.97" y2="1242.74" style="stroke:#000000;stroke-width:3.24"/>
	<text x="3022.97" y="1285.34" style="font-family:'Helvetica';font-size:45.05px;fill:#000000" text-anchor="middle">0</text>
	<line x1="3201.17" y1="1220.21" x2="3201.17" y2="1242.74" style="stroke:#000000;stroke-width:3.24"/>
	<text x="3201.17" y="1285.34" style="font-family:'Helvetica';font-size:45.05px;fill:#000000" text-anchor="middle">1</text>
	<line x1="3379.24" y1="1220.21" x2="3379.24" y2="1242.74" style="stroke:#000000;stroke-width:3.24"/>
	<text x="3379.24" y="1285.34" style="font-family:'Helvetica';font-size:45.05px;fill:#000000" text-anchor="middle">2</text>
	<line x1="3557.44" y1="1220.21" x2="3557.44" y2="1242.74" style="stroke:#000000;stroke-width:3.24"/>
	<text x="3557.44" y="1285.34" style="font-family:'Helvetica';font-size:45.05px;fill:#000000" text-anchor="middle">3</text>
	<line x1="3735.64" y1="1220.21" x2="3735.64" y2="1242.74" style="stroke:#000000;stroke-width:3.24"/>
	<text x="3735.64" y="1285.34" style="font-family:'Helvetica';font-size:45.05px;fill:#000000" text-anchor="middle">4</text>
	<text x="3407.58" y="1335.96" style="font-family:'Helvetica';font-size:45.05px;fill:#000000" text-anchor="middle">Number</text>
	<line x1="3022.97" y1="1220.21" x2="3022.97" y2="410.37" style="stroke:#000000;stroke-width:3.24"/>
	<text x="3000.44" y="1156.56" style="font-family:'Helvetica';font-size:45.05px;fill:#000000" text-anchor="end">World Development</text>
	<text x="3000.44" y="1102.23" style="font-family:'Helvetica';font-size:45.05px;fill:#000000" text-anchor="end">The Journal of Development Studies</text>
	<text x="3000.44" y="1048.03" style="font-family:'Helvetica';font-size:45.05px;fill:#000000" text-anchor="end">The ANNALS of the AAPSS</text>
	<text x="3000.44" y="993.82" style="font-family:'Helvetica';font-size:45.05px;fill:#000000" text-anchor="end">South Asia Multidisciplinary Academic Journal</text>
	<text x="3000.44" y="939.50" style="font-family:'Helvetica';font-size:45.05px;fill:#000000" text-anchor="end">Revue d'Economie du Développement</text>
	<text x="3000.44" y="885.29" style="font-family:'Helvetica';font-size:45.05px;fill:#000000" text-anchor="end">Review of Political Economy</text>
	<text x="3000.44" y="831.09" style="font-family:'Helvetica';font-size:45.05px;fill:#000000" text-anchor="end">Population</text>
	<text x="3000.44" y="776.76" style="font-family:'Helvetica';font-size:45.05px;fill:#000000" text-anchor="end">Esclavages et post-esclavages</text>
	<text x="3000.44" y="722.56" style="font-family:'Helvetica';font-size:45.05px;fill:#000000" text-anchor="end">Economies et sociétés</text>
	<text x="3000.44" y="668.35" style="font-family:'Helvetica';font-size:45.05px;fill:#000000" text-anchor="end">Economic and Political Weekly</text>
	<text x="3000.44" y="614.02" style="font-family:'Helvetica';font-size:45.05px;fill:#000000" text-anchor="end">Development and Change</text>
	<text x="3000.44" y="559.82" style="font-family:'Helvetica';font-size:45.05px;fill:#000000" text-anchor="end">Development Policy Review</text>
	<text x="3000.44" y="505.61" style="font-family:'Helvetica';font-size:45.05px;fill:#000000" text-anchor="end">Contemporary South Asia</text>
	<text x="3407.58" y="376.92" style="font-family:'Helvetica';font-size:78.70px;fill:#000000" text-anchor="middle">Journals</text>
	<rect x="63.36" y="1465.00" width="3833.16" height="1257.09" style="fill:#FFFFFF"/>
	<rect x="65.52" y="1467.16" width="3828.84" height="1252.77" style="fill:none;stroke:#FFFFFF;stroke-width:4.32"/>
	<rect x="110.88" y="1512.52" width="1869.12" height="1162.05" style="fill:#FFFFFF"/>
	<rect x="112.50" y="1514.14" width="1865.88" height="1158.81" style="fill:none;stroke:#FFFFFF;stroke-width:3.24"/>
	<rect x="309.76" y="1669.08" width="1611.82" height="624.69" style="fill:none;stroke:#000000;stroke-width:3.24"/>
	<line x1="308.14" y1="2295.39" x2="1923.20" y2="2295.39" style="stroke:#E0E0E0;stroke-width:4.86"/>
	<line x1="308.14" y1="2200.22" x2="1923.20" y2="2200.22" style="stroke:#E0E0E0;stroke-width:4.86"/>
	<line x1="308.14" y1="2105.05" x2="1923.20" y2="2105.05" style="stroke:#E0E0E0;stroke-width:4.86"/>
	<line x1="308.14" y1="2009.76" x2="1923.20" y2="2009.76" style="stroke:#E0E0E0;stroke-width:4.86"/>
	<line x1="308.14" y1="1914.60" x2="1923.20" y2="1914.60" style="stroke:#E0E0E0;stroke-width:4.86"/>
	<line x1="308.14" y1="1819.31" x2="1923.20" y2="1819.31" style="stroke:#E0E0E0;stroke-width:4.86"/>
	<rect x="395.63" y="1847.40" width="154.07" height="447.99" style="fill:#606060"/>
	<rect x="397.25" y="1849.02" width="150.83" height="444.75" style="fill:none;stroke:#606060;stroke-width:3.24"/>
	<rect x="652.90" y="1903.33" width="153.95" height="392.05" style="fill:#606060"/>
	<rect x="654.52" y="1904.95" width="150.71" height="388.81" style="fill:none;stroke:#606060;stroke-width:3.24"/>
	<rect x="910.06" y="2015.33" width="154.07" height="280.06" style="fill:#606060"/>
	<rect x="911.68" y="2016.95" width="150.83" height="276.82" style="fill:none;stroke:#606060;stroke-width:3.24"/>
	<rect x="1167.33" y="2127.45" width="153.94" height="167.93" style="fill:#606060"/>
	<rect x="1168.95" y="2129.07" width="150.71" height="164.69" style="fill:none;stroke:#606060;stroke-width:3.24"/>
	<rect x="1424.49" y="2239.45" width="154.07" height="55.94" style="fill:#606060"/>
	<rect x="1426.11" y="2241.07" width="150.83" height="52.70" style="fill:none;stroke:#606060;stroke-width:3.24"/>
	<rect x="1681.76" y="2239.45" width="153.94" height="55.94" style="fill:#606060"/>
	<rect x="1683.38" y="2241.07" width="150.71" height="52.70" style="fill:none;stroke:#606060;stroke-width:3.24"/>
	<line x1="308.14" y1="2295.39" x2="308.14" y2="1667.46" style="stroke:#000000;stroke-width:3.24"/>
	<line x1="308.14" y1="2295.39" x2="285.62" y2="2295.39" style="stroke:#000000;stroke-width:3.24"/>
	<text x="260.90" y="2295.39" style="font-family:'Helvetica';font-size:45.05px;fill:#000000" transform="rotate(-90 260.90,2295.39)" text-anchor="middle">0</text>
	<line x1="308.14" y1="2200.22" x2="285.62" y2="2200.22" style="stroke:#000000;stroke-width:3.24"/>
	<text x="260.90" y="2200.22" style="font-family:'Helvetica';font-size:45.05px;fill:#000000" transform="rotate(-90 260.90,2200.22)" text-anchor="middle">10</text>
	<line x1="308.14" y1="2105.05" x2="285.62" y2="2105.05" style="stroke:#000000;stroke-width:3.24"/>
	<text x="260.90" y="2105.05" style="font-family:'Helvetica';font-size:45.05px;fill:#000000" transform="rotate(-90 260.90,2105.05)" text-anchor="middle">20</text>
	<line x1="308.14" y1="2009.76" x2="285.62" y2="2009.76" style="stroke:#000000;stroke-width:3.24"/>
	<text x="260.90" y="2009.76" style="font-family:'Helvetica';font-size:45.05px;fill:#000000" transform="rotate(-90 260.90,2009.76)" text-anchor="middle">30</text>
	<line x1="308.14" y1="1914.60" x2="285.62" y2="1914.60" style="stroke:#000000;stroke-width:3.24"/>
	<text x="260.90" y="1914.60" style="font-family:'Helvetica';font-size:45.05px;fill:#000000" transform="rotate(-90 260.90,1914.60)" text-anchor="middle">40</text>
	<line x1="308.14" y1="1819.31" x2="285.62" y2="1819.31" style="stroke:#000000;stroke-width:3.24"/>
	<text x="260.90" y="1819.31" style="font-family:'Helvetica';font-size:45.05px;fill:#000000" transform="rotate(-90 260.90,1819.31)" text-anchor="middle">50</text>
	<line x1="308.14" y1="1724.14" x2="285.62" y2="1724.14" style="stroke:#000000;stroke-width:3.24"/>
	<text x="260.90" y="1724.14" style="font-family:'Helvetica';font-size:45.05px;fill:#000000" transform="rotate(-90 260.90,1724.14)" text-anchor="middle">60</text>
	<text x="210.29" y="1981.42" style="font-family:'Helvetica';font-size:45.05px;fill:#000000" transform="rotate(-90 210.29,1981.42)" text-anchor="middle">Percentage</text>
	<line x1="308.14" y1="2295.39" x2="1923.20" y2="2295.39" style="stroke:#000000;stroke-width:3.24"/>
	<text x="488.52" y="2317.91" style="font-family:'Helvetica';font-size:45.05px;fill:#000000" transform="rotate(-90 488.52,2317.91)" text-anchor="end">Development</text>
	<text x="745.67" y="2317.91" style="font-family:'Helvetica';font-size:45.05px;fill:#000000" transform="rotate(-90 745.67,2317.91)" text-anchor="end">Economics</text>
	<text x="1002.95" y="2317.91" style="font-family:'Helvetica';font-size:45.05px;fill:#000000" transform="rotate(-90 1002.95,2317.91)" text-anchor="end">Sociology</text>
	<text x="1260.10" y="2317.91" style="font-family:'Helvetica';font-size:45.05px;fill:#000000" transform="rotate(-90 1260.10,2317.91)" text-anchor="end">Geography</text>
	<text x="1517.26" y="2317.91" style="font-family:'Helvetica';font-size:45.05px;fill:#000000" transform="rotate(-90 1517.26,2317.91)" text-anchor="end">Demography</text>
	<text x="1774.53" y="2317.91" style="font-family:'Helvetica';font-size:45.05px;fill:#000000" transform="rotate(-90 1774.53,2317.91)" text-anchor="end">Management</text>
	<text x="1115.73" y="1634.01" style="font-family:'Helvetica';font-size:78.70px;fill:#000000" text-anchor="middle">Topics of journals</text>
	<rect x="1980.00" y="1512.52" width="1869.00" height="1162.05" style="fill:#FFFFFF"/>
	<rect x="1981.62" y="1514.14" width="1865.76" height="1158.81" style="fill:none;stroke:#FFFFFF;stroke-width:3.24"/>
	<rect x="2178.88" y="1669.08" width="1611.82" height="868.48" style="fill:none;stroke:#000000;stroke-width:3.24"/>
	<line x1="2177.26" y1="2539.18" x2="3792.32" y2="2539.18" style="stroke:#E0E0E0;stroke-width:4.86"/>
	<line x1="2177.26" y1="2335.36" x2="3792.32" y2="2335.36" style="stroke:#E0E0E0;stroke-width:4.86"/>
	<line x1="2177.26" y1="2131.66" x2="3792.32" y2="2131.66" style="stroke:#E0E0E0;stroke-width:4.86"/>
	<line x1="2177.26" y1="1927.84" x2="3792.32" y2="1927.84" style="stroke:#E0E0E0;stroke-width:4.86"/>
	<line x1="2177.26" y1="1724.14" x2="3792.32" y2="1724.14" style="stroke:#E0E0E0;stroke-width:4.86"/>
	<rect x="2280.84" y="1820.05" width="234.26" height="719.13" style="fill:#606060"/>
	<rect x="2282.46" y="1821.67" width="231.02" height="715.89" style="fill:none;stroke:#606060;stroke-width:3.24"/>
	<rect x="2672.01" y="2059.76" width="234.26" height="479.42" style="fill:#606060"/>
	<rect x="2673.63" y="2061.38" width="231.02" height="476.18" style="fill:none;stroke:#606060;stroke-width:3.24"/>
	<rect x="3063.31" y="2059.76" width="234.26" height="479.42" style="fill:#606060"/>
	<rect x="3064.93" y="2061.38" width="231.02" height="476.18" style="fill:none;stroke:#606060;stroke-width:3.24"/>
	<rect x="3454.48" y="2179.55" width="234.26" height="359.63" style="fill:#606060"/>
	<rect x="3456.10" y="2181.17" width="231.02" height="356.39" style="fill:none;stroke:#606060;stroke-width:3.24"/>
	<line x1="2177.26" y1="2539.18" x2="2177.26" y2="1667.46" style="stroke:#000000;stroke-width:3.24"/>
	<line x1="2177.26" y1="2539.18" x2="2154.74" y2="2539.18" style="stroke:#000000;stroke-width:3.24"/>
	<text x="2129.90" y="2539.18" style="font-family:'Helvetica';font-size:45.05px;fill:#000000" transform="rotate(-90 2129.90,2539.18)" text-anchor="middle">0</text>
	<line x1="2177.26" y1="2335.36" x2="2154.74" y2="2335.36" style="stroke:#000000;stroke-width:3.24"/>
	<text x="2129.90" y="2335.36" style="font-family:'Helvetica';font-size:45.05px;fill:#000000" transform="rotate(-90 2129.90,2335.36)" text-anchor="middle">10</text>
	<line x1="2177.26" y1="2131.66" x2="2154.74" y2="2131.66" style="stroke:#000000;stroke-width:3.24"/>
	<text x="2129.90" y="2131.66" style="font-family:'Helvetica';font-size:45.05px;fill:#000000" transform="rotate(-90 2129.90,2131.66)" text-anchor="middle">20</text>
	<line x1="2177.26" y1="1927.84" x2="2154.74" y2="1927.84" style="stroke:#000000;stroke-width:3.24"/>
	<text x="2129.90" y="1927.84" style="font-family:'Helvetica';font-size:45.05px;fill:#000000" transform="rotate(-90 2129.90,1927.84)" text-anchor="middle">30</text>
	<line x1="2177.26" y1="1724.14" x2="2154.74" y2="1724.14" style="stroke:#000000;stroke-width:3.24"/>
	<text x="2129.90" y="1724.14" style="font-family:'Helvetica';font-size:45.05px;fill:#000000" transform="rotate(-90 2129.90,1724.14)" text-anchor="middle">40</text>
	<text x="2079.28" y="2103.32" style="font-family:'Helvetica';font-size:45.05px;fill:#000000" transform="rotate(-90 2079.28,2103.32)" text-anchor="middle">Percentage</text>
	<line x1="2177.26" y1="2539.18" x2="3792.32" y2="2539.18" style="stroke:#000000;stroke-width:3.24"/>
	<text x="2397.90" y="2593.05" style="font-family:'Helvetica';font-size:45.05px;fill:#000000" text-anchor="middle">Q1</text>
	<text x="2789.20" y="2593.05" style="font-family:'Helvetica';font-size:45.05px;fill:#000000" text-anchor="middle">Q2</text>
	<text x="3180.38" y="2593.05" style="font-family:'Helvetica';font-size:45.05px;fill:#000000" text-anchor="middle">Q3</text>
	<text x="3571.67" y="2593.05" style="font-family:'Helvetica';font-size:45.05px;fill:#000000" text-anchor="middle">Q4</text>
	<text x="2984.73" y="1634.01" style="font-family:'Helvetica';font-size:78.70px;fill:#000000" text-anchor="middle">Category of journals (SJR 2024)</text>
	<text x="80.69" y="2781.24" style="fill:#000000">
		<tspan style="font-family:'Helvetica';font-style:italic;font-size:60.02px">Source:</tspan>
		<tspan style="font-family:'Helvetica';font-size:60.02px"> A. Natal. Updated in October 2025.</tspan>
	</text>
	<text x="1980.00" y="157.51" style="font-family:'Helvetica';font-size:110.01px;fill:#000000" text-anchor="middle">Papers published in journals (N=17)</text>
</svg>
