<?xml version="1.0" encoding="UTF-8" standalone="no"?>
<!-- This is a Stata 15.1 generated SVG file (http://www.stata.com) -->

<svg version="1.1" width="6.00in" height="4.00in" viewBox="0 0 4320 2880" xmlns="http://www.w3.org/2000/svg" xmlns:xlink="http://www.w3.org/1999/xlink">
	<desc>Stata Graph - pub</desc>
	<rect x="0" y="0" width="4320" height="2880" style="fill:#FFFFFF;stroke:none"/>
	<rect x="0.00" y="0.00" width="4320.00" height="2880.00" style="fill:#FFFFFF"/>
	<rect x="2.88" y="2.88" width="4314.24" height="2874.24" style="fill:none;stroke:#FFFFFF;stroke-width:5.76"/>
	<rect x="63.31" y="207.90" width="4193.24" height="1257.14" style="fill:#FFFFFF"/>
	<rect x="65.47" y="210.06" width="4188.92" height="1252.82" style="fill:none;stroke:#FFFFFF;stroke-width:4.32"/>
	<rect x="110.83" y="255.42" width="2049.17" height="1162.10" style="fill:#FFFFFF"/>
	<rect x="112.45" y="257.04" width="2045.93" height="1158.86" style="fill:none;stroke:#FFFFFF;stroke-width:3.24"/>
	<rect x="302.54" y="387.86" width="1800.77" height="804.21" style="fill:#E0E0E0"/>
	<rect x="304.15" y="389.48" width="1797.53" height="800.97" style="fill:none;stroke:#FFFFFF;stroke-width:3.24"/>
	<line x1="302.54" y1="973.23" x2="2103.30" y2="973.23" style="stroke:#FFFFFF;stroke-width:3.24"/>
	<line x1="302.54" y1="789.90" x2="2103.30" y2="789.90" style="stroke:#FFFFFF;stroke-width:3.24"/>
	<line x1="302.54" y1="606.70" x2="2103.30" y2="606.70" style="stroke:#FFFFFF;stroke-width:3.24"/>
	<line x1="547.83" y1="1192.07" x2="547.83" y2="387.86" style="stroke:#FFFFFF;stroke-width:3.24"/>
	<line x1="757.49" y1="1192.07" x2="757.49" y2="387.86" style="stroke:#FFFFFF;stroke-width:3.24"/>
	<line x1="967.14" y1="1192.07" x2="967.14" y2="387.86" style="stroke:#FFFFFF;stroke-width:3.24"/>
	<line x1="1176.66" y1="1192.07" x2="1176.66" y2="387.86" style="stroke:#FFFFFF;stroke-width:3.24"/>
	<line x1="1386.32" y1="1192.07" x2="1386.32" y2="387.86" style="stroke:#FFFFFF;stroke-width:3.24"/>
	<line x1="1595.97" y1="1192.07" x2="1595.97" y2="387.86" style="stroke:#FFFFFF;stroke-width:3.24"/>
	<line x1="1805.63" y1="1192.07" x2="1805.63" y2="387.86" style="stroke:#FFFFFF;stroke-width:3.24"/>
	<line x1="2015.28" y1="1192.07" x2="2015.28" y2="387.86" style="stroke:#FFFFFF;stroke-width:3.24"/>
	<rect x="495.45" y="973.23" width="104.76" height="183.20" style="fill:#B8B8B8"/>
	<rect x="497.07" y="974.85" width="101.52" height="179.96" style="fill:none;stroke:#000000;stroke-width:3.24"/>
	<rect x="600.21" y="973.23" width="104.89" height="183.20" style="fill:#B8B8B8"/>
	<rect x="601.83" y="974.85" width="101.66" height="179.96" style="fill:none;stroke:#000000;stroke-width:3.24"/>
	<rect x="809.87" y="973.23" width="104.76" height="183.20" style="fill:#B8B8B8"/>
	<rect x="811.48" y="974.85" width="101.52" height="179.96" style="fill:none;stroke:#000000;stroke-width:3.24"/>
	<rect x="1019.52" y="973.23" width="104.76" height="183.20" style="fill:#B8B8B8"/>
	<rect x="1021.14" y="974.85" width="101.52" height="179.96" style="fill:none;stroke:#000000;stroke-width:3.24"/>
	<rect x="1124.28" y="973.23" width="104.89" height="183.20" style="fill:#B8B8B8"/>
	<rect x="1125.90" y="974.85" width="101.66" height="179.96" style="fill:none;stroke:#000000;stroke-width:3.24"/>
	<rect x="1438.69" y="789.90" width="104.89" height="366.53" style="fill:#B8B8B8"/>
	<rect x="1440.31" y="791.52" width="101.66" height="363.29" style="fill:none;stroke:#000000;stroke-width:3.24"/>
	<rect x="1543.59" y="789.90" width="104.76" height="366.53" style="fill:#B8B8B8"/>
	<rect x="1545.21" y="791.52" width="101.52" height="363.29" style="fill:none;stroke:#000000;stroke-width:3.24"/>
	<rect x="1648.35" y="973.23" width="104.89" height="183.20" style="fill:#B8B8B8"/>
	<rect x="1649.97" y="974.85" width="101.66" height="179.96" style="fill:none;stroke:#000000;stroke-width:3.24"/>
	<rect x="1753.24" y="606.70" width="104.76" height="549.73" style="fill:#B8B8B8"/>
	<rect x="1754.86" y="608.32" width="101.52" height="546.49" style="fill:none;stroke:#000000;stroke-width:3.24"/>
	<rect x="1858.01" y="606.70" width="104.76" height="549.73" style="fill:#B8B8B8"/>
	<rect x="1859.62" y="608.32" width="101.52" height="546.49" style="fill:none;stroke:#000000;stroke-width:3.24"/>
	<rect x="1962.77" y="973.23" width="104.89" height="183.20" style="fill:#B8B8B8"/>
	<rect x="1964.38" y="974.85" width="101.66" height="179.96" style="fill:none;stroke:#000000;stroke-width:3.24"/>
	<line x1="302.54" y1="973.23" x2="279.99" y2="973.23" style="stroke:#606060;stroke-width:3.24"/>
	<text x="268.79" y="989.00" style="font-family:'Helvetica';font-size:44.95px;fill:#606060" text-anchor="end">1</text>
	<line x1="302.54" y1="789.90" x2="279.99" y2="789.90" style="stroke:#606060;stroke-width:3.24"/>
	<text x="268.79" y="805.67" style="font-family:'Helvetica';font-size:44.95px;fill:#606060" text-anchor="end">2</text>
	<line x1="302.54" y1="606.70" x2="279.99" y2="606.70" style="stroke:#606060;stroke-width:3.24"/>
	<text x="268.79" y="622.47" style="font-family:'Helvetica';font-size:44.95px;fill:#606060" text-anchor="end">3</text>
	<line x1="302.54" y1="423.50" x2="279.99" y2="423.50" style="stroke:#606060;stroke-width:3.24"/>
	<text x="268.79" y="439.27" style="font-family:'Helvetica';font-size:44.95px;fill:#606060" text-anchor="end">4</text>
	<text x="210.28" y="789.90" style="font-family:'Helvetica';font-size:44.95px;fill:#000000" transform="rotate(-90 210.28,789.90)" text-anchor="middle">Number</text>
	<line x1="338.18" y1="1192.07" x2="338.18" y2="1214.61" style="stroke:#606060;stroke-width:3.24"/>
	<text x="353.94" y="1225.82" style="font-family:'Helvetica';font-size:44.95px;fill:#606060" transform="rotate(-90 353.94,1225.82)" text-anchor="end">2010</text>
	<line x1="547.83" y1="1192.07" x2="547.83" y2="1214.61" style="stroke:#606060;stroke-width:3.24"/>
	<text x="563.60" y="1225.82" style="font-family:'Helvetica';font-size:44.95px;fill:#606060" transform="rotate(-90 563.60,1225.82)" text-anchor="end">2012</text>
	<line x1="757.49" y1="1192.07" x2="757.49" y2="1214.61" style="stroke:#606060;stroke-width:3.24"/>
	<text x="773.25" y="1225.82" style="font-family:'Helvetica';font-size:44.95px;fill:#606060" transform="rotate(-90 773.25,1225.82)" text-anchor="end">2014</text>
	<line x1="967.14" y1="1192.07" x2="967.14" y2="1214.61" style="stroke:#606060;stroke-width:3.24"/>
	<text x="982.91" y="1225.82" style="font-family:'Helvetica';font-size:44.95px;fill:#606060" transform="rotate(-90 982.91,1225.82)" text-anchor="end">2016</text>
	<line x1="1176.66" y1="1192.07" x2="1176.66" y2="1214.61" style="stroke:#606060;stroke-width:3.24"/>
	<text x="1192.43" y="1225.82" style="font-family:'Helvetica';font-size:44.95px;fill:#606060" transform="rotate(-90 1192.43,1225.82)" text-anchor="end">2018</text>
	<line x1="1386.32" y1="1192.07" x2="1386.32" y2="1214.61" style="stroke:#606060;stroke-width:3.24"/>
	<text x="1402.08" y="1225.82" style="font-family:'Helvetica';font-size:44.95px;fill:#606060" transform="rotate(-90 1402.08,1225.82)" text-anchor="end">2020</text>
	<line x1="1595.97" y1="1192.07" x2="1595.97" y2="1214.61" style="stroke:#606060;stroke-width:3.24"/>
	<text x="1611.74" y="1225.82" style="font-family:'Helvetica';font-size:44.95px;fill:#606060" transform="rotate(-90 1611.74,1225.82)" text-anchor="end">2022</text>
	<line x1="1805.63" y1="1192.07" x2="1805.63" y2="1214.61" style="stroke:#606060;stroke-width:3.24"/>
	<text x="1821.39" y="1225.82" style="font-family:'Helvetica';font-size:44.95px;fill:#606060" transform="rotate(-90 1821.39,1225.82)" text-anchor="end">2024</text>
	<line x1="2015.28" y1="1192.07" x2="2015.28" y2="1214.61" style="stroke:#606060;stroke-width:3.24"/>
	<text x="2031.05" y="1225.82" style="font-family:'Helvetica';font-size:44.95px;fill:#606060" transform="rotate(-90 2031.05,1225.82)" text-anchor="end">2026</text>
	<text x="1202.85" y="361.18" style="font-family:'Helvetica';font-size:56.30px;fill:#000000" text-anchor="middle">Papers over the years</text>
	<rect x="2160.00" y="255.42" width="2049.03" height="1162.10" style="fill:#FFFFFF"/>
	<rect x="2161.62" y="257.04" width="2045.79" height="1158.86" style="fill:none;stroke:#FFFFFF;stroke-width:3.24"/>
	<rect x="3203.01" y="387.86" width="949.32" height="832.29" style="fill:#E0E0E0"/>
	<rect x="3204.63" y="389.48" width="946.08" height="829.05" style="fill:none;stroke:#FFFFFF;stroke-width:3.24"/>
	<line x1="3203.01" y1="1220.15" x2="3203.01" y2="387.86" style="stroke:#FFFFFF;stroke-width:3.24"/>
	<line x1="3426.17" y1="1220.15" x2="3426.17" y2="387.86" style="stroke:#FFFFFF;stroke-width:3.24"/>
	<line x1="3649.32" y1="1220.15" x2="3649.32" y2="387.86" style="stroke:#FFFFFF;stroke-width:3.24"/>
	<line x1="3872.47" y1="1220.15" x2="3872.47" y2="387.86" style="stroke:#FFFFFF;stroke-width:3.24"/>
	<rect x="3203.01" y="1123.22" width="223.15" height="33.62" style="fill:#808080"/>
	<rect x="3204.63" y="1124.84" width="219.92" height="30.38" style="fill:none;stroke:#000000;stroke-width:3.24"/>
	<rect x="3203.01" y="1067.19" width="669.46" height="33.62" style="fill:#808080"/>
	<rect x="3204.63" y="1068.81" width="666.23" height="30.38" style="fill:none;stroke:#000000;stroke-width:3.24"/>
	<rect x="3203.01" y="1011.30" width="223.15" height="33.48" style="fill:#808080"/>
	<rect x="3204.63" y="1012.92" width="219.92" height="30.24" style="fill:none;stroke:#000000;stroke-width:3.24"/>
	<rect x="3203.01" y="955.27" width="223.15" height="33.48" style="fill:#808080"/>
	<rect x="3204.63" y="956.89" width="219.92" height="30.24" style="fill:none;stroke:#000000;stroke-width:3.24"/>
	<rect x="3203.01" y="899.25" width="223.15" height="33.48" style="fill:#808080"/>
	<rect x="3204.63" y="900.87" width="219.92" height="30.24" style="fill:none;stroke:#000000;stroke-width:3.24"/>
	<rect x="3203.01" y="843.22" width="223.15" height="33.62" style="fill:#808080"/>
	<rect x="3204.63" y="844.84" width="219.92" height="30.38" style="fill:none;stroke:#000000;stroke-width:3.24"/>
	<rect x="3203.01" y="787.20" width="223.15" height="33.62" style="fill:#808080"/>
	<rect x="3204.63" y="788.82" width="219.92" height="30.38" style="fill:none;stroke:#000000;stroke-width:3.24"/>
	<rect x="3203.01" y="731.17" width="223.15" height="33.62" style="fill:#808080"/>
	<rect x="3204.63" y="732.79" width="219.92" height="30.38" style="fill:none;stroke:#000000;stroke-width:3.24"/>
	<rect x="3203.01" y="675.28" width="223.15" height="33.48" style="fill:#808080"/>
	<rect x="3204.63" y="676.90" width="219.92" height="30.24" style="fill:none;stroke:#000000;stroke-width:3.24"/>
	<rect x="3203.01" y="619.25" width="669.46" height="33.48" style="fill:#808080"/>
	<rect x="3204.63" y="620.87" width="666.23" height="30.24" style="fill:none;stroke:#000000;stroke-width:3.24"/>
	<rect x="3203.01" y="563.23" width="223.15" height="33.48" style="fill:#808080"/>
	<rect x="3204.63" y="564.85" width="219.92" height="30.24" style="fill:none;stroke:#000000;stroke-width:3.24"/>
	<rect x="3203.01" y="507.20" width="223.15" height="33.62" style="fill:#808080"/>
	<rect x="3204.63" y="508.82" width="219.92" height="30.38" style="fill:none;stroke:#000000;stroke-width:3.24"/>
	<rect x="3203.01" y="451.18" width="223.15" height="33.62" style="fill:#808080"/>
	<rect x="3204.63" y="452.80" width="219.92" height="30.38" style="fill:none;stroke:#000000;stroke-width:3.24"/>
	<line x1="3203.01" y1="1220.15" x2="3203.01" y2="1242.69" style="stroke:#606060;stroke-width:3.24"/>
	<text x="3203.01" y="1285.30" style="font-family:'Helvetica';font-size:44.95px;fill:#606060" text-anchor="middle">0</text>
	<line x1="3426.17" y1="1220.15" x2="3426.17" y2="1242.69" style="stroke:#606060;stroke-width:3.24"/>
	<text x="3426.17" y="1285.30" style="font-family:'Helvetica';font-size:44.95px;fill:#606060" text-anchor="middle">1</text>
	<line x1="3649.32" y1="1220.15" x2="3649.32" y2="1242.69" style="stroke:#606060;stroke-width:3.24"/>
	<text x="3649.32" y="1285.30" style="font-family:'Helvetica';font-size:44.95px;fill:#606060" text-anchor="middle">2</text>
	<line x1="3872.47" y1="1220.15" x2="3872.47" y2="1242.69" style="stroke:#606060;stroke-width:3.24"/>
	<text x="3872.47" y="1285.30" style="font-family:'Helvetica';font-size:44.95px;fill:#606060" text-anchor="middle">3</text>
	<line x1="4095.63" y1="1220.15" x2="4095.63" y2="1242.69" style="stroke:#606060;stroke-width:3.24"/>
	<text x="4095.63" y="1285.30" style="font-family:'Helvetica';font-size:44.95px;fill:#606060" text-anchor="middle">4</text>
	<line x1="3203.01" y1="1220.15" x2="4095.63" y2="1220.15" style="stroke:#000000;stroke-width:3.24"/>
	<text x="3677.67" y="1335.93" style="font-family:'Helvetica';font-size:44.95px;fill:#000000" text-anchor="middle">Number</text>
	<text x="3180.47" y="1155.73" style="font-family:'Helvetica';font-size:44.95px;fill:#606060" text-anchor="end">World Development</text>
	<text x="3180.47" y="1099.84" style="font-family:'Helvetica';font-size:44.95px;fill:#606060" text-anchor="end">The Journal of Development Studies</text>
	<text x="3180.47" y="1043.81" style="font-family:'Helvetica';font-size:44.95px;fill:#606060" text-anchor="end">The ANNALS of the AAPSS</text>
	<text x="3180.47" y="987.78" style="font-family:'Helvetica';font-size:44.95px;fill:#606060" text-anchor="end">South Asia Multidisciplinary Academic Journal</text>
	<text x="3180.47" y="931.76" style="font-family:'Helvetica';font-size:44.95px;fill:#606060" text-anchor="end">Revue d'Economie du Développement</text>
	<text x="3180.47" y="875.73" style="font-family:'Helvetica';font-size:44.95px;fill:#606060" text-anchor="end">Review of Political Economy</text>
	<text x="3180.47" y="819.84" style="font-family:'Helvetica';font-size:44.95px;fill:#606060" text-anchor="end">Population</text>
	<text x="3180.47" y="763.81" style="font-family:'Helvetica';font-size:44.95px;fill:#606060" text-anchor="end">Esclavages et post-esclavages</text>
	<text x="3180.47" y="707.79" style="font-family:'Helvetica';font-size:44.95px;fill:#606060" text-anchor="end">Economies et sociétés</text>
	<text x="3180.47" y="651.76" style="font-family:'Helvetica';font-size:44.95px;fill:#606060" text-anchor="end">Economic and Political Weekly</text>
	<text x="3180.47" y="595.74" style="font-family:'Helvetica';font-size:44.95px;fill:#606060" text-anchor="end">Development and Change</text>
	<text x="3180.47" y="539.71" style="font-family:'Helvetica';font-size:44.95px;fill:#606060" text-anchor="end">Development Policy Review</text>
	<text x="3180.47" y="483.82" style="font-family:'Helvetica';font-size:44.95px;fill:#606060" text-anchor="end">Contemporary South Asia</text>
	<text x="3677.67" y="361.18" style="font-family:'Helvetica';font-size:56.30px;fill:#000000" text-anchor="middle">Journals</text>
	<rect x="63.31" y="1465.04" width="4193.24" height="1257.00" style="fill:#FFFFFF"/>
	<rect x="65.47" y="1467.20" width="4188.92" height="1252.68" style="fill:none;stroke:#FFFFFF;stroke-width:4.32"/>
	<rect x="110.83" y="1512.56" width="2049.17" height="1161.96" style="fill:#FFFFFF"/>
	<rect x="112.45" y="1514.18" width="2045.93" height="1158.72" style="fill:none;stroke:#FFFFFF;stroke-width:3.24"/>
	<rect x="328.73" y="1644.87" width="1774.58" height="650.58" style="fill:#E0E0E0"/>
	<rect x="330.34" y="1646.49" width="1771.34" height="647.34" style="fill:none;stroke:#FFFFFF;stroke-width:3.24"/>
	<line x1="328.73" y1="2295.44" x2="2103.30" y2="2295.44" style="stroke:#FFFFFF;stroke-width:3.24"/>
	<line x1="328.73" y1="2196.48" x2="2103.30" y2="2196.48" style="stroke:#FFFFFF;stroke-width:3.24"/>
	<line x1="328.73" y1="2097.53" x2="2103.30" y2="2097.53" style="stroke:#FFFFFF;stroke-width:3.24"/>
	<line x1="328.73" y1="1998.57" x2="2103.30" y2="1998.57" style="stroke:#FFFFFF;stroke-width:3.24"/>
	<line x1="328.73" y1="1899.61" x2="2103.30" y2="1899.61" style="stroke:#FFFFFF;stroke-width:3.24"/>
	<line x1="328.73" y1="1800.52" x2="2103.30" y2="1800.52" style="stroke:#FFFFFF;stroke-width:3.24"/>
	<rect x="419.58" y="1829.68" width="170.37" height="465.76" style="fill:#808080"/>
	<rect x="421.20" y="1831.30" width="167.13" height="462.52" style="fill:none;stroke:#000000;stroke-width:3.24"/>
	<rect x="704.02" y="1887.87" width="170.37" height="407.57" style="fill:#808080"/>
	<rect x="705.64" y="1889.49" width="167.13" height="404.33" style="fill:none;stroke:#000000;stroke-width:3.24"/>
	<rect x="988.61" y="2004.38" width="170.37" height="291.06" style="fill:#808080"/>
	<rect x="990.22" y="2006.00" width="167.13" height="287.82" style="fill:none;stroke:#000000;stroke-width:3.24"/>
	<rect x="1273.05" y="2120.75" width="170.37" height="174.69" style="fill:#808080"/>
	<rect x="1274.67" y="2122.37" width="167.13" height="171.45" style="fill:none;stroke:#000000;stroke-width:3.24"/>
	<rect x="1557.63" y="2237.25" width="170.37" height="58.19" style="fill:#808080"/>
	<rect x="1559.25" y="2238.87" width="167.13" height="54.95" style="fill:none;stroke:#000000;stroke-width:3.24"/>
	<rect x="1842.08" y="2237.25" width="170.37" height="58.19" style="fill:#808080"/>
	<rect x="1843.69" y="2238.87" width="167.13" height="54.95" style="fill:none;stroke:#000000;stroke-width:3.24"/>
	<line x1="328.73" y1="2295.44" x2="306.32" y2="2295.44" style="stroke:#606060;stroke-width:3.24"/>
	<text x="295.11" y="2311.21" style="font-family:'Helvetica';font-size:44.95px;fill:#606060" text-anchor="end">0</text>
	<line x1="328.73" y1="2196.48" x2="306.32" y2="2196.48" style="stroke:#606060;stroke-width:3.24"/>
	<text x="295.11" y="2212.25" style="font-family:'Helvetica';font-size:44.95px;fill:#606060" text-anchor="end">10</text>
	<line x1="328.73" y1="2097.53" x2="306.32" y2="2097.53" style="stroke:#606060;stroke-width:3.24"/>
	<text x="295.11" y="2113.30" style="font-family:'Helvetica';font-size:44.95px;fill:#606060" text-anchor="end">20</text>
	<line x1="328.73" y1="1998.57" x2="306.32" y2="1998.57" style="stroke:#606060;stroke-width:3.24"/>
	<text x="295.11" y="2014.34" style="font-family:'Helvetica';font-size:44.95px;fill:#606060" text-anchor="end">30</text>
	<line x1="328.73" y1="1899.61" x2="306.32" y2="1899.61" style="stroke:#606060;stroke-width:3.24"/>
	<text x="295.11" y="1915.38" style="font-family:'Helvetica';font-size:44.95px;fill:#606060" text-anchor="end">40</text>
	<line x1="328.73" y1="1800.52" x2="306.32" y2="1800.52" style="stroke:#606060;stroke-width:3.24"/>
	<text x="295.11" y="1816.29" style="font-family:'Helvetica';font-size:44.95px;fill:#606060" text-anchor="end">50</text>
	<line x1="328.73" y1="1701.57" x2="306.32" y2="1701.57" style="stroke:#606060;stroke-width:3.24"/>
	<text x="295.11" y="1717.33" style="font-family:'Helvetica';font-size:44.95px;fill:#606060" text-anchor="end">60</text>
	<line x1="328.73" y1="2295.44" x2="328.73" y2="1701.57" style="stroke:#000000;stroke-width:3.24"/>
	<text x="210.28" y="1970.22" style="font-family:'Helvetica';font-size:44.95px;fill:#000000" transform="rotate(-90 210.28,1970.22)" text-anchor="middle">Percentage</text>
	<text x="520.53" y="2317.99" style="font-family:'Helvetica';font-size:44.95px;fill:#606060" transform="rotate(-90 520.53,2317.99)" text-anchor="end">Development</text>
	<text x="804.98" y="2317.99" style="font-family:'Helvetica';font-size:44.95px;fill:#606060" transform="rotate(-90 804.98,2317.99)" text-anchor="end">Economics</text>
	<text x="1089.56" y="2317.99" style="font-family:'Helvetica';font-size:44.95px;fill:#606060" transform="rotate(-90 1089.56,2317.99)" text-anchor="end">Sociology</text>
	<text x="1374.00" y="2317.99" style="font-family:'Helvetica';font-size:44.95px;fill:#606060" transform="rotate(-90 1374.00,2317.99)" text-anchor="end">Geography</text>
	<text x="1658.58" y="2317.99" style="font-family:'Helvetica';font-size:44.95px;fill:#606060" transform="rotate(-90 1658.58,2317.99)" text-anchor="end">Demography</text>
	<text x="1943.03" y="2317.99" style="font-family:'Helvetica';font-size:44.95px;fill:#606060" transform="rotate(-90 1943.03,2317.99)" text-anchor="end">Management</text>
	<text x="1216.08" y="1618.19" style="font-family:'Helvetica';font-size:56.30px;fill:#000000" text-anchor="middle">Topics of journals</text>
	<rect x="2160.00" y="1512.56" width="2049.03" height="1161.96" style="fill:#FFFFFF"/>
	<rect x="2161.62" y="1514.18" width="2045.79" height="1158.72" style="fill:none;stroke:#FFFFFF;stroke-width:3.24"/>
	<rect x="2377.89" y="1644.87" width="1774.44" height="894.25" style="fill:#E0E0E0"/>
	<rect x="2379.51" y="1646.49" width="1771.20" height="891.01" style="fill:none;stroke:#FFFFFF;stroke-width:3.24"/>
	<line x1="2377.89" y1="2539.12" x2="4152.33" y2="2539.12" style="stroke:#FFFFFF;stroke-width:3.24"/>
	<line x1="2377.89" y1="2329.73" x2="4152.33" y2="2329.73" style="stroke:#FFFFFF;stroke-width:3.24"/>
	<line x1="2377.89" y1="2120.34" x2="4152.33" y2="2120.34" style="stroke:#FFFFFF;stroke-width:3.24"/>
	<line x1="2377.89" y1="1910.95" x2="4152.33" y2="1910.95" style="stroke:#FFFFFF;stroke-width:3.24"/>
	<line x1="2377.89" y1="1701.57" x2="4152.33" y2="1701.57" style="stroke:#FFFFFF;stroke-width:3.24"/>
	<rect x="2486.43" y="1800.12" width="259.07" height="739.00" style="fill:#808080"/>
	<rect x="2488.05" y="1801.74" width="255.83" height="735.76" style="fill:none;stroke:#000000;stroke-width:3.24"/>
	<rect x="2919.11" y="2046.50" width="259.20" height="492.62" style="fill:#808080"/>
	<rect x="2920.72" y="2048.12" width="255.96" height="489.38" style="fill:none;stroke:#000000;stroke-width:3.24"/>
	<rect x="3351.92" y="2046.50" width="259.20" height="492.62" style="fill:#808080"/>
	<rect x="3353.53" y="2048.12" width="255.96" height="489.38" style="fill:none;stroke:#000000;stroke-width:3.24"/>
	<rect x="3784.72" y="2169.62" width="259.07" height="369.50" style="fill:#808080"/>
	<rect x="3786.34" y="2171.24" width="255.83" height="366.26" style="fill:none;stroke:#000000;stroke-width:3.24"/>
	<line x1="2377.89" y1="2539.12" x2="2355.34" y2="2539.12" style="stroke:#606060;stroke-width:3.24"/>
	<text x="2344.14" y="2554.89" style="font-family:'Helvetica';font-size:44.95px;fill:#606060" text-anchor="end">0</text>
	<line x1="2377.89" y1="2329.73" x2="2355.34" y2="2329.73" style="stroke:#606060;stroke-width:3.24"/>
	<text x="2344.14" y="2345.50" style="font-family:'Helvetica';font-size:44.95px;fill:#606060" text-anchor="end">10</text>
	<line x1="2377.89" y1="2120.34" x2="2355.34" y2="2120.34" style="stroke:#606060;stroke-width:3.24"/>
	<text x="2344.14" y="2136.11" style="font-family:'Helvetica';font-size:44.95px;fill:#606060" text-anchor="end">20</text>
	<line x1="2377.89" y1="1910.95" x2="2355.34" y2="1910.95" style="stroke:#606060;stroke-width:3.24"/>
	<text x="2344.14" y="1926.72" style="font-family:'Helvetica';font-size:44.95px;fill:#606060" text-anchor="end">30</text>
	<line x1="2377.89" y1="1701.57" x2="2355.34" y2="1701.57" style="stroke:#606060;stroke-width:3.24"/>
	<text x="2344.14" y="1717.33" style="font-family:'Helvetica';font-size:44.95px;fill:#606060" text-anchor="end">40</text>
	<line x1="2377.89" y1="2539.12" x2="2377.89" y2="1701.57" style="stroke:#000000;stroke-width:3.24"/>
	<text x="2259.31" y="2091.99" style="font-family:'Helvetica';font-size:44.95px;fill:#000000" transform="rotate(-90 2259.31,2091.99)" text-anchor="middle">Percentage</text>
	<text x="2616.03" y="2593.07" style="font-family:'Helvetica';font-size:44.95px;fill:#606060" text-anchor="middle">Q1</text>
	<text x="3048.70" y="2593.07" style="font-family:'Helvetica';font-size:44.95px;fill:#606060" text-anchor="middle">Q2</text>
	<text x="3481.51" y="2593.07" style="font-family:'Helvetica';font-size:44.95px;fill:#606060" text-anchor="middle">Q3</text>
	<text x="3914.32" y="2593.07" style="font-family:'Helvetica';font-size:44.95px;fill:#606060" text-anchor="middle">Q4</text>
	<text x="3265.11" y="1618.19" style="font-family:'Helvetica';font-size:56.30px;fill:#000000" text-anchor="middle">Category of journals (SJR 2024)</text>
	<text x="80.59" y="2781.35" style="fill:#000000">
		<tspan style="font-family:'Helvetica';font-style:italic;font-size:59.94px">Source:</tspan>
		<tspan style="font-family:'Helvetica';font-size:59.94px"> A. Natal. Updated in October 2025.</tspan>
	</text>
	<text x="2160.00" y="157.55" style="font-family:'Helvetica';font-size:110.03px;fill:#000000" text-anchor="middle">Papers published in journals (N=17)</text>
</svg>
