<?xml version="1.0" encoding="UTF-8" standalone="no"?>
<!-- This is a Stata 15.1 generated SVG file (http://www.stata.com) -->

<svg version="1.1" width="5.50in" height="4.00in" viewBox="0 0 3960 2880" xmlns="http://www.w3.org/2000/svg" xmlns:xlink="http://www.w3.org/1999/xlink">
	<desc>Stata Graph - wpglobal</desc>
	<rect x="0" y="0" width="3960" height="2880" style="fill:#FFFFFF;stroke:none"/>
	<rect x="0.00" y="0.00" width="3959.88" height="2880.00" style="fill:#FFFFFF"/>
	<rect x="2.88" y="2.88" width="3954.12" height="2874.24" style="fill:none;stroke:#FFFFFF;stroke-width:5.76"/>
	<rect x="63.36" y="207.91" width="3833.16" height="1257.09" style="fill:#FFFFFF"/>
	<rect x="65.52" y="210.07" width="3828.84" height="1252.77" style="fill:none;stroke:#FFFFFF;stroke-width:4.32"/>
	<rect x="110.88" y="255.43" width="1869.12" height="1162.05" style="fill:#FFFFFF"/>
	<rect x="112.50" y="257.05" width="1865.88" height="1158.81" style="fill:none;stroke:#FFFFFF;stroke-width:3.24"/>
	<rect x="309.76" y="411.99" width="1611.82" height="614.29" style="fill:none;stroke:#000000;stroke-width:3.24"/>
	<line x1="308.14" y1="1027.90" x2="1923.20" y2="1027.90" style="stroke:#E0E0E0;stroke-width:4.86"/>
	<line x1="308.14" y1="887.69" x2="1923.20" y2="887.69" style="stroke:#E0E0E0;stroke-width:4.86"/>
	<line x1="308.14" y1="747.47" x2="1923.20" y2="747.47" style="stroke:#E0E0E0;stroke-width:4.86"/>
	<line x1="308.14" y1="607.26" x2="1923.20" y2="607.26" style="stroke:#E0E0E0;stroke-width:4.86"/>
	<line x1="308.14" y1="467.05" x2="1923.20" y2="467.05" style="stroke:#E0E0E0;stroke-width:4.86"/>
	<rect x="462.70" y="502.07" width="489.18" height="525.83" style="fill:#606060"/>
	<rect x="464.32" y="503.69" width="485.94" height="522.59" style="fill:none;stroke:#606060;stroke-width:3.24"/>
	<rect x="1279.58" y="852.66" width="489.18" height="175.24" style="fill:#606060"/>
	<rect x="1281.19" y="854.28" width="485.94" height="172.00" style="fill:none;stroke:#606060;stroke-width:3.24"/>
	<line x1="308.14" y1="1027.90" x2="308.14" y2="410.37" style="stroke:#000000;stroke-width:3.24"/>
	<line x1="308.14" y1="1027.90" x2="285.62" y2="1027.90" style="stroke:#000000;stroke-width:3.24"/>
	<text x="260.90" y="1027.90" style="font-family:'Helvetica';font-size:45.05px;fill:#000000" transform="rotate(-90 260.90,1027.90)" text-anchor="middle">0</text>
	<line x1="308.14" y1="887.69" x2="285.62" y2="887.69" style="stroke:#000000;stroke-width:3.24"/>
	<text x="260.90" y="887.69" style="font-family:'Helvetica';font-size:45.05px;fill:#000000" transform="rotate(-90 260.90,887.69)" text-anchor="middle">20</text>
	<line x1="308.14" y1="747.47" x2="285.62" y2="747.47" style="stroke:#000000;stroke-width:3.24"/>
	<text x="260.90" y="747.47" style="font-family:'Helvetica';font-size:45.05px;fill:#000000" transform="rotate(-90 260.90,747.47)" text-anchor="middle">40</text>
	<line x1="308.14" y1="607.26" x2="285.62" y2="607.26" style="stroke:#000000;stroke-width:3.24"/>
	<text x="260.90" y="607.26" style="font-family:'Helvetica';font-size:45.05px;fill:#000000" transform="rotate(-90 260.90,607.26)" text-anchor="middle">60</text>
	<line x1="308.14" y1="467.05" x2="285.62" y2="467.05" style="stroke:#000000;stroke-width:3.24"/>
	<text x="260.90" y="467.05" style="font-family:'Helvetica';font-size:45.05px;fill:#000000" transform="rotate(-90 260.90,467.05)" text-anchor="middle">80</text>
	<text x="210.29" y="719.13" style="font-family:'Helvetica';font-size:45.05px;fill:#000000" transform="rotate(-90 210.29,719.13)" text-anchor="middle">Percentage</text>
	<line x1="308.14" y1="1027.90" x2="1923.20" y2="1027.90" style="stroke:#000000;stroke-width:3.24"/>
	<text x="723.03" y="1050.42" style="font-family:'Helvetica';font-size:45.05px;fill:#000000" transform="rotate(-90 723.03,1050.42)" text-anchor="end">Cross-section</text>
	<text x="1539.90" y="1050.42" style="font-family:'Helvetica';font-size:45.05px;fill:#000000" transform="rotate(-90 1539.90,1050.42)" text-anchor="end">Panel</text>
	<text x="1115.73" y="376.92" style="font-family:'Helvetica';font-size:78.70px;fill:#000000" text-anchor="middle">Analysis</text>
	<rect x="1980.00" y="255.43" width="1869.00" height="1162.05" style="fill:#FFFFFF"/>
	<rect x="1981.62" y="257.05" width="1865.76" height="1158.81" style="fill:none;stroke:#FFFFFF;stroke-width:3.24"/>
	<rect x="2178.88" y="411.99" width="1611.82" height="648.32" style="fill:none;stroke:#000000;stroke-width:3.24"/>
	<line x1="2177.26" y1="1061.93" x2="3792.32" y2="1061.93" style="stroke:#E0E0E0;stroke-width:4.86"/>
	<line x1="2177.26" y1="943.00" x2="3792.32" y2="943.00" style="stroke:#E0E0E0;stroke-width:4.86"/>
	<line x1="2177.26" y1="823.95" x2="3792.32" y2="823.95" style="stroke:#E0E0E0;stroke-width:4.86"/>
	<line x1="2177.26" y1="705.03" x2="3792.32" y2="705.03" style="stroke:#E0E0E0;stroke-width:4.86"/>
	<line x1="2177.26" y1="585.97" x2="3792.32" y2="585.97" style="stroke:#E0E0E0;stroke-width:4.86"/>
	<line x1="2177.26" y1="467.05" x2="3792.32" y2="467.05" style="stroke:#E0E0E0;stroke-width:4.86"/>
	<rect x="2826.33" y="913.30" width="316.80" height="148.63" style="fill:#606060"/>
	<rect x="2827.95" y="914.92" width="313.56" height="145.39" style="fill:none;stroke:#606060;stroke-width:3.24"/>
	<rect x="3355.48" y="467.05" width="316.80" height="594.88" style="fill:#606060"/>
	<rect x="3357.10" y="468.67" width="313.56" height="591.64" style="fill:none;stroke:#606060;stroke-width:3.24"/>
	<line x1="2177.26" y1="1061.93" x2="2177.26" y2="410.37" style="stroke:#000000;stroke-width:3.24"/>
	<line x1="2177.26" y1="1061.93" x2="2154.74" y2="1061.93" style="stroke:#000000;stroke-width:3.24"/>
	<text x="2129.90" y="1061.93" style="font-family:'Helvetica';font-size:45.05px;fill:#000000" transform="rotate(-90 2129.90,1061.93)" text-anchor="middle">0</text>
	<line x1="2177.26" y1="943.00" x2="2154.74" y2="943.00" style="stroke:#000000;stroke-width:3.24"/>
	<text x="2129.90" y="943.00" style="font-family:'Helvetica';font-size:45.05px;fill:#000000" transform="rotate(-90 2129.90,943.00)" text-anchor="middle">20</text>
	<line x1="2177.26" y1="823.95" x2="2154.74" y2="823.95" style="stroke:#000000;stroke-width:3.24"/>
	<text x="2129.90" y="823.95" style="font-family:'Helvetica';font-size:45.05px;fill:#000000" transform="rotate(-90 2129.90,823.95)" text-anchor="middle">40</text>
	<line x1="2177.26" y1="705.03" x2="2154.74" y2="705.03" style="stroke:#000000;stroke-width:3.24"/>
	<text x="2129.90" y="705.03" style="font-family:'Helvetica';font-size:45.05px;fill:#000000" transform="rotate(-90 2129.90,705.03)" text-anchor="middle">60</text>
	<line x1="2177.26" y1="585.97" x2="2154.74" y2="585.97" style="stroke:#000000;stroke-width:3.24"/>
	<text x="2129.90" y="585.97" style="font-family:'Helvetica';font-size:45.05px;fill:#000000" transform="rotate(-90 2129.90,585.97)" text-anchor="middle">80</text>
	<line x1="2177.26" y1="467.05" x2="2154.74" y2="467.05" style="stroke:#000000;stroke-width:3.24"/>
	<text x="2129.90" y="467.05" style="font-family:'Helvetica';font-size:45.05px;fill:#000000" transform="rotate(-90 2129.90,467.05)" text-anchor="middle">100</text>
	<text x="2079.28" y="736.21" style="font-family:'Helvetica';font-size:45.05px;fill:#000000" transform="rotate(-90 2079.28,736.21)" text-anchor="middle">Percentage</text>
	<line x1="2177.26" y1="1061.93" x2="3792.32" y2="1061.93" style="stroke:#000000;stroke-width:3.24"/>
	<text x="2471.49" y="1084.46" style="font-family:'Helvetica';font-size:45.05px;fill:#000000" transform="rotate(-90 2471.49,1084.46)" text-anchor="end">RUME</text>
	<text x="3000.52" y="1084.46" style="font-family:'Helvetica';font-size:45.05px;fill:#000000" transform="rotate(-90 3000.52,1084.46)" text-anchor="end">NEEMSIS-1</text>
	<text x="3529.68" y="1084.46" style="font-family:'Helvetica';font-size:45.05px;fill:#000000" transform="rotate(-90 3529.68,1084.46)" text-anchor="end">NEEMSIS-2</text>
	<text x="2984.73" y="376.92" style="font-family:'Helvetica';font-size:78.70px;fill:#000000" text-anchor="middle">Data used</text>
	<rect x="63.36" y="1465.00" width="3833.16" height="1257.09" style="fill:#FFFFFF"/>
	<rect x="65.52" y="1467.16" width="3828.84" height="1252.77" style="fill:none;stroke:#FFFFFF;stroke-width:4.32"/>
	<rect x="110.88" y="1512.52" width="1869.12" height="1162.05" style="fill:#FFFFFF"/>
	<rect x="112.50" y="1514.14" width="1865.88" height="1158.81" style="fill:none;stroke:#FFFFFF;stroke-width:3.24"/>
	<rect x="309.76" y="1669.08" width="1611.82" height="570.98" style="fill:none;stroke:#000000;stroke-width:3.24"/>
	<line x1="308.14" y1="2241.68" x2="1923.20" y2="2241.68" style="stroke:#E0E0E0;stroke-width:4.86"/>
	<line x1="308.14" y1="2112.23" x2="1923.20" y2="2112.23" style="stroke:#E0E0E0;stroke-width:4.86"/>
	<line x1="308.14" y1="1982.91" x2="1923.20" y2="1982.91" style="stroke:#E0E0E0;stroke-width:4.86"/>
	<line x1="308.14" y1="1853.46" x2="1923.20" y2="1853.46" style="stroke:#E0E0E0;stroke-width:4.86"/>
	<line x1="308.14" y1="1724.14" x2="1923.20" y2="1724.14" style="stroke:#E0E0E0;stroke-width:4.86"/>
	<rect x="387.83" y="1756.44" width="114.72" height="485.24" style="fill:#606060"/>
	<rect x="389.45" y="1758.06" width="111.48" height="482.00" style="fill:none;stroke:#606060;stroke-width:3.24"/>
	<rect x="579.40" y="1756.44" width="114.72" height="485.24" style="fill:#606060"/>
	<rect x="581.02" y="1758.06" width="111.48" height="482.00" style="fill:none;stroke:#606060;stroke-width:3.24"/>
	<rect x="770.96" y="1918.18" width="114.72" height="323.49" style="fill:#606060"/>
	<rect x="772.58" y="1919.80" width="111.48" height="320.25" style="fill:none;stroke:#606060;stroke-width:3.24"/>
	<rect x="962.53" y="1918.18" width="114.72" height="323.49" style="fill:#606060"/>
	<rect x="964.15" y="1919.80" width="111.48" height="320.25" style="fill:none;stroke:#606060;stroke-width:3.24"/>
	<rect x="1154.09" y="1918.18" width="114.72" height="323.49" style="fill:#606060"/>
	<rect x="1155.71" y="1919.80" width="111.48" height="320.25" style="fill:none;stroke:#606060;stroke-width:3.24"/>
	<rect x="1345.66" y="2079.93" width="114.72" height="161.75" style="fill:#606060"/>
	<rect x="1347.28" y="2081.55" width="111.48" height="158.51" style="fill:none;stroke:#606060;stroke-width:3.24"/>
	<rect x="1537.35" y="2079.93" width="114.72" height="161.75" style="fill:#606060"/>
	<rect x="1538.97" y="2081.55" width="111.48" height="158.51" style="fill:none;stroke:#606060;stroke-width:3.24"/>
	<rect x="1728.91" y="2079.93" width="114.72" height="161.75" style="fill:#606060"/>
	<rect x="1730.53" y="2081.55" width="111.48" height="158.51" style="fill:none;stroke:#606060;stroke-width:3.24"/>
	<line x1="308.14" y1="2241.68" x2="308.14" y2="1667.46" style="stroke:#000000;stroke-width:3.24"/>
	<line x1="308.14" y1="2241.68" x2="285.62" y2="2241.68" style="stroke:#000000;stroke-width:3.24"/>
	<text x="260.90" y="2241.68" style="font-family:'Helvetica';font-size:45.05px;fill:#000000" transform="rotate(-90 260.90,2241.68)" text-anchor="middle">0</text>
	<line x1="308.14" y1="2112.23" x2="285.62" y2="2112.23" style="stroke:#000000;stroke-width:3.24"/>
	<text x="260.90" y="2112.23" style="font-family:'Helvetica';font-size:45.05px;fill:#000000" transform="rotate(-90 260.90,2112.23)" text-anchor="middle">20</text>
	<line x1="308.14" y1="1982.91" x2="285.62" y2="1982.91" style="stroke:#000000;stroke-width:3.24"/>
	<text x="260.90" y="1982.91" style="font-family:'Helvetica';font-size:45.05px;fill:#000000" transform="rotate(-90 260.90,1982.91)" text-anchor="middle">40</text>
	<line x1="308.14" y1="1853.46" x2="285.62" y2="1853.46" style="stroke:#000000;stroke-width:3.24"/>
	<text x="260.90" y="1853.46" style="font-family:'Helvetica';font-size:45.05px;fill:#000000" transform="rotate(-90 260.90,1853.46)" text-anchor="middle">60</text>
	<line x1="308.14" y1="1724.14" x2="285.62" y2="1724.14" style="stroke:#000000;stroke-width:3.24"/>
	<text x="260.90" y="1724.14" style="font-family:'Helvetica';font-size:45.05px;fill:#000000" transform="rotate(-90 260.90,1724.14)" text-anchor="middle">80</text>
	<text x="210.29" y="1954.57" style="font-family:'Helvetica';font-size:45.05px;fill:#000000" transform="rotate(-90 210.29,1954.57)" text-anchor="middle">Percentage</text>
	<line x1="308.14" y1="2241.68" x2="1923.20" y2="2241.68" style="stroke:#000000;stroke-width:3.24"/>
	<text x="460.93" y="2264.20" style="font-family:'Helvetica';font-size:45.05px;fill:#000000" transform="rotate(-90 460.93,2264.20)" text-anchor="end">Caste</text>
	<text x="652.49" y="2264.20" style="font-family:'Helvetica';font-size:45.05px;fill:#000000" transform="rotate(-90 652.49,2264.20)" text-anchor="end">Networks</text>
	<text x="844.18" y="2264.20" style="font-family:'Helvetica';font-size:45.05px;fill:#000000" transform="rotate(-90 844.18,2264.20)" text-anchor="end">Employment</text>
	<text x="1035.74" y="2264.20" style="font-family:'Helvetica';font-size:45.05px;fill:#000000" transform="rotate(-90 1035.74,2264.20)" text-anchor="end">Gender</text>
	<text x="1227.31" y="2264.20" style="font-family:'Helvetica';font-size:45.05px;fill:#000000" transform="rotate(-90 1227.31,2264.20)" text-anchor="end">Inequality</text>
	<text x="1418.87" y="2264.20" style="font-family:'Helvetica';font-size:45.05px;fill:#000000" transform="rotate(-90 1418.87,2264.20)" text-anchor="end">Debt</text>
	<text x="1610.44" y="2264.20" style="font-family:'Helvetica';font-size:45.05px;fill:#000000" transform="rotate(-90 1610.44,2264.20)" text-anchor="end">Decisionmaking</text>
	<text x="1802.00" y="2264.20" style="font-family:'Helvetica';font-size:45.05px;fill:#000000" transform="rotate(-90 1802.00,2264.20)" text-anchor="end">Personality</text>
	<text x="1115.73" y="1634.01" style="font-family:'Helvetica';font-size:78.70px;fill:#000000" text-anchor="middle">Topics</text>
	<rect x="1980.00" y="1512.52" width="1869.00" height="1162.05" style="fill:#FFFFFF"/>
	<rect x="1981.62" y="1514.14" width="1865.76" height="1158.81" style="fill:none;stroke:#FFFFFF;stroke-width:3.24"/>
	<rect x="2178.88" y="1669.08" width="1611.82" height="699.56" style="fill:none;stroke:#000000;stroke-width:3.24"/>
	<line x1="2177.26" y1="2370.26" x2="3792.32" y2="2370.26" style="stroke:#E0E0E0;stroke-width:4.86"/>
	<line x1="2177.26" y1="2154.80" x2="3792.32" y2="2154.80" style="stroke:#E0E0E0;stroke-width:4.86"/>
	<line x1="2177.26" y1="1939.47" x2="3792.32" y2="1939.47" style="stroke:#E0E0E0;stroke-width:4.86"/>
	<line x1="2177.26" y1="1724.14" x2="3792.32" y2="1724.14" style="stroke:#E0E0E0;stroke-width:4.86"/>
	<rect x="2271.06" y="1831.80" width="185.87" height="538.45" style="fill:#606060"/>
	<rect x="2272.68" y="1833.42" width="182.63" height="535.21" style="fill:none;stroke:#606060;stroke-width:3.24"/>
	<rect x="2581.43" y="1831.80" width="185.87" height="538.45" style="fill:#606060"/>
	<rect x="2583.04" y="1833.42" width="182.63" height="535.21" style="fill:none;stroke:#606060;stroke-width:3.24"/>
	<rect x="2891.79" y="2100.97" width="185.87" height="269.29" style="fill:#606060"/>
	<rect x="2893.41" y="2102.59" width="182.63" height="266.05" style="fill:none;stroke:#606060;stroke-width:3.24"/>
	<rect x="3202.16" y="2100.97" width="185.87" height="269.29" style="fill:#606060"/>
	<rect x="3203.77" y="2102.59" width="182.63" height="266.05" style="fill:none;stroke:#606060;stroke-width:3.24"/>
	<rect x="3512.64" y="2100.97" width="185.75" height="269.29" style="fill:#606060"/>
	<rect x="3514.26" y="2102.59" width="182.51" height="266.05" style="fill:none;stroke:#606060;stroke-width:3.24"/>
	<line x1="2177.26" y1="2370.26" x2="2177.26" y2="1667.46" style="stroke:#000000;stroke-width:3.24"/>
	<line x1="2177.26" y1="2370.26" x2="2154.74" y2="2370.26" style="stroke:#000000;stroke-width:3.24"/>
	<text x="2129.90" y="2370.26" style="font-family:'Helvetica';font-size:45.05px;fill:#000000" transform="rotate(-90 2129.90,2370.26)" text-anchor="middle">0</text>
	<line x1="2177.26" y1="2154.80" x2="2154.74" y2="2154.80" style="stroke:#000000;stroke-width:3.24"/>
	<text x="2129.90" y="2154.80" style="font-family:'Helvetica';font-size:45.05px;fill:#000000" transform="rotate(-90 2129.90,2154.80)" text-anchor="middle">20</text>
	<line x1="2177.26" y1="1939.47" x2="2154.74" y2="1939.47" style="stroke:#000000;stroke-width:3.24"/>
	<text x="2129.90" y="1939.47" style="font-family:'Helvetica';font-size:45.05px;fill:#000000" transform="rotate(-90 2129.90,1939.47)" text-anchor="middle">40</text>
	<line x1="2177.26" y1="1724.14" x2="2154.74" y2="1724.14" style="stroke:#000000;stroke-width:3.24"/>
	<text x="2129.90" y="1724.14" style="font-family:'Helvetica';font-size:45.05px;fill:#000000" transform="rotate(-90 2129.90,1724.14)" text-anchor="middle">60</text>
	<text x="2079.28" y="2018.80" style="font-family:'Helvetica';font-size:45.05px;fill:#000000" transform="rotate(-90 2079.28,2018.80)" text-anchor="middle">Percentage</text>
	<line x1="2177.26" y1="2370.26" x2="3792.32" y2="2370.26" style="stroke:#000000;stroke-width:3.24"/>
	<text x="2379.79" y="2392.78" style="font-family:'Helvetica';font-size:45.05px;fill:#000000" transform="rotate(-90 2379.79,2392.78)" text-anchor="end">Mouchel</text>
	<text x="2690.16" y="2392.78" style="font-family:'Helvetica';font-size:45.05px;fill:#000000" transform="rotate(-90 2690.16,2392.78)" text-anchor="end">Nordman</text>
	<text x="3000.52" y="2392.78" style="font-family:'Helvetica';font-size:45.05px;fill:#000000" transform="rotate(-90 3000.52,2392.78)" text-anchor="end">DiSantolo</text>
	<text x="3310.89" y="2392.78" style="font-family:'Helvetica';font-size:45.05px;fill:#000000" transform="rotate(-90 3310.89,2392.78)" text-anchor="end">Girollet</text>
	<text x="3621.25" y="2392.78" style="font-family:'Helvetica';font-size:45.05px;fill:#000000" transform="rotate(-90 3621.25,2392.78)" text-anchor="end">Natal</text>
	<text x="2984.73" y="1634.01" style="font-family:'Helvetica';font-size:78.70px;fill:#000000" text-anchor="middle">Authors</text>
	<text x="80.69" y="2781.24" style="fill:#000000">
		<tspan style="font-family:'Helvetica';font-style:italic;font-size:60.02px">Source:</tspan>
		<tspan style="font-family:'Helvetica';font-size:60.02px"> A. Natal. Updated in October 2025.</tspan>
	</text>
	<text x="1980.00" y="157.51" style="font-family:'Helvetica';font-size:110.01px;fill:#000000" text-anchor="middle">Ongoing papers (N=4)</text>
</svg>
