<?xml version="1.0" encoding="UTF-8" standalone="no"?>
<!-- This is a Stata 15.1 generated SVG file (http://www.stata.com) -->

<svg version="1.1" width="6.00in" height="4.00in" viewBox="0 0 4320 2880" xmlns="http://www.w3.org/2000/svg" xmlns:xlink="http://www.w3.org/1999/xlink">
	<desc>Stata Graph - wpglobal</desc>
	<rect x="0" y="0" width="4320" height="2880" style="fill:#FFFFFF;stroke:none"/>
	<rect x="0.00" y="0.00" width="4320.00" height="2880.00" style="fill:#FFFFFF"/>
	<rect x="2.88" y="2.88" width="4314.24" height="2874.24" style="fill:none;stroke:#FFFFFF;stroke-width:5.76"/>
	<rect x="63.31" y="207.90" width="4193.24" height="1257.14" style="fill:#FFFFFF"/>
	<rect x="65.47" y="210.06" width="4188.92" height="1252.82" style="fill:none;stroke:#FFFFFF;stroke-width:4.32"/>
	<rect x="110.83" y="255.42" width="2049.17" height="1162.10" style="fill:#FFFFFF"/>
	<rect x="112.45" y="257.04" width="2045.93" height="1158.86" style="fill:none;stroke:#FFFFFF;stroke-width:3.24"/>
	<rect x="328.73" y="387.86" width="1774.58" height="640.05" style="fill:#E0E0E0"/>
	<rect x="330.34" y="389.48" width="1771.34" height="636.81" style="fill:none;stroke:#FFFFFF;stroke-width:3.24"/>
	<line x1="328.73" y1="1027.91" x2="2103.30" y2="1027.91" style="stroke:#FFFFFF;stroke-width:3.24"/>
	<line x1="328.73" y1="881.97" x2="2103.30" y2="881.97" style="stroke:#FFFFFF;stroke-width:3.24"/>
	<line x1="328.73" y1="736.17" x2="2103.30" y2="736.17" style="stroke:#FFFFFF;stroke-width:3.24"/>
	<line x1="328.73" y1="590.36" x2="2103.30" y2="590.36" style="stroke:#FFFFFF;stroke-width:3.24"/>
	<line x1="328.73" y1="444.56" x2="2103.30" y2="444.56" style="stroke:#FFFFFF;stroke-width:3.24"/>
	<rect x="493.69" y="481.01" width="541.08" height="546.89" style="fill:#808080"/>
	<rect x="495.31" y="482.63" width="537.84" height="543.65" style="fill:none;stroke:#000000;stroke-width:3.24"/>
	<rect x="1397.25" y="845.52" width="541.08" height="182.39" style="fill:#808080"/>
	<rect x="1398.87" y="847.14" width="537.84" height="179.15" style="fill:none;stroke:#000000;stroke-width:3.24"/>
	<line x1="328.73" y1="1027.91" x2="306.32" y2="1027.91" style="stroke:#606060;stroke-width:3.24"/>
	<text x="295.11" y="1043.67" style="font-family:'Helvetica';font-size:44.95px;fill:#606060" text-anchor="end">0</text>
	<line x1="328.73" y1="881.97" x2="306.32" y2="881.97" style="stroke:#606060;stroke-width:3.24"/>
	<text x="295.11" y="897.74" style="font-family:'Helvetica';font-size:44.95px;fill:#606060" text-anchor="end">20</text>
	<line x1="328.73" y1="736.17" x2="306.32" y2="736.17" style="stroke:#606060;stroke-width:3.24"/>
	<text x="295.11" y="751.93" style="font-family:'Helvetica';font-size:44.95px;fill:#606060" text-anchor="end">40</text>
	<line x1="328.73" y1="590.36" x2="306.32" y2="590.36" style="stroke:#606060;stroke-width:3.24"/>
	<text x="295.11" y="606.13" style="font-family:'Helvetica';font-size:44.95px;fill:#606060" text-anchor="end">60</text>
	<line x1="328.73" y1="444.56" x2="306.32" y2="444.56" style="stroke:#606060;stroke-width:3.24"/>
	<text x="295.11" y="460.33" style="font-family:'Helvetica';font-size:44.95px;fill:#606060" text-anchor="end">80</text>
	<line x1="328.73" y1="1027.91" x2="328.73" y2="444.56" style="stroke:#000000;stroke-width:3.24"/>
	<text x="210.28" y="707.82" style="font-family:'Helvetica';font-size:44.95px;fill:#000000" transform="rotate(-90 210.28,707.82)" text-anchor="middle">Percentage</text>
	<text x="780.00" y="1050.32" style="font-family:'Helvetica';font-size:44.95px;fill:#606060" transform="rotate(-90 780.00,1050.32)" text-anchor="end">Cross-section</text>
	<text x="1683.56" y="1050.32" style="font-family:'Helvetica';font-size:44.95px;fill:#606060" transform="rotate(-90 1683.56,1050.32)" text-anchor="end">Panel</text>
	<text x="1216.08" y="361.18" style="font-family:'Helvetica';font-size:56.30px;fill:#000000" text-anchor="middle">Analysis</text>
	<rect x="2160.00" y="255.42" width="2049.03" height="1162.10" style="fill:#FFFFFF"/>
	<rect x="2161.62" y="257.04" width="2045.79" height="1158.86" style="fill:none;stroke:#FFFFFF;stroke-width:3.24"/>
	<rect x="2404.08" y="387.86" width="1748.25" height="674.07" style="fill:#E0E0E0"/>
	<rect x="2405.70" y="389.48" width="1745.01" height="670.83" style="fill:none;stroke:#FFFFFF;stroke-width:3.24"/>
	<line x1="2404.08" y1="1061.93" x2="4152.33" y2="1061.93" style="stroke:#FFFFFF;stroke-width:3.24"/>
	<line x1="2404.08" y1="938.53" x2="4152.33" y2="938.53" style="stroke:#FFFFFF;stroke-width:3.24"/>
	<line x1="2404.08" y1="815.01" x2="4152.33" y2="815.01" style="stroke:#FFFFFF;stroke-width:3.24"/>
	<line x1="2404.08" y1="691.48" x2="4152.33" y2="691.48" style="stroke:#FFFFFF;stroke-width:3.24"/>
	<line x1="2404.08" y1="567.95" x2="4152.33" y2="567.95" style="stroke:#FFFFFF;stroke-width:3.24"/>
	<line x1="2404.08" y1="444.56" x2="4152.33" y2="444.56" style="stroke:#FFFFFF;stroke-width:3.24"/>
	<rect x="3105.81" y="907.62" width="344.93" height="154.31" style="fill:#808080"/>
	<rect x="3107.43" y="909.24" width="341.69" height="151.07" style="fill:none;stroke:#000000;stroke-width:3.24"/>
	<rect x="3681.72" y="444.56" width="344.93" height="617.36" style="fill:#808080"/>
	<rect x="3683.34" y="446.18" width="341.69" height="614.12" style="fill:none;stroke:#000000;stroke-width:3.24"/>
	<line x1="2404.08" y1="1061.93" x2="2381.67" y2="1061.93" style="stroke:#606060;stroke-width:3.24"/>
	<text x="2370.33" y="1077.69" style="font-family:'Helvetica';font-size:44.95px;fill:#606060" text-anchor="end">0</text>
	<line x1="2404.08" y1="938.53" x2="2381.67" y2="938.53" style="stroke:#606060;stroke-width:3.24"/>
	<text x="2370.33" y="954.30" style="font-family:'Helvetica';font-size:44.95px;fill:#606060" text-anchor="end">20</text>
	<line x1="2404.08" y1="815.01" x2="2381.67" y2="815.01" style="stroke:#606060;stroke-width:3.24"/>
	<text x="2370.33" y="830.78" style="font-family:'Helvetica';font-size:44.95px;fill:#606060" text-anchor="end">40</text>
	<line x1="2404.08" y1="691.48" x2="2381.67" y2="691.48" style="stroke:#606060;stroke-width:3.24"/>
	<text x="2370.33" y="707.25" style="font-family:'Helvetica';font-size:44.95px;fill:#606060" text-anchor="end">60</text>
	<line x1="2404.08" y1="567.95" x2="2381.67" y2="567.95" style="stroke:#606060;stroke-width:3.24"/>
	<text x="2370.33" y="583.72" style="font-family:'Helvetica';font-size:44.95px;fill:#606060" text-anchor="end">80</text>
	<line x1="2404.08" y1="444.56" x2="2381.67" y2="444.56" style="stroke:#606060;stroke-width:3.24"/>
	<text x="2370.33" y="460.33" style="font-family:'Helvetica';font-size:44.95px;fill:#606060" text-anchor="end">100</text>
	<line x1="2404.08" y1="1061.93" x2="2404.08" y2="444.56" style="stroke:#000000;stroke-width:3.24"/>
	<text x="2259.31" y="724.96" style="font-family:'Helvetica';font-size:44.95px;fill:#000000" transform="rotate(-90 2259.31,724.96)" text-anchor="middle">Percentage</text>
	<text x="2718.06" y="1084.47" style="font-family:'Helvetica';font-size:44.95px;fill:#606060" transform="rotate(-90 2718.06,1084.47)" text-anchor="end">RUME</text>
	<text x="3293.97" y="1084.47" style="font-family:'Helvetica';font-size:44.95px;fill:#606060" transform="rotate(-90 3293.97,1084.47)" text-anchor="end">NEEMSIS-1</text>
	<text x="3870.02" y="1084.47" style="font-family:'Helvetica';font-size:44.95px;fill:#606060" transform="rotate(-90 3870.02,1084.47)" text-anchor="end">NEEMSIS-2</text>
	<text x="3278.20" y="361.18" style="font-family:'Helvetica';font-size:56.30px;fill:#000000" text-anchor="middle">Data used</text>
	<rect x="63.31" y="1465.04" width="4193.24" height="1257.00" style="fill:#FFFFFF"/>
	<rect x="65.47" y="1467.20" width="4188.92" height="1252.68" style="fill:none;stroke:#FFFFFF;stroke-width:4.32"/>
	<rect x="110.83" y="1512.56" width="2049.17" height="1161.96" style="fill:#FFFFFF"/>
	<rect x="112.45" y="1514.18" width="2045.93" height="1158.72" style="fill:none;stroke:#FFFFFF;stroke-width:3.24"/>
	<rect x="328.73" y="1644.87" width="1774.58" height="596.84" style="fill:#E0E0E0"/>
	<rect x="330.34" y="1646.49" width="1771.34" height="593.60" style="fill:none;stroke:#FFFFFF;stroke-width:3.24"/>
	<line x1="328.73" y1="2241.71" x2="2103.30" y2="2241.71" style="stroke:#FFFFFF;stroke-width:3.24"/>
	<line x1="328.73" y1="2106.57" x2="2103.30" y2="2106.57" style="stroke:#FFFFFF;stroke-width:3.24"/>
	<line x1="328.73" y1="1971.57" x2="2103.30" y2="1971.57" style="stroke:#FFFFFF;stroke-width:3.24"/>
	<line x1="328.73" y1="1836.57" x2="2103.30" y2="1836.57" style="stroke:#FFFFFF;stroke-width:3.24"/>
	<line x1="328.73" y1="1701.57" x2="2103.30" y2="1701.57" style="stroke:#FFFFFF;stroke-width:3.24"/>
	<rect x="410.81" y="1735.32" width="126.90" height="506.39" style="fill:#808080"/>
	<rect x="412.42" y="1736.94" width="123.66" height="503.15" style="fill:none;stroke:#000000;stroke-width:3.24"/>
	<rect x="622.76" y="1735.32" width="126.90" height="506.39" style="fill:#808080"/>
	<rect x="624.37" y="1736.94" width="123.66" height="503.15" style="fill:none;stroke:#000000;stroke-width:3.24"/>
	<rect x="834.71" y="1904.07" width="126.90" height="337.64" style="fill:#808080"/>
	<rect x="836.32" y="1905.69" width="123.66" height="334.40" style="fill:none;stroke:#000000;stroke-width:3.24"/>
	<rect x="1046.66" y="1904.07" width="126.90" height="337.64" style="fill:#808080"/>
	<rect x="1048.27" y="1905.69" width="123.66" height="334.40" style="fill:none;stroke:#000000;stroke-width:3.24"/>
	<rect x="1258.61" y="1904.07" width="126.76" height="337.64" style="fill:#808080"/>
	<rect x="1260.22" y="1905.69" width="123.53" height="334.40" style="fill:none;stroke:#000000;stroke-width:3.24"/>
	<rect x="1470.42" y="2072.82" width="126.90" height="168.89" style="fill:#808080"/>
	<rect x="1472.04" y="2074.44" width="123.66" height="165.65" style="fill:none;stroke:#000000;stroke-width:3.24"/>
	<rect x="1682.37" y="2072.82" width="126.90" height="168.89" style="fill:#808080"/>
	<rect x="1683.99" y="2074.44" width="123.66" height="165.65" style="fill:none;stroke:#000000;stroke-width:3.24"/>
	<rect x="1894.32" y="2072.82" width="126.90" height="168.89" style="fill:#808080"/>
	<rect x="1895.94" y="2074.44" width="123.66" height="165.65" style="fill:none;stroke:#000000;stroke-width:3.24"/>
	<line x1="328.73" y1="2241.71" x2="306.32" y2="2241.71" style="stroke:#606060;stroke-width:3.24"/>
	<text x="295.11" y="2257.48" style="font-family:'Helvetica';font-size:44.95px;fill:#606060" text-anchor="end">0</text>
	<line x1="328.73" y1="2106.57" x2="306.32" y2="2106.57" style="stroke:#606060;stroke-width:3.24"/>
	<text x="295.11" y="2122.34" style="font-family:'Helvetica';font-size:44.95px;fill:#606060" text-anchor="end">20</text>
	<line x1="328.73" y1="1971.57" x2="306.32" y2="1971.57" style="stroke:#606060;stroke-width:3.24"/>
	<text x="295.11" y="1987.34" style="font-family:'Helvetica';font-size:44.95px;fill:#606060" text-anchor="end">40</text>
	<line x1="328.73" y1="1836.57" x2="306.32" y2="1836.57" style="stroke:#606060;stroke-width:3.24"/>
	<text x="295.11" y="1852.34" style="font-family:'Helvetica';font-size:44.95px;fill:#606060" text-anchor="end">60</text>
	<line x1="328.73" y1="1701.57" x2="306.32" y2="1701.57" style="stroke:#606060;stroke-width:3.24"/>
	<text x="295.11" y="1717.33" style="font-family:'Helvetica';font-size:44.95px;fill:#606060" text-anchor="end">80</text>
	<line x1="328.73" y1="2241.71" x2="328.73" y2="1701.57" style="stroke:#000000;stroke-width:3.24"/>
	<text x="210.28" y="1943.22" style="font-family:'Helvetica';font-size:44.95px;fill:#000000" transform="rotate(-90 210.28,1943.22)" text-anchor="middle">Percentage</text>
	<text x="490.02" y="2264.12" style="font-family:'Helvetica';font-size:44.95px;fill:#606060" transform="rotate(-90 490.02,2264.12)" text-anchor="end">Caste</text>
	<text x="701.97" y="2264.12" style="font-family:'Helvetica';font-size:44.95px;fill:#606060" transform="rotate(-90 701.97,2264.12)" text-anchor="end">Networks</text>
	<text x="913.92" y="2264.12" style="font-family:'Helvetica';font-size:44.95px;fill:#606060" transform="rotate(-90 913.92,2264.12)" text-anchor="end">Employment</text>
	<text x="1125.87" y="2264.12" style="font-family:'Helvetica';font-size:44.95px;fill:#606060" transform="rotate(-90 1125.87,2264.12)" text-anchor="end">Gender</text>
	<text x="1337.82" y="2264.12" style="font-family:'Helvetica';font-size:44.95px;fill:#606060" transform="rotate(-90 1337.82,2264.12)" text-anchor="end">Inequality</text>
	<text x="1549.64" y="2264.12" style="font-family:'Helvetica';font-size:44.95px;fill:#606060" transform="rotate(-90 1549.64,2264.12)" text-anchor="end">Debt</text>
	<text x="1761.59" y="2264.12" style="font-family:'Helvetica';font-size:44.95px;fill:#606060" transform="rotate(-90 1761.59,2264.12)" text-anchor="end">Decisionmaking</text>
	<text x="1973.54" y="2264.12" style="font-family:'Helvetica';font-size:44.95px;fill:#606060" transform="rotate(-90 1973.54,2264.12)" text-anchor="end">Personality</text>
	<text x="1216.08" y="1618.19" style="font-family:'Helvetica';font-size:56.30px;fill:#000000" text-anchor="middle">Topics</text>
	<rect x="2160.00" y="1512.56" width="2049.03" height="1161.96" style="fill:#FFFFFF"/>
	<rect x="2161.62" y="1514.18" width="2045.79" height="1158.72" style="fill:none;stroke:#FFFFFF;stroke-width:3.24"/>
	<rect x="2377.89" y="1644.87" width="1774.44" height="725.37" style="fill:#E0E0E0"/>
	<rect x="2379.51" y="1646.49" width="1771.20" height="722.13" style="fill:none;stroke:#FFFFFF;stroke-width:3.24"/>
	<line x1="2377.89" y1="2370.23" x2="4152.33" y2="2370.23" style="stroke:#FFFFFF;stroke-width:3.24"/>
	<line x1="2377.89" y1="2147.34" x2="4152.33" y2="2147.34" style="stroke:#FFFFFF;stroke-width:3.24"/>
	<line x1="2377.89" y1="1924.46" x2="4152.33" y2="1924.46" style="stroke:#FFFFFF;stroke-width:3.24"/>
	<line x1="2377.89" y1="1701.57" x2="4152.33" y2="1701.57" style="stroke:#FFFFFF;stroke-width:3.24"/>
	<rect x="2475.63" y="1813.08" width="205.61" height="557.15" style="fill:#808080"/>
	<rect x="2477.25" y="1814.70" width="202.37" height="553.91" style="fill:none;stroke:#000000;stroke-width:3.24"/>
	<rect x="2819.07" y="1813.08" width="205.47" height="557.15" style="fill:#808080"/>
	<rect x="2820.69" y="1814.70" width="202.23" height="553.91" style="fill:none;stroke:#000000;stroke-width:3.24"/>
	<rect x="3162.38" y="2091.59" width="205.47" height="278.64" style="fill:#808080"/>
	<rect x="3163.99" y="2093.21" width="202.23" height="275.40" style="fill:none;stroke:#000000;stroke-width:3.24"/>
	<rect x="3505.68" y="2091.59" width="205.61" height="278.64" style="fill:#808080"/>
	<rect x="3507.30" y="2093.21" width="202.37" height="275.40" style="fill:none;stroke:#000000;stroke-width:3.24"/>
	<rect x="3848.99" y="2091.59" width="205.61" height="278.64" style="fill:#808080"/>
	<rect x="3850.60" y="2093.21" width="202.37" height="275.40" style="fill:none;stroke:#000000;stroke-width:3.24"/>
	<line x1="2377.89" y1="2370.23" x2="2355.34" y2="2370.23" style="stroke:#606060;stroke-width:3.24"/>
	<text x="2344.14" y="2386.00" style="font-family:'Helvetica';font-size:44.95px;fill:#606060" text-anchor="end">0</text>
	<line x1="2377.89" y1="2147.34" x2="2355.34" y2="2147.34" style="stroke:#606060;stroke-width:3.24"/>
	<text x="2344.14" y="2163.11" style="font-family:'Helvetica';font-size:44.95px;fill:#606060" text-anchor="end">20</text>
	<line x1="2377.89" y1="1924.46" x2="2355.34" y2="1924.46" style="stroke:#606060;stroke-width:3.24"/>
	<text x="2344.14" y="1940.22" style="font-family:'Helvetica';font-size:44.95px;fill:#606060" text-anchor="end">40</text>
	<line x1="2377.89" y1="1701.57" x2="2355.34" y2="1701.57" style="stroke:#606060;stroke-width:3.24"/>
	<text x="2344.14" y="1717.33" style="font-family:'Helvetica';font-size:44.95px;fill:#606060" text-anchor="end">60</text>
	<line x1="2377.89" y1="2370.23" x2="2377.89" y2="1701.57" style="stroke:#000000;stroke-width:3.24"/>
	<text x="2259.31" y="2007.62" style="font-family:'Helvetica';font-size:44.95px;fill:#000000" transform="rotate(-90 2259.31,2007.62)" text-anchor="middle">Percentage</text>
	<text x="2594.27" y="2392.78" style="font-family:'Helvetica';font-size:44.95px;fill:#606060" transform="rotate(-90 2594.27,2392.78)" text-anchor="end">Mouchel</text>
	<text x="2937.57" y="2392.78" style="font-family:'Helvetica';font-size:44.95px;fill:#606060" transform="rotate(-90 2937.57,2392.78)" text-anchor="end">Nordman</text>
	<text x="3280.88" y="2392.78" style="font-family:'Helvetica';font-size:44.95px;fill:#606060" transform="rotate(-90 3280.88,2392.78)" text-anchor="end">DiSantolo</text>
	<text x="3624.18" y="2392.78" style="font-family:'Helvetica';font-size:44.95px;fill:#606060" transform="rotate(-90 3624.18,2392.78)" text-anchor="end">Girollet</text>
	<text x="3967.49" y="2392.78" style="font-family:'Helvetica';font-size:44.95px;fill:#606060" transform="rotate(-90 3967.49,2392.78)" text-anchor="end">Natal</text>
	<text x="3265.11" y="1618.19" style="font-family:'Helvetica';font-size:56.30px;fill:#000000" text-anchor="middle">Authors</text>
	<text x="80.59" y="2781.35" style="fill:#000000">
		<tspan style="font-family:'Helvetica';font-style:italic;font-size:59.94px">Source:</tspan>
		<tspan style="font-family:'Helvetica';font-size:59.94px"> A. Natal. Updated in October 2025.</tspan>
	</text>
	<text x="2160.00" y="157.55" style="font-family:'Helvetica';font-size:110.03px;fill:#000000" text-anchor="middle">Ongoing papers (N=4)</text>
</svg>
