<?xml version="1.0" encoding="UTF-8" standalone="no"?>
<!-- This is a Stata 15.1 generated SVG file (http://www.stata.com) -->

<svg version="1.1" width="5.50in" height="4.00in" viewBox="0 0 3960 2880" xmlns="http://www.w3.org/2000/svg" xmlns:xlink="http://www.w3.org/1999/xlink">
	<desc>Stata Graph - pub</desc>
	<rect x="0" y="0" width="3960" height="2880" style="fill:#FFFFFF;stroke:none"/>
	<rect x="0.00" y="0.00" width="3959.88" height="2880.00" style="fill:#FFFFFF"/>
	<rect x="2.88" y="2.88" width="3954.12" height="2874.24" style="fill:none;stroke:#FFFFFF;stroke-width:5.76"/>
	<rect x="63.36" y="207.91" width="3833.16" height="1227.14" style="fill:#FFFFFF"/>
	<rect x="65.52" y="210.07" width="3828.84" height="1222.82" style="fill:none;stroke:#FFFFFF;stroke-width:4.32"/>
	<rect x="110.88" y="255.43" width="934.56" height="1132.10" style="fill:#FFFFFF"/>
	<rect x="112.50" y="257.05" width="931.32" height="1128.86" style="fill:none;stroke:#FFFFFF;stroke-width:3.24"/>
	<rect x="309.76" y="411.99" width="677.39" height="584.22" style="fill:none;stroke:#000000;stroke-width:3.24"/>
	<line x1="308.14" y1="997.83" x2="988.76" y2="997.83" style="stroke:#E0E0E0;stroke-width:4.86"/>
	<line x1="308.14" y1="865.16" x2="988.76" y2="865.16" style="stroke:#E0E0E0;stroke-width:4.86"/>
	<line x1="308.14" y1="732.50" x2="988.76" y2="732.50" style="stroke:#E0E0E0;stroke-width:4.86"/>
	<line x1="308.14" y1="599.71" x2="988.76" y2="599.71" style="stroke:#E0E0E0;stroke-width:4.86"/>
	<rect x="401.82" y="648.59" width="184.76" height="349.23" style="fill:#606060"/>
	<rect x="403.44" y="650.21" width="181.52" height="345.99" style="fill:none;stroke:#606060;stroke-width:3.24"/>
	<rect x="710.33" y="683.49" width="184.76" height="314.33" style="fill:#606060"/>
	<rect x="711.94" y="685.11" width="181.52" height="311.09" style="fill:none;stroke:#606060;stroke-width:3.24"/>
	<line x1="308.14" y1="997.83" x2="308.14" y2="410.37" style="stroke:#000000;stroke-width:3.24"/>
	<line x1="308.14" y1="997.83" x2="285.62" y2="997.83" style="stroke:#000000;stroke-width:3.24"/>
	<text x="260.90" y="997.83" style="font-family:'Helvetica';font-size:45.05px;fill:#000000" transform="rotate(-90 260.90,997.83)" text-anchor="middle">0</text>
	<line x1="308.14" y1="865.16" x2="285.62" y2="865.16" style="stroke:#000000;stroke-width:3.24"/>
	<text x="260.90" y="865.16" style="font-family:'Helvetica';font-size:45.05px;fill:#000000" transform="rotate(-90 260.90,865.16)" text-anchor="middle">20</text>
	<line x1="308.14" y1="732.50" x2="285.62" y2="732.50" style="stroke:#000000;stroke-width:3.24"/>
	<text x="260.90" y="732.50" style="font-family:'Helvetica';font-size:45.05px;fill:#000000" transform="rotate(-90 260.90,732.50)" text-anchor="middle">40</text>
	<line x1="308.14" y1="599.71" x2="285.62" y2="599.71" style="stroke:#000000;stroke-width:3.24"/>
	<text x="260.90" y="599.71" style="font-family:'Helvetica';font-size:45.05px;fill:#000000" transform="rotate(-90 260.90,599.71)" text-anchor="middle">60</text>
	<line x1="308.14" y1="467.05" x2="285.62" y2="467.05" style="stroke:#000000;stroke-width:3.24"/>
	<text x="260.90" y="467.05" style="font-family:'Helvetica';font-size:45.05px;fill:#000000" transform="rotate(-90 260.90,467.05)" text-anchor="middle">80</text>
	<text x="210.29" y="704.04" style="font-family:'Helvetica';font-size:45.05px;fill:#000000" transform="rotate(-90 210.29,704.04)" text-anchor="middle">Percentage</text>
	<line x1="308.14" y1="997.83" x2="988.76" y2="997.83" style="stroke:#000000;stroke-width:3.24"/>
	<text x="509.93" y="1020.35" style="font-family:'Helvetica';font-size:45.05px;fill:#000000" transform="rotate(-90 509.93,1020.35)" text-anchor="end">Cross-section</text>
	<text x="818.44" y="1020.35" style="font-family:'Helvetica';font-size:45.05px;fill:#000000" transform="rotate(-90 818.44,1020.35)" text-anchor="end">Panel</text>
	<text x="648.45" y="376.92" style="font-family:'Helvetica';font-size:78.70px;fill:#000000" text-anchor="middle">Analysis</text>
	<rect x="1045.44" y="255.43" width="934.56" height="1132.10" style="fill:#FFFFFF"/>
	<rect x="1047.06" y="257.05" width="931.32" height="1128.86" style="fill:none;stroke:#FFFFFF;stroke-width:3.24"/>
	<rect x="1244.32" y="411.99" width="677.26" height="618.38" style="fill:none;stroke:#000000;stroke-width:3.24"/>
	<line x1="1242.70" y1="1031.98" x2="1923.20" y2="1031.98" style="stroke:#E0E0E0;stroke-width:4.86"/>
	<line x1="1242.70" y1="890.78" x2="1923.20" y2="890.78" style="stroke:#E0E0E0;stroke-width:4.86"/>
	<line x1="1242.70" y1="749.45" x2="1923.20" y2="749.45" style="stroke:#E0E0E0;stroke-width:4.86"/>
	<line x1="1242.70" y1="608.25" x2="1923.20" y2="608.25" style="stroke:#E0E0E0;stroke-width:4.86"/>
	<line x1="1242.70" y1="467.05" x2="1923.20" y2="467.05" style="stroke:#E0E0E0;stroke-width:4.86"/>
	<rect x="1323.38" y="660.35" width="119.54" height="371.63" style="fill:#606060"/>
	<rect x="1325.00" y="661.97" width="116.30" height="368.39" style="fill:none;stroke:#606060;stroke-width:3.24"/>
	<rect x="1523.12" y="548.85" width="119.67" height="483.14" style="fill:#606060"/>
	<rect x="1524.73" y="550.47" width="116.43" height="479.90" style="fill:none;stroke:#606060;stroke-width:3.24"/>
	<rect x="1722.97" y="660.35" width="119.67" height="371.63" style="fill:#606060"/>
	<rect x="1724.59" y="661.97" width="116.43" height="368.39" style="fill:none;stroke:#606060;stroke-width:3.24"/>
	<line x1="1242.70" y1="1031.98" x2="1242.70" y2="410.37" style="stroke:#000000;stroke-width:3.24"/>
	<line x1="1242.70" y1="1031.98" x2="1220.18" y2="1031.98" style="stroke:#000000;stroke-width:3.24"/>
	<text x="1195.34" y="1031.98" style="font-family:'Helvetica';font-size:45.05px;fill:#000000" transform="rotate(-90 1195.34,1031.98)" text-anchor="middle">0</text>
	<line x1="1242.70" y1="890.78" x2="1220.18" y2="890.78" style="stroke:#000000;stroke-width:3.24"/>
	<text x="1195.34" y="890.78" style="font-family:'Helvetica';font-size:45.05px;fill:#000000" transform="rotate(-90 1195.34,890.78)" text-anchor="middle">20</text>
	<line x1="1242.70" y1="749.45" x2="1220.18" y2="749.45" style="stroke:#000000;stroke-width:3.24"/>
	<text x="1195.34" y="749.45" style="font-family:'Helvetica';font-size:45.05px;fill:#000000" transform="rotate(-90 1195.34,749.45)" text-anchor="middle">40</text>
	<line x1="1242.70" y1="608.25" x2="1220.18" y2="608.25" style="stroke:#000000;stroke-width:3.24"/>
	<text x="1195.34" y="608.25" style="font-family:'Helvetica';font-size:45.05px;fill:#000000" transform="rotate(-90 1195.34,608.25)" text-anchor="middle">60</text>
	<line x1="1242.70" y1="467.05" x2="1220.18" y2="467.05" style="stroke:#000000;stroke-width:3.24"/>
	<text x="1195.34" y="467.05" style="font-family:'Helvetica';font-size:45.05px;fill:#000000" transform="rotate(-90 1195.34,467.05)" text-anchor="middle">80</text>
	<text x="1144.72" y="721.11" style="font-family:'Helvetica';font-size:45.05px;fill:#000000" transform="rotate(-90 1144.72,721.11)" text-anchor="middle">Percentage</text>
	<line x1="1242.70" y1="1031.98" x2="1923.20" y2="1031.98" style="stroke:#000000;stroke-width:3.24"/>
	<text x="1398.95" y="1054.51" style="font-family:'Helvetica';font-size:45.05px;fill:#000000" transform="rotate(-90 1398.95,1054.51)" text-anchor="end">RUME</text>
	<text x="1598.81" y="1054.51" style="font-family:'Helvetica';font-size:45.05px;fill:#000000" transform="rotate(-90 1598.81,1054.51)" text-anchor="end">NEEMSIS-1</text>
	<text x="1798.54" y="1054.51" style="font-family:'Helvetica';font-size:45.05px;fill:#000000" transform="rotate(-90 1798.54,1054.51)" text-anchor="end">NEEMSIS-2</text>
	<text x="1583.01" y="376.92" style="font-family:'Helvetica';font-size:78.70px;fill:#000000" text-anchor="middle">Data used</text>
	<rect x="1980.00" y="255.43" width="934.44" height="1132.10" style="fill:#FFFFFF"/>
	<rect x="1981.62" y="257.05" width="931.20" height="1128.86" style="fill:none;stroke:#FFFFFF;stroke-width:3.24"/>
	<rect x="2178.88" y="411.99" width="677.26" height="582.98" style="fill:none;stroke:#000000;stroke-width:3.24"/>
	<line x1="2177.26" y1="996.59" x2="2857.76" y2="996.59" style="stroke:#E0E0E0;stroke-width:4.86"/>
	<line x1="2177.26" y1="890.66" x2="2857.76" y2="890.66" style="stroke:#E0E0E0;stroke-width:4.86"/>
	<line x1="2177.26" y1="784.72" x2="2857.76" y2="784.72" style="stroke:#E0E0E0;stroke-width:4.86"/>
	<line x1="2177.26" y1="678.79" x2="2857.76" y2="678.79" style="stroke:#E0E0E0;stroke-width:4.86"/>
	<line x1="2177.26" y1="572.98" x2="2857.76" y2="572.98" style="stroke:#E0E0E0;stroke-width:4.86"/>
	<line x1="2177.26" y1="467.05" x2="2857.76" y2="467.05" style="stroke:#E0E0E0;stroke-width:4.86"/>
	<rect x="2257.82" y="522.74" width="119.67" height="473.85" style="fill:#606060"/>
	<rect x="2259.44" y="524.36" width="116.43" height="470.61" style="fill:none;stroke:#606060;stroke-width:3.24"/>
	<rect x="2457.68" y="968.75" width="119.67" height="27.84" style="fill:#606060"/>
	<rect x="2459.29" y="970.37" width="116.43" height="24.60" style="fill:none;stroke:#606060;stroke-width:3.24"/>
	<rect x="2657.53" y="968.75" width="119.67" height="27.84" style="fill:#606060"/>
	<rect x="2659.15" y="970.37" width="116.43" height="24.60" style="fill:none;stroke:#606060;stroke-width:3.24"/>
	<line x1="2177.26" y1="996.59" x2="2177.26" y2="410.37" style="stroke:#000000;stroke-width:3.24"/>
	<line x1="2177.26" y1="996.59" x2="2154.74" y2="996.59" style="stroke:#000000;stroke-width:3.24"/>
	<text x="2129.90" y="996.59" style="font-family:'Helvetica';font-size:45.05px;fill:#000000" transform="rotate(-90 2129.90,996.59)" text-anchor="middle">0</text>
	<line x1="2177.26" y1="890.66" x2="2154.74" y2="890.66" style="stroke:#000000;stroke-width:3.24"/>
	<text x="2129.90" y="890.66" style="font-family:'Helvetica';font-size:45.05px;fill:#000000" transform="rotate(-90 2129.90,890.66)" text-anchor="middle">20</text>
	<line x1="2177.26" y1="784.72" x2="2154.74" y2="784.72" style="stroke:#000000;stroke-width:3.24"/>
	<text x="2129.90" y="784.72" style="font-family:'Helvetica';font-size:45.05px;fill:#000000" transform="rotate(-90 2129.90,784.72)" text-anchor="middle">40</text>
	<line x1="2177.26" y1="678.79" x2="2154.74" y2="678.79" style="stroke:#000000;stroke-width:3.24"/>
	<text x="2129.90" y="678.79" style="font-family:'Helvetica';font-size:45.05px;fill:#000000" transform="rotate(-90 2129.90,678.79)" text-anchor="middle">60</text>
	<line x1="2177.26" y1="572.98" x2="2154.74" y2="572.98" style="stroke:#000000;stroke-width:3.24"/>
	<text x="2129.90" y="572.98" style="font-family:'Helvetica';font-size:45.05px;fill:#000000" transform="rotate(-90 2129.90,572.98)" text-anchor="middle">80</text>
	<line x1="2177.26" y1="467.05" x2="2154.74" y2="467.05" style="stroke:#000000;stroke-width:3.24"/>
	<text x="2129.90" y="467.05" style="font-family:'Helvetica';font-size:45.05px;fill:#000000" transform="rotate(-90 2129.90,467.05)" text-anchor="middle">100</text>
	<text x="2079.28" y="703.42" style="font-family:'Helvetica';font-size:45.05px;fill:#000000" transform="rotate(-90 2079.28,703.42)" text-anchor="middle">Percentage</text>
	<line x1="2177.26" y1="996.59" x2="2857.76" y2="996.59" style="stroke:#000000;stroke-width:3.24"/>
	<text x="2333.51" y="1019.11" style="font-family:'Helvetica';font-size:45.05px;fill:#000000" transform="rotate(-90 2333.51,1019.11)" text-anchor="end">Journal article</text>
	<text x="2533.24" y="1019.11" style="font-family:'Helvetica';font-size:45.05px;fill:#000000" transform="rotate(-90 2533.24,1019.11)" text-anchor="end">Book chapter</text>
	<text x="2733.10" y="1019.11" style="font-family:'Helvetica';font-size:45.05px;fill:#000000" transform="rotate(-90 2733.10,1019.11)" text-anchor="end">Book</text>
	<text x="2517.45" y="376.92" style="font-family:'Helvetica';font-size:78.70px;fill:#000000" text-anchor="middle">Published in...</text>
	<rect x="2914.44" y="255.43" width="934.56" height="1132.10" style="fill:#FFFFFF"/>
	<rect x="2916.06" y="257.05" width="931.32" height="1128.86" style="fill:none;stroke:#FFFFFF;stroke-width:3.24"/>
	<rect x="3113.44" y="411.99" width="677.26" height="790.27" style="fill:none;stroke:#000000;stroke-width:3.24"/>
	<line x1="3111.82" y1="1203.88" x2="3792.32" y2="1203.88" style="stroke:#E0E0E0;stroke-width:4.86"/>
	<line x1="3111.82" y1="1019.61" x2="3792.32" y2="1019.61" style="stroke:#E0E0E0;stroke-width:4.86"/>
	<line x1="3111.82" y1="835.46" x2="3792.32" y2="835.46" style="stroke:#E0E0E0;stroke-width:4.86"/>
	<line x1="3111.82" y1="651.19" x2="3792.32" y2="651.19" style="stroke:#E0E0E0;stroke-width:4.86"/>
	<line x1="3111.82" y1="467.05" x2="3792.32" y2="467.05" style="stroke:#E0E0E0;stroke-width:4.86"/>
	<rect x="3205.37" y="913.06" width="184.76" height="290.82" style="fill:#606060"/>
	<rect x="3206.99" y="914.68" width="181.52" height="287.58" style="fill:none;stroke:#606060;stroke-width:3.24"/>
	<rect x="3513.88" y="573.72" width="184.76" height="630.15" style="fill:#606060"/>
	<rect x="3515.50" y="575.34" width="181.52" height="626.91" style="fill:none;stroke:#606060;stroke-width:3.24"/>
	<line x1="3111.82" y1="1203.88" x2="3111.82" y2="410.37" style="stroke:#000000;stroke-width:3.24"/>
	<line x1="3111.82" y1="1203.88" x2="3089.30" y2="1203.88" style="stroke:#000000;stroke-width:3.24"/>
	<text x="3064.46" y="1203.88" style="font-family:'Helvetica';font-size:45.05px;fill:#000000" transform="rotate(-90 3064.46,1203.88)" text-anchor="middle">0</text>
	<line x1="3111.82" y1="1019.61" x2="3089.30" y2="1019.61" style="stroke:#000000;stroke-width:3.24"/>
	<text x="3064.46" y="1019.61" style="font-family:'Helvetica';font-size:45.05px;fill:#000000" transform="rotate(-90 3064.46,1019.61)" text-anchor="middle">20</text>
	<line x1="3111.82" y1="835.46" x2="3089.30" y2="835.46" style="stroke:#000000;stroke-width:3.24"/>
	<text x="3064.46" y="835.46" style="font-family:'Helvetica';font-size:45.05px;fill:#000000" transform="rotate(-90 3064.46,835.46)" text-anchor="middle">40</text>
	<line x1="3111.82" y1="651.19" x2="3089.30" y2="651.19" style="stroke:#000000;stroke-width:3.24"/>
	<text x="3064.46" y="651.19" style="font-family:'Helvetica';font-size:45.05px;fill:#000000" transform="rotate(-90 3064.46,651.19)" text-anchor="middle">60</text>
	<line x1="3111.82" y1="467.05" x2="3089.30" y2="467.05" style="stroke:#000000;stroke-width:3.24"/>
	<text x="3064.46" y="467.05" style="font-family:'Helvetica';font-size:45.05px;fill:#000000" transform="rotate(-90 3064.46,467.05)" text-anchor="middle">80</text>
	<text x="3013.84" y="807.12" style="font-family:'Helvetica';font-size:45.05px;fill:#000000" transform="rotate(-90 3013.84,807.12)" text-anchor="middle">Percentage</text>
	<line x1="3111.82" y1="1203.88" x2="3792.32" y2="1203.88" style="stroke:#000000;stroke-width:3.24"/>
	<text x="3313.61" y="1226.40" style="font-family:'Helvetica';font-size:45.05px;fill:#000000" transform="rotate(-90 3313.61,1226.40)" text-anchor="end">No</text>
	<text x="3622.12" y="1226.40" style="font-family:'Helvetica';font-size:45.05px;fill:#000000" transform="rotate(-90 3622.12,1226.40)" text-anchor="end">Yes</text>
	<text x="3452.01" y="376.92" style="font-family:'Helvetica';font-size:78.70px;fill:#000000" text-anchor="middle">Free of charge*</text>
	<rect x="63.36" y="1435.05" width="3833.16" height="1227.02" style="fill:#FFFFFF"/>
	<rect x="65.52" y="1437.21" width="3828.84" height="1222.70" style="fill:none;stroke:#FFFFFF;stroke-width:4.32"/>
	<rect x="110.88" y="1482.57" width="1246.04" height="1131.98" style="fill:#FFFFFF"/>
	<rect x="112.50" y="1484.19" width="1242.80" height="1128.74" style="fill:none;stroke:#FFFFFF;stroke-width:3.24"/>
	<rect x="309.76" y="1639.01" width="988.86" height="748.56" style="fill:none;stroke:#000000;stroke-width:3.24"/>
	<line x1="308.14" y1="2183.39" x2="1300.24" y2="2183.39" style="stroke:#E0E0E0;stroke-width:4.86"/>
	<line x1="308.14" y1="2013.23" x2="1300.24" y2="2013.23" style="stroke:#E0E0E0;stroke-width:4.86"/>
	<line x1="308.14" y1="1843.19" x2="1300.24" y2="1843.19" style="stroke:#E0E0E0;stroke-width:4.86"/>
	<rect x="427.56" y="2183.39" width="55.81" height="170.16" style="fill:#808080"/>
	<rect x="429.99" y="2185.82" width="50.95" height="165.30" style="fill:none;stroke:#000000;stroke-width:4.86"/>
	<rect x="483.37" y="2183.39" width="55.81" height="170.16" style="fill:#808080"/>
	<rect x="485.80" y="2185.82" width="50.95" height="165.30" style="fill:none;stroke:#000000;stroke-width:4.86"/>
	<rect x="594.87" y="2183.39" width="55.81" height="170.16" style="fill:#808080"/>
	<rect x="597.30" y="2185.82" width="50.95" height="165.30" style="fill:none;stroke:#000000;stroke-width:4.86"/>
	<rect x="706.49" y="2183.39" width="55.81" height="170.16" style="fill:#808080"/>
	<rect x="708.92" y="2185.82" width="50.95" height="165.30" style="fill:none;stroke:#000000;stroke-width:4.86"/>
	<rect x="762.30" y="2183.39" width="55.81" height="170.16" style="fill:#808080"/>
	<rect x="764.73" y="2185.82" width="50.95" height="165.30" style="fill:none;stroke:#000000;stroke-width:4.86"/>
	<rect x="873.92" y="2183.39" width="55.81" height="170.16" style="fill:#808080"/>
	<rect x="876.35" y="2185.82" width="50.95" height="165.30" style="fill:none;stroke:#000000;stroke-width:4.86"/>
	<rect x="929.73" y="2013.23" width="55.81" height="340.32" style="fill:#808080"/>
	<rect x="932.16" y="2015.66" width="50.95" height="335.46" style="fill:none;stroke:#000000;stroke-width:4.86"/>
	<rect x="985.54" y="2013.23" width="55.81" height="340.32" style="fill:#808080"/>
	<rect x="987.97" y="2015.66" width="50.95" height="335.46" style="fill:none;stroke:#000000;stroke-width:4.86"/>
	<rect x="1041.36" y="2013.23" width="55.81" height="340.32" style="fill:#808080"/>
	<rect x="1043.79" y="2015.66" width="50.95" height="335.46" style="fill:none;stroke:#000000;stroke-width:4.86"/>
	<rect x="1097.17" y="1843.19" width="55.81" height="510.36" style="fill:#808080"/>
	<rect x="1099.60" y="1845.62" width="50.95" height="505.50" style="fill:none;stroke:#000000;stroke-width:4.86"/>
	<rect x="1152.98" y="1843.19" width="55.81" height="510.36" style="fill:#808080"/>
	<rect x="1155.41" y="1845.62" width="50.95" height="505.50" style="fill:none;stroke:#000000;stroke-width:4.86"/>
	<rect x="1208.79" y="2183.39" width="55.81" height="170.16" style="fill:#808080"/>
	<rect x="1211.22" y="2185.82" width="50.95" height="165.30" style="fill:none;stroke:#000000;stroke-width:4.86"/>
	<line x1="308.14" y1="2389.19" x2="308.14" y2="1637.39" style="stroke:#000000;stroke-width:3.24"/>
	<line x1="308.14" y1="2183.39" x2="285.62" y2="2183.39" style="stroke:#000000;stroke-width:3.24"/>
	<text x="260.90" y="2183.39" style="font-family:'Helvetica';font-size:45.05px;fill:#000000" transform="rotate(-90 260.90,2183.39)" text-anchor="middle">1</text>
	<line x1="308.14" y1="2013.23" x2="285.62" y2="2013.23" style="stroke:#000000;stroke-width:3.24"/>
	<text x="260.90" y="2013.23" style="font-family:'Helvetica';font-size:45.05px;fill:#000000" transform="rotate(-90 260.90,2013.23)" text-anchor="middle">2</text>
	<line x1="308.14" y1="1843.19" x2="285.62" y2="1843.19" style="stroke:#000000;stroke-width:3.24"/>
	<text x="260.90" y="1843.19" style="font-family:'Helvetica';font-size:45.05px;fill:#000000" transform="rotate(-90 260.90,1843.19)" text-anchor="middle">3</text>
	<line x1="308.14" y1="1673.03" x2="285.62" y2="1673.03" style="stroke:#000000;stroke-width:3.24"/>
	<text x="260.90" y="1673.03" style="font-family:'Helvetica';font-size:45.05px;fill:#000000" transform="rotate(-90 260.90,1673.03)" text-anchor="middle">4</text>
	<text x="210.29" y="2013.23" style="font-family:'Helvetica';font-size:45.05px;fill:#000000" transform="rotate(-90 210.29,2013.23)" text-anchor="middle">Number</text>
	<line x1="308.14" y1="2389.19" x2="1300.24" y2="2389.19" style="stroke:#000000;stroke-width:3.24"/>
	<line x1="343.78" y1="2389.19" x2="343.78" y2="2411.59" style="stroke:#000000;stroke-width:3.24"/>
	<text x="359.57" y="2422.85" style="font-family:'Helvetica';font-size:45.05px;fill:#000000" transform="rotate(-90 359.57,2422.85)" text-anchor="end">2010</text>
	<line x1="455.40" y1="2389.19" x2="455.40" y2="2411.59" style="stroke:#000000;stroke-width:3.24"/>
	<text x="471.20" y="2422.85" style="font-family:'Helvetica';font-size:45.05px;fill:#000000" transform="rotate(-90 471.20,2422.85)" text-anchor="end">2012</text>
	<line x1="567.02" y1="2389.19" x2="567.02" y2="2411.59" style="stroke:#000000;stroke-width:3.24"/>
	<text x="582.82" y="2422.85" style="font-family:'Helvetica';font-size:45.05px;fill:#000000" transform="rotate(-90 582.82,2422.85)" text-anchor="end">2014</text>
	<line x1="678.64" y1="2389.19" x2="678.64" y2="2411.59" style="stroke:#000000;stroke-width:3.24"/>
	<text x="694.44" y="2422.85" style="font-family:'Helvetica';font-size:45.05px;fill:#000000" transform="rotate(-90 694.44,2422.85)" text-anchor="end">2016</text>
	<line x1="790.27" y1="2389.19" x2="790.27" y2="2411.59" style="stroke:#000000;stroke-width:3.24"/>
	<text x="806.06" y="2422.85" style="font-family:'Helvetica';font-size:45.05px;fill:#000000" transform="rotate(-90 806.06,2422.85)" text-anchor="end">2018</text>
	<line x1="901.89" y1="2389.19" x2="901.89" y2="2411.59" style="stroke:#000000;stroke-width:3.24"/>
	<text x="917.69" y="2422.85" style="font-family:'Helvetica';font-size:45.05px;fill:#000000" transform="rotate(-90 917.69,2422.85)" text-anchor="end">2020</text>
	<line x1="1013.51" y1="2389.19" x2="1013.51" y2="2411.59" style="stroke:#000000;stroke-width:3.24"/>
	<text x="1029.31" y="2422.85" style="font-family:'Helvetica';font-size:45.05px;fill:#000000" transform="rotate(-90 1029.31,2422.85)" text-anchor="end">2022</text>
	<line x1="1125.01" y1="2389.19" x2="1125.01" y2="2411.59" style="stroke:#000000;stroke-width:3.24"/>
	<text x="1140.81" y="2422.85" style="font-family:'Helvetica';font-size:45.05px;fill:#000000" transform="rotate(-90 1140.81,2422.85)" text-anchor="end">2024</text>
	<line x1="1236.63" y1="2389.19" x2="1236.63" y2="2411.59" style="stroke:#000000;stroke-width:3.24"/>
	<text x="1252.43" y="2422.85" style="font-family:'Helvetica';font-size:45.05px;fill:#000000" transform="rotate(-90 1252.43,2422.85)" text-anchor="end">2026</text>
	<text x="804.25" y="1604.06" style="font-family:'Helvetica';font-size:78.70px;fill:#000000" text-anchor="middle">Papers over the years</text>
	<rect x="1356.92" y="1482.57" width="1246.04" height="1131.98" style="fill:#FFFFFF"/>
	<rect x="1358.54" y="1484.19" width="1242.80" height="1128.74" style="fill:none;stroke:#FFFFFF;stroke-width:3.24"/>
	<rect x="1555.80" y="1639.01" width="988.86" height="546.23" style="fill:none;stroke:#000000;stroke-width:3.24"/>
	<line x1="1554.18" y1="2186.85" x2="2546.28" y2="2186.85" style="stroke:#E0E0E0;stroke-width:4.86"/>
	<line x1="1554.18" y1="2063.72" x2="2546.28" y2="2063.72" style="stroke:#E0E0E0;stroke-width:4.86"/>
	<line x1="1554.18" y1="1940.46" x2="2546.28" y2="1940.46" style="stroke:#E0E0E0;stroke-width:4.86"/>
	<line x1="1554.18" y1="1817.33" x2="2546.28" y2="1817.33" style="stroke:#E0E0E0;stroke-width:4.86"/>
	<line x1="1554.18" y1="1694.07" x2="2546.28" y2="1694.07" style="stroke:#E0E0E0;stroke-width:4.86"/>
	<rect x="1618.53" y="1733.05" width="37.99" height="453.81" style="fill:#606060"/>
	<rect x="1620.15" y="1734.67" width="34.75" height="450.57" style="fill:none;stroke:#606060;stroke-width:3.24"/>
	<rect x="1682.01" y="2024.74" width="37.99" height="162.12" style="fill:#606060"/>
	<rect x="1683.63" y="2026.36" width="34.75" height="158.88" style="fill:none;stroke:#606060;stroke-width:3.24"/>
	<rect x="1745.49" y="2024.74" width="37.99" height="162.12" style="fill:#606060"/>
	<rect x="1747.11" y="2026.36" width="34.75" height="158.88" style="fill:none;stroke:#606060;stroke-width:3.24"/>
	<rect x="1808.98" y="2024.74" width="37.99" height="162.12" style="fill:#606060"/>
	<rect x="1810.60" y="2026.36" width="34.75" height="158.88" style="fill:none;stroke:#606060;stroke-width:3.24"/>
	<rect x="1872.46" y="2089.58" width="37.99" height="97.27" style="fill:#606060"/>
	<rect x="1874.08" y="2091.20" width="34.75" height="94.03" style="fill:none;stroke:#606060;stroke-width:3.24"/>
	<rect x="1935.94" y="2089.58" width="38.12" height="97.27" style="fill:#606060"/>
	<rect x="1937.56" y="2091.20" width="34.88" height="94.03" style="fill:none;stroke:#606060;stroke-width:3.24"/>
	<rect x="1999.43" y="2089.58" width="38.12" height="97.27" style="fill:#606060"/>
	<rect x="2001.05" y="2091.20" width="34.88" height="94.03" style="fill:none;stroke:#606060;stroke-width:3.24"/>
	<rect x="2062.91" y="2122.01" width="38.12" height="64.85" style="fill:#606060"/>
	<rect x="2064.53" y="2123.63" width="34.88" height="61.61" style="fill:none;stroke:#606060;stroke-width:3.24"/>
	<rect x="2126.52" y="2122.01" width="37.99" height="64.85" style="fill:#606060"/>
	<rect x="2128.14" y="2123.63" width="34.75" height="61.61" style="fill:none;stroke:#606060;stroke-width:3.24"/>
	<rect x="2190.00" y="2122.01" width="37.99" height="64.85" style="fill:#606060"/>
	<rect x="2191.62" y="2123.63" width="34.75" height="61.61" style="fill:none;stroke:#606060;stroke-width:3.24"/>
	<rect x="2253.49" y="2154.43" width="37.99" height="32.42" style="fill:#606060"/>
	<rect x="2255.11" y="2156.05" width="34.75" height="29.18" style="fill:none;stroke:#606060;stroke-width:3.24"/>
	<rect x="2316.97" y="2154.43" width="37.99" height="32.42" style="fill:#606060"/>
	<rect x="2318.59" y="2156.05" width="34.75" height="29.18" style="fill:none;stroke:#606060;stroke-width:3.24"/>
	<rect x="2380.45" y="2154.43" width="37.99" height="32.42" style="fill:#606060"/>
	<rect x="2382.07" y="2156.05" width="34.75" height="29.18" style="fill:none;stroke:#606060;stroke-width:3.24"/>
	<rect x="2443.94" y="2154.43" width="37.99" height="32.42" style="fill:#606060"/>
	<rect x="2445.56" y="2156.05" width="34.75" height="29.18" style="fill:none;stroke:#606060;stroke-width:3.24"/>
	<line x1="1554.18" y1="2186.85" x2="1554.18" y2="1637.39" style="stroke:#000000;stroke-width:3.24"/>
	<line x1="1554.18" y1="2186.85" x2="1531.65" y2="2186.85" style="stroke:#000000;stroke-width:3.24"/>
	<text x="1506.94" y="2186.85" style="font-family:'Helvetica';font-size:45.05px;fill:#000000" transform="rotate(-90 1506.94,2186.85)" text-anchor="middle">0</text>
	<line x1="1554.18" y1="2063.72" x2="1531.65" y2="2063.72" style="stroke:#000000;stroke-width:3.24"/>
	<text x="1506.94" y="2063.72" style="font-family:'Helvetica';font-size:45.05px;fill:#000000" transform="rotate(-90 1506.94,2063.72)" text-anchor="middle">20</text>
	<line x1="1554.18" y1="1940.46" x2="1531.65" y2="1940.46" style="stroke:#000000;stroke-width:3.24"/>
	<text x="1506.94" y="1940.46" style="font-family:'Helvetica';font-size:45.05px;fill:#000000" transform="rotate(-90 1506.94,1940.46)" text-anchor="middle">40</text>
	<line x1="1554.18" y1="1817.33" x2="1531.65" y2="1817.33" style="stroke:#000000;stroke-width:3.24"/>
	<text x="1506.94" y="1817.33" style="font-family:'Helvetica';font-size:45.05px;fill:#000000" transform="rotate(-90 1506.94,1817.33)" text-anchor="middle">60</text>
	<line x1="1554.18" y1="1694.07" x2="1531.65" y2="1694.07" style="stroke:#000000;stroke-width:3.24"/>
	<text x="1506.94" y="1694.07" style="font-family:'Helvetica';font-size:45.05px;fill:#000000" transform="rotate(-90 1506.94,1694.07)" text-anchor="middle">80</text>
	<text x="1456.33" y="1912.12" style="font-family:'Helvetica';font-size:45.05px;fill:#000000" transform="rotate(-90 1456.33,1912.12)" text-anchor="middle">Percentage</text>
	<line x1="1554.18" y1="2186.85" x2="2546.28" y2="2186.85" style="stroke:#000000;stroke-width:3.24"/>
	<text x="1653.26" y="2209.38" style="font-family:'Helvetica';font-size:45.05px;fill:#000000" transform="rotate(-90 1653.26,2209.38)" text-anchor="end">Debt</text>
	<text x="1716.86" y="2209.38" style="font-family:'Helvetica';font-size:45.05px;fill:#000000" transform="rotate(-90 1716.86,2209.38)" text-anchor="end">Employment</text>
	<text x="1780.35" y="2209.38" style="font-family:'Helvetica';font-size:45.05px;fill:#000000" transform="rotate(-90 1780.35,2209.38)" text-anchor="end">Gender</text>
	<text x="1843.83" y="2209.38" style="font-family:'Helvetica';font-size:45.05px;fill:#000000" transform="rotate(-90 1843.83,2209.38)" text-anchor="end">Personality</text>
	<text x="1907.32" y="2209.38" style="font-family:'Helvetica';font-size:45.05px;fill:#000000" transform="rotate(-90 1907.32,2209.38)" text-anchor="end">Caste</text>
	<text x="1970.80" y="2209.38" style="font-family:'Helvetica';font-size:45.05px;fill:#000000" transform="rotate(-90 1970.80,2209.38)" text-anchor="end">Covid</text>
	<text x="2034.28" y="2209.38" style="font-family:'Helvetica';font-size:45.05px;fill:#000000" transform="rotate(-90 2034.28,2209.38)" text-anchor="end">Networks</text>
	<text x="2097.77" y="2209.38" style="font-family:'Helvetica';font-size:45.05px;fill:#000000" transform="rotate(-90 2097.77,2209.38)" text-anchor="end">Agriculture</text>
	<text x="2161.25" y="2209.38" style="font-family:'Helvetica';font-size:45.05px;fill:#000000" transform="rotate(-90 2161.25,2209.38)" text-anchor="end">Demonetisation</text>
	<text x="2224.73" y="2209.38" style="font-family:'Helvetica';font-size:45.05px;fill:#000000" transform="rotate(-90 2224.73,2209.38)" text-anchor="end">Education</text>
	<text x="2288.22" y="2209.38" style="font-family:'Helvetica';font-size:45.05px;fill:#000000" transform="rotate(-90 2288.22,2209.38)" text-anchor="end">Marriage</text>
	<text x="2351.70" y="2209.38" style="font-family:'Helvetica';font-size:45.05px;fill:#000000" transform="rotate(-90 2351.70,2209.38)" text-anchor="end">Migration</text>
	<text x="2415.31" y="2209.38" style="font-family:'Helvetica';font-size:45.05px;fill:#000000" transform="rotate(-90 2415.31,2209.38)" text-anchor="end">Mobility</text>
	<text x="2478.79" y="2209.38" style="font-family:'Helvetica';font-size:45.05px;fill:#000000" transform="rotate(-90 2478.79,2209.38)" text-anchor="end">Saving</text>
	<text x="2050.29" y="1604.06" style="font-family:'Helvetica';font-size:78.70px;fill:#000000" text-anchor="middle">Topics</text>
	<rect x="2602.96" y="1482.57" width="1246.04" height="1131.98" style="fill:#FFFFFF"/>
	<rect x="2604.58" y="1484.19" width="1242.80" height="1128.74" style="fill:none;stroke:#FFFFFF;stroke-width:3.24"/>
	<rect x="2801.83" y="1639.01" width="988.86" height="659.09" style="fill:none;stroke:#000000;stroke-width:3.24"/>
	<line x1="2800.22" y1="2299.72" x2="3792.32" y2="2299.72" style="stroke:#E0E0E0;stroke-width:4.86"/>
	<line x1="2800.22" y1="2148.37" x2="3792.32" y2="2148.37" style="stroke:#E0E0E0;stroke-width:4.86"/>
	<line x1="2800.22" y1="1996.89" x2="3792.32" y2="1996.89" style="stroke:#E0E0E0;stroke-width:4.86"/>
	<line x1="2800.22" y1="1845.54" x2="3792.32" y2="1845.54" style="stroke:#E0E0E0;stroke-width:4.86"/>
	<line x1="2800.22" y1="1694.07" x2="3792.32" y2="1694.07" style="stroke:#E0E0E0;stroke-width:4.86"/>
	<rect x="2864.57" y="1741.96" width="37.99" height="557.76" style="fill:#606060"/>
	<rect x="2866.18" y="1743.58" width="34.75" height="554.52" style="fill:none;stroke:#606060;stroke-width:3.24"/>
	<rect x="2928.05" y="1821.66" width="37.99" height="478.06" style="fill:#606060"/>
	<rect x="2929.67" y="1823.28" width="34.75" height="474.82" style="fill:none;stroke:#606060;stroke-width:3.24"/>
	<rect x="2991.53" y="1821.66" width="37.99" height="478.06" style="fill:#606060"/>
	<rect x="2993.15" y="1823.28" width="34.75" height="474.82" style="fill:none;stroke:#606060;stroke-width:3.24"/>
	<rect x="3055.02" y="2020.78" width="37.99" height="278.94" style="fill:#606060"/>
	<rect x="3056.64" y="2022.40" width="34.75" height="275.70" style="fill:none;stroke:#606060;stroke-width:3.24"/>
	<rect x="3118.50" y="2020.78" width="37.99" height="278.94" style="fill:#606060"/>
	<rect x="3120.12" y="2022.40" width="34.75" height="275.70" style="fill:none;stroke:#606060;stroke-width:3.24"/>
	<rect x="3181.98" y="2140.32" width="38.12" height="159.39" style="fill:#606060"/>
	<rect x="3183.60" y="2141.94" width="34.88" height="156.16" style="fill:none;stroke:#606060;stroke-width:3.24"/>
	<rect x="3245.47" y="2180.17" width="38.11" height="119.55" style="fill:#606060"/>
	<rect x="3247.09" y="2181.79" width="34.88" height="116.31" style="fill:none;stroke:#606060;stroke-width:3.24"/>
	<rect x="3308.95" y="2220.02" width="38.11" height="79.70" style="fill:#606060"/>
	<rect x="3310.57" y="2221.64" width="34.88" height="76.46" style="fill:none;stroke:#606060;stroke-width:3.24"/>
	<rect x="3372.56" y="2220.02" width="37.99" height="79.70" style="fill:#606060"/>
	<rect x="3374.18" y="2221.64" width="34.75" height="76.46" style="fill:none;stroke:#606060;stroke-width:3.24"/>
	<rect x="3436.04" y="2259.87" width="37.99" height="39.85" style="fill:#606060"/>
	<rect x="3437.66" y="2261.49" width="34.75" height="36.61" style="fill:none;stroke:#606060;stroke-width:3.24"/>
	<rect x="3499.53" y="2259.87" width="37.99" height="39.85" style="fill:#606060"/>
	<rect x="3501.15" y="2261.49" width="34.75" height="36.61" style="fill:none;stroke:#606060;stroke-width:3.24"/>
	<rect x="3563.01" y="2259.87" width="37.99" height="39.85" style="fill:#606060"/>
	<rect x="3564.63" y="2261.49" width="34.75" height="36.61" style="fill:none;stroke:#606060;stroke-width:3.24"/>
	<rect x="3626.49" y="2259.87" width="37.99" height="39.85" style="fill:#606060"/>
	<rect x="3628.11" y="2261.49" width="34.75" height="36.61" style="fill:none;stroke:#606060;stroke-width:3.24"/>
	<rect x="3689.98" y="2259.87" width="37.99" height="39.85" style="fill:#606060"/>
	<rect x="3691.60" y="2261.49" width="34.75" height="36.61" style="fill:none;stroke:#606060;stroke-width:3.24"/>
	<line x1="2800.22" y1="2299.72" x2="2800.22" y2="1637.39" style="stroke:#000000;stroke-width:3.24"/>
	<line x1="2800.22" y1="2299.72" x2="2777.69" y2="2299.72" style="stroke:#000000;stroke-width:3.24"/>
	<text x="2752.98" y="2299.72" style="font-family:'Helvetica';font-size:45.05px;fill:#000000" transform="rotate(-90 2752.98,2299.72)" text-anchor="middle">0</text>
	<line x1="2800.22" y1="2148.37" x2="2777.69" y2="2148.37" style="stroke:#000000;stroke-width:3.24"/>
	<text x="2752.98" y="2148.37" style="font-family:'Helvetica';font-size:45.05px;fill:#000000" transform="rotate(-90 2752.98,2148.37)" text-anchor="middle">20</text>
	<line x1="2800.22" y1="1996.89" x2="2777.69" y2="1996.89" style="stroke:#000000;stroke-width:3.24"/>
	<text x="2752.98" y="1996.89" style="font-family:'Helvetica';font-size:45.05px;fill:#000000" transform="rotate(-90 2752.98,1996.89)" text-anchor="middle">40</text>
	<line x1="2800.22" y1="1845.54" x2="2777.69" y2="1845.54" style="stroke:#000000;stroke-width:3.24"/>
	<text x="2752.98" y="1845.54" style="font-family:'Helvetica';font-size:45.05px;fill:#000000" transform="rotate(-90 2752.98,1845.54)" text-anchor="middle">60</text>
	<line x1="2800.22" y1="1694.07" x2="2777.69" y2="1694.07" style="stroke:#000000;stroke-width:3.24"/>
	<text x="2752.98" y="1694.07" style="font-family:'Helvetica';font-size:45.05px;fill:#000000" transform="rotate(-90 2752.98,1694.07)" text-anchor="middle">80</text>
	<text x="2702.37" y="1968.55" style="font-family:'Helvetica';font-size:45.05px;fill:#000000" transform="rotate(-90 2702.37,1968.55)" text-anchor="middle">Percentage</text>
	<line x1="2800.22" y1="2299.72" x2="3792.32" y2="2299.72" style="stroke:#000000;stroke-width:3.24"/>
	<text x="2899.42" y="2322.24" style="font-family:'Helvetica';font-size:45.05px;fill:#000000" transform="rotate(-90 2899.42,2322.24)" text-anchor="end">Guérin</text>
	<text x="2962.90" y="2322.24" style="font-family:'Helvetica';font-size:45.05px;fill:#000000" transform="rotate(-90 2962.90,2322.24)" text-anchor="end">Nordman</text>
	<text x="3026.39" y="2322.24" style="font-family:'Helvetica';font-size:45.05px;fill:#000000" transform="rotate(-90 3026.39,2322.24)" text-anchor="end">Venkat</text>
	<text x="3089.87" y="2322.24" style="font-family:'Helvetica';font-size:45.05px;fill:#000000" transform="rotate(-90 3089.87,2322.24)" text-anchor="end">Michiels</text>
	<text x="3153.35" y="2322.24" style="font-family:'Helvetica';font-size:45.05px;fill:#000000" transform="rotate(-90 3153.35,2322.24)" text-anchor="end">Natal</text>
	<text x="3216.84" y="2322.24" style="font-family:'Helvetica';font-size:45.05px;fill:#000000" transform="rotate(-90 3216.84,2322.24)" text-anchor="end">Mouchel</text>
	<text x="3280.32" y="2322.24" style="font-family:'Helvetica';font-size:45.05px;fill:#000000" transform="rotate(-90 3280.32,2322.24)" text-anchor="end">DEspallier</text>
	<text x="3343.81" y="2322.24" style="font-family:'Helvetica';font-size:45.05px;fill:#000000" transform="rotate(-90 3343.81,2322.24)" text-anchor="end">DiSantolo</text>
	<text x="3407.29" y="2322.24" style="font-family:'Helvetica';font-size:45.05px;fill:#000000" transform="rotate(-90 3407.29,2322.24)" text-anchor="end">Reboul</text>
	<text x="3470.77" y="2322.24" style="font-family:'Helvetica';font-size:45.05px;fill:#000000" transform="rotate(-90 3470.77,2322.24)" text-anchor="end">Goedecke</text>
	<text x="3534.26" y="2322.24" style="font-family:'Helvetica';font-size:45.05px;fill:#000000" transform="rotate(-90 3534.26,2322.24)" text-anchor="end">Kumar</text>
	<text x="3597.74" y="2322.24" style="font-family:'Helvetica';font-size:45.05px;fill:#000000" transform="rotate(-90 3597.74,2322.24)" text-anchor="end">Lanos</text>
	<text x="3661.35" y="2322.24" style="font-family:'Helvetica';font-size:45.05px;fill:#000000" transform="rotate(-90 3661.35,2322.24)" text-anchor="end">Roesch</text>
	<text x="3724.83" y="2322.24" style="font-family:'Helvetica';font-size:45.05px;fill:#000000" transform="rotate(-90 3724.83,2322.24)" text-anchor="end">Seetahul</text>
	<text x="3296.33" y="1604.06" style="font-family:'Helvetica';font-size:78.70px;fill:#000000" text-anchor="middle">Authors</text>
	<text x="80.69" y="2721.35" style="fill:#000000">
		<tspan style="font-family:'Helvetica';font-style:italic;font-size:60.02px">Note:</tspan>
		<tspan style="font-family:'Helvetica';font-size:60.02px"> *Green or gold open access. Papers cited 430 times (324).</tspan>
	</text>
	<text x="80.69" y="2781.24" style="fill:#000000">
		<tspan style="font-family:'Helvetica';font-style:italic;font-size:60.02px">Source:</tspan>
		<tspan style="font-family:'Helvetica';font-size:60.02px"> A. Natal. Updated in October 2025.</tspan>
	</text>
	<text x="1980.00" y="157.51" style="font-family:'Helvetica';font-size:110.01px;fill:#000000" text-anchor="middle">Published research papers (N=19)</text>
</svg>
