<?xml version="1.0" encoding="UTF-8" standalone="no"?>
<!-- This is a Stata 15.1 generated SVG file (http://www.stata.com) -->

<svg version="1.1" width="6.00in" height="4.00in" viewBox="0 0 4320 2880" xmlns="http://www.w3.org/2000/svg" xmlns:xlink="http://www.w3.org/1999/xlink">
	<desc>Stata Graph - pub</desc>
	<rect x="0" y="0" width="4320" height="2880" style="fill:#FFFFFF;stroke:none"/>
	<rect x="0.00" y="0.00" width="4320.00" height="2880.00" style="fill:#FFFFFF"/>
	<rect x="2.88" y="2.88" width="4314.24" height="2874.24" style="fill:none;stroke:#FFFFFF;stroke-width:5.76"/>
	<rect x="63.31" y="207.90" width="4193.24" height="1227.03" style="fill:#FFFFFF"/>
	<rect x="65.47" y="210.06" width="4188.92" height="1222.71" style="fill:none;stroke:#FFFFFF;stroke-width:4.32"/>
	<rect x="110.83" y="255.42" width="1024.65" height="1131.99" style="fill:#FFFFFF"/>
	<rect x="112.45" y="257.04" width="1021.41" height="1128.75" style="fill:none;stroke:#FFFFFF;stroke-width:3.24"/>
	<rect x="328.73" y="387.86" width="750.06" height="609.94" style="fill:#E0E0E0"/>
	<rect x="330.34" y="389.48" width="746.82" height="606.70" style="fill:none;stroke:#FFFFFF;stroke-width:3.24"/>
	<line x1="328.73" y1="997.80" x2="1078.79" y2="997.80" style="stroke:#FFFFFF;stroke-width:3.24"/>
	<line x1="328.73" y1="859.56" x2="1078.79" y2="859.56" style="stroke:#FFFFFF;stroke-width:3.24"/>
	<line x1="328.73" y1="721.18" x2="1078.79" y2="721.18" style="stroke:#FFFFFF;stroke-width:3.24"/>
	<line x1="328.73" y1="582.80" x2="1078.79" y2="582.80" style="stroke:#FFFFFF;stroke-width:3.24"/>
	<rect x="427.01" y="633.83" width="207.36" height="363.97" style="fill:#808080"/>
	<rect x="428.62" y="635.45" width="204.12" height="360.73" style="fill:none;stroke:#000000;stroke-width:3.24"/>
	<rect x="773.28" y="670.29" width="207.23" height="327.52" style="fill:#808080"/>
	<rect x="774.90" y="671.91" width="203.99" height="324.28" style="fill:none;stroke:#000000;stroke-width:3.24"/>
	<line x1="328.73" y1="997.80" x2="306.32" y2="997.80" style="stroke:#606060;stroke-width:3.24"/>
	<text x="295.11" y="1013.57" style="font-family:'Helvetica';font-size:44.95px;fill:#606060" text-anchor="end">0</text>
	<line x1="328.73" y1="859.56" x2="306.32" y2="859.56" style="stroke:#606060;stroke-width:3.24"/>
	<text x="295.11" y="875.33" style="font-family:'Helvetica';font-size:44.95px;fill:#606060" text-anchor="end">20</text>
	<line x1="328.73" y1="721.18" x2="306.32" y2="721.18" style="stroke:#606060;stroke-width:3.24"/>
	<text x="295.11" y="736.95" style="font-family:'Helvetica';font-size:44.95px;fill:#606060" text-anchor="end">40</text>
	<line x1="328.73" y1="582.80" x2="306.32" y2="582.80" style="stroke:#606060;stroke-width:3.24"/>
	<text x="295.11" y="598.57" style="font-family:'Helvetica';font-size:44.95px;fill:#606060" text-anchor="end">60</text>
	<line x1="328.73" y1="444.56" x2="306.32" y2="444.56" style="stroke:#606060;stroke-width:3.24"/>
	<text x="295.11" y="460.33" style="font-family:'Helvetica';font-size:44.95px;fill:#606060" text-anchor="end">80</text>
	<line x1="328.73" y1="997.80" x2="328.73" y2="444.56" style="stroke:#000000;stroke-width:3.24"/>
	<text x="210.28" y="692.83" style="font-family:'Helvetica';font-size:44.95px;fill:#000000" transform="rotate(-90 210.28,692.83)" text-anchor="middle">Percentage</text>
	<text x="546.45" y="1020.35" style="font-family:'Helvetica';font-size:44.95px;fill:#606060" transform="rotate(-90 546.45,1020.35)" text-anchor="end">Cross-section</text>
	<text x="892.59" y="1020.35" style="font-family:'Helvetica';font-size:44.95px;fill:#606060" transform="rotate(-90 892.59,1020.35)" text-anchor="end">Panel</text>
	<text x="703.76" y="361.18" style="font-family:'Helvetica';font-size:56.30px;fill:#000000" text-anchor="middle">Analysis</text>
	<rect x="1135.48" y="255.42" width="1024.52" height="1131.99" style="fill:#FFFFFF"/>
	<rect x="1137.10" y="257.04" width="1021.28" height="1128.75" style="fill:none;stroke:#FFFFFF;stroke-width:3.24"/>
	<rect x="1353.38" y="387.86" width="749.93" height="644.10" style="fill:#E0E0E0"/>
	<rect x="1354.99" y="389.48" width="746.69" height="640.86" style="fill:none;stroke:#FFFFFF;stroke-width:3.24"/>
	<line x1="1353.38" y1="1031.96" x2="2103.30" y2="1031.96" style="stroke:#FFFFFF;stroke-width:3.24"/>
	<line x1="1353.38" y1="885.07" x2="2103.30" y2="885.07" style="stroke:#FFFFFF;stroke-width:3.24"/>
	<line x1="1353.38" y1="738.19" x2="2103.30" y2="738.19" style="stroke:#FFFFFF;stroke-width:3.24"/>
	<line x1="1353.38" y1="591.44" x2="2103.30" y2="591.44" style="stroke:#FFFFFF;stroke-width:3.24"/>
	<line x1="1353.38" y1="444.56" x2="2103.30" y2="444.56" style="stroke:#FFFFFF;stroke-width:3.24"/>
	<rect x="1436.94" y="645.45" width="134.19" height="386.51" style="fill:#808080"/>
	<rect x="1438.56" y="647.07" width="130.95" height="383.27" style="fill:none;stroke:#000000;stroke-width:3.24"/>
	<rect x="1661.18" y="529.61" width="134.33" height="502.34" style="fill:#808080"/>
	<rect x="1662.79" y="531.23" width="131.09" height="499.10" style="fill:none;stroke:#000000;stroke-width:3.24"/>
	<rect x="1885.41" y="645.45" width="134.32" height="386.51" style="fill:#808080"/>
	<rect x="1887.03" y="647.07" width="131.09" height="383.27" style="fill:none;stroke:#000000;stroke-width:3.24"/>
	<line x1="1353.38" y1="1031.96" x2="1330.83" y2="1031.96" style="stroke:#606060;stroke-width:3.24"/>
	<text x="1319.63" y="1047.72" style="font-family:'Helvetica';font-size:44.95px;fill:#606060" text-anchor="end">0</text>
	<line x1="1353.38" y1="885.07" x2="1330.83" y2="885.07" style="stroke:#606060;stroke-width:3.24"/>
	<text x="1319.63" y="900.84" style="font-family:'Helvetica';font-size:44.95px;fill:#606060" text-anchor="end">20</text>
	<line x1="1353.38" y1="738.19" x2="1330.83" y2="738.19" style="stroke:#606060;stroke-width:3.24"/>
	<text x="1319.63" y="753.96" style="font-family:'Helvetica';font-size:44.95px;fill:#606060" text-anchor="end">40</text>
	<line x1="1353.38" y1="591.44" x2="1330.83" y2="591.44" style="stroke:#606060;stroke-width:3.24"/>
	<text x="1319.63" y="607.21" style="font-family:'Helvetica';font-size:44.95px;fill:#606060" text-anchor="end">60</text>
	<line x1="1353.38" y1="444.56" x2="1330.83" y2="444.56" style="stroke:#606060;stroke-width:3.24"/>
	<text x="1319.63" y="460.33" style="font-family:'Helvetica';font-size:44.95px;fill:#606060" text-anchor="end">80</text>
	<line x1="1353.38" y1="1031.96" x2="1353.38" y2="444.56" style="stroke:#000000;stroke-width:3.24"/>
	<text x="1234.79" y="709.84" style="font-family:'Helvetica';font-size:44.95px;fill:#000000" transform="rotate(-90 1234.79,709.84)" text-anchor="middle">Percentage</text>
	<text x="1519.80" y="1054.50" style="font-family:'Helvetica';font-size:44.95px;fill:#606060" transform="rotate(-90 1519.80,1054.50)" text-anchor="end">RUME</text>
	<text x="1744.04" y="1054.50" style="font-family:'Helvetica';font-size:44.95px;fill:#606060" transform="rotate(-90 1744.04,1054.50)" text-anchor="end">NEEMSIS-1</text>
	<text x="1968.27" y="1054.50" style="font-family:'Helvetica';font-size:44.95px;fill:#606060" transform="rotate(-90 1968.27,1054.50)" text-anchor="end">NEEMSIS-2</text>
	<text x="1728.27" y="361.18" style="font-family:'Helvetica';font-size:56.30px;fill:#000000" text-anchor="middle">Data used</text>
	<rect x="2160.00" y="255.42" width="1024.51" height="1131.99" style="fill:#FFFFFF"/>
	<rect x="2161.62" y="257.04" width="1021.28" height="1128.75" style="fill:none;stroke:#FFFFFF;stroke-width:3.24"/>
	<rect x="2404.08" y="387.86" width="723.74" height="608.72" style="fill:#E0E0E0"/>
	<rect x="2405.70" y="389.48" width="720.50" height="605.48" style="fill:none;stroke:#FFFFFF;stroke-width:3.24"/>
	<line x1="2404.08" y1="996.59" x2="3127.82" y2="996.59" style="stroke:#FFFFFF;stroke-width:3.24"/>
	<line x1="2404.08" y1="886.15" x2="3127.82" y2="886.15" style="stroke:#FFFFFF;stroke-width:3.24"/>
	<line x1="2404.08" y1="775.72" x2="3127.82" y2="775.72" style="stroke:#FFFFFF;stroke-width:3.24"/>
	<line x1="2404.08" y1="665.29" x2="3127.82" y2="665.29" style="stroke:#FFFFFF;stroke-width:3.24"/>
	<line x1="2404.08" y1="554.99" x2="3127.82" y2="554.99" style="stroke:#FFFFFF;stroke-width:3.24"/>
	<line x1="2404.08" y1="444.56" x2="3127.82" y2="444.56" style="stroke:#FFFFFF;stroke-width:3.24"/>
	<rect x="2486.57" y="502.61" width="128.79" height="493.97" style="fill:#808080"/>
	<rect x="2488.18" y="504.23" width="125.55" height="490.73" style="fill:none;stroke:#000000;stroke-width:3.24"/>
	<rect x="2701.62" y="967.56" width="128.79" height="29.03" style="fill:#808080"/>
	<rect x="2703.24" y="969.18" width="125.55" height="25.79" style="fill:none;stroke:#000000;stroke-width:3.24"/>
	<rect x="2916.68" y="967.56" width="128.65" height="29.03" style="fill:#808080"/>
	<rect x="2918.29" y="969.18" width="125.42" height="25.79" style="fill:none;stroke:#000000;stroke-width:3.24"/>
	<line x1="2404.08" y1="996.59" x2="2381.67" y2="996.59" style="stroke:#606060;stroke-width:3.24"/>
	<text x="2370.33" y="1012.35" style="font-family:'Helvetica';font-size:44.95px;fill:#606060" text-anchor="end">0</text>
	<line x1="2404.08" y1="886.15" x2="2381.67" y2="886.15" style="stroke:#606060;stroke-width:3.24"/>
	<text x="2370.33" y="901.92" style="font-family:'Helvetica';font-size:44.95px;fill:#606060" text-anchor="end">20</text>
	<line x1="2404.08" y1="775.72" x2="2381.67" y2="775.72" style="stroke:#606060;stroke-width:3.24"/>
	<text x="2370.33" y="791.49" style="font-family:'Helvetica';font-size:44.95px;fill:#606060" text-anchor="end">40</text>
	<line x1="2404.08" y1="665.29" x2="2381.67" y2="665.29" style="stroke:#606060;stroke-width:3.24"/>
	<text x="2370.33" y="681.06" style="font-family:'Helvetica';font-size:44.95px;fill:#606060" text-anchor="end">60</text>
	<line x1="2404.08" y1="554.99" x2="2381.67" y2="554.99" style="stroke:#606060;stroke-width:3.24"/>
	<text x="2370.33" y="570.76" style="font-family:'Helvetica';font-size:44.95px;fill:#606060" text-anchor="end">80</text>
	<line x1="2404.08" y1="444.56" x2="2381.67" y2="444.56" style="stroke:#606060;stroke-width:3.24"/>
	<text x="2370.33" y="460.33" style="font-family:'Helvetica';font-size:44.95px;fill:#606060" text-anchor="end">100</text>
	<line x1="2404.08" y1="996.59" x2="2404.08" y2="444.56" style="stroke:#000000;stroke-width:3.24"/>
	<text x="2259.31" y="692.16" style="font-family:'Helvetica';font-size:44.95px;fill:#000000" transform="rotate(-90 2259.31,692.16)" text-anchor="middle">Percentage</text>
	<text x="2566.73" y="1019.00" style="font-family:'Helvetica';font-size:44.95px;fill:#606060" transform="rotate(-90 2566.73,1019.00)" text-anchor="end">Journal article</text>
	<text x="2781.78" y="1019.00" style="font-family:'Helvetica';font-size:44.95px;fill:#606060" transform="rotate(-90 2781.78,1019.00)" text-anchor="end">Book chapter</text>
	<text x="2996.70" y="1019.00" style="font-family:'Helvetica';font-size:44.95px;fill:#606060" transform="rotate(-90 2996.70,1019.00)" text-anchor="end">Book</text>
	<text x="2766.01" y="361.18" style="font-family:'Helvetica';font-size:56.30px;fill:#000000" text-anchor="middle">Published in...</text>
	<rect x="3184.51" y="255.42" width="1024.51" height="1131.99" style="fill:#FFFFFF"/>
	<rect x="3186.13" y="257.04" width="1021.28" height="1128.75" style="fill:none;stroke:#FFFFFF;stroke-width:3.24"/>
	<rect x="3402.41" y="387.86" width="749.92" height="815.95" style="fill:#E0E0E0"/>
	<rect x="3404.02" y="389.48" width="746.69" height="812.71" style="fill:none;stroke:#FFFFFF;stroke-width:3.24"/>
	<line x1="3402.41" y1="1203.81" x2="4152.33" y2="1203.81" style="stroke:#FFFFFF;stroke-width:3.24"/>
	<line x1="3402.41" y1="1014.00" x2="4152.33" y2="1014.00" style="stroke:#FFFFFF;stroke-width:3.24"/>
	<line x1="3402.41" y1="824.19" x2="4152.33" y2="824.19" style="stroke:#FFFFFF;stroke-width:3.24"/>
	<line x1="3402.41" y1="634.37" x2="4152.33" y2="634.37" style="stroke:#FFFFFF;stroke-width:3.24"/>
	<line x1="3402.41" y1="444.56" x2="4152.33" y2="444.56" style="stroke:#FFFFFF;stroke-width:3.24"/>
	<rect x="3500.55" y="904.11" width="207.36" height="299.70" style="fill:#808080"/>
	<rect x="3502.17" y="905.73" width="204.12" height="296.46" style="fill:none;stroke:#000000;stroke-width:3.24"/>
	<rect x="3846.82" y="554.45" width="207.36" height="649.36" style="fill:#808080"/>
	<rect x="3848.44" y="556.07" width="204.12" height="646.12" style="fill:none;stroke:#000000;stroke-width:3.24"/>
	<line x1="3402.41" y1="1203.81" x2="3379.86" y2="1203.81" style="stroke:#606060;stroke-width:3.24"/>
	<text x="3368.66" y="1219.58" style="font-family:'Helvetica';font-size:44.95px;fill:#606060" text-anchor="end">0</text>
	<line x1="3402.41" y1="1014.00" x2="3379.86" y2="1014.00" style="stroke:#606060;stroke-width:3.24"/>
	<text x="3368.66" y="1029.77" style="font-family:'Helvetica';font-size:44.95px;fill:#606060" text-anchor="end">20</text>
	<line x1="3402.41" y1="824.19" x2="3379.86" y2="824.19" style="stroke:#606060;stroke-width:3.24"/>
	<text x="3368.66" y="839.96" style="font-family:'Helvetica';font-size:44.95px;fill:#606060" text-anchor="end">40</text>
	<line x1="3402.41" y1="634.37" x2="3379.86" y2="634.37" style="stroke:#606060;stroke-width:3.24"/>
	<text x="3368.66" y="650.14" style="font-family:'Helvetica';font-size:44.95px;fill:#606060" text-anchor="end">60</text>
	<line x1="3402.41" y1="444.56" x2="3379.86" y2="444.56" style="stroke:#606060;stroke-width:3.24"/>
	<text x="3368.66" y="460.33" style="font-family:'Helvetica';font-size:44.95px;fill:#606060" text-anchor="end">80</text>
	<line x1="3402.41" y1="1203.81" x2="3402.41" y2="444.56" style="stroke:#000000;stroke-width:3.24"/>
	<text x="3283.96" y="795.84" style="font-family:'Helvetica';font-size:44.95px;fill:#000000" transform="rotate(-90 3283.96,795.84)" text-anchor="middle">Percentage</text>
	<text x="3620.00" y="1226.36" style="font-family:'Helvetica';font-size:44.95px;fill:#606060" transform="rotate(-90 3620.00,1226.36)" text-anchor="end">No</text>
	<text x="3966.27" y="1226.36" style="font-family:'Helvetica';font-size:44.95px;fill:#606060" transform="rotate(-90 3966.27,1226.36)" text-anchor="end">Yes</text>
	<text x="3777.43" y="361.18" style="font-family:'Helvetica';font-size:56.30px;fill:#000000" text-anchor="middle">Free of charge*</text>
	<rect x="63.31" y="1434.94" width="4193.24" height="1227.17" style="fill:#FFFFFF"/>
	<rect x="65.47" y="1437.10" width="4188.92" height="1222.85" style="fill:none;stroke:#FFFFFF;stroke-width:4.32"/>
	<rect x="110.83" y="1482.46" width="1366.07" height="1132.13" style="fill:#FFFFFF"/>
	<rect x="112.45" y="1484.08" width="1362.83" height="1128.89" style="fill:none;stroke:#FFFFFF;stroke-width:3.24"/>
	<rect x="302.54" y="1614.90" width="1117.67" height="774.24" style="fill:#E0E0E0"/>
	<rect x="304.15" y="1616.52" width="1114.43" height="771.00" style="fill:none;stroke:#FFFFFF;stroke-width:3.24"/>
	<line x1="302.54" y1="2177.72" x2="1420.20" y2="2177.72" style="stroke:#FFFFFF;stroke-width:3.24"/>
	<line x1="302.54" y1="2002.08" x2="1420.20" y2="2002.08" style="stroke:#FFFFFF;stroke-width:3.24"/>
	<line x1="302.54" y1="1826.31" x2="1420.20" y2="1826.31" style="stroke:#FFFFFF;stroke-width:3.24"/>
	<line x1="465.07" y1="2389.13" x2="465.07" y2="1614.90" style="stroke:#FFFFFF;stroke-width:3.24"/>
	<line x1="591.84" y1="2389.13" x2="591.84" y2="1614.90" style="stroke:#FFFFFF;stroke-width:3.24"/>
	<line x1="718.74" y1="2389.13" x2="718.74" y2="1614.90" style="stroke:#FFFFFF;stroke-width:3.24"/>
	<line x1="845.51" y1="2389.13" x2="845.51" y2="1614.90" style="stroke:#FFFFFF;stroke-width:3.24"/>
	<line x1="972.40" y1="2389.13" x2="972.40" y2="1614.90" style="stroke:#FFFFFF;stroke-width:3.24"/>
	<line x1="1099.17" y1="2389.13" x2="1099.17" y2="1614.90" style="stroke:#FFFFFF;stroke-width:3.24"/>
	<line x1="1226.07" y1="2389.13" x2="1226.07" y2="1614.90" style="stroke:#FFFFFF;stroke-width:3.24"/>
	<line x1="1352.84" y1="2389.13" x2="1352.84" y2="1614.90" style="stroke:#FFFFFF;stroke-width:3.24"/>
	<rect x="433.35" y="2177.72" width="63.45" height="175.77" style="fill:#B8B8B8"/>
	<rect x="434.97" y="2179.34" width="60.21" height="172.53" style="fill:none;stroke:#000000;stroke-width:3.24"/>
	<rect x="496.80" y="2177.72" width="63.31" height="175.77" style="fill:#B8B8B8"/>
	<rect x="498.42" y="2179.34" width="60.08" height="172.53" style="fill:none;stroke:#000000;stroke-width:3.24"/>
	<rect x="623.57" y="2177.72" width="63.45" height="175.77" style="fill:#B8B8B8"/>
	<rect x="625.18" y="2179.34" width="60.21" height="172.53" style="fill:none;stroke:#000000;stroke-width:3.24"/>
	<rect x="750.47" y="2177.72" width="63.31" height="175.77" style="fill:#B8B8B8"/>
	<rect x="752.08" y="2179.34" width="60.08" height="172.53" style="fill:none;stroke:#000000;stroke-width:3.24"/>
	<rect x="813.78" y="2177.72" width="63.45" height="175.77" style="fill:#B8B8B8"/>
	<rect x="815.40" y="2179.34" width="60.21" height="172.53" style="fill:none;stroke:#000000;stroke-width:3.24"/>
	<rect x="940.68" y="2177.72" width="63.45" height="175.77" style="fill:#B8B8B8"/>
	<rect x="942.30" y="2179.34" width="60.21" height="172.53" style="fill:none;stroke:#000000;stroke-width:3.24"/>
	<rect x="1004.13" y="2002.08" width="63.31" height="351.41" style="fill:#B8B8B8"/>
	<rect x="1005.75" y="2003.70" width="60.08" height="348.17" style="fill:none;stroke:#000000;stroke-width:3.24"/>
	<rect x="1067.44" y="2002.08" width="63.45" height="351.41" style="fill:#B8B8B8"/>
	<rect x="1069.06" y="2003.70" width="60.21" height="348.17" style="fill:none;stroke:#000000;stroke-width:3.24"/>
	<rect x="1130.90" y="2002.08" width="63.45" height="351.41" style="fill:#B8B8B8"/>
	<rect x="1132.51" y="2003.70" width="60.21" height="348.17" style="fill:none;stroke:#000000;stroke-width:3.24"/>
	<rect x="1194.35" y="1826.31" width="63.45" height="527.18" style="fill:#B8B8B8"/>
	<rect x="1195.96" y="1827.93" width="60.21" height="523.94" style="fill:none;stroke:#000000;stroke-width:3.24"/>
	<rect x="1257.80" y="1826.31" width="63.45" height="527.18" style="fill:#B8B8B8"/>
	<rect x="1259.41" y="1827.93" width="60.21" height="523.94" style="fill:none;stroke:#000000;stroke-width:3.24"/>
	<rect x="1321.24" y="2177.72" width="63.32" height="175.77" style="fill:#B8B8B8"/>
	<rect x="1322.86" y="2179.34" width="60.08" height="172.53" style="fill:none;stroke:#000000;stroke-width:3.24"/>
	<line x1="302.54" y1="2177.72" x2="279.99" y2="2177.72" style="stroke:#606060;stroke-width:3.24"/>
	<text x="268.79" y="2193.49" style="font-family:'Helvetica';font-size:44.95px;fill:#606060" text-anchor="end">1</text>
	<line x1="302.54" y1="2002.08" x2="279.99" y2="2002.08" style="stroke:#606060;stroke-width:3.24"/>
	<text x="268.79" y="2017.85" style="font-family:'Helvetica';font-size:44.95px;fill:#606060" text-anchor="end">2</text>
	<line x1="302.54" y1="1826.31" x2="279.99" y2="1826.31" style="stroke:#606060;stroke-width:3.24"/>
	<text x="268.79" y="1842.08" style="font-family:'Helvetica';font-size:44.95px;fill:#606060" text-anchor="end">3</text>
	<line x1="302.54" y1="1650.54" x2="279.99" y2="1650.54" style="stroke:#606060;stroke-width:3.24"/>
	<text x="268.79" y="1666.30" style="font-family:'Helvetica';font-size:44.95px;fill:#606060" text-anchor="end">4</text>
	<text x="210.28" y="2002.08" style="font-family:'Helvetica';font-size:44.95px;fill:#000000" transform="rotate(-90 210.28,2002.08)" text-anchor="middle">Number</text>
	<line x1="338.18" y1="2389.13" x2="338.18" y2="2411.68" style="stroke:#606060;stroke-width:3.24"/>
	<text x="353.94" y="2422.88" style="font-family:'Helvetica';font-size:44.95px;fill:#606060" transform="rotate(-90 353.94,2422.88)" text-anchor="end">2010</text>
	<line x1="465.07" y1="2389.13" x2="465.07" y2="2411.68" style="stroke:#606060;stroke-width:3.24"/>
	<text x="480.84" y="2422.88" style="font-family:'Helvetica';font-size:44.95px;fill:#606060" transform="rotate(-90 480.84,2422.88)" text-anchor="end">2012</text>
	<line x1="591.84" y1="2389.13" x2="591.84" y2="2411.68" style="stroke:#606060;stroke-width:3.24"/>
	<text x="607.61" y="2422.88" style="font-family:'Helvetica';font-size:44.95px;fill:#606060" transform="rotate(-90 607.61,2422.88)" text-anchor="end">2014</text>
	<line x1="718.74" y1="2389.13" x2="718.74" y2="2411.68" style="stroke:#606060;stroke-width:3.24"/>
	<text x="734.51" y="2422.88" style="font-family:'Helvetica';font-size:44.95px;fill:#606060" transform="rotate(-90 734.51,2422.88)" text-anchor="end">2016</text>
	<line x1="845.51" y1="2389.13" x2="845.51" y2="2411.68" style="stroke:#606060;stroke-width:3.24"/>
	<text x="861.27" y="2422.88" style="font-family:'Helvetica';font-size:44.95px;fill:#606060" transform="rotate(-90 861.27,2422.88)" text-anchor="end">2018</text>
	<line x1="972.40" y1="2389.13" x2="972.40" y2="2411.68" style="stroke:#606060;stroke-width:3.24"/>
	<text x="988.17" y="2422.88" style="font-family:'Helvetica';font-size:44.95px;fill:#606060" transform="rotate(-90 988.17,2422.88)" text-anchor="end">2020</text>
	<line x1="1099.17" y1="2389.13" x2="1099.17" y2="2411.68" style="stroke:#606060;stroke-width:3.24"/>
	<text x="1114.94" y="2422.88" style="font-family:'Helvetica';font-size:44.95px;fill:#606060" transform="rotate(-90 1114.94,2422.88)" text-anchor="end">2022</text>
	<line x1="1226.07" y1="2389.13" x2="1226.07" y2="2411.68" style="stroke:#606060;stroke-width:3.24"/>
	<text x="1241.84" y="2422.88" style="font-family:'Helvetica';font-size:44.95px;fill:#606060" transform="rotate(-90 1241.84,2422.88)" text-anchor="end">2024</text>
	<line x1="1352.84" y1="2389.13" x2="1352.84" y2="2411.68" style="stroke:#606060;stroke-width:3.24"/>
	<text x="1368.60" y="2422.88" style="font-family:'Helvetica';font-size:44.95px;fill:#606060" transform="rotate(-90 1368.60,2422.88)" text-anchor="end">2026</text>
	<text x="861.43" y="1588.22" style="font-family:'Helvetica';font-size:56.30px;fill:#000000" text-anchor="middle">Papers over the years</text>
	<rect x="1476.90" y="1482.46" width="1366.07" height="1132.13" style="fill:#FFFFFF"/>
	<rect x="1478.52" y="1484.08" width="1362.83" height="1128.89" style="fill:none;stroke:#FFFFFF;stroke-width:3.24"/>
	<rect x="1694.79" y="1614.90" width="1091.47" height="572.00" style="fill:#E0E0E0"/>
	<rect x="1696.41" y="1616.52" width="1088.24" height="568.76" style="fill:none;stroke:#FFFFFF;stroke-width:3.24"/>
	<line x1="1694.79" y1="2186.90" x2="2786.26" y2="2186.90" style="stroke:#FFFFFF;stroke-width:3.24"/>
	<line x1="1694.79" y1="2058.11" x2="2786.26" y2="2058.11" style="stroke:#FFFFFF;stroke-width:3.24"/>
	<line x1="1694.79" y1="1929.32" x2="2786.26" y2="1929.32" style="stroke:#FFFFFF;stroke-width:3.24"/>
	<line x1="1694.79" y1="1800.39" x2="2786.26" y2="1800.39" style="stroke:#FFFFFF;stroke-width:3.24"/>
	<line x1="1694.79" y1="1671.60" x2="2786.26" y2="1671.60" style="stroke:#FFFFFF;stroke-width:3.24"/>
	<rect x="1759.99" y="1712.23" width="42.39" height="474.67" style="fill:#808080"/>
	<rect x="1761.61" y="1713.85" width="39.15" height="471.43" style="fill:none;stroke:#000000;stroke-width:3.24"/>
	<rect x="1830.73" y="2017.34" width="42.26" height="169.56" style="fill:#808080"/>
	<rect x="1832.35" y="2018.96" width="39.02" height="166.32" style="fill:none;stroke:#000000;stroke-width:3.24"/>
	<rect x="1901.34" y="2017.34" width="42.39" height="169.56" style="fill:#808080"/>
	<rect x="1902.96" y="2018.96" width="39.15" height="166.32" style="fill:none;stroke:#000000;stroke-width:3.24"/>
	<rect x="1972.08" y="2017.34" width="42.26" height="169.56" style="fill:#808080"/>
	<rect x="1973.70" y="2018.96" width="39.02" height="166.32" style="fill:none;stroke:#000000;stroke-width:3.24"/>
	<rect x="2042.68" y="2085.24" width="42.39" height="101.66" style="fill:#808080"/>
	<rect x="2044.30" y="2086.86" width="39.15" height="98.42" style="fill:none;stroke:#000000;stroke-width:3.24"/>
	<rect x="2113.43" y="2085.24" width="42.25" height="101.66" style="fill:#808080"/>
	<rect x="2115.04" y="2086.86" width="39.02" height="98.42" style="fill:none;stroke:#000000;stroke-width:3.24"/>
	<rect x="2184.03" y="2085.24" width="42.39" height="101.66" style="fill:#808080"/>
	<rect x="2185.65" y="2086.86" width="39.15" height="98.42" style="fill:none;stroke:#000000;stroke-width:3.24"/>
	<rect x="2254.77" y="2119.13" width="42.26" height="67.77" style="fill:#808080"/>
	<rect x="2256.39" y="2120.75" width="39.02" height="64.53" style="fill:none;stroke:#000000;stroke-width:3.24"/>
	<rect x="2325.38" y="2119.13" width="42.39" height="67.77" style="fill:#808080"/>
	<rect x="2326.99" y="2120.75" width="39.15" height="64.53" style="fill:none;stroke:#000000;stroke-width:3.24"/>
	<rect x="2396.11" y="2119.13" width="42.26" height="67.77" style="fill:#808080"/>
	<rect x="2397.73" y="2120.75" width="39.02" height="64.53" style="fill:none;stroke:#000000;stroke-width:3.24"/>
	<rect x="2466.72" y="2153.01" width="42.39" height="33.89" style="fill:#808080"/>
	<rect x="2468.34" y="2154.63" width="39.15" height="30.65" style="fill:none;stroke:#000000;stroke-width:3.24"/>
	<rect x="2537.46" y="2153.01" width="42.26" height="33.89" style="fill:#808080"/>
	<rect x="2539.08" y="2154.63" width="39.02" height="30.65" style="fill:none;stroke:#000000;stroke-width:3.24"/>
	<rect x="2608.20" y="2153.01" width="42.26" height="33.89" style="fill:#808080"/>
	<rect x="2609.82" y="2154.63" width="39.02" height="30.65" style="fill:none;stroke:#000000;stroke-width:3.24"/>
	<rect x="2678.80" y="2153.01" width="42.39" height="33.89" style="fill:#808080"/>
	<rect x="2680.42" y="2154.63" width="39.15" height="30.65" style="fill:none;stroke:#000000;stroke-width:3.24"/>
	<line x1="1694.79" y1="2186.90" x2="1672.38" y2="2186.90" style="stroke:#606060;stroke-width:3.24"/>
	<text x="1661.04" y="2202.67" style="font-family:'Helvetica';font-size:44.95px;fill:#606060" text-anchor="end">0</text>
	<line x1="1694.79" y1="2058.11" x2="1672.38" y2="2058.11" style="stroke:#606060;stroke-width:3.24"/>
	<text x="1661.04" y="2073.88" style="font-family:'Helvetica';font-size:44.95px;fill:#606060" text-anchor="end">20</text>
	<line x1="1694.79" y1="1929.32" x2="1672.38" y2="1929.32" style="stroke:#606060;stroke-width:3.24"/>
	<text x="1661.04" y="1945.08" style="font-family:'Helvetica';font-size:44.95px;fill:#606060" text-anchor="end">40</text>
	<line x1="1694.79" y1="1800.39" x2="1672.38" y2="1800.39" style="stroke:#606060;stroke-width:3.24"/>
	<text x="1661.04" y="1816.16" style="font-family:'Helvetica';font-size:44.95px;fill:#606060" text-anchor="end">60</text>
	<line x1="1694.79" y1="1671.60" x2="1672.38" y2="1671.60" style="stroke:#606060;stroke-width:3.24"/>
	<text x="1661.04" y="1687.36" style="font-family:'Helvetica';font-size:44.95px;fill:#606060" text-anchor="end">80</text>
	<line x1="1694.79" y1="2186.90" x2="1694.79" y2="1671.60" style="stroke:#000000;stroke-width:3.24"/>
	<text x="1576.34" y="1900.96" style="font-family:'Helvetica';font-size:44.95px;fill:#000000" transform="rotate(-90 1576.34,1900.96)" text-anchor="middle">Percentage</text>
	<text x="1796.96" y="2209.44" style="font-family:'Helvetica';font-size:44.95px;fill:#606060" transform="rotate(-90 1796.96,2209.44)" text-anchor="end">Debt</text>
	<text x="1867.56" y="2209.44" style="font-family:'Helvetica';font-size:44.95px;fill:#606060" transform="rotate(-90 1867.56,2209.44)" text-anchor="end">Employment</text>
	<text x="1938.30" y="2209.44" style="font-family:'Helvetica';font-size:44.95px;fill:#606060" transform="rotate(-90 1938.30,2209.44)" text-anchor="end">Gender</text>
	<text x="2008.91" y="2209.44" style="font-family:'Helvetica';font-size:44.95px;fill:#606060" transform="rotate(-90 2008.91,2209.44)" text-anchor="end">Personality</text>
	<text x="2079.65" y="2209.44" style="font-family:'Helvetica';font-size:44.95px;fill:#606060" transform="rotate(-90 2079.65,2209.44)" text-anchor="end">Caste</text>
	<text x="2150.39" y="2209.44" style="font-family:'Helvetica';font-size:44.95px;fill:#606060" transform="rotate(-90 2150.39,2209.44)" text-anchor="end">Covid</text>
	<text x="2220.99" y="2209.44" style="font-family:'Helvetica';font-size:44.95px;fill:#606060" transform="rotate(-90 2220.99,2209.44)" text-anchor="end">Networks</text>
	<text x="2291.73" y="2209.44" style="font-family:'Helvetica';font-size:44.95px;fill:#606060" transform="rotate(-90 2291.73,2209.44)" text-anchor="end">Agriculture</text>
	<text x="2362.34" y="2209.44" style="font-family:'Helvetica';font-size:44.95px;fill:#606060" transform="rotate(-90 2362.34,2209.44)" text-anchor="end">Demonetisation</text>
	<text x="2433.08" y="2209.44" style="font-family:'Helvetica';font-size:44.95px;fill:#606060" transform="rotate(-90 2433.08,2209.44)" text-anchor="end">Education</text>
	<text x="2503.68" y="2209.44" style="font-family:'Helvetica';font-size:44.95px;fill:#606060" transform="rotate(-90 2503.68,2209.44)" text-anchor="end">Marriage</text>
	<text x="2574.42" y="2209.44" style="font-family:'Helvetica';font-size:44.95px;fill:#606060" transform="rotate(-90 2574.42,2209.44)" text-anchor="end">Migration</text>
	<text x="2645.03" y="2209.44" style="font-family:'Helvetica';font-size:44.95px;fill:#606060" transform="rotate(-90 2645.03,2209.44)" text-anchor="end">Mobility</text>
	<text x="2715.77" y="2209.44" style="font-family:'Helvetica';font-size:44.95px;fill:#606060" transform="rotate(-90 2715.77,2209.44)" text-anchor="end">Saving</text>
	<text x="2240.59" y="1588.22" style="font-family:'Helvetica';font-size:56.30px;fill:#000000" text-anchor="middle">Topics</text>
	<rect x="2842.97" y="1482.46" width="1366.06" height="1132.13" style="fill:#FFFFFF"/>
	<rect x="2844.58" y="1484.08" width="1362.83" height="1128.89" style="fill:none;stroke:#FFFFFF;stroke-width:3.24"/>
	<rect x="3060.86" y="1614.90" width="1091.47" height="684.87" style="fill:#E0E0E0"/>
	<rect x="3062.47" y="1616.52" width="1088.24" height="681.63" style="fill:none;stroke:#FFFFFF;stroke-width:3.24"/>
	<line x1="3060.86" y1="2299.76" x2="4152.33" y2="2299.76" style="stroke:#FFFFFF;stroke-width:3.24"/>
	<line x1="3060.86" y1="2142.75" x2="4152.33" y2="2142.75" style="stroke:#FFFFFF;stroke-width:3.24"/>
	<line x1="3060.86" y1="1985.61" x2="4152.33" y2="1985.61" style="stroke:#FFFFFF;stroke-width:3.24"/>
	<line x1="3060.86" y1="1828.60" x2="4152.33" y2="1828.60" style="stroke:#FFFFFF;stroke-width:3.24"/>
	<line x1="3060.86" y1="1671.60" x2="4152.33" y2="1671.60" style="stroke:#FFFFFF;stroke-width:3.24"/>
	<rect x="3126.06" y="1721.14" width="42.39" height="578.62" style="fill:#808080"/>
	<rect x="3127.68" y="1722.76" width="39.15" height="575.38" style="fill:none;stroke:#000000;stroke-width:3.24"/>
	<rect x="3196.80" y="1803.90" width="42.25" height="495.86" style="fill:#808080"/>
	<rect x="3198.42" y="1805.52" width="39.02" height="492.62" style="fill:none;stroke:#000000;stroke-width:3.24"/>
	<rect x="3267.41" y="1803.90" width="42.39" height="495.86" style="fill:#808080"/>
	<rect x="3269.02" y="1805.52" width="39.15" height="492.62" style="fill:none;stroke:#000000;stroke-width:3.24"/>
	<rect x="3338.15" y="2010.45" width="42.26" height="289.31" style="fill:#808080"/>
	<rect x="3339.76" y="2012.07" width="39.02" height="286.07" style="fill:none;stroke:#000000;stroke-width:3.24"/>
	<rect x="3408.75" y="2010.45" width="42.39" height="289.31" style="fill:#808080"/>
	<rect x="3410.37" y="2012.07" width="39.15" height="286.07" style="fill:none;stroke:#000000;stroke-width:3.24"/>
	<rect x="3479.49" y="2134.38" width="42.26" height="165.38" style="fill:#808080"/>
	<rect x="3481.11" y="2136.00" width="39.02" height="162.14" style="fill:none;stroke:#000000;stroke-width:3.24"/>
	<rect x="3550.09" y="2175.83" width="42.39" height="123.93" style="fill:#808080"/>
	<rect x="3551.71" y="2177.45" width="39.15" height="120.69" style="fill:none;stroke:#000000;stroke-width:3.24"/>
	<rect x="3620.84" y="2217.14" width="42.26" height="82.62" style="fill:#808080"/>
	<rect x="3622.45" y="2218.76" width="39.02" height="79.38" style="fill:none;stroke:#000000;stroke-width:3.24"/>
	<rect x="3691.44" y="2217.14" width="42.39" height="82.62" style="fill:#808080"/>
	<rect x="3693.06" y="2218.76" width="39.15" height="79.38" style="fill:none;stroke:#000000;stroke-width:3.24"/>
	<rect x="3762.18" y="2258.45" width="42.26" height="41.31" style="fill:#808080"/>
	<rect x="3763.80" y="2260.07" width="39.02" height="38.07" style="fill:none;stroke:#000000;stroke-width:3.24"/>
	<rect x="3832.78" y="2258.45" width="42.39" height="41.31" style="fill:#808080"/>
	<rect x="3834.40" y="2260.07" width="39.15" height="38.07" style="fill:none;stroke:#000000;stroke-width:3.24"/>
	<rect x="3903.53" y="2258.45" width="42.26" height="41.31" style="fill:#808080"/>
	<rect x="3905.14" y="2260.07" width="39.02" height="38.07" style="fill:none;stroke:#000000;stroke-width:3.24"/>
	<rect x="3974.13" y="2258.45" width="42.39" height="41.31" style="fill:#808080"/>
	<rect x="3975.75" y="2260.07" width="39.15" height="38.07" style="fill:none;stroke:#000000;stroke-width:3.24"/>
	<rect x="4044.87" y="2258.45" width="42.26" height="41.31" style="fill:#808080"/>
	<rect x="4046.49" y="2260.07" width="39.02" height="38.07" style="fill:none;stroke:#000000;stroke-width:3.24"/>
	<line x1="3060.86" y1="2299.76" x2="3038.45" y2="2299.76" style="stroke:#606060;stroke-width:3.24"/>
	<text x="3027.11" y="2315.53" style="font-family:'Helvetica';font-size:44.95px;fill:#606060" text-anchor="end">0</text>
	<line x1="3060.86" y1="2142.75" x2="3038.45" y2="2142.75" style="stroke:#606060;stroke-width:3.24"/>
	<text x="3027.11" y="2158.52" style="font-family:'Helvetica';font-size:44.95px;fill:#606060" text-anchor="end">20</text>
	<line x1="3060.86" y1="1985.61" x2="3038.45" y2="1985.61" style="stroke:#606060;stroke-width:3.24"/>
	<text x="3027.11" y="2001.38" style="font-family:'Helvetica';font-size:44.95px;fill:#606060" text-anchor="end">40</text>
	<line x1="3060.86" y1="1828.60" x2="3038.45" y2="1828.60" style="stroke:#606060;stroke-width:3.24"/>
	<text x="3027.11" y="1844.37" style="font-family:'Helvetica';font-size:44.95px;fill:#606060" text-anchor="end">60</text>
	<line x1="3060.86" y1="1671.60" x2="3038.45" y2="1671.60" style="stroke:#606060;stroke-width:3.24"/>
	<text x="3027.11" y="1687.36" style="font-family:'Helvetica';font-size:44.95px;fill:#606060" text-anchor="end">80</text>
	<line x1="3060.86" y1="2299.76" x2="3060.86" y2="1671.60" style="stroke:#000000;stroke-width:3.24"/>
	<text x="2942.41" y="1957.26" style="font-family:'Helvetica';font-size:44.95px;fill:#000000" transform="rotate(-90 2942.41,1957.26)" text-anchor="middle">Percentage</text>
	<text x="3163.02" y="2322.17" style="font-family:'Helvetica';font-size:44.95px;fill:#606060" transform="rotate(-90 3163.02,2322.17)" text-anchor="end">Guérin</text>
	<text x="3233.63" y="2322.17" style="font-family:'Helvetica';font-size:44.95px;fill:#606060" transform="rotate(-90 3233.63,2322.17)" text-anchor="end">Nordman</text>
	<text x="3304.37" y="2322.17" style="font-family:'Helvetica';font-size:44.95px;fill:#606060" transform="rotate(-90 3304.37,2322.17)" text-anchor="end">Venkat</text>
	<text x="3374.97" y="2322.17" style="font-family:'Helvetica';font-size:44.95px;fill:#606060" transform="rotate(-90 3374.97,2322.17)" text-anchor="end">Michiels</text>
	<text x="3445.71" y="2322.17" style="font-family:'Helvetica';font-size:44.95px;fill:#606060" transform="rotate(-90 3445.71,2322.17)" text-anchor="end">Natal</text>
	<text x="3516.32" y="2322.17" style="font-family:'Helvetica';font-size:44.95px;fill:#606060" transform="rotate(-90 3516.32,2322.17)" text-anchor="end">Mouchel</text>
	<text x="3587.06" y="2322.17" style="font-family:'Helvetica';font-size:44.95px;fill:#606060" transform="rotate(-90 3587.06,2322.17)" text-anchor="end">DEspallier</text>
	<text x="3657.80" y="2322.17" style="font-family:'Helvetica';font-size:44.95px;fill:#606060" transform="rotate(-90 3657.80,2322.17)" text-anchor="end">DiSantolo</text>
	<text x="3728.40" y="2322.17" style="font-family:'Helvetica';font-size:44.95px;fill:#606060" transform="rotate(-90 3728.40,2322.17)" text-anchor="end">Reboul</text>
	<text x="3799.14" y="2322.17" style="font-family:'Helvetica';font-size:44.95px;fill:#606060" transform="rotate(-90 3799.14,2322.17)" text-anchor="end">Goedecke</text>
	<text x="3869.75" y="2322.17" style="font-family:'Helvetica';font-size:44.95px;fill:#606060" transform="rotate(-90 3869.75,2322.17)" text-anchor="end">Kumar</text>
	<text x="3940.49" y="2322.17" style="font-family:'Helvetica';font-size:44.95px;fill:#606060" transform="rotate(-90 3940.49,2322.17)" text-anchor="end">Lanos</text>
	<text x="4011.09" y="2322.17" style="font-family:'Helvetica';font-size:44.95px;fill:#606060" transform="rotate(-90 4011.09,2322.17)" text-anchor="end">Roesch</text>
	<text x="4081.83" y="2322.17" style="font-family:'Helvetica';font-size:44.95px;fill:#606060" transform="rotate(-90 4081.83,2322.17)" text-anchor="end">Seetahul</text>
	<text x="3606.66" y="1588.22" style="font-family:'Helvetica';font-size:56.30px;fill:#000000" text-anchor="middle">Authors</text>
	<text x="80.59" y="2721.28" style="fill:#000000">
		<tspan style="font-family:'Helvetica';font-style:italic;font-size:59.94px">Note:</tspan>
		<tspan style="font-family:'Helvetica';font-size:59.94px"> *Green or gold open access. Papers cited 430 times (324).</tspan>
	</text>
	<text x="80.59" y="2781.35" style="fill:#000000">
		<tspan style="font-family:'Helvetica';font-style:italic;font-size:59.94px">Source:</tspan>
		<tspan style="font-family:'Helvetica';font-size:59.94px"> A. Natal. Updated in October 2025.</tspan>
	</text>
	<text x="2160.00" y="157.55" style="font-family:'Helvetica';font-size:110.03px;fill:#000000" text-anchor="middle">Published research papers (N=19)</text>
</svg>
