<?xml version="1.0" encoding="UTF-8" standalone="no"?>
<!-- This is a Stata 15.1 generated SVG file (http://www.stata.com) -->

<svg version="1.1" width="6.00in" height="4.00in" viewBox="0 0 4320 2880" xmlns="http://www.w3.org/2000/svg" xmlns:xlink="http://www.w3.org/1999/xlink">
	<desc>Stata Graph - wpglobal</desc>
	<rect x="0" y="0" width="4320" height="2880" style="fill:#FFFFFF;stroke:none"/>
	<rect x="0.00" y="0.00" width="4320.00" height="2880.00" style="fill:#FFFFFF"/>
	<rect x="2.88" y="2.88" width="4314.24" height="2874.24" style="fill:none;stroke:#FFFFFF;stroke-width:5.76"/>
	<rect x="63.31" y="207.90" width="4193.24" height="1257.14" style="fill:#FFFFFF"/>
	<rect x="65.47" y="210.06" width="4188.92" height="1252.82" style="fill:none;stroke:#FFFFFF;stroke-width:4.32"/>
	<rect x="110.83" y="255.42" width="2049.17" height="1162.10" style="fill:#FFFFFF"/>
	<rect x="112.45" y="257.04" width="2045.93" height="1158.86" style="fill:none;stroke:#FFFFFF;stroke-width:3.24"/>
	<rect x="328.73" y="387.86" width="1774.58" height="846.06" style="fill:#E0E0E0"/>
	<rect x="330.34" y="389.48" width="1771.34" height="842.82" style="fill:none;stroke:#FFFFFF;stroke-width:3.24"/>
	<line x1="328.73" y1="1233.92" x2="2103.30" y2="1233.92" style="stroke:#FFFFFF;stroke-width:3.24"/>
	<line x1="328.73" y1="1135.23" x2="2103.30" y2="1135.23" style="stroke:#FFFFFF;stroke-width:3.24"/>
	<line x1="328.73" y1="1036.55" x2="2103.30" y2="1036.55" style="stroke:#FFFFFF;stroke-width:3.24"/>
	<line x1="328.73" y1="937.86" x2="2103.30" y2="937.86" style="stroke:#FFFFFF;stroke-width:3.24"/>
	<line x1="328.73" y1="839.17" x2="2103.30" y2="839.17" style="stroke:#FFFFFF;stroke-width:3.24"/>
	<line x1="328.73" y1="740.49" x2="2103.30" y2="740.49" style="stroke:#FFFFFF;stroke-width:3.24"/>
	<line x1="328.73" y1="641.80" x2="2103.30" y2="641.80" style="stroke:#FFFFFF;stroke-width:3.24"/>
	<line x1="328.73" y1="543.25" x2="2103.30" y2="543.25" style="stroke:#FFFFFF;stroke-width:3.24"/>
	<rect x="493.69" y="766.54" width="541.08" height="467.38" style="fill:#808080"/>
	<rect x="495.31" y="768.16" width="537.84" height="464.14" style="fill:none;stroke:#000000;stroke-width:3.24"/>
	<rect x="1397.25" y="714.57" width="541.08" height="519.35" style="fill:#808080"/>
	<rect x="1398.87" y="716.19" width="537.84" height="516.11" style="fill:none;stroke:#000000;stroke-width:3.24"/>
	<line x1="328.73" y1="1233.92" x2="306.32" y2="1233.92" style="stroke:#606060;stroke-width:3.24"/>
	<text x="295.11" y="1249.69" style="font-family:'Helvetica';font-size:44.95px;fill:#606060" text-anchor="end">0</text>
	<line x1="328.73" y1="1135.23" x2="306.32" y2="1135.23" style="stroke:#606060;stroke-width:3.24"/>
	<text x="295.11" y="1151.00" style="font-family:'Helvetica';font-size:44.95px;fill:#606060" text-anchor="end">10</text>
	<line x1="328.73" y1="1036.55" x2="306.32" y2="1036.55" style="stroke:#606060;stroke-width:3.24"/>
	<text x="295.11" y="1052.31" style="font-family:'Helvetica';font-size:44.95px;fill:#606060" text-anchor="end">20</text>
	<line x1="328.73" y1="937.86" x2="306.32" y2="937.86" style="stroke:#606060;stroke-width:3.24"/>
	<text x="295.11" y="953.63" style="font-family:'Helvetica';font-size:44.95px;fill:#606060" text-anchor="end">30</text>
	<line x1="328.73" y1="839.17" x2="306.32" y2="839.17" style="stroke:#606060;stroke-width:3.24"/>
	<text x="295.11" y="854.94" style="font-family:'Helvetica';font-size:44.95px;fill:#606060" text-anchor="end">40</text>
	<line x1="328.73" y1="740.49" x2="306.32" y2="740.49" style="stroke:#606060;stroke-width:3.24"/>
	<text x="295.11" y="756.25" style="font-family:'Helvetica';font-size:44.95px;fill:#606060" text-anchor="end">50</text>
	<line x1="328.73" y1="641.80" x2="306.32" y2="641.80" style="stroke:#606060;stroke-width:3.24"/>
	<text x="295.11" y="657.57" style="font-family:'Helvetica';font-size:44.95px;fill:#606060" text-anchor="end">60</text>
	<line x1="328.73" y1="543.25" x2="306.32" y2="543.25" style="stroke:#606060;stroke-width:3.24"/>
	<text x="295.11" y="559.02" style="font-family:'Helvetica';font-size:44.95px;fill:#606060" text-anchor="end">70</text>
	<line x1="328.73" y1="444.56" x2="306.32" y2="444.56" style="stroke:#606060;stroke-width:3.24"/>
	<text x="295.11" y="460.33" style="font-family:'Helvetica';font-size:44.95px;fill:#606060" text-anchor="end">80</text>
	<line x1="328.73" y1="1233.92" x2="328.73" y2="444.56" style="stroke:#000000;stroke-width:3.24"/>
	<text x="210.28" y="810.82" style="font-family:'Helvetica';font-size:44.95px;fill:#000000" transform="rotate(-90 210.28,810.82)" text-anchor="middle">Percentage</text>
	<text x="780.00" y="1256.33" style="font-family:'Helvetica';font-size:44.95px;fill:#606060" transform="rotate(-90 780.00,1256.33)" text-anchor="end">No</text>
	<text x="1683.56" y="1256.33" style="font-family:'Helvetica';font-size:44.95px;fill:#606060" transform="rotate(-90 1683.56,1256.33)" text-anchor="end">Yes</text>
	<text x="1216.08" y="361.18" style="font-family:'Helvetica';font-size:56.30px;fill:#000000" text-anchor="middle">WP available?</text>
	<rect x="2160.00" y="255.42" width="2049.03" height="1162.10" style="fill:#FFFFFF"/>
	<rect x="2161.62" y="257.04" width="2045.79" height="1158.86" style="fill:none;stroke:#FFFFFF;stroke-width:3.24"/>
	<rect x="2377.89" y="387.86" width="1774.44" height="894.12" style="fill:#E0E0E0"/>
	<rect x="2379.51" y="389.48" width="1771.20" height="890.88" style="fill:none;stroke:#FFFFFF;stroke-width:3.24"/>
	<line x1="2377.89" y1="1281.98" x2="4152.33" y2="1281.98" style="stroke:#FFFFFF;stroke-width:3.24"/>
	<line x1="2377.89" y1="1177.35" x2="4152.33" y2="1177.35" style="stroke:#FFFFFF;stroke-width:3.24"/>
	<line x1="2377.89" y1="1072.73" x2="4152.33" y2="1072.73" style="stroke:#FFFFFF;stroke-width:3.24"/>
	<line x1="2377.89" y1="967.97" x2="4152.33" y2="967.97" style="stroke:#FFFFFF;stroke-width:3.24"/>
	<line x1="2377.89" y1="863.34" x2="4152.33" y2="863.34" style="stroke:#FFFFFF;stroke-width:3.24"/>
	<line x1="2377.89" y1="758.58" x2="4152.33" y2="758.58" style="stroke:#FFFFFF;stroke-width:3.24"/>
	<line x1="2377.89" y1="653.95" x2="4152.33" y2="653.95" style="stroke:#FFFFFF;stroke-width:3.24"/>
	<line x1="2377.89" y1="549.19" x2="4152.33" y2="549.19" style="stroke:#FFFFFF;stroke-width:3.24"/>
	<rect x="2504.66" y="758.58" width="350.46" height="523.40" style="fill:#808080"/>
	<rect x="2506.27" y="760.20" width="347.22" height="520.16" style="fill:none;stroke:#000000;stroke-width:3.24"/>
	<rect x="3089.88" y="967.97" width="350.46" height="314.01" style="fill:#808080"/>
	<rect x="3091.50" y="969.59" width="347.22" height="310.77" style="fill:none;stroke:#000000;stroke-width:3.24"/>
	<rect x="3675.11" y="1072.73" width="350.46" height="209.25" style="fill:#808080"/>
	<rect x="3676.72" y="1074.35" width="347.22" height="206.01" style="fill:none;stroke:#000000;stroke-width:3.24"/>
	<line x1="2377.89" y1="1281.98" x2="2355.34" y2="1281.98" style="stroke:#606060;stroke-width:3.24"/>
	<text x="2344.14" y="1297.75" style="font-family:'Helvetica';font-size:44.95px;fill:#606060" text-anchor="end">0</text>
	<line x1="2377.89" y1="1177.35" x2="2355.34" y2="1177.35" style="stroke:#606060;stroke-width:3.24"/>
	<text x="2344.14" y="1193.12" style="font-family:'Helvetica';font-size:44.95px;fill:#606060" text-anchor="end">10</text>
	<line x1="2377.89" y1="1072.73" x2="2355.34" y2="1072.73" style="stroke:#606060;stroke-width:3.24"/>
	<text x="2344.14" y="1088.50" style="font-family:'Helvetica';font-size:44.95px;fill:#606060" text-anchor="end">20</text>
	<line x1="2377.89" y1="967.97" x2="2355.34" y2="967.97" style="stroke:#606060;stroke-width:3.24"/>
	<text x="2344.14" y="983.73" style="font-family:'Helvetica';font-size:44.95px;fill:#606060" text-anchor="end">30</text>
	<line x1="2377.89" y1="863.34" x2="2355.34" y2="863.34" style="stroke:#606060;stroke-width:3.24"/>
	<text x="2344.14" y="879.11" style="font-family:'Helvetica';font-size:44.95px;fill:#606060" text-anchor="end">40</text>
	<line x1="2377.89" y1="758.58" x2="2355.34" y2="758.58" style="stroke:#606060;stroke-width:3.24"/>
	<text x="2344.14" y="774.35" style="font-family:'Helvetica';font-size:44.95px;fill:#606060" text-anchor="end">50</text>
	<line x1="2377.89" y1="653.95" x2="2355.34" y2="653.95" style="stroke:#606060;stroke-width:3.24"/>
	<text x="2344.14" y="669.72" style="font-family:'Helvetica';font-size:44.95px;fill:#606060" text-anchor="end">60</text>
	<line x1="2377.89" y1="549.19" x2="2355.34" y2="549.19" style="stroke:#606060;stroke-width:3.24"/>
	<text x="2344.14" y="564.96" style="font-family:'Helvetica';font-size:44.95px;fill:#606060" text-anchor="end">70</text>
	<line x1="2377.89" y1="444.56" x2="2355.34" y2="444.56" style="stroke:#606060;stroke-width:3.24"/>
	<text x="2344.14" y="460.33" style="font-family:'Helvetica';font-size:44.95px;fill:#606060" text-anchor="end">80</text>
	<line x1="2377.89" y1="1281.98" x2="2377.89" y2="444.56" style="stroke:#000000;stroke-width:3.24"/>
	<text x="2259.31" y="834.99" style="font-family:'Helvetica';font-size:44.95px;fill:#000000" transform="rotate(-90 2259.31,834.99)" text-anchor="middle">Percentage</text>
	<text x="2679.89" y="1335.93" style="font-family:'Helvetica';font-size:44.95px;fill:#606060" text-anchor="middle">DIAL</text>
	<text x="3265.11" y="1335.93" style="font-family:'Helvetica';font-size:44.95px;fill:#606060" text-anchor="middle">IZA</text>
	<text x="3850.34" y="1335.93" style="font-family:'Helvetica';font-size:44.95px;fill:#606060" text-anchor="middle">CEB</text>
	<text x="3265.11" y="361.18" style="font-family:'Helvetica';font-size:56.30px;fill:#000000" text-anchor="middle">WP series if WP available</text>
	<rect x="63.31" y="1465.04" width="4193.24" height="1257.00" style="fill:#FFFFFF"/>
	<rect x="65.47" y="1467.20" width="4188.92" height="1252.68" style="fill:none;stroke:#FFFFFF;stroke-width:4.32"/>
	<rect x="1250.91" y="1641.49" width="2291.76" height="877.51" style="fill:#E0E0E0"/>
	<rect x="1253.07" y="1643.65" width="2287.44" height="873.19" style="fill:none;stroke:#FFFFFF;stroke-width:4.32"/>
	<line x1="1250.91" y1="2471.48" x2="3542.67" y2="2471.48" style="stroke:#FFFFFF;stroke-width:4.32"/>
	<line x1="1250.91" y1="2384.54" x2="3542.67" y2="2384.54" style="stroke:#FFFFFF;stroke-width:4.32"/>
	<line x1="1250.91" y1="2297.60" x2="3542.67" y2="2297.60" style="stroke:#FFFFFF;stroke-width:4.32"/>
	<line x1="1250.91" y1="2210.66" x2="3542.67" y2="2210.66" style="stroke:#FFFFFF;stroke-width:4.32"/>
	<line x1="1250.91" y1="2123.72" x2="3542.67" y2="2123.72" style="stroke:#FFFFFF;stroke-width:4.32"/>
	<line x1="1250.91" y1="2036.78" x2="3542.67" y2="2036.78" style="stroke:#FFFFFF;stroke-width:4.32"/>
	<line x1="1250.91" y1="1949.84" x2="3542.67" y2="1949.84" style="stroke:#FFFFFF;stroke-width:4.32"/>
	<line x1="1250.91" y1="1862.89" x2="3542.67" y2="1862.89" style="stroke:#FFFFFF;stroke-width:4.32"/>
	<line x1="1250.91" y1="1775.95" x2="3542.67" y2="1775.95" style="stroke:#FFFFFF;stroke-width:4.32"/>
	<line x1="1518.08" y1="2519.00" x2="1518.08" y2="1641.49" style="stroke:#FFFFFF;stroke-width:4.32"/>
	<line x1="1737.72" y1="2519.00" x2="1737.72" y2="1641.49" style="stroke:#FFFFFF;stroke-width:4.32"/>
	<line x1="1957.50" y1="2519.00" x2="1957.50" y2="1641.49" style="stroke:#FFFFFF;stroke-width:4.32"/>
	<line x1="2177.15" y1="2519.00" x2="2177.15" y2="1641.49" style="stroke:#FFFFFF;stroke-width:4.32"/>
	<line x1="2396.79" y1="2519.00" x2="2396.79" y2="1641.49" style="stroke:#FFFFFF;stroke-width:4.32"/>
	<line x1="2616.43" y1="2519.00" x2="2616.43" y2="1641.49" style="stroke:#FFFFFF;stroke-width:4.32"/>
	<line x1="2836.22" y1="2519.00" x2="2836.22" y2="1641.49" style="stroke:#FFFFFF;stroke-width:4.32"/>
	<line x1="3055.86" y1="2519.00" x2="3055.86" y2="1641.49" style="stroke:#FFFFFF;stroke-width:4.32"/>
	<line x1="3275.51" y1="2519.00" x2="3275.51" y2="1641.49" style="stroke:#FFFFFF;stroke-width:4.32"/>
	<circle cx="2177.01" cy="2036.91" r="13.36" style="fill:#000000"/>
	<circle cx="2177.01" cy="2036.91" r="11.21" style="fill:none;stroke:#000000;stroke-width:4.32"/>
	<circle cx="1957.37" cy="1863.03" r="13.36" style="fill:#000000"/>
	<circle cx="1957.37" cy="1863.03" r="11.21" style="fill:none;stroke:#000000;stroke-width:4.32"/>
	<circle cx="2836.08" cy="2123.85" r="13.36" style="fill:#000000"/>
	<circle cx="2836.08" cy="2123.85" r="11.21" style="fill:none;stroke:#000000;stroke-width:4.32"/>
	<circle cx="3055.72" cy="2297.74" r="13.36" style="fill:#000000"/>
	<circle cx="3055.72" cy="2297.74" r="11.21" style="fill:none;stroke:#000000;stroke-width:4.32"/>
	<circle cx="3055.72" cy="2384.68" r="13.36" style="fill:#000000"/>
	<circle cx="3055.72" cy="2384.68" r="11.21" style="fill:none;stroke:#000000;stroke-width:4.32"/>
	<circle cx="2177.01" cy="1776.09" r="13.36" style="fill:#000000"/>
	<circle cx="2177.01" cy="1776.09" r="11.21" style="fill:none;stroke:#000000;stroke-width:4.32"/>
	<circle cx="1518.08" cy="1689.15" r="13.36" style="fill:#000000"/>
	<circle cx="1518.08" cy="1689.15" r="11.21" style="fill:none;stroke:#000000;stroke-width:4.32"/>
	<circle cx="2396.79" cy="1949.97" r="13.36" style="fill:#000000"/>
	<circle cx="2396.79" cy="1949.97" r="11.21" style="fill:none;stroke:#000000;stroke-width:4.32"/>
	<circle cx="3055.72" cy="2210.79" r="13.36" style="fill:#000000"/>
	<circle cx="3055.72" cy="2210.79" r="11.21" style="fill:none;stroke:#000000;stroke-width:4.32"/>
	<circle cx="3275.51" cy="2471.48" r="13.36" style="fill:#000000"/>
	<circle cx="3275.51" cy="2471.48" r="11.21" style="fill:none;stroke:#000000;stroke-width:4.32"/>
	<circle cx="2616.43" cy="2036.91" r="13.36" style="fill:#619CFF"/>
	<circle cx="2616.43" cy="2036.91" r="11.21" style="fill:none;stroke:#619CFF;stroke-width:4.32"/>
	<circle cx="2396.79" cy="1863.03" r="13.36" style="fill:#619CFF"/>
	<circle cx="2396.79" cy="1863.03" r="11.21" style="fill:none;stroke:#619CFF;stroke-width:4.32"/>
	<circle cx="2836.08" cy="2123.85" r="13.36" style="fill:#619CFF"/>
	<circle cx="2836.08" cy="2123.85" r="11.21" style="fill:none;stroke:#619CFF;stroke-width:4.32"/>
	<circle cx="3055.72" cy="2297.74" r="13.36" style="fill:#619CFF"/>
	<circle cx="3055.72" cy="2297.74" r="11.21" style="fill:none;stroke:#619CFF;stroke-width:4.32"/>
	<circle cx="3275.51" cy="2384.68" r="13.36" style="fill:#619CFF"/>
	<circle cx="3275.51" cy="2384.68" r="11.21" style="fill:none;stroke:#619CFF;stroke-width:4.32"/>
	<circle cx="2177.01" cy="1776.09" r="13.36" style="fill:#619CFF"/>
	<circle cx="2177.01" cy="1776.09" r="11.21" style="fill:none;stroke:#619CFF;stroke-width:4.32"/>
	<circle cx="1518.08" cy="1689.15" r="13.36" style="fill:#619CFF"/>
	<circle cx="1518.08" cy="1689.15" r="11.21" style="fill:none;stroke:#619CFF;stroke-width:4.32"/>
	<circle cx="2396.79" cy="1949.97" r="13.36" style="fill:#619CFF"/>
	<circle cx="2396.79" cy="1949.97" r="11.21" style="fill:none;stroke:#619CFF;stroke-width:4.32"/>
	<circle cx="3055.72" cy="2210.79" r="13.36" style="fill:#619CFF"/>
	<circle cx="3055.72" cy="2210.79" r="11.21" style="fill:none;stroke:#619CFF;stroke-width:4.32"/>
	<circle cx="3275.51" cy="2471.48" r="13.36" style="fill:#619CFF"/>
	<circle cx="3275.51" cy="2471.48" r="11.21" style="fill:none;stroke:#619CFF;stroke-width:4.32"/>
	<line x1="1250.91" y1="2471.48" x2="1220.94" y2="2471.48" style="stroke:#606060;stroke-width:4.32"/>
	<text x="1205.95" y="2492.50" style="font-family:'Helvetica';font-size:59.94px;fill:#606060" text-anchor="end">A Change is Gonna Come</text>
	<line x1="1250.91" y1="2384.54" x2="1220.94" y2="2384.54" style="stroke:#606060;stroke-width:4.32"/>
	<text x="1205.95" y="2405.56" style="font-family:'Helvetica';font-size:59.94px;fill:#606060" text-anchor="end">For money can’t buy me love</text>
	<line x1="1250.91" y1="2297.60" x2="1220.94" y2="2297.60" style="stroke:#606060;stroke-width:4.32"/>
	<text x="1205.95" y="2318.61" style="font-family:'Helvetica';font-size:59.94px;fill:#606060" text-anchor="end">A Decade in Rural Tamil Nadu</text>
	<line x1="1250.91" y1="2210.66" x2="1220.94" y2="2210.66" style="stroke:#606060;stroke-width:4.32"/>
	<text x="1205.95" y="2231.67" style="font-family:'Helvetica';font-size:59.94px;fill:#606060" text-anchor="end">Psychology of Debt</text>
	<line x1="1250.91" y1="2123.72" x2="1220.94" y2="2123.72" style="stroke:#606060;stroke-width:4.32"/>
	<text x="1205.95" y="2144.73" style="font-family:'Helvetica';font-size:59.94px;fill:#606060" text-anchor="end">With a Little Help From My Friends</text>
	<line x1="1250.91" y1="2036.78" x2="1220.94" y2="2036.78" style="stroke:#606060;stroke-width:4.32"/>
	<text x="1205.95" y="2057.79" style="font-family:'Helvetica';font-size:59.94px;fill:#606060" text-anchor="end">Surviving Debt</text>
	<line x1="1250.91" y1="1949.84" x2="1220.94" y2="1949.84" style="stroke:#606060;stroke-width:4.32"/>
	<text x="1205.95" y="1970.85" style="font-family:'Helvetica';font-size:59.94px;fill:#606060" text-anchor="end">Many Rivers to Cross</text>
	<line x1="1250.91" y1="1862.89" x2="1220.94" y2="1862.89" style="stroke:#606060;stroke-width:4.32"/>
	<text x="1205.95" y="1883.91" style="font-family:'Helvetica';font-size:59.94px;fill:#606060" text-anchor="end">The Gender of Debt and Credit</text>
	<line x1="1250.91" y1="1775.95" x2="1220.94" y2="1775.95" style="stroke:#606060;stroke-width:4.32"/>
	<text x="1205.95" y="1796.97" style="font-family:'Helvetica';font-size:59.94px;fill:#606060" text-anchor="end">There Has Been No Silent Revolution</text>
	<line x1="1298.43" y1="2519.00" x2="1298.43" y2="2548.97" style="stroke:#606060;stroke-width:4.32"/>
	<text x="1298.43" y="2605.85" style="font-family:'Helvetica';font-size:59.94px;fill:#606060" text-anchor="middle">2016</text>
	<line x1="1518.08" y1="2519.00" x2="1518.08" y2="2548.97" style="stroke:#606060;stroke-width:4.32"/>
	<text x="1518.08" y="2605.85" style="font-family:'Helvetica';font-size:59.94px;fill:#606060" text-anchor="middle">2017</text>
	<line x1="1737.72" y1="2519.00" x2="1737.72" y2="2548.97" style="stroke:#606060;stroke-width:4.32"/>
	<text x="1737.72" y="2605.85" style="font-family:'Helvetica';font-size:59.94px;fill:#606060" text-anchor="middle">2018</text>
	<line x1="1957.50" y1="2519.00" x2="1957.50" y2="2548.97" style="stroke:#606060;stroke-width:4.32"/>
	<text x="1957.50" y="2605.85" style="font-family:'Helvetica';font-size:59.94px;fill:#606060" text-anchor="middle">2019</text>
	<line x1="2177.15" y1="2519.00" x2="2177.15" y2="2548.97" style="stroke:#606060;stroke-width:4.32"/>
	<text x="2177.15" y="2605.85" style="font-family:'Helvetica';font-size:59.94px;fill:#606060" text-anchor="middle">2020</text>
	<line x1="2396.79" y1="2519.00" x2="2396.79" y2="2548.97" style="stroke:#606060;stroke-width:4.32"/>
	<text x="2396.79" y="2605.85" style="font-family:'Helvetica';font-size:59.94px;fill:#606060" text-anchor="middle">2021</text>
	<line x1="2616.43" y1="2519.00" x2="2616.43" y2="2548.97" style="stroke:#606060;stroke-width:4.32"/>
	<text x="2616.43" y="2605.85" style="font-family:'Helvetica';font-size:59.94px;fill:#606060" text-anchor="middle">2022</text>
	<line x1="2836.22" y1="2519.00" x2="2836.22" y2="2548.97" style="stroke:#606060;stroke-width:4.32"/>
	<text x="2836.22" y="2605.85" style="font-family:'Helvetica';font-size:59.94px;fill:#606060" text-anchor="middle">2023</text>
	<line x1="3055.86" y1="2519.00" x2="3055.86" y2="2548.97" style="stroke:#606060;stroke-width:4.32"/>
	<text x="3055.86" y="2605.85" style="font-family:'Helvetica';font-size:59.94px;fill:#606060" text-anchor="middle">2024</text>
	<line x1="3275.51" y1="2519.00" x2="3275.51" y2="2548.97" style="stroke:#606060;stroke-width:4.32"/>
	<text x="3275.51" y="2605.85" style="font-family:'Helvetica';font-size:59.94px;fill:#606060" text-anchor="middle">2025</text>
	<line x1="3495.15" y1="2519.00" x2="3495.15" y2="2548.97" style="stroke:#606060;stroke-width:4.32"/>
	<text x="3495.15" y="2605.85" style="font-family:'Helvetica';font-size:59.94px;fill:#606060" text-anchor="middle">2026</text>
	<rect x="3568.59" y="2268.31" width="586.44" height="224.78" style="fill:#FFFFFF"/>
	<rect x="3570.75" y="2270.47" width="582.12" height="220.46" style="fill:none;stroke:#FFFFFF;stroke-width:4.32"/>
	<circle cx="3612.33" cy="2330.68" r="13.36" style="fill:#000000"/>
	<circle cx="3612.33" cy="2330.68" r="11.21" style="fill:none;stroke:#000000;stroke-width:4.32"/>
	<circle cx="3612.33" cy="2430.71" r="13.36" style="fill:#619CFF"/>
	<circle cx="3612.33" cy="2430.71" r="11.21" style="fill:none;stroke:#619CFF;stroke-width:4.32"/>
	<text x="3683.47" y="2351.69" style="font-family:'Helvetica';font-size:59.94px;fill:#000000">WP date</text>
	<text x="3683.47" y="2451.73" style="font-family:'Helvetica';font-size:59.94px;fill:#000000">Publication date</text>
	<text x="2396.79" y="1605.94" style="font-family:'Helvetica';font-size:75.06px;fill:#000000" text-anchor="middle">WP date if WP available</text>
	<text x="80.59" y="2781.35" style="fill:#000000">
		<tspan style="font-family:'Helvetica';font-style:italic;font-size:59.94px">Source:</tspan>
		<tspan style="font-family:'Helvetica';font-size:59.94px"> A. Natal. Updated in October 2025.</tspan>
	</text>
	<text x="2160.00" y="157.55" style="font-family:'Helvetica';font-size:110.03px;fill:#000000" text-anchor="middle">WP (N=19)</text>
</svg>
