<?xml version="1.0" encoding="UTF-8" standalone="no"?>
<!-- This is a Stata 15.1 generated SVG file (http://www.stata.com) -->

<svg version="1.1" width="6.00in" height="4.00in" viewBox="0 0 4320 2880" xmlns="http://www.w3.org/2000/svg" xmlns:xlink="http://www.w3.org/1999/xlink">
	<desc>Stata Graph - wpglobal</desc>
	<rect x="0" y="0" width="4320" height="2880" style="fill:#FFFFFF;stroke:none"/>
	<rect x="0.00" y="0.00" width="4320.00" height="2880.00" style="fill:#FFFFFF"/>
	<rect x="2.88" y="2.88" width="4314.24" height="2874.24" style="fill:none;stroke:#FFFFFF;stroke-width:5.76"/>
	<rect x="63.31" y="207.90" width="4193.24" height="1257.14" style="fill:#FFFFFF"/>
	<rect x="65.47" y="210.06" width="4188.92" height="1252.82" style="fill:none;stroke:#FFFFFF;stroke-width:4.32"/>
	<rect x="110.83" y="255.42" width="2049.17" height="1162.10" style="fill:#FFFFFF"/>
	<rect x="112.45" y="257.04" width="2045.93" height="1158.86" style="fill:none;stroke:#FFFFFF;stroke-width:3.24"/>
	<rect x="328.73" y="387.86" width="1774.58" height="640.05" style="fill:#E0E0E0"/>
	<rect x="330.34" y="389.48" width="1771.34" height="636.81" style="fill:none;stroke:#FFFFFF;stroke-width:3.24"/>
	<line x1="328.73" y1="1027.91" x2="2103.30" y2="1027.91" style="stroke:#FFFFFF;stroke-width:3.24"/>
	<line x1="328.73" y1="893.31" x2="2103.30" y2="893.31" style="stroke:#FFFFFF;stroke-width:3.24"/>
	<line x1="328.73" y1="758.58" x2="2103.30" y2="758.58" style="stroke:#FFFFFF;stroke-width:3.24"/>
	<line x1="328.73" y1="623.98" x2="2103.30" y2="623.98" style="stroke:#FFFFFF;stroke-width:3.24"/>
	<line x1="328.73" y1="489.38" x2="2103.30" y2="489.38" style="stroke:#FFFFFF;stroke-width:3.24"/>
	<rect x="493.69" y="938.13" width="541.08" height="89.78" style="fill:#808080"/>
	<rect x="495.31" y="939.75" width="537.84" height="86.54" style="fill:none;stroke:#000000;stroke-width:3.24"/>
	<rect x="1397.25" y="444.56" width="541.08" height="583.34" style="fill:#808080"/>
	<rect x="1398.87" y="446.18" width="537.84" height="580.10" style="fill:none;stroke:#000000;stroke-width:3.24"/>
	<line x1="328.73" y1="1027.91" x2="306.32" y2="1027.91" style="stroke:#606060;stroke-width:3.24"/>
	<text x="295.11" y="1043.67" style="font-family:'Helvetica';font-size:44.95px;fill:#606060" text-anchor="end">0</text>
	<line x1="328.73" y1="893.31" x2="306.32" y2="893.31" style="stroke:#606060;stroke-width:3.24"/>
	<text x="295.11" y="909.08" style="font-family:'Helvetica';font-size:44.95px;fill:#606060" text-anchor="end">20</text>
	<line x1="328.73" y1="758.58" x2="306.32" y2="758.58" style="stroke:#606060;stroke-width:3.24"/>
	<text x="295.11" y="774.35" style="font-family:'Helvetica';font-size:44.95px;fill:#606060" text-anchor="end">40</text>
	<line x1="328.73" y1="623.98" x2="306.32" y2="623.98" style="stroke:#606060;stroke-width:3.24"/>
	<text x="295.11" y="639.75" style="font-family:'Helvetica';font-size:44.95px;fill:#606060" text-anchor="end">60</text>
	<line x1="328.73" y1="489.38" x2="306.32" y2="489.38" style="stroke:#606060;stroke-width:3.24"/>
	<text x="295.11" y="505.15" style="font-family:'Helvetica';font-size:44.95px;fill:#606060" text-anchor="end">80</text>
	<line x1="328.73" y1="1027.91" x2="328.73" y2="489.38" style="stroke:#000000;stroke-width:3.24"/>
	<text x="210.28" y="707.82" style="font-family:'Helvetica';font-size:44.95px;fill:#000000" transform="rotate(-90 210.28,707.82)" text-anchor="middle">Percentage</text>
	<text x="780.00" y="1050.32" style="font-family:'Helvetica';font-size:44.95px;fill:#606060" transform="rotate(-90 780.00,1050.32)" text-anchor="end">Cross-section</text>
	<text x="1683.56" y="1050.32" style="font-family:'Helvetica';font-size:44.95px;fill:#606060" transform="rotate(-90 1683.56,1050.32)" text-anchor="end">Panel</text>
	<text x="1216.08" y="361.18" style="font-family:'Helvetica';font-size:56.30px;fill:#000000" text-anchor="middle">Analysis</text>
	<rect x="2160.00" y="255.42" width="2049.03" height="1162.10" style="fill:#FFFFFF"/>
	<rect x="2161.62" y="257.04" width="2045.79" height="1158.86" style="fill:none;stroke:#FFFFFF;stroke-width:3.24"/>
	<rect x="2404.08" y="387.86" width="1748.25" height="674.07" style="fill:#E0E0E0"/>
	<rect x="2405.70" y="389.48" width="1745.01" height="670.83" style="fill:none;stroke:#FFFFFF;stroke-width:3.24"/>
	<line x1="2404.08" y1="1061.93" x2="4152.33" y2="1061.93" style="stroke:#FFFFFF;stroke-width:3.24"/>
	<line x1="2404.08" y1="938.53" x2="4152.33" y2="938.53" style="stroke:#FFFFFF;stroke-width:3.24"/>
	<line x1="2404.08" y1="815.01" x2="4152.33" y2="815.01" style="stroke:#FFFFFF;stroke-width:3.24"/>
	<line x1="2404.08" y1="691.48" x2="4152.33" y2="691.48" style="stroke:#FFFFFF;stroke-width:3.24"/>
	<line x1="2404.08" y1="567.95" x2="4152.33" y2="567.95" style="stroke:#FFFFFF;stroke-width:3.24"/>
	<rect x="2529.76" y="979.71" width="344.93" height="82.22" style="fill:#808080"/>
	<rect x="2531.38" y="981.33" width="341.69" height="78.98" style="fill:none;stroke:#000000;stroke-width:3.24"/>
	<rect x="3105.81" y="815.01" width="344.93" height="246.92" style="fill:#808080"/>
	<rect x="3107.43" y="816.63" width="341.69" height="243.68" style="fill:none;stroke:#000000;stroke-width:3.24"/>
	<rect x="3681.72" y="732.66" width="344.93" height="329.27" style="fill:#808080"/>
	<rect x="3683.34" y="734.28" width="341.69" height="326.03" style="fill:none;stroke:#000000;stroke-width:3.24"/>
	<line x1="2404.08" y1="1061.93" x2="2381.67" y2="1061.93" style="stroke:#606060;stroke-width:3.24"/>
	<text x="2370.33" y="1077.69" style="font-family:'Helvetica';font-size:44.95px;fill:#606060" text-anchor="end">0</text>
	<line x1="2404.08" y1="938.53" x2="2381.67" y2="938.53" style="stroke:#606060;stroke-width:3.24"/>
	<text x="2370.33" y="954.30" style="font-family:'Helvetica';font-size:44.95px;fill:#606060" text-anchor="end">20</text>
	<line x1="2404.08" y1="815.01" x2="2381.67" y2="815.01" style="stroke:#606060;stroke-width:3.24"/>
	<text x="2370.33" y="830.78" style="font-family:'Helvetica';font-size:44.95px;fill:#606060" text-anchor="end">40</text>
	<line x1="2404.08" y1="691.48" x2="2381.67" y2="691.48" style="stroke:#606060;stroke-width:3.24"/>
	<text x="2370.33" y="707.25" style="font-family:'Helvetica';font-size:44.95px;fill:#606060" text-anchor="end">60</text>
	<line x1="2404.08" y1="567.95" x2="2381.67" y2="567.95" style="stroke:#606060;stroke-width:3.24"/>
	<text x="2370.33" y="583.72" style="font-family:'Helvetica';font-size:44.95px;fill:#606060" text-anchor="end">80</text>
	<line x1="2404.08" y1="444.56" x2="2381.67" y2="444.56" style="stroke:#606060;stroke-width:3.24"/>
	<text x="2370.33" y="460.33" style="font-family:'Helvetica';font-size:44.95px;fill:#606060" text-anchor="end">100</text>
	<line x1="2404.08" y1="1061.93" x2="2404.08" y2="444.56" style="stroke:#000000;stroke-width:3.24"/>
	<text x="2259.31" y="724.96" style="font-family:'Helvetica';font-size:44.95px;fill:#000000" transform="rotate(-90 2259.31,724.96)" text-anchor="middle">Percentage</text>
	<text x="2718.06" y="1084.47" style="font-family:'Helvetica';font-size:44.95px;fill:#606060" transform="rotate(-90 2718.06,1084.47)" text-anchor="end">RUME</text>
	<text x="3293.97" y="1084.47" style="font-family:'Helvetica';font-size:44.95px;fill:#606060" transform="rotate(-90 3293.97,1084.47)" text-anchor="end">NEEMSIS-1</text>
	<text x="3870.02" y="1084.47" style="font-family:'Helvetica';font-size:44.95px;fill:#606060" transform="rotate(-90 3870.02,1084.47)" text-anchor="end">NEEMSIS-2</text>
	<text x="3278.20" y="361.18" style="font-family:'Helvetica';font-size:56.30px;fill:#000000" text-anchor="middle">Data used</text>
	<rect x="63.31" y="1465.04" width="4193.24" height="1257.00" style="fill:#FFFFFF"/>
	<rect x="65.47" y="1467.20" width="4188.92" height="1252.68" style="fill:none;stroke:#FFFFFF;stroke-width:4.32"/>
	<rect x="110.83" y="1512.56" width="2049.17" height="1161.96" style="fill:#FFFFFF"/>
	<rect x="112.45" y="1514.18" width="2045.93" height="1158.72" style="fill:none;stroke:#FFFFFF;stroke-width:3.24"/>
	<rect x="328.73" y="1644.87" width="1774.58" height="636.13" style="fill:#E0E0E0"/>
	<rect x="330.34" y="1646.49" width="1771.34" height="632.89" style="fill:none;stroke:#FFFFFF;stroke-width:3.24"/>
	<line x1="328.73" y1="2281.00" x2="2103.30" y2="2281.00" style="stroke:#FFFFFF;stroke-width:3.24"/>
	<line x1="328.73" y1="2147.34" x2="2103.30" y2="2147.34" style="stroke:#FFFFFF;stroke-width:3.24"/>
	<line x1="328.73" y1="2013.56" x2="2103.30" y2="2013.56" style="stroke:#FFFFFF;stroke-width:3.24"/>
	<line x1="328.73" y1="1879.90" x2="2103.30" y2="1879.90" style="stroke:#FFFFFF;stroke-width:3.24"/>
	<line x1="328.73" y1="1746.12" x2="2103.30" y2="1746.12" style="stroke:#FFFFFF;stroke-width:3.24"/>
	<rect x="402.30" y="1701.57" width="83.97" height="579.43" style="fill:#808080"/>
	<rect x="403.92" y="1703.19" width="80.73" height="576.19" style="fill:none;stroke:#000000;stroke-width:3.24"/>
	<rect x="542.57" y="1790.80" width="84.10" height="490.19" style="fill:#808080"/>
	<rect x="544.18" y="1792.42" width="80.87" height="486.95" style="fill:none;stroke:#000000;stroke-width:3.24"/>
	<rect x="682.97" y="1969.01" width="83.97" height="311.99" style="fill:#808080"/>
	<rect x="684.58" y="1970.63" width="80.73" height="308.75" style="fill:none;stroke:#000000;stroke-width:3.24"/>
	<rect x="823.23" y="2013.56" width="83.97" height="267.44" style="fill:#808080"/>
	<rect x="824.85" y="2015.18" width="80.73" height="264.20" style="fill:none;stroke:#000000;stroke-width:3.24"/>
	<rect x="963.50" y="2102.79" width="84.10" height="178.20" style="fill:#808080"/>
	<rect x="965.11" y="2104.41" width="80.87" height="174.96" style="fill:none;stroke:#000000;stroke-width:3.24"/>
	<rect x="1103.90" y="2102.79" width="83.97" height="178.20" style="fill:#808080"/>
	<rect x="1105.51" y="2104.41" width="80.73" height="174.96" style="fill:none;stroke:#000000;stroke-width:3.24"/>
	<rect x="1244.16" y="2191.89" width="83.97" height="89.10" style="fill:#808080"/>
	<rect x="1245.78" y="2193.51" width="80.73" height="85.86" style="fill:none;stroke:#000000;stroke-width:3.24"/>
	<rect x="1384.43" y="2191.89" width="84.11" height="89.10" style="fill:#808080"/>
	<rect x="1386.04" y="2193.51" width="80.87" height="85.86" style="fill:none;stroke:#000000;stroke-width:3.24"/>
	<rect x="1524.83" y="2236.44" width="83.97" height="44.55" style="fill:#808080"/>
	<rect x="1526.44" y="2238.06" width="80.73" height="41.31" style="fill:none;stroke:#000000;stroke-width:3.24"/>
	<rect x="1665.09" y="2236.44" width="84.11" height="44.55" style="fill:#808080"/>
	<rect x="1666.71" y="2238.06" width="80.87" height="41.31" style="fill:none;stroke:#000000;stroke-width:3.24"/>
	<rect x="1805.49" y="2236.44" width="83.97" height="44.55" style="fill:#808080"/>
	<rect x="1807.11" y="2238.06" width="80.73" height="41.31" style="fill:none;stroke:#000000;stroke-width:3.24"/>
	<rect x="1945.76" y="2236.44" width="83.97" height="44.55" style="fill:#808080"/>
	<rect x="1947.37" y="2238.06" width="80.73" height="41.31" style="fill:none;stroke:#000000;stroke-width:3.24"/>
	<line x1="328.73" y1="2281.00" x2="306.32" y2="2281.00" style="stroke:#606060;stroke-width:3.24"/>
	<text x="295.11" y="2296.76" style="font-family:'Helvetica';font-size:44.95px;fill:#606060" text-anchor="end">0</text>
	<line x1="328.73" y1="2147.34" x2="306.32" y2="2147.34" style="stroke:#606060;stroke-width:3.24"/>
	<text x="295.11" y="2163.11" style="font-family:'Helvetica';font-size:44.95px;fill:#606060" text-anchor="end">20</text>
	<line x1="328.73" y1="2013.56" x2="306.32" y2="2013.56" style="stroke:#606060;stroke-width:3.24"/>
	<text x="295.11" y="2029.32" style="font-family:'Helvetica';font-size:44.95px;fill:#606060" text-anchor="end">40</text>
	<line x1="328.73" y1="1879.90" x2="306.32" y2="1879.90" style="stroke:#606060;stroke-width:3.24"/>
	<text x="295.11" y="1895.67" style="font-family:'Helvetica';font-size:44.95px;fill:#606060" text-anchor="end">60</text>
	<line x1="328.73" y1="1746.12" x2="306.32" y2="1746.12" style="stroke:#606060;stroke-width:3.24"/>
	<text x="295.11" y="1761.89" style="font-family:'Helvetica';font-size:44.95px;fill:#606060" text-anchor="end">80</text>
	<line x1="328.73" y1="2281.00" x2="328.73" y2="1746.12" style="stroke:#000000;stroke-width:3.24"/>
	<text x="210.28" y="1962.93" style="font-family:'Helvetica';font-size:44.95px;fill:#000000" transform="rotate(-90 210.28,1962.93)" text-anchor="middle">Percentage</text>
	<text x="460.05" y="2303.54" style="font-family:'Helvetica';font-size:44.95px;fill:#606060" transform="rotate(-90 460.05,2303.54)" text-anchor="end">Caste</text>
	<text x="600.45" y="2303.54" style="font-family:'Helvetica';font-size:44.95px;fill:#606060" transform="rotate(-90 600.45,2303.54)" text-anchor="end">Gender</text>
	<text x="740.72" y="2303.54" style="font-family:'Helvetica';font-size:44.95px;fill:#606060" transform="rotate(-90 740.72,2303.54)" text-anchor="end">Inequality</text>
	<text x="880.98" y="2303.54" style="font-family:'Helvetica';font-size:44.95px;fill:#606060" transform="rotate(-90 880.98,2303.54)" text-anchor="end">Debt</text>
	<text x="1021.38" y="2303.54" style="font-family:'Helvetica';font-size:44.95px;fill:#606060" transform="rotate(-90 1021.38,2303.54)" text-anchor="end">Employment</text>
	<text x="1161.65" y="2303.54" style="font-family:'Helvetica';font-size:44.95px;fill:#606060" transform="rotate(-90 1161.65,2303.54)" text-anchor="end">Networks</text>
	<text x="1301.91" y="2303.54" style="font-family:'Helvetica';font-size:44.95px;fill:#606060" transform="rotate(-90 1301.91,2303.54)" text-anchor="end">Education</text>
	<text x="1442.31" y="2303.54" style="font-family:'Helvetica';font-size:44.95px;fill:#606060" transform="rotate(-90 1442.31,2303.54)" text-anchor="end">Personality</text>
	<text x="1582.58" y="2303.54" style="font-family:'Helvetica';font-size:44.95px;fill:#606060" transform="rotate(-90 1582.58,2303.54)" text-anchor="end">Discrimination</text>
	<text x="1722.84" y="2303.54" style="font-family:'Helvetica';font-size:44.95px;fill:#606060" transform="rotate(-90 1722.84,2303.54)" text-anchor="end">Marriage</text>
	<text x="1863.24" y="2303.54" style="font-family:'Helvetica';font-size:44.95px;fill:#606060" transform="rotate(-90 1863.24,2303.54)" text-anchor="end">Migration</text>
	<text x="2003.51" y="2303.54" style="font-family:'Helvetica';font-size:44.95px;fill:#606060" transform="rotate(-90 2003.51,2303.54)" text-anchor="end">Mobility</text>
	<text x="1216.08" y="1618.19" style="font-family:'Helvetica';font-size:56.30px;fill:#000000" text-anchor="middle">Topics</text>
	<rect x="2160.00" y="1512.56" width="2049.03" height="1161.96" style="fill:#FFFFFF"/>
	<rect x="2161.62" y="1514.18" width="2045.79" height="1158.72" style="fill:none;stroke:#FFFFFF;stroke-width:3.24"/>
	<rect x="2377.89" y="1644.87" width="1774.44" height="725.37" style="fill:#E0E0E0"/>
	<rect x="2379.51" y="1646.49" width="1771.20" height="722.13" style="fill:none;stroke:#FFFFFF;stroke-width:3.24"/>
	<line x1="2377.89" y1="2370.23" x2="4152.33" y2="2370.23" style="stroke:#FFFFFF;stroke-width:3.24"/>
	<line x1="2377.89" y1="2147.34" x2="4152.33" y2="2147.34" style="stroke:#FFFFFF;stroke-width:3.24"/>
	<line x1="2377.89" y1="1924.46" x2="4152.33" y2="1924.46" style="stroke:#FFFFFF;stroke-width:3.24"/>
	<rect x="2486.43" y="2073.09" width="259.07" height="297.14" style="fill:#808080"/>
	<rect x="2488.05" y="2074.71" width="255.83" height="293.90" style="fill:none;stroke:#000000;stroke-width:3.24"/>
	<rect x="2919.11" y="2295.98" width="259.20" height="74.25" style="fill:#808080"/>
	<rect x="2920.72" y="2297.60" width="255.96" height="71.01" style="fill:none;stroke:#000000;stroke-width:3.24"/>
	<rect x="3351.92" y="2295.98" width="259.20" height="74.25" style="fill:#808080"/>
	<rect x="3353.53" y="2297.60" width="255.96" height="71.01" style="fill:none;stroke:#000000;stroke-width:3.24"/>
	<rect x="3784.72" y="2295.98" width="259.07" height="74.25" style="fill:#808080"/>
	<rect x="3786.34" y="2297.60" width="255.83" height="71.01" style="fill:none;stroke:#000000;stroke-width:3.24"/>
	<line x1="2377.89" y1="2370.23" x2="2355.34" y2="2370.23" style="stroke:#606060;stroke-width:3.24"/>
	<text x="2344.14" y="2386.00" style="font-family:'Helvetica';font-size:44.95px;fill:#606060" text-anchor="end">0</text>
	<line x1="2377.89" y1="2147.34" x2="2355.34" y2="2147.34" style="stroke:#606060;stroke-width:3.24"/>
	<text x="2344.14" y="2163.11" style="font-family:'Helvetica';font-size:44.95px;fill:#606060" text-anchor="end">20</text>
	<line x1="2377.89" y1="1924.46" x2="2355.34" y2="1924.46" style="stroke:#606060;stroke-width:3.24"/>
	<text x="2344.14" y="1940.22" style="font-family:'Helvetica';font-size:44.95px;fill:#606060" text-anchor="end">40</text>
	<line x1="2377.89" y1="1701.57" x2="2355.34" y2="1701.57" style="stroke:#606060;stroke-width:3.24"/>
	<text x="2344.14" y="1717.33" style="font-family:'Helvetica';font-size:44.95px;fill:#606060" text-anchor="end">60</text>
	<line x1="2377.89" y1="2370.23" x2="2377.89" y2="1701.57" style="stroke:#000000;stroke-width:3.24"/>
	<text x="2259.31" y="2007.62" style="font-family:'Helvetica';font-size:44.95px;fill:#000000" transform="rotate(-90 2259.31,2007.62)" text-anchor="middle">Percentage</text>
	<text x="2631.80" y="2392.78" style="font-family:'Helvetica';font-size:44.95px;fill:#606060" transform="rotate(-90 2631.80,2392.78)" text-anchor="end">Natal</text>
	<text x="3064.47" y="2392.78" style="font-family:'Helvetica';font-size:44.95px;fill:#606060" transform="rotate(-90 3064.47,2392.78)" text-anchor="end">DiSantolo</text>
	<text x="3497.28" y="2392.78" style="font-family:'Helvetica';font-size:44.95px;fill:#606060" transform="rotate(-90 3497.28,2392.78)" text-anchor="end">Girollet</text>
	<text x="3930.09" y="2392.78" style="font-family:'Helvetica';font-size:44.95px;fill:#606060" transform="rotate(-90 3930.09,2392.78)" text-anchor="end">Mouchel</text>
	<text x="3265.11" y="1618.19" style="font-family:'Helvetica';font-size:56.30px;fill:#000000" text-anchor="middle">Authors</text>
	<text x="80.59" y="2781.35" style="fill:#000000">
		<tspan style="font-family:'Helvetica';font-style:italic;font-size:59.94px">Source:</tspan>
		<tspan style="font-family:'Helvetica';font-size:59.94px"> A. Natal. Updated in October 2025.</tspan>
	</text>
	<text x="2160.00" y="157.55" style="font-family:'Helvetica';font-size:110.03px;fill:#000000" text-anchor="middle">Project papers (N=15)</text>
</svg>
