<?xml version="1.0" encoding="UTF-8" standalone="no"?>
<!-- This is a Stata 15.1 generated SVG file (http://www.stata.com) -->

<svg version="1.1" width="5.50in" height="4.00in" viewBox="0 0 3960 2880" xmlns="http://www.w3.org/2000/svg" xmlns:xlink="http://www.w3.org/1999/xlink">
	<desc>Stata Graph - wpglobal</desc>
	<rect x="0" y="0" width="3960" height="2880" style="fill:#FFFFFF;stroke:none"/>
	<rect x="0.00" y="0.00" width="3959.88" height="2880.00" style="fill:#FFFFFF"/>
	<rect x="2.88" y="2.88" width="3954.12" height="2874.24" style="fill:none;stroke:#FFFFFF;stroke-width:5.76"/>
	<rect x="63.36" y="207.91" width="3833.16" height="1257.09" style="fill:#FFFFFF"/>
	<rect x="65.52" y="210.07" width="3828.84" height="1252.77" style="fill:none;stroke:#FFFFFF;stroke-width:4.32"/>
	<rect x="110.88" y="255.43" width="1869.12" height="1162.05" style="fill:#FFFFFF"/>
	<rect x="112.50" y="257.05" width="1865.88" height="1158.81" style="fill:none;stroke:#FFFFFF;stroke-width:3.24"/>
	<rect x="309.76" y="411.99" width="1611.82" height="614.29" style="fill:none;stroke:#000000;stroke-width:3.24"/>
	<line x1="308.14" y1="1027.90" x2="1923.20" y2="1027.90" style="stroke:#E0E0E0;stroke-width:4.86"/>
	<line x1="308.14" y1="898.45" x2="1923.20" y2="898.45" style="stroke:#E0E0E0;stroke-width:4.86"/>
	<line x1="308.14" y1="769.01" x2="1923.20" y2="769.01" style="stroke:#E0E0E0;stroke-width:4.86"/>
	<line x1="308.14" y1="639.56" x2="1923.20" y2="639.56" style="stroke:#E0E0E0;stroke-width:4.86"/>
	<line x1="308.14" y1="510.11" x2="1923.20" y2="510.11" style="stroke:#E0E0E0;stroke-width:4.86"/>
	<rect x="462.70" y="941.64" width="489.18" height="86.26" style="fill:#606060"/>
	<rect x="464.32" y="943.26" width="485.94" height="83.02" style="fill:none;stroke:#606060;stroke-width:3.24"/>
	<rect x="1279.58" y="467.05" width="489.18" height="560.85" style="fill:#606060"/>
	<rect x="1281.19" y="468.67" width="485.94" height="557.61" style="fill:none;stroke:#606060;stroke-width:3.24"/>
	<line x1="308.14" y1="1027.90" x2="308.14" y2="410.37" style="stroke:#000000;stroke-width:3.24"/>
	<line x1="308.14" y1="1027.90" x2="285.62" y2="1027.90" style="stroke:#000000;stroke-width:3.24"/>
	<text x="260.90" y="1027.90" style="font-family:'Helvetica';font-size:45.05px;fill:#000000" transform="rotate(-90 260.90,1027.90)" text-anchor="middle">0</text>
	<line x1="308.14" y1="898.45" x2="285.62" y2="898.45" style="stroke:#000000;stroke-width:3.24"/>
	<text x="260.90" y="898.45" style="font-family:'Helvetica';font-size:45.05px;fill:#000000" transform="rotate(-90 260.90,898.45)" text-anchor="middle">20</text>
	<line x1="308.14" y1="769.01" x2="285.62" y2="769.01" style="stroke:#000000;stroke-width:3.24"/>
	<text x="260.90" y="769.01" style="font-family:'Helvetica';font-size:45.05px;fill:#000000" transform="rotate(-90 260.90,769.01)" text-anchor="middle">40</text>
	<line x1="308.14" y1="639.56" x2="285.62" y2="639.56" style="stroke:#000000;stroke-width:3.24"/>
	<text x="260.90" y="639.56" style="font-family:'Helvetica';font-size:45.05px;fill:#000000" transform="rotate(-90 260.90,639.56)" text-anchor="middle">60</text>
	<line x1="308.14" y1="510.11" x2="285.62" y2="510.11" style="stroke:#000000;stroke-width:3.24"/>
	<text x="260.90" y="510.11" style="font-family:'Helvetica';font-size:45.05px;fill:#000000" transform="rotate(-90 260.90,510.11)" text-anchor="middle">80</text>
	<text x="210.29" y="719.13" style="font-family:'Helvetica';font-size:45.05px;fill:#000000" transform="rotate(-90 210.29,719.13)" text-anchor="middle">Percentage</text>
	<line x1="308.14" y1="1027.90" x2="1923.20" y2="1027.90" style="stroke:#000000;stroke-width:3.24"/>
	<text x="723.03" y="1050.42" style="font-family:'Helvetica';font-size:45.05px;fill:#000000" transform="rotate(-90 723.03,1050.42)" text-anchor="end">Cross-section</text>
	<text x="1539.90" y="1050.42" style="font-family:'Helvetica';font-size:45.05px;fill:#000000" transform="rotate(-90 1539.90,1050.42)" text-anchor="end">Panel</text>
	<text x="1115.73" y="376.92" style="font-family:'Helvetica';font-size:78.70px;fill:#000000" text-anchor="middle">Analysis</text>
	<rect x="1980.00" y="255.43" width="1869.00" height="1162.05" style="fill:#FFFFFF"/>
	<rect x="1981.62" y="257.05" width="1865.76" height="1158.81" style="fill:none;stroke:#FFFFFF;stroke-width:3.24"/>
	<rect x="2178.88" y="411.99" width="1611.82" height="648.32" style="fill:none;stroke:#000000;stroke-width:3.24"/>
	<line x1="2177.26" y1="1061.93" x2="3792.32" y2="1061.93" style="stroke:#E0E0E0;stroke-width:4.86"/>
	<line x1="2177.26" y1="943.00" x2="3792.32" y2="943.00" style="stroke:#E0E0E0;stroke-width:4.86"/>
	<line x1="2177.26" y1="823.95" x2="3792.32" y2="823.95" style="stroke:#E0E0E0;stroke-width:4.86"/>
	<line x1="2177.26" y1="705.03" x2="3792.32" y2="705.03" style="stroke:#E0E0E0;stroke-width:4.86"/>
	<line x1="2177.26" y1="585.97" x2="3792.32" y2="585.97" style="stroke:#E0E0E0;stroke-width:4.86"/>
	<rect x="2297.30" y="982.61" width="316.80" height="79.33" style="fill:#606060"/>
	<rect x="2298.91" y="984.23" width="313.56" height="76.09" style="fill:none;stroke:#606060;stroke-width:3.24"/>
	<rect x="2826.33" y="823.95" width="316.80" height="237.98" style="fill:#606060"/>
	<rect x="2827.95" y="825.57" width="313.56" height="234.74" style="fill:none;stroke:#606060;stroke-width:3.24"/>
	<rect x="3355.48" y="744.63" width="316.80" height="317.30" style="fill:#606060"/>
	<rect x="3357.10" y="746.25" width="313.56" height="314.07" style="fill:none;stroke:#606060;stroke-width:3.24"/>
	<line x1="2177.26" y1="1061.93" x2="2177.26" y2="410.37" style="stroke:#000000;stroke-width:3.24"/>
	<line x1="2177.26" y1="1061.93" x2="2154.74" y2="1061.93" style="stroke:#000000;stroke-width:3.24"/>
	<text x="2129.90" y="1061.93" style="font-family:'Helvetica';font-size:45.05px;fill:#000000" transform="rotate(-90 2129.90,1061.93)" text-anchor="middle">0</text>
	<line x1="2177.26" y1="943.00" x2="2154.74" y2="943.00" style="stroke:#000000;stroke-width:3.24"/>
	<text x="2129.90" y="943.00" style="font-family:'Helvetica';font-size:45.05px;fill:#000000" transform="rotate(-90 2129.90,943.00)" text-anchor="middle">20</text>
	<line x1="2177.26" y1="823.95" x2="2154.74" y2="823.95" style="stroke:#000000;stroke-width:3.24"/>
	<text x="2129.90" y="823.95" style="font-family:'Helvetica';font-size:45.05px;fill:#000000" transform="rotate(-90 2129.90,823.95)" text-anchor="middle">40</text>
	<line x1="2177.26" y1="705.03" x2="2154.74" y2="705.03" style="stroke:#000000;stroke-width:3.24"/>
	<text x="2129.90" y="705.03" style="font-family:'Helvetica';font-size:45.05px;fill:#000000" transform="rotate(-90 2129.90,705.03)" text-anchor="middle">60</text>
	<line x1="2177.26" y1="585.97" x2="2154.74" y2="585.97" style="stroke:#000000;stroke-width:3.24"/>
	<text x="2129.90" y="585.97" style="font-family:'Helvetica';font-size:45.05px;fill:#000000" transform="rotate(-90 2129.90,585.97)" text-anchor="middle">80</text>
	<line x1="2177.26" y1="467.05" x2="2154.74" y2="467.05" style="stroke:#000000;stroke-width:3.24"/>
	<text x="2129.90" y="467.05" style="font-family:'Helvetica';font-size:45.05px;fill:#000000" transform="rotate(-90 2129.90,467.05)" text-anchor="middle">100</text>
	<text x="2079.28" y="736.21" style="font-family:'Helvetica';font-size:45.05px;fill:#000000" transform="rotate(-90 2079.28,736.21)" text-anchor="middle">Percentage</text>
	<line x1="2177.26" y1="1061.93" x2="3792.32" y2="1061.93" style="stroke:#000000;stroke-width:3.24"/>
	<text x="2471.49" y="1084.46" style="font-family:'Helvetica';font-size:45.05px;fill:#000000" transform="rotate(-90 2471.49,1084.46)" text-anchor="end">RUME</text>
	<text x="3000.52" y="1084.46" style="font-family:'Helvetica';font-size:45.05px;fill:#000000" transform="rotate(-90 3000.52,1084.46)" text-anchor="end">NEEMSIS-1</text>
	<text x="3529.68" y="1084.46" style="font-family:'Helvetica';font-size:45.05px;fill:#000000" transform="rotate(-90 3529.68,1084.46)" text-anchor="end">NEEMSIS-2</text>
	<text x="2984.73" y="376.92" style="font-family:'Helvetica';font-size:78.70px;fill:#000000" text-anchor="middle">Data used</text>
	<rect x="63.36" y="1465.00" width="3833.16" height="1257.09" style="fill:#FFFFFF"/>
	<rect x="65.52" y="1467.16" width="3828.84" height="1252.77" style="fill:none;stroke:#FFFFFF;stroke-width:4.32"/>
	<rect x="110.88" y="1512.52" width="1869.12" height="1162.05" style="fill:#FFFFFF"/>
	<rect x="112.50" y="1514.14" width="1865.88" height="1158.81" style="fill:none;stroke:#FFFFFF;stroke-width:3.24"/>
	<rect x="309.76" y="1669.08" width="1611.82" height="610.33" style="fill:none;stroke:#000000;stroke-width:3.24"/>
	<line x1="308.14" y1="2281.03" x2="1923.20" y2="2281.03" style="stroke:#E0E0E0;stroke-width:4.86"/>
	<line x1="308.14" y1="2152.45" x2="1923.20" y2="2152.45" style="stroke:#E0E0E0;stroke-width:4.86"/>
	<line x1="308.14" y1="2023.99" x2="1923.20" y2="2023.99" style="stroke:#E0E0E0;stroke-width:4.86"/>
	<line x1="308.14" y1="1895.41" x2="1923.20" y2="1895.41" style="stroke:#E0E0E0;stroke-width:4.86"/>
	<line x1="308.14" y1="1766.96" x2="1923.20" y2="1766.96" style="stroke:#E0E0E0;stroke-width:4.86"/>
	<rect x="380.04" y="1724.14" width="75.98" height="556.89" style="fill:#606060"/>
	<rect x="381.66" y="1725.76" width="72.74" height="553.65" style="fill:none;stroke:#606060;stroke-width:3.24"/>
	<rect x="506.88" y="1809.78" width="75.98" height="471.25" style="fill:#606060"/>
	<rect x="508.50" y="1811.40" width="72.74" height="468.01" style="fill:none;stroke:#606060;stroke-width:3.24"/>
	<rect x="633.72" y="1981.18" width="75.98" height="299.86" style="fill:#606060"/>
	<rect x="635.34" y="1982.80" width="72.74" height="296.62" style="fill:none;stroke:#606060;stroke-width:3.24"/>
	<rect x="760.57" y="2023.99" width="75.98" height="257.04" style="fill:#606060"/>
	<rect x="762.19" y="2025.61" width="72.74" height="253.80" style="fill:none;stroke:#606060;stroke-width:3.24"/>
	<rect x="887.41" y="2109.63" width="75.98" height="171.40" style="fill:#606060"/>
	<rect x="889.03" y="2111.25" width="72.74" height="168.16" style="fill:none;stroke:#606060;stroke-width:3.24"/>
	<rect x="1014.26" y="2109.63" width="75.98" height="171.40" style="fill:#606060"/>
	<rect x="1015.87" y="2111.25" width="72.74" height="168.16" style="fill:none;stroke:#606060;stroke-width:3.24"/>
	<rect x="1141.10" y="2195.39" width="75.98" height="85.64" style="fill:#606060"/>
	<rect x="1142.72" y="2197.01" width="72.74" height="82.40" style="fill:none;stroke:#606060;stroke-width:3.24"/>
	<rect x="1267.94" y="2195.39" width="75.98" height="85.64" style="fill:#606060"/>
	<rect x="1269.56" y="2197.01" width="72.74" height="82.40" style="fill:none;stroke:#606060;stroke-width:3.24"/>
	<rect x="1394.79" y="2238.21" width="75.98" height="42.82" style="fill:#606060"/>
	<rect x="1396.41" y="2239.83" width="72.74" height="39.58" style="fill:none;stroke:#606060;stroke-width:3.24"/>
	<rect x="1521.75" y="2238.21" width="75.86" height="42.82" style="fill:#606060"/>
	<rect x="1523.37" y="2239.83" width="72.62" height="39.58" style="fill:none;stroke:#606060;stroke-width:3.24"/>
	<rect x="1648.60" y="2238.21" width="75.86" height="42.82" style="fill:#606060"/>
	<rect x="1650.22" y="2239.83" width="72.62" height="39.58" style="fill:none;stroke:#606060;stroke-width:3.24"/>
	<rect x="1775.44" y="2238.21" width="75.86" height="42.82" style="fill:#606060"/>
	<rect x="1777.06" y="2239.83" width="72.62" height="39.58" style="fill:none;stroke:#606060;stroke-width:3.24"/>
	<line x1="308.14" y1="2281.03" x2="308.14" y2="1667.46" style="stroke:#000000;stroke-width:3.24"/>
	<line x1="308.14" y1="2281.03" x2="285.62" y2="2281.03" style="stroke:#000000;stroke-width:3.24"/>
	<text x="260.90" y="2281.03" style="font-family:'Helvetica';font-size:45.05px;fill:#000000" transform="rotate(-90 260.90,2281.03)" text-anchor="middle">0</text>
	<line x1="308.14" y1="2152.45" x2="285.62" y2="2152.45" style="stroke:#000000;stroke-width:3.24"/>
	<text x="260.90" y="2152.45" style="font-family:'Helvetica';font-size:45.05px;fill:#000000" transform="rotate(-90 260.90,2152.45)" text-anchor="middle">20</text>
	<line x1="308.14" y1="2023.99" x2="285.62" y2="2023.99" style="stroke:#000000;stroke-width:3.24"/>
	<text x="260.90" y="2023.99" style="font-family:'Helvetica';font-size:45.05px;fill:#000000" transform="rotate(-90 260.90,2023.99)" text-anchor="middle">40</text>
	<line x1="308.14" y1="1895.41" x2="285.62" y2="1895.41" style="stroke:#000000;stroke-width:3.24"/>
	<text x="260.90" y="1895.41" style="font-family:'Helvetica';font-size:45.05px;fill:#000000" transform="rotate(-90 260.90,1895.41)" text-anchor="middle">60</text>
	<line x1="308.14" y1="1766.96" x2="285.62" y2="1766.96" style="stroke:#000000;stroke-width:3.24"/>
	<text x="260.90" y="1766.96" style="font-family:'Helvetica';font-size:45.05px;fill:#000000" transform="rotate(-90 260.90,1766.96)" text-anchor="middle">80</text>
	<text x="210.29" y="1974.25" style="font-family:'Helvetica';font-size:45.05px;fill:#000000" transform="rotate(-90 210.29,1974.25)" text-anchor="middle">Percentage</text>
	<line x1="308.14" y1="2281.03" x2="1923.20" y2="2281.03" style="stroke:#000000;stroke-width:3.24"/>
	<text x="433.82" y="2303.55" style="font-family:'Helvetica';font-size:45.05px;fill:#000000" transform="rotate(-90 433.82,2303.55)" text-anchor="end">Caste</text>
	<text x="560.67" y="2303.55" style="font-family:'Helvetica';font-size:45.05px;fill:#000000" transform="rotate(-90 560.67,2303.55)" text-anchor="end">Gender</text>
	<text x="687.51" y="2303.55" style="font-family:'Helvetica';font-size:45.05px;fill:#000000" transform="rotate(-90 687.51,2303.55)" text-anchor="end">Inequality</text>
	<text x="814.36" y="2303.55" style="font-family:'Helvetica';font-size:45.05px;fill:#000000" transform="rotate(-90 814.36,2303.55)" text-anchor="end">Debt</text>
	<text x="941.20" y="2303.55" style="font-family:'Helvetica';font-size:45.05px;fill:#000000" transform="rotate(-90 941.20,2303.55)" text-anchor="end">Employment</text>
	<text x="1068.04" y="2303.55" style="font-family:'Helvetica';font-size:45.05px;fill:#000000" transform="rotate(-90 1068.04,2303.55)" text-anchor="end">Networks</text>
	<text x="1194.89" y="2303.55" style="font-family:'Helvetica';font-size:45.05px;fill:#000000" transform="rotate(-90 1194.89,2303.55)" text-anchor="end">Education</text>
	<text x="1321.73" y="2303.55" style="font-family:'Helvetica';font-size:45.05px;fill:#000000" transform="rotate(-90 1321.73,2303.55)" text-anchor="end">Personality</text>
	<text x="1448.57" y="2303.55" style="font-family:'Helvetica';font-size:45.05px;fill:#000000" transform="rotate(-90 1448.57,2303.55)" text-anchor="end">Discrimination</text>
	<text x="1575.42" y="2303.55" style="font-family:'Helvetica';font-size:45.05px;fill:#000000" transform="rotate(-90 1575.42,2303.55)" text-anchor="end">Marriage</text>
	<text x="1702.26" y="2303.55" style="font-family:'Helvetica';font-size:45.05px;fill:#000000" transform="rotate(-90 1702.26,2303.55)" text-anchor="end">Migration</text>
	<text x="1829.23" y="2303.55" style="font-family:'Helvetica';font-size:45.05px;fill:#000000" transform="rotate(-90 1829.23,2303.55)" text-anchor="end">Mobility</text>
	<text x="1115.73" y="1634.01" style="font-family:'Helvetica';font-size:78.70px;fill:#000000" text-anchor="middle">Topics</text>
	<rect x="1980.00" y="1512.52" width="1869.00" height="1162.05" style="fill:#FFFFFF"/>
	<rect x="1981.62" y="1514.14" width="1865.76" height="1158.81" style="fill:none;stroke:#FFFFFF;stroke-width:3.24"/>
	<rect x="2178.88" y="1669.08" width="1611.82" height="699.56" style="fill:none;stroke:#000000;stroke-width:3.24"/>
	<line x1="2177.26" y1="2370.26" x2="3792.32" y2="2370.26" style="stroke:#E0E0E0;stroke-width:4.86"/>
	<line x1="2177.26" y1="2154.80" x2="3792.32" y2="2154.80" style="stroke:#E0E0E0;stroke-width:4.86"/>
	<line x1="2177.26" y1="1939.47" x2="3792.32" y2="1939.47" style="stroke:#E0E0E0;stroke-width:4.86"/>
	<rect x="2280.84" y="2083.03" width="234.26" height="287.23" style="fill:#606060"/>
	<rect x="2282.46" y="2084.65" width="231.02" height="283.99" style="fill:none;stroke:#606060;stroke-width:3.24"/>
	<rect x="2672.01" y="2298.48" width="234.26" height="71.78" style="fill:#606060"/>
	<rect x="2673.63" y="2300.10" width="231.02" height="68.54" style="fill:none;stroke:#606060;stroke-width:3.24"/>
	<rect x="3063.31" y="2298.48" width="234.26" height="71.78" style="fill:#606060"/>
	<rect x="3064.93" y="2300.10" width="231.02" height="68.54" style="fill:none;stroke:#606060;stroke-width:3.24"/>
	<rect x="3454.48" y="2298.48" width="234.26" height="71.78" style="fill:#606060"/>
	<rect x="3456.10" y="2300.10" width="231.02" height="68.54" style="fill:none;stroke:#606060;stroke-width:3.24"/>
	<line x1="2177.26" y1="2370.26" x2="2177.26" y2="1667.46" style="stroke:#000000;stroke-width:3.24"/>
	<line x1="2177.26" y1="2370.26" x2="2154.74" y2="2370.26" style="stroke:#000000;stroke-width:3.24"/>
	<text x="2129.90" y="2370.26" style="font-family:'Helvetica';font-size:45.05px;fill:#000000" transform="rotate(-90 2129.90,2370.26)" text-anchor="middle">0</text>
	<line x1="2177.26" y1="2154.80" x2="2154.74" y2="2154.80" style="stroke:#000000;stroke-width:3.24"/>
	<text x="2129.90" y="2154.80" style="font-family:'Helvetica';font-size:45.05px;fill:#000000" transform="rotate(-90 2129.90,2154.80)" text-anchor="middle">20</text>
	<line x1="2177.26" y1="1939.47" x2="2154.74" y2="1939.47" style="stroke:#000000;stroke-width:3.24"/>
	<text x="2129.90" y="1939.47" style="font-family:'Helvetica';font-size:45.05px;fill:#000000" transform="rotate(-90 2129.90,1939.47)" text-anchor="middle">40</text>
	<line x1="2177.26" y1="1724.14" x2="2154.74" y2="1724.14" style="stroke:#000000;stroke-width:3.24"/>
	<text x="2129.90" y="1724.14" style="font-family:'Helvetica';font-size:45.05px;fill:#000000" transform="rotate(-90 2129.90,1724.14)" text-anchor="middle">60</text>
	<text x="2079.28" y="2018.80" style="font-family:'Helvetica';font-size:45.05px;fill:#000000" transform="rotate(-90 2079.28,2018.80)" text-anchor="middle">Percentage</text>
	<line x1="2177.26" y1="2370.26" x2="3792.32" y2="2370.26" style="stroke:#000000;stroke-width:3.24"/>
	<text x="2413.70" y="2392.78" style="font-family:'Helvetica';font-size:45.05px;fill:#000000" transform="rotate(-90 2413.70,2392.78)" text-anchor="end">Natal</text>
	<text x="2805.00" y="2392.78" style="font-family:'Helvetica';font-size:45.05px;fill:#000000" transform="rotate(-90 2805.00,2392.78)" text-anchor="end">DiSantolo</text>
	<text x="3196.17" y="2392.78" style="font-family:'Helvetica';font-size:45.05px;fill:#000000" transform="rotate(-90 3196.17,2392.78)" text-anchor="end">Girollet</text>
	<text x="3587.47" y="2392.78" style="font-family:'Helvetica';font-size:45.05px;fill:#000000" transform="rotate(-90 3587.47,2392.78)" text-anchor="end">Mouchel</text>
	<text x="2984.73" y="1634.01" style="font-family:'Helvetica';font-size:78.70px;fill:#000000" text-anchor="middle">Authors</text>
	<text x="80.69" y="2781.24" style="fill:#000000">
		<tspan style="font-family:'Helvetica';font-style:italic;font-size:60.02px">Source:</tspan>
		<tspan style="font-family:'Helvetica';font-size:60.02px"> A. Natal. Updated in October 2025.</tspan>
	</text>
	<text x="1980.00" y="157.51" style="font-family:'Helvetica';font-size:110.01px;fill:#000000" text-anchor="middle">Project papers (N=15)</text>
</svg>
