<?xml version="1.0" encoding="UTF-8" standalone="no"?>
<!-- This is a Stata 15.1 generated SVG file (http://www.stata.com) -->

<svg version="1.1" width="6.00in" height="4.00in" viewBox="0 0 4320 2880" xmlns="http://www.w3.org/2000/svg" xmlns:xlink="http://www.w3.org/1999/xlink">
	<desc>Stata Graph - authors</desc>
	<rect x="0" y="0" width="4320" height="2880" style="fill:#FFFFFF;stroke:none"/>
	<rect x="0.00" y="0.00" width="4320.00" height="2880.00" style="fill:#FFFFFF"/>
	<rect x="2.88" y="2.88" width="4314.24" height="2874.24" style="fill:none;stroke:#FFFFFF;stroke-width:5.76"/>
	<rect x="63.31" y="207.90" width="1397.79" height="2514.14" style="fill:#FFFFFF"/>
	<rect x="65.47" y="210.06" width="1393.47" height="2509.82" style="fill:none;stroke:#FFFFFF;stroke-width:4.32"/>
	<rect x="388.94" y="384.49" width="996.57" height="1917.84" style="fill:#E0E0E0"/>
	<rect x="391.09" y="386.65" width="992.25" height="1913.52" style="fill:none;stroke:#FFFFFF;stroke-width:4.32"/>
	<line x1="388.94" y1="2302.33" x2="1385.51" y2="2302.33" style="stroke:#FFFFFF;stroke-width:4.32"/>
	<line x1="388.94" y1="1933.91" x2="1385.51" y2="1933.91" style="stroke:#FFFFFF;stroke-width:4.32"/>
	<line x1="388.94" y1="1565.35" x2="1385.51" y2="1565.35" style="stroke:#FFFFFF;stroke-width:4.32"/>
	<line x1="388.94" y1="1196.93" x2="1385.51" y2="1196.93" style="stroke:#FFFFFF;stroke-width:4.32"/>
	<line x1="388.94" y1="828.51" x2="1385.51" y2="828.51" style="stroke:#FFFFFF;stroke-width:4.32"/>
	<rect x="473.04" y="986.46" width="42.80" height="1315.87" style="fill:#808080"/>
	<rect x="475.20" y="988.62" width="38.48" height="1311.55" style="fill:none;stroke:#000000;stroke-width:4.32"/>
	<rect x="544.46" y="986.46" width="42.79" height="1315.87" style="fill:#808080"/>
	<rect x="546.61" y="988.62" width="38.48" height="1311.55" style="fill:none;stroke:#000000;stroke-width:4.32"/>
	<rect x="615.87" y="1381.21" width="42.79" height="921.12" style="fill:#808080"/>
	<rect x="618.03" y="1383.37" width="38.48" height="916.80" style="fill:none;stroke:#000000;stroke-width:4.32"/>
	<rect x="687.28" y="1381.21" width="42.80" height="921.12" style="fill:#808080"/>
	<rect x="689.44" y="1383.37" width="38.48" height="916.80" style="fill:none;stroke:#000000;stroke-width:4.32"/>
	<rect x="758.70" y="1775.95" width="42.79" height="526.37" style="fill:#808080"/>
	<rect x="760.86" y="1778.11" width="38.48" height="522.05" style="fill:none;stroke:#000000;stroke-width:4.32"/>
	<rect x="830.12" y="1907.58" width="42.79" height="394.75" style="fill:#808080"/>
	<rect x="832.27" y="1909.74" width="38.48" height="390.43" style="fill:none;stroke:#000000;stroke-width:4.32"/>
	<rect x="901.53" y="2039.07" width="42.80" height="263.25" style="fill:#808080"/>
	<rect x="903.69" y="2041.23" width="38.48" height="258.93" style="fill:none;stroke:#000000;stroke-width:4.32"/>
	<rect x="972.95" y="2039.07" width="42.79" height="263.25" style="fill:#808080"/>
	<rect x="975.10" y="2041.23" width="38.48" height="258.93" style="fill:none;stroke:#000000;stroke-width:4.32"/>
	<rect x="1044.36" y="2170.70" width="42.80" height="131.63" style="fill:#808080"/>
	<rect x="1046.52" y="2172.86" width="38.48" height="127.31" style="fill:none;stroke:#000000;stroke-width:4.32"/>
	<rect x="1115.78" y="2170.70" width="42.79" height="131.63" style="fill:#808080"/>
	<rect x="1117.93" y="2172.86" width="38.48" height="127.31" style="fill:none;stroke:#000000;stroke-width:4.32"/>
	<rect x="1187.19" y="2170.70" width="42.79" height="131.63" style="fill:#808080"/>
	<rect x="1189.35" y="2172.86" width="38.48" height="127.31" style="fill:none;stroke:#000000;stroke-width:4.32"/>
	<rect x="1258.61" y="2170.70" width="42.80" height="131.63" style="fill:#808080"/>
	<rect x="1260.76" y="2172.86" width="38.48" height="127.31" style="fill:none;stroke:#000000;stroke-width:4.32"/>
	<line x1="388.94" y1="2302.33" x2="358.96" y2="2302.33" style="stroke:#606060;stroke-width:4.32"/>
	<text x="343.85" y="2323.34" style="font-family:'Helvetica';font-size:59.94px;fill:#606060" text-anchor="end">0</text>
	<line x1="388.94" y1="1933.91" x2="358.96" y2="1933.91" style="stroke:#606060;stroke-width:4.32"/>
	<text x="343.85" y="1954.92" style="font-family:'Helvetica';font-size:59.94px;fill:#606060" text-anchor="end">20</text>
	<line x1="388.94" y1="1565.35" x2="358.96" y2="1565.35" style="stroke:#606060;stroke-width:4.32"/>
	<text x="343.85" y="1586.36" style="font-family:'Helvetica';font-size:59.94px;fill:#606060" text-anchor="end">40</text>
	<line x1="388.94" y1="1196.93" x2="358.96" y2="1196.93" style="stroke:#606060;stroke-width:4.32"/>
	<text x="343.85" y="1217.94" style="font-family:'Helvetica';font-size:59.94px;fill:#606060" text-anchor="end">60</text>
	<line x1="388.94" y1="828.51" x2="358.96" y2="828.51" style="stroke:#606060;stroke-width:4.32"/>
	<text x="343.85" y="849.52" style="font-family:'Helvetica';font-size:59.94px;fill:#606060" text-anchor="end">80</text>
	<line x1="388.94" y1="460.09" x2="358.96" y2="460.09" style="stroke:#606060;stroke-width:4.32"/>
	<text x="343.85" y="481.10" style="font-family:'Helvetica';font-size:59.94px;fill:#606060" text-anchor="end">100</text>
	<line x1="388.94" y1="2302.33" x2="388.94" y2="460.09" style="stroke:#000000;stroke-width:4.32"/>
	<text x="195.93" y="1343.41" style="font-family:'Helvetica';font-size:59.94px;fill:#000000" transform="rotate(-90 195.93,1343.41)" text-anchor="middle">Percentage</text>
	<text x="515.38" y="2332.30" style="font-family:'Helvetica';font-size:59.94px;fill:#606060" transform="rotate(-90 515.38,2332.30)" text-anchor="end">Guérin</text>
	<text x="586.80" y="2332.30" style="font-family:'Helvetica';font-size:59.94px;fill:#606060" transform="rotate(-90 586.80,2332.30)" text-anchor="end">Venkat</text>
	<text x="658.21" y="2332.30" style="font-family:'Helvetica';font-size:59.94px;fill:#606060" transform="rotate(-90 658.21,2332.30)" text-anchor="end">Natal</text>
	<text x="729.63" y="2332.30" style="font-family:'Helvetica';font-size:59.94px;fill:#606060" transform="rotate(-90 729.63,2332.30)" text-anchor="end">Nordman</text>
	<text x="801.04" y="2332.30" style="font-family:'Helvetica';font-size:59.94px;fill:#606060" transform="rotate(-90 801.04,2332.30)" text-anchor="end">Michiels</text>
	<text x="872.46" y="2332.30" style="font-family:'Helvetica';font-size:59.94px;fill:#606060" transform="rotate(-90 872.46,2332.30)" text-anchor="end">DEspallier</text>
	<text x="943.87" y="2332.30" style="font-family:'Helvetica';font-size:59.94px;fill:#606060" transform="rotate(-90 943.87,2332.30)" text-anchor="end">DiSantolo</text>
	<text x="1015.29" y="2332.30" style="font-family:'Helvetica';font-size:59.94px;fill:#606060" transform="rotate(-90 1015.29,2332.30)" text-anchor="end">Mouchel</text>
	<text x="1086.70" y="2332.30" style="font-family:'Helvetica';font-size:59.94px;fill:#606060" transform="rotate(-90 1086.70,2332.30)" text-anchor="end">Goedecke</text>
	<text x="1158.12" y="2332.30" style="font-family:'Helvetica';font-size:59.94px;fill:#606060" transform="rotate(-90 1158.12,2332.30)" text-anchor="end">Kumar</text>
	<text x="1229.53" y="2332.30" style="font-family:'Helvetica';font-size:59.94px;fill:#606060" transform="rotate(-90 1229.53,2332.30)" text-anchor="end">Reboul</text>
	<text x="1300.95" y="2332.30" style="font-family:'Helvetica';font-size:59.94px;fill:#606060" transform="rotate(-90 1300.95,2332.30)" text-anchor="end">Roesch</text>
	<text x="887.22" y="348.94" style="font-family:'Helvetica';font-size:75.06px;fill:#000000" text-anchor="middle">RUME (N=14)</text>
	<rect x="1461.11" y="207.90" width="1397.79" height="2514.14" style="fill:#FFFFFF"/>
	<rect x="1463.26" y="210.06" width="1393.47" height="2509.82" style="fill:none;stroke:#FFFFFF;stroke-width:4.32"/>
	<rect x="1786.59" y="384.49" width="996.71" height="1931.88" style="fill:#E0E0E0"/>
	<rect x="1788.75" y="386.65" width="992.39" height="1927.56" style="fill:none;stroke:#FFFFFF;stroke-width:4.32"/>
	<line x1="1786.59" y1="2316.37" x2="2783.30" y2="2316.37" style="stroke:#FFFFFF;stroke-width:4.32"/>
	<line x1="1786.59" y1="1945.11" x2="2783.30" y2="1945.11" style="stroke:#FFFFFF;stroke-width:4.32"/>
	<line x1="1786.59" y1="1573.85" x2="2783.30" y2="1573.85" style="stroke:#FFFFFF;stroke-width:4.32"/>
	<line x1="1786.59" y1="1202.60" x2="2783.30" y2="1202.60" style="stroke:#FFFFFF;stroke-width:4.32"/>
	<line x1="1786.59" y1="831.34" x2="2783.30" y2="831.34" style="stroke:#FFFFFF;stroke-width:4.32"/>
	<rect x="1870.83" y="753.18" width="42.66" height="1563.19" style="fill:#808080"/>
	<rect x="1872.99" y="755.34" width="38.34" height="1558.87" style="fill:none;stroke:#000000;stroke-width:4.32"/>
	<rect x="1942.24" y="1339.36" width="42.66" height="977.01" style="fill:#808080"/>
	<rect x="1944.40" y="1341.52" width="38.34" height="972.69" style="fill:none;stroke:#000000;stroke-width:4.32"/>
	<rect x="2013.66" y="1339.36" width="42.66" height="977.01" style="fill:#808080"/>
	<rect x="2015.82" y="1341.52" width="38.34" height="972.69" style="fill:none;stroke:#000000;stroke-width:4.32"/>
	<rect x="2085.07" y="1534.70" width="42.66" height="781.66" style="fill:#808080"/>
	<rect x="2087.23" y="1536.86" width="38.34" height="777.34" style="fill:none;stroke:#000000;stroke-width:4.32"/>
	<rect x="2156.49" y="1730.19" width="42.66" height="586.18" style="fill:#808080"/>
	<rect x="2158.65" y="1732.35" width="38.34" height="581.86" style="fill:none;stroke:#000000;stroke-width:4.32"/>
	<rect x="2227.91" y="1925.54" width="42.66" height="390.83" style="fill:#808080"/>
	<rect x="2230.06" y="1927.70" width="38.34" height="386.51" style="fill:none;stroke:#000000;stroke-width:4.32"/>
	<rect x="2299.32" y="2120.88" width="42.66" height="195.48" style="fill:#808080"/>
	<rect x="2301.48" y="2123.04" width="38.34" height="191.16" style="fill:none;stroke:#000000;stroke-width:4.32"/>
	<rect x="2370.74" y="2120.88" width="42.66" height="195.48" style="fill:#808080"/>
	<rect x="2372.89" y="2123.04" width="38.34" height="191.16" style="fill:none;stroke:#000000;stroke-width:4.32"/>
	<rect x="2442.15" y="2218.62" width="42.66" height="97.74" style="fill:#808080"/>
	<rect x="2444.31" y="2220.78" width="38.34" height="93.42" style="fill:none;stroke:#000000;stroke-width:4.32"/>
	<rect x="2513.57" y="2218.62" width="42.66" height="97.74" style="fill:#808080"/>
	<rect x="2515.72" y="2220.78" width="38.34" height="93.42" style="fill:none;stroke:#000000;stroke-width:4.32"/>
	<rect x="2584.84" y="2218.62" width="42.80" height="97.74" style="fill:#808080"/>
	<rect x="2587.00" y="2220.78" width="38.48" height="93.42" style="fill:none;stroke:#000000;stroke-width:4.32"/>
	<rect x="2656.26" y="2218.62" width="42.79" height="97.74" style="fill:#808080"/>
	<rect x="2658.42" y="2220.78" width="38.48" height="93.42" style="fill:none;stroke:#000000;stroke-width:4.32"/>
	<line x1="1786.59" y1="2316.37" x2="1756.62" y2="2316.37" style="stroke:#606060;stroke-width:4.32"/>
	<text x="1741.64" y="2337.38" style="font-family:'Helvetica';font-size:59.94px;fill:#606060" text-anchor="end">0</text>
	<line x1="1786.59" y1="1945.11" x2="1756.62" y2="1945.11" style="stroke:#606060;stroke-width:4.32"/>
	<text x="1741.64" y="1966.12" style="font-family:'Helvetica';font-size:59.94px;fill:#606060" text-anchor="end">20</text>
	<line x1="1786.59" y1="1573.85" x2="1756.62" y2="1573.85" style="stroke:#606060;stroke-width:4.32"/>
	<text x="1741.64" y="1594.87" style="font-family:'Helvetica';font-size:59.94px;fill:#606060" text-anchor="end">40</text>
	<line x1="1786.59" y1="1202.60" x2="1756.62" y2="1202.60" style="stroke:#606060;stroke-width:4.32"/>
	<text x="1741.64" y="1223.61" style="font-family:'Helvetica';font-size:59.94px;fill:#606060" text-anchor="end">60</text>
	<line x1="1786.59" y1="831.34" x2="1756.62" y2="831.34" style="stroke:#606060;stroke-width:4.32"/>
	<text x="1741.64" y="852.36" style="font-family:'Helvetica';font-size:59.94px;fill:#606060" text-anchor="end">80</text>
	<line x1="1786.59" y1="460.09" x2="1756.62" y2="460.09" style="stroke:#606060;stroke-width:4.32"/>
	<text x="1741.64" y="481.10" style="font-family:'Helvetica';font-size:59.94px;fill:#606060" text-anchor="end">100</text>
	<line x1="1786.59" y1="2316.37" x2="1786.59" y2="460.09" style="stroke:#000000;stroke-width:4.32"/>
	<text x="1593.58" y="1350.43" style="font-family:'Helvetica';font-size:59.94px;fill:#000000" transform="rotate(-90 1593.58,1350.43)" text-anchor="middle">Percentage</text>
	<text x="1913.17" y="2346.34" style="font-family:'Helvetica';font-size:59.94px;fill:#606060" transform="rotate(-90 1913.17,2346.34)" text-anchor="end">Nordman</text>
	<text x="1984.59" y="2346.34" style="font-family:'Helvetica';font-size:59.94px;fill:#606060" transform="rotate(-90 1984.59,2346.34)" text-anchor="end">Guérin</text>
	<text x="2056.00" y="2346.34" style="font-family:'Helvetica';font-size:59.94px;fill:#606060" transform="rotate(-90 2056.00,2346.34)" text-anchor="end">Natal</text>
	<text x="2127.42" y="2346.34" style="font-family:'Helvetica';font-size:59.94px;fill:#606060" transform="rotate(-90 2127.42,2346.34)" text-anchor="end">Venkat</text>
	<text x="2198.83" y="2346.34" style="font-family:'Helvetica';font-size:59.94px;fill:#606060" transform="rotate(-90 2198.83,2346.34)" text-anchor="end">Michiels</text>
	<text x="2270.25" y="2346.34" style="font-family:'Helvetica';font-size:59.94px;fill:#606060" transform="rotate(-90 2270.25,2346.34)" text-anchor="end">Mouchel</text>
	<text x="2341.66" y="2346.34" style="font-family:'Helvetica';font-size:59.94px;fill:#606060" transform="rotate(-90 2341.66,2346.34)" text-anchor="end">DiSantolo</text>
	<text x="2413.08" y="2346.34" style="font-family:'Helvetica';font-size:59.94px;fill:#606060" transform="rotate(-90 2413.08,2346.34)" text-anchor="end">Reboul</text>
	<text x="2484.49" y="2346.34" style="font-family:'Helvetica';font-size:59.94px;fill:#606060" transform="rotate(-90 2484.49,2346.34)" text-anchor="end">Hilger</text>
	<text x="2555.91" y="2346.34" style="font-family:'Helvetica';font-size:59.94px;fill:#606060" transform="rotate(-90 2555.91,2346.34)" text-anchor="end">Kumar</text>
	<text x="2627.32" y="2346.34" style="font-family:'Helvetica';font-size:59.94px;fill:#606060" transform="rotate(-90 2627.32,2346.34)" text-anchor="end">Lanos</text>
	<text x="2698.74" y="2346.34" style="font-family:'Helvetica';font-size:59.94px;fill:#606060" transform="rotate(-90 2698.74,2346.34)" text-anchor="end">Seetahul</text>
	<text x="2284.88" y="348.94" style="font-family:'Helvetica';font-size:75.06px;fill:#000000" text-anchor="middle">NEEMSIS-1 (N=19)</text>
	<rect x="2858.90" y="207.90" width="1397.66" height="2514.14" style="fill:#FFFFFF"/>
	<rect x="2861.05" y="210.06" width="1393.34" height="2509.82" style="fill:none;stroke:#FFFFFF;stroke-width:4.32"/>
	<rect x="3184.38" y="384.49" width="996.57" height="1931.88" style="fill:#E0E0E0"/>
	<rect x="3186.54" y="386.65" width="992.25" height="1927.56" style="fill:none;stroke:#FFFFFF;stroke-width:4.32"/>
	<line x1="3184.38" y1="2316.37" x2="4180.95" y2="2316.37" style="stroke:#FFFFFF;stroke-width:4.32"/>
	<line x1="3184.38" y1="1945.11" x2="4180.95" y2="1945.11" style="stroke:#FFFFFF;stroke-width:4.32"/>
	<line x1="3184.38" y1="1573.85" x2="4180.95" y2="1573.85" style="stroke:#FFFFFF;stroke-width:4.32"/>
	<line x1="3184.38" y1="1202.60" x2="4180.95" y2="1202.60" style="stroke:#FFFFFF;stroke-width:4.32"/>
	<line x1="3184.38" y1="831.34" x2="4180.95" y2="831.34" style="stroke:#FFFFFF;stroke-width:4.32"/>
	<rect x="3271.45" y="1078.80" width="57.24" height="1237.56" style="fill:#808080"/>
	<rect x="3273.61" y="1080.96" width="52.92" height="1233.24" style="fill:none;stroke:#000000;stroke-width:4.32"/>
	<rect x="3367.03" y="1181.94" width="57.38" height="1134.42" style="fill:#808080"/>
	<rect x="3369.19" y="1184.10" width="53.06" height="1130.10" style="fill:none;stroke:#000000;stroke-width:4.32"/>
	<rect x="3462.75" y="1697.52" width="57.24" height="618.85" style="fill:#808080"/>
	<rect x="3464.91" y="1699.68" width="52.92" height="614.53" style="fill:none;stroke:#000000;stroke-width:4.32"/>
	<rect x="3558.33" y="1697.52" width="57.38" height="618.85" style="fill:#808080"/>
	<rect x="3560.49" y="1699.68" width="53.06" height="614.53" style="fill:none;stroke:#000000;stroke-width:4.32"/>
	<rect x="3654.05" y="1800.66" width="57.24" height="515.71" style="fill:#808080"/>
	<rect x="3656.20" y="1802.82" width="52.92" height="511.39" style="fill:none;stroke:#000000;stroke-width:4.32"/>
	<rect x="3749.63" y="2006.94" width="57.38" height="309.42" style="fill:#808080"/>
	<rect x="3751.78" y="2009.10" width="53.06" height="305.10" style="fill:none;stroke:#000000;stroke-width:4.32"/>
	<rect x="3845.34" y="2110.08" width="57.24" height="206.28" style="fill:#808080"/>
	<rect x="3847.50" y="2112.24" width="52.92" height="201.96" style="fill:none;stroke:#000000;stroke-width:4.32"/>
	<rect x="3941.05" y="2213.22" width="57.24" height="103.14" style="fill:#808080"/>
	<rect x="3943.21" y="2215.38" width="52.92" height="98.82" style="fill:none;stroke:#000000;stroke-width:4.32"/>
	<rect x="4036.64" y="2213.22" width="57.24" height="103.14" style="fill:#808080"/>
	<rect x="4038.79" y="2215.38" width="52.92" height="98.82" style="fill:none;stroke:#000000;stroke-width:4.32"/>
	<line x1="3184.38" y1="2316.37" x2="3154.41" y2="2316.37" style="stroke:#606060;stroke-width:4.32"/>
	<text x="3139.43" y="2337.38" style="font-family:'Helvetica';font-size:59.94px;fill:#606060" text-anchor="end">0</text>
	<line x1="3184.38" y1="1945.11" x2="3154.41" y2="1945.11" style="stroke:#606060;stroke-width:4.32"/>
	<text x="3139.43" y="1966.12" style="font-family:'Helvetica';font-size:59.94px;fill:#606060" text-anchor="end">20</text>
	<line x1="3184.38" y1="1573.85" x2="3154.41" y2="1573.85" style="stroke:#606060;stroke-width:4.32"/>
	<text x="3139.43" y="1594.87" style="font-family:'Helvetica';font-size:59.94px;fill:#606060" text-anchor="end">40</text>
	<line x1="3184.38" y1="1202.60" x2="3154.41" y2="1202.60" style="stroke:#606060;stroke-width:4.32"/>
	<text x="3139.43" y="1223.61" style="font-family:'Helvetica';font-size:59.94px;fill:#606060" text-anchor="end">60</text>
	<line x1="3184.38" y1="831.34" x2="3154.41" y2="831.34" style="stroke:#606060;stroke-width:4.32"/>
	<text x="3139.43" y="852.36" style="font-family:'Helvetica';font-size:59.94px;fill:#606060" text-anchor="end">80</text>
	<line x1="3184.38" y1="460.09" x2="3154.41" y2="460.09" style="stroke:#606060;stroke-width:4.32"/>
	<text x="3139.43" y="481.10" style="font-family:'Helvetica';font-size:59.94px;fill:#606060" text-anchor="end">100</text>
	<line x1="3184.38" y1="2316.37" x2="3184.38" y2="460.09" style="stroke:#000000;stroke-width:4.32"/>
	<text x="2991.37" y="1350.43" style="font-family:'Helvetica';font-size:59.94px;fill:#000000" transform="rotate(-90 2991.37,1350.43)" text-anchor="middle">Percentage</text>
	<text x="3321.09" y="2346.34" style="font-family:'Helvetica';font-size:59.94px;fill:#606060" transform="rotate(-90 3321.09,2346.34)" text-anchor="end">Nordman</text>
	<text x="3416.67" y="2346.34" style="font-family:'Helvetica';font-size:59.94px;fill:#606060" transform="rotate(-90 3416.67,2346.34)" text-anchor="end">Natal</text>
	<text x="3512.38" y="2346.34" style="font-family:'Helvetica';font-size:59.94px;fill:#606060" transform="rotate(-90 3512.38,2346.34)" text-anchor="end">Guérin</text>
	<text x="3608.10" y="2346.34" style="font-family:'Helvetica';font-size:59.94px;fill:#606060" transform="rotate(-90 3608.10,2346.34)" text-anchor="end">Mouchel</text>
	<text x="3703.68" y="2346.34" style="font-family:'Helvetica';font-size:59.94px;fill:#606060" transform="rotate(-90 3703.68,2346.34)" text-anchor="end">Venkat</text>
	<text x="3799.39" y="2346.34" style="font-family:'Helvetica';font-size:59.94px;fill:#606060" transform="rotate(-90 3799.39,2346.34)" text-anchor="end">DiSantolo</text>
	<text x="3894.97" y="2346.34" style="font-family:'Helvetica';font-size:59.94px;fill:#606060" transform="rotate(-90 3894.97,2346.34)" text-anchor="end">Michiels</text>
	<text x="3990.69" y="2346.34" style="font-family:'Helvetica';font-size:59.94px;fill:#606060" transform="rotate(-90 3990.69,2346.34)" text-anchor="end">Girollet</text>
	<text x="4086.27" y="2346.34" style="font-family:'Helvetica';font-size:59.94px;fill:#606060" transform="rotate(-90 4086.27,2346.34)" text-anchor="end">Kumar</text>
	<text x="3682.67" y="348.94" style="font-family:'Helvetica';font-size:75.06px;fill:#000000" text-anchor="middle">NEEMSIS-2 (N=18)</text>
	<text x="80.59" y="2781.35" style="fill:#000000">
		<tspan style="font-family:'Helvetica';font-style:italic;font-size:59.94px">Source:</tspan>
		<tspan style="font-family:'Helvetica';font-size:59.94px"> A. Natal. Updated in October 2025.</tspan>
	</text>
	<text x="2160.00" y="157.55" style="font-family:'Helvetica';font-size:110.03px;fill:#000000" text-anchor="middle">Authors by wave for research papers</text>
</svg>
