<?xml version="1.0" encoding="UTF-8" standalone="no"?>
<!-- This is a Stata 15.1 generated SVG file (http://www.stata.com) -->

<svg version="1.1" width="5.50in" height="4.00in" viewBox="0 0 3960 2880" xmlns="http://www.w3.org/2000/svg" xmlns:xlink="http://www.w3.org/1999/xlink">
	<desc>Stata Graph - authors</desc>
	<rect x="0" y="0" width="3960" height="2880" style="fill:#FFFFFF;stroke:none"/>
	<rect x="0.00" y="0.00" width="3959.88" height="2880.00" style="fill:#FFFFFF"/>
	<rect x="2.88" y="2.88" width="3954.12" height="2874.24" style="fill:none;stroke:#FFFFFF;stroke-width:5.76"/>
	<rect x="63.36" y="207.91" width="1277.72" height="2514.18" style="fill:#FFFFFF"/>
	<rect x="65.52" y="210.07" width="1273.40" height="2509.86" style="fill:none;stroke:#FFFFFF;stroke-width:4.32"/>
	<rect x="328.61" y="386.54" width="934.70" height="1913.62" style="fill:none;stroke:#000000;stroke-width:4.32"/>
	<line x1="326.45" y1="2302.32" x2="1265.47" y2="2302.32" style="stroke:#E0E0E0;stroke-width:6.48"/>
	<line x1="326.45" y1="1933.90" x2="1265.47" y2="1933.90" style="stroke:#E0E0E0;stroke-width:6.48"/>
	<line x1="326.45" y1="1565.36" x2="1265.47" y2="1565.36" style="stroke:#E0E0E0;stroke-width:6.48"/>
	<line x1="326.45" y1="1196.95" x2="1265.47" y2="1196.95" style="stroke:#E0E0E0;stroke-width:6.48"/>
	<line x1="326.45" y1="828.53" x2="1265.47" y2="828.53" style="stroke:#E0E0E0;stroke-width:6.48"/>
	<rect x="409.98" y="986.44" width="39.85" height="1315.87" style="fill:#606060"/>
	<rect x="412.14" y="988.60" width="35.53" height="1311.56" style="fill:none;stroke:#606060;stroke-width:4.32"/>
	<rect x="476.56" y="986.44" width="39.85" height="1315.87" style="fill:#606060"/>
	<rect x="478.72" y="988.60" width="35.53" height="1311.56" style="fill:none;stroke:#606060;stroke-width:4.32"/>
	<rect x="543.14" y="1381.22" width="39.85" height="921.10" style="fill:#606060"/>
	<rect x="545.30" y="1383.38" width="35.53" height="916.78" style="fill:none;stroke:#606060;stroke-width:4.32"/>
	<rect x="609.59" y="1381.22" width="39.85" height="921.10" style="fill:#606060"/>
	<rect x="611.75" y="1383.38" width="35.53" height="916.78" style="fill:none;stroke:#606060;stroke-width:4.32"/>
	<rect x="676.17" y="1775.99" width="39.85" height="526.33" style="fill:#606060"/>
	<rect x="678.33" y="1778.15" width="35.53" height="522.01" style="fill:none;stroke:#606060;stroke-width:4.32"/>
	<rect x="742.75" y="1907.54" width="39.85" height="394.77" style="fill:#606060"/>
	<rect x="744.91" y="1909.70" width="35.53" height="390.45" style="fill:none;stroke:#606060;stroke-width:4.32"/>
	<rect x="809.33" y="2039.09" width="39.85" height="263.22" style="fill:#606060"/>
	<rect x="811.48" y="2041.25" width="35.53" height="258.90" style="fill:none;stroke:#606060;stroke-width:4.32"/>
	<rect x="875.90" y="2039.09" width="39.85" height="263.22" style="fill:#606060"/>
	<rect x="878.06" y="2041.25" width="35.53" height="258.90" style="fill:none;stroke:#606060;stroke-width:4.32"/>
	<rect x="942.36" y="2170.77" width="39.85" height="131.55" style="fill:#606060"/>
	<rect x="944.52" y="2172.93" width="35.53" height="127.23" style="fill:none;stroke:#606060;stroke-width:4.32"/>
	<rect x="1008.93" y="2170.77" width="39.85" height="131.55" style="fill:#606060"/>
	<rect x="1011.09" y="2172.93" width="35.53" height="127.23" style="fill:none;stroke:#606060;stroke-width:4.32"/>
	<rect x="1075.51" y="2170.77" width="39.85" height="131.55" style="fill:#606060"/>
	<rect x="1077.67" y="2172.93" width="35.53" height="127.23" style="fill:none;stroke:#606060;stroke-width:4.32"/>
	<rect x="1142.09" y="2170.77" width="39.85" height="131.55" style="fill:#606060"/>
	<rect x="1144.25" y="2172.93" width="35.53" height="127.23" style="fill:none;stroke:#606060;stroke-width:4.32"/>
	<line x1="326.45" y1="2302.32" x2="326.45" y2="384.38" style="stroke:#000000;stroke-width:4.32"/>
	<line x1="326.45" y1="2302.32" x2="296.38" y2="2302.32" style="stroke:#000000;stroke-width:4.32"/>
	<text x="263.34" y="2302.32" style="font-family:'Helvetica';font-size:60.02px;fill:#000000" transform="rotate(-90 263.34,2302.32)" text-anchor="middle">0</text>
	<line x1="326.45" y1="1933.90" x2="296.38" y2="1933.90" style="stroke:#000000;stroke-width:4.32"/>
	<text x="263.34" y="1933.90" style="font-family:'Helvetica';font-size:60.02px;fill:#000000" transform="rotate(-90 263.34,1933.90)" text-anchor="middle">20</text>
	<line x1="326.45" y1="1565.36" x2="296.38" y2="1565.36" style="stroke:#000000;stroke-width:4.32"/>
	<text x="263.34" y="1565.36" style="font-family:'Helvetica';font-size:60.02px;fill:#000000" transform="rotate(-90 263.34,1565.36)" text-anchor="middle">40</text>
	<line x1="326.45" y1="1196.95" x2="296.38" y2="1196.95" style="stroke:#000000;stroke-width:4.32"/>
	<text x="263.34" y="1196.95" style="font-family:'Helvetica';font-size:60.02px;fill:#000000" transform="rotate(-90 263.34,1196.95)" text-anchor="middle">60</text>
	<line x1="326.45" y1="828.53" x2="296.38" y2="828.53" style="stroke:#000000;stroke-width:4.32"/>
	<text x="263.34" y="828.53" style="font-family:'Helvetica';font-size:60.02px;fill:#000000" transform="rotate(-90 263.34,828.53)" text-anchor="middle">80</text>
	<line x1="326.45" y1="459.99" x2="296.38" y2="459.99" style="stroke:#000000;stroke-width:4.32"/>
	<text x="263.34" y="459.99" style="font-family:'Helvetica';font-size:60.02px;fill:#000000" transform="rotate(-90 263.34,459.99)" text-anchor="middle">100</text>
	<text x="195.90" y="1343.35" style="font-family:'Helvetica';font-size:60.02px;fill:#000000" transform="rotate(-90 195.90,1343.35)" text-anchor="middle">Percentage</text>
	<line x1="326.45" y1="2302.32" x2="1265.47" y2="2302.32" style="stroke:#000000;stroke-width:4.32"/>
	<text x="450.95" y="2332.27" style="font-family:'Helvetica';font-size:60.02px;fill:#000000" transform="rotate(-90 450.95,2332.27)" text-anchor="end">Guérin</text>
	<text x="517.52" y="2332.27" style="font-family:'Helvetica';font-size:60.02px;fill:#000000" transform="rotate(-90 517.52,2332.27)" text-anchor="end">Venkat</text>
	<text x="584.10" y="2332.27" style="font-family:'Helvetica';font-size:60.02px;fill:#000000" transform="rotate(-90 584.10,2332.27)" text-anchor="end">Natal</text>
	<text x="650.55" y="2332.27" style="font-family:'Helvetica';font-size:60.02px;fill:#000000" transform="rotate(-90 650.55,2332.27)" text-anchor="end">Nordman</text>
	<text x="717.13" y="2332.27" style="font-family:'Helvetica';font-size:60.02px;fill:#000000" transform="rotate(-90 717.13,2332.27)" text-anchor="end">Michiels</text>
	<text x="783.71" y="2332.27" style="font-family:'Helvetica';font-size:60.02px;fill:#000000" transform="rotate(-90 783.71,2332.27)" text-anchor="end">DEspallier</text>
	<text x="850.29" y="2332.27" style="font-family:'Helvetica';font-size:60.02px;fill:#000000" transform="rotate(-90 850.29,2332.27)" text-anchor="end">DiSantolo</text>
	<text x="916.86" y="2332.27" style="font-family:'Helvetica';font-size:60.02px;fill:#000000" transform="rotate(-90 916.86,2332.27)" text-anchor="end">Mouchel</text>
	<text x="983.32" y="2332.27" style="font-family:'Helvetica';font-size:60.02px;fill:#000000" transform="rotate(-90 983.32,2332.27)" text-anchor="end">Goedecke</text>
	<text x="1049.90" y="2332.27" style="font-family:'Helvetica';font-size:60.02px;fill:#000000" transform="rotate(-90 1049.90,2332.27)" text-anchor="end">Kumar</text>
	<text x="1116.47" y="2332.27" style="font-family:'Helvetica';font-size:60.02px;fill:#000000" transform="rotate(-90 1116.47,2332.27)" text-anchor="end">Reboul</text>
	<text x="1183.05" y="2332.27" style="font-family:'Helvetica';font-size:60.02px;fill:#000000" transform="rotate(-90 1183.05,2332.27)" text-anchor="end">Roesch</text>
	<text x="795.96" y="348.95" style="font-family:'Helvetica';font-size:74.99px;fill:#000000" text-anchor="middle">RUME (N=14)</text>
	<rect x="1341.08" y="207.91" width="1277.72" height="2514.18" style="fill:#FFFFFF"/>
	<rect x="1343.24" y="210.07" width="1273.40" height="2509.86" style="fill:none;stroke:#FFFFFF;stroke-width:4.32"/>
	<rect x="1606.33" y="386.54" width="934.70" height="1927.60" style="fill:none;stroke:#000000;stroke-width:4.32"/>
	<line x1="1604.17" y1="2316.30" x2="2543.19" y2="2316.30" style="stroke:#E0E0E0;stroke-width:6.48"/>
	<line x1="1604.17" y1="1945.04" x2="2543.19" y2="1945.04" style="stroke:#E0E0E0;stroke-width:6.48"/>
	<line x1="1604.17" y1="1573.78" x2="2543.19" y2="1573.78" style="stroke:#E0E0E0;stroke-width:6.48"/>
	<line x1="1604.17" y1="1202.52" x2="2543.19" y2="1202.52" style="stroke:#E0E0E0;stroke-width:6.48"/>
	<line x1="1604.17" y1="831.25" x2="2543.19" y2="831.25" style="stroke:#E0E0E0;stroke-width:6.48"/>
	<rect x="1687.70" y="753.17" width="39.85" height="1563.14" style="fill:#606060"/>
	<rect x="1689.86" y="755.33" width="35.53" height="1558.82" style="fill:none;stroke:#606060;stroke-width:4.32"/>
	<rect x="1754.28" y="1339.39" width="39.85" height="976.91" style="fill:#606060"/>
	<rect x="1756.44" y="1341.55" width="35.53" height="972.59" style="fill:none;stroke:#606060;stroke-width:4.32"/>
	<rect x="1820.86" y="1339.39" width="39.85" height="976.91" style="fill:#606060"/>
	<rect x="1823.02" y="1341.55" width="35.53" height="972.59" style="fill:none;stroke:#606060;stroke-width:4.32"/>
	<rect x="1887.31" y="1534.67" width="39.85" height="781.63" style="fill:#606060"/>
	<rect x="1889.47" y="1536.83" width="35.53" height="777.31" style="fill:none;stroke:#606060;stroke-width:4.32"/>
	<rect x="1953.89" y="1730.08" width="39.85" height="586.22" style="fill:#606060"/>
	<rect x="1956.05" y="1732.24" width="35.53" height="581.90" style="fill:none;stroke:#606060;stroke-width:4.32"/>
	<rect x="2020.47" y="1925.49" width="39.85" height="390.81" style="fill:#606060"/>
	<rect x="2022.63" y="1927.65" width="35.53" height="386.49" style="fill:none;stroke:#606060;stroke-width:4.32"/>
	<rect x="2087.04" y="2120.89" width="39.85" height="195.41" style="fill:#606060"/>
	<rect x="2089.20" y="2123.05" width="35.53" height="191.09" style="fill:none;stroke:#606060;stroke-width:4.32"/>
	<rect x="2153.62" y="2120.89" width="39.85" height="195.41" style="fill:#606060"/>
	<rect x="2155.78" y="2123.05" width="35.53" height="191.09" style="fill:none;stroke:#606060;stroke-width:4.32"/>
	<rect x="2220.07" y="2218.66" width="39.85" height="97.64" style="fill:#606060"/>
	<rect x="2222.23" y="2220.82" width="35.53" height="93.32" style="fill:none;stroke:#606060;stroke-width:4.32"/>
	<rect x="2286.65" y="2218.66" width="39.85" height="97.64" style="fill:#606060"/>
	<rect x="2288.81" y="2220.82" width="35.53" height="93.32" style="fill:none;stroke:#606060;stroke-width:4.32"/>
	<rect x="2353.23" y="2218.66" width="39.85" height="97.64" style="fill:#606060"/>
	<rect x="2355.39" y="2220.82" width="35.53" height="93.32" style="fill:none;stroke:#606060;stroke-width:4.32"/>
	<rect x="2419.81" y="2218.66" width="39.85" height="97.64" style="fill:#606060"/>
	<rect x="2421.97" y="2220.82" width="35.53" height="93.32" style="fill:none;stroke:#606060;stroke-width:4.32"/>
	<line x1="1604.17" y1="2316.30" x2="1604.17" y2="384.38" style="stroke:#000000;stroke-width:4.32"/>
	<line x1="1604.17" y1="2316.30" x2="1574.10" y2="2316.30" style="stroke:#000000;stroke-width:4.32"/>
	<text x="1541.06" y="2316.30" style="font-family:'Helvetica';font-size:60.02px;fill:#000000" transform="rotate(-90 1541.06,2316.30)" text-anchor="middle">0</text>
	<line x1="1604.17" y1="1945.04" x2="1574.10" y2="1945.04" style="stroke:#000000;stroke-width:4.32"/>
	<text x="1541.06" y="1945.04" style="font-family:'Helvetica';font-size:60.02px;fill:#000000" transform="rotate(-90 1541.06,1945.04)" text-anchor="middle">20</text>
	<line x1="1604.17" y1="1573.78" x2="1574.10" y2="1573.78" style="stroke:#000000;stroke-width:4.32"/>
	<text x="1541.06" y="1573.78" style="font-family:'Helvetica';font-size:60.02px;fill:#000000" transform="rotate(-90 1541.06,1573.78)" text-anchor="middle">40</text>
	<line x1="1604.17" y1="1202.52" x2="1574.10" y2="1202.52" style="stroke:#000000;stroke-width:4.32"/>
	<text x="1541.06" y="1202.52" style="font-family:'Helvetica';font-size:60.02px;fill:#000000" transform="rotate(-90 1541.06,1202.52)" text-anchor="middle">60</text>
	<line x1="1604.17" y1="831.25" x2="1574.10" y2="831.25" style="stroke:#000000;stroke-width:4.32"/>
	<text x="1541.06" y="831.25" style="font-family:'Helvetica';font-size:60.02px;fill:#000000" transform="rotate(-90 1541.06,831.25)" text-anchor="middle">80</text>
	<line x1="1604.17" y1="459.99" x2="1574.10" y2="459.99" style="stroke:#000000;stroke-width:4.32"/>
	<text x="1541.06" y="459.99" style="font-family:'Helvetica';font-size:60.02px;fill:#000000" transform="rotate(-90 1541.06,459.99)" text-anchor="middle">100</text>
	<text x="1473.61" y="1350.40" style="font-family:'Helvetica';font-size:60.02px;fill:#000000" transform="rotate(-90 1473.61,1350.40)" text-anchor="middle">Percentage</text>
	<line x1="1604.17" y1="2316.30" x2="2543.19" y2="2316.30" style="stroke:#000000;stroke-width:4.32"/>
	<text x="1728.66" y="2346.37" style="font-family:'Helvetica';font-size:60.02px;fill:#000000" transform="rotate(-90 1728.66,2346.37)" text-anchor="end">Nordman</text>
	<text x="1795.24" y="2346.37" style="font-family:'Helvetica';font-size:60.02px;fill:#000000" transform="rotate(-90 1795.24,2346.37)" text-anchor="end">Guérin</text>
	<text x="1861.82" y="2346.37" style="font-family:'Helvetica';font-size:60.02px;fill:#000000" transform="rotate(-90 1861.82,2346.37)" text-anchor="end">Natal</text>
	<text x="1928.27" y="2346.37" style="font-family:'Helvetica';font-size:60.02px;fill:#000000" transform="rotate(-90 1928.27,2346.37)" text-anchor="end">Venkat</text>
	<text x="1994.85" y="2346.37" style="font-family:'Helvetica';font-size:60.02px;fill:#000000" transform="rotate(-90 1994.85,2346.37)" text-anchor="end">Michiels</text>
	<text x="2061.43" y="2346.37" style="font-family:'Helvetica';font-size:60.02px;fill:#000000" transform="rotate(-90 2061.43,2346.37)" text-anchor="end">Mouchel</text>
	<text x="2128.01" y="2346.37" style="font-family:'Helvetica';font-size:60.02px;fill:#000000" transform="rotate(-90 2128.01,2346.37)" text-anchor="end">DiSantolo</text>
	<text x="2194.58" y="2346.37" style="font-family:'Helvetica';font-size:60.02px;fill:#000000" transform="rotate(-90 2194.58,2346.37)" text-anchor="end">Reboul</text>
	<text x="2261.04" y="2346.37" style="font-family:'Helvetica';font-size:60.02px;fill:#000000" transform="rotate(-90 2261.04,2346.37)" text-anchor="end">Hilger</text>
	<text x="2327.61" y="2346.37" style="font-family:'Helvetica';font-size:60.02px;fill:#000000" transform="rotate(-90 2327.61,2346.37)" text-anchor="end">Kumar</text>
	<text x="2394.19" y="2346.37" style="font-family:'Helvetica';font-size:60.02px;fill:#000000" transform="rotate(-90 2394.19,2346.37)" text-anchor="end">Lanos</text>
	<text x="2460.77" y="2346.37" style="font-family:'Helvetica';font-size:60.02px;fill:#000000" transform="rotate(-90 2460.77,2346.37)" text-anchor="end">Seetahul</text>
	<text x="2073.68" y="348.95" style="font-family:'Helvetica';font-size:74.99px;fill:#000000" text-anchor="middle">NEEMSIS-1 (N=19)</text>
	<rect x="2618.80" y="207.91" width="1277.72" height="2514.18" style="fill:#FFFFFF"/>
	<rect x="2620.96" y="210.07" width="1273.40" height="2509.86" style="fill:none;stroke:#FFFFFF;stroke-width:4.32"/>
	<rect x="2884.05" y="386.54" width="934.70" height="1927.60" style="fill:none;stroke:#000000;stroke-width:4.32"/>
	<line x1="2881.89" y1="2316.30" x2="3820.91" y2="2316.30" style="stroke:#E0E0E0;stroke-width:6.48"/>
	<line x1="2881.89" y1="1945.04" x2="3820.91" y2="1945.04" style="stroke:#E0E0E0;stroke-width:6.48"/>
	<line x1="2881.89" y1="1573.78" x2="3820.91" y2="1573.78" style="stroke:#E0E0E0;stroke-width:6.48"/>
	<line x1="2881.89" y1="1202.52" x2="3820.91" y2="1202.52" style="stroke:#E0E0E0;stroke-width:6.48"/>
	<line x1="2881.89" y1="831.25" x2="3820.91" y2="831.25" style="stroke:#E0E0E0;stroke-width:6.48"/>
	<rect x="2968.14" y="1078.76" width="53.34" height="1237.54" style="fill:#606060"/>
	<rect x="2970.30" y="1080.92" width="49.02" height="1233.22" style="fill:none;stroke:#606060;stroke-width:4.32"/>
	<rect x="3057.24" y="1181.97" width="53.46" height="1134.33" style="fill:#606060"/>
	<rect x="3059.40" y="1184.13" width="49.14" height="1130.01" style="fill:none;stroke:#606060;stroke-width:4.32"/>
	<rect x="3146.47" y="1697.53" width="53.34" height="618.77" style="fill:#606060"/>
	<rect x="3148.63" y="1699.69" width="49.02" height="614.45" style="fill:none;stroke:#606060;stroke-width:4.32"/>
	<rect x="3235.57" y="1697.53" width="53.34" height="618.77" style="fill:#606060"/>
	<rect x="3237.73" y="1699.69" width="49.02" height="614.45" style="fill:none;stroke:#606060;stroke-width:4.32"/>
	<rect x="3324.67" y="1800.74" width="53.46" height="515.56" style="fill:#606060"/>
	<rect x="3326.83" y="1802.90" width="49.14" height="511.24" style="fill:none;stroke:#606060;stroke-width:4.32"/>
	<rect x="3413.89" y="2006.92" width="53.34" height="309.38" style="fill:#606060"/>
	<rect x="3416.05" y="2009.08" width="49.02" height="305.06" style="fill:none;stroke:#606060;stroke-width:4.32"/>
	<rect x="3502.99" y="2110.00" width="53.34" height="206.30" style="fill:#606060"/>
	<rect x="3505.15" y="2112.16" width="49.02" height="201.98" style="fill:none;stroke:#606060;stroke-width:4.32"/>
	<rect x="3592.09" y="2213.21" width="53.46" height="103.09" style="fill:#606060"/>
	<rect x="3594.25" y="2215.37" width="49.14" height="98.77" style="fill:none;stroke:#606060;stroke-width:4.32"/>
	<rect x="3681.32" y="2213.21" width="53.34" height="103.09" style="fill:#606060"/>
	<rect x="3683.47" y="2215.37" width="49.02" height="98.77" style="fill:none;stroke:#606060;stroke-width:4.32"/>
	<line x1="2881.89" y1="2316.30" x2="2881.89" y2="384.38" style="stroke:#000000;stroke-width:4.32"/>
	<line x1="2881.89" y1="2316.30" x2="2851.82" y2="2316.30" style="stroke:#000000;stroke-width:4.32"/>
	<text x="2818.78" y="2316.30" style="font-family:'Helvetica';font-size:60.02px;fill:#000000" transform="rotate(-90 2818.78,2316.30)" text-anchor="middle">0</text>
	<line x1="2881.89" y1="1945.04" x2="2851.82" y2="1945.04" style="stroke:#000000;stroke-width:4.32"/>
	<text x="2818.78" y="1945.04" style="font-family:'Helvetica';font-size:60.02px;fill:#000000" transform="rotate(-90 2818.78,1945.04)" text-anchor="middle">20</text>
	<line x1="2881.89" y1="1573.78" x2="2851.82" y2="1573.78" style="stroke:#000000;stroke-width:4.32"/>
	<text x="2818.78" y="1573.78" style="font-family:'Helvetica';font-size:60.02px;fill:#000000" transform="rotate(-90 2818.78,1573.78)" text-anchor="middle">40</text>
	<line x1="2881.89" y1="1202.52" x2="2851.82" y2="1202.52" style="stroke:#000000;stroke-width:4.32"/>
	<text x="2818.78" y="1202.52" style="font-family:'Helvetica';font-size:60.02px;fill:#000000" transform="rotate(-90 2818.78,1202.52)" text-anchor="middle">60</text>
	<line x1="2881.89" y1="831.25" x2="2851.82" y2="831.25" style="stroke:#000000;stroke-width:4.32"/>
	<text x="2818.78" y="831.25" style="font-family:'Helvetica';font-size:60.02px;fill:#000000" transform="rotate(-90 2818.78,831.25)" text-anchor="middle">80</text>
	<line x1="2881.89" y1="459.99" x2="2851.82" y2="459.99" style="stroke:#000000;stroke-width:4.32"/>
	<text x="2818.78" y="459.99" style="font-family:'Helvetica';font-size:60.02px;fill:#000000" transform="rotate(-90 2818.78,459.99)" text-anchor="middle">100</text>
	<text x="2751.33" y="1350.40" style="font-family:'Helvetica';font-size:60.02px;fill:#000000" transform="rotate(-90 2751.33,1350.40)" text-anchor="middle">Percentage</text>
	<line x1="2881.89" y1="2316.30" x2="3820.91" y2="2316.30" style="stroke:#000000;stroke-width:4.32"/>
	<text x="3015.91" y="2346.37" style="font-family:'Helvetica';font-size:60.02px;fill:#000000" transform="rotate(-90 3015.91,2346.37)" text-anchor="end">Nordman</text>
	<text x="3105.01" y="2346.37" style="font-family:'Helvetica';font-size:60.02px;fill:#000000" transform="rotate(-90 3105.01,2346.37)" text-anchor="end">Natal</text>
	<text x="3194.11" y="2346.37" style="font-family:'Helvetica';font-size:60.02px;fill:#000000" transform="rotate(-90 3194.11,2346.37)" text-anchor="end">Guérin</text>
	<text x="3283.34" y="2346.37" style="font-family:'Helvetica';font-size:60.02px;fill:#000000" transform="rotate(-90 3283.34,2346.37)" text-anchor="end">Mouchel</text>
	<text x="3372.43" y="2346.37" style="font-family:'Helvetica';font-size:60.02px;fill:#000000" transform="rotate(-90 3372.43,2346.37)" text-anchor="end">Venkat</text>
	<text x="3461.53" y="2346.37" style="font-family:'Helvetica';font-size:60.02px;fill:#000000" transform="rotate(-90 3461.53,2346.37)" text-anchor="end">DiSantolo</text>
	<text x="3550.76" y="2346.37" style="font-family:'Helvetica';font-size:60.02px;fill:#000000" transform="rotate(-90 3550.76,2346.37)" text-anchor="end">Michiels</text>
	<text x="3639.86" y="2346.37" style="font-family:'Helvetica';font-size:60.02px;fill:#000000" transform="rotate(-90 3639.86,2346.37)" text-anchor="end">Girollet</text>
	<text x="3728.96" y="2346.37" style="font-family:'Helvetica';font-size:60.02px;fill:#000000" transform="rotate(-90 3728.96,2346.37)" text-anchor="end">Kumar</text>
	<text x="3351.40" y="348.95" style="font-family:'Helvetica';font-size:74.99px;fill:#000000" text-anchor="middle">NEEMSIS-2 (N=18)</text>
	<text x="80.69" y="2781.24" style="fill:#000000">
		<tspan style="font-family:'Helvetica';font-style:italic;font-size:60.02px">Source:</tspan>
		<tspan style="font-family:'Helvetica';font-size:60.02px"> A. Natal. Updated in October 2025.</tspan>
	</text>
	<text x="1980.00" y="157.51" style="font-family:'Helvetica';font-size:110.01px;fill:#000000" text-anchor="middle">Authors by wave for research papers</text>
</svg>
