<?xml version="1.0" encoding="UTF-8" standalone="no"?>
<!-- This is a Stata 15.1 generated SVG file (http://www.stata.com) -->

<svg version="1.1" width="6.00in" height="4.00in" viewBox="0 0 4320 2880" xmlns="http://www.w3.org/2000/svg" xmlns:xlink="http://www.w3.org/1999/xlink">
	<desc>Stata Graph - all</desc>
	<rect x="0" y="0" width="4320" height="2880" style="fill:#FFFFFF;stroke:none"/>
	<rect x="0.00" y="0.00" width="4320.00" height="2880.00" style="fill:#FFFFFF"/>
	<rect x="2.88" y="2.88" width="4314.24" height="2874.24" style="fill:none;stroke:#FFFFFF;stroke-width:5.76"/>
	<rect x="63.31" y="207.90" width="4193.24" height="1257.14" style="fill:#FFFFFF"/>
	<rect x="65.47" y="210.06" width="4188.92" height="1252.82" style="fill:none;stroke:#FFFFFF;stroke-width:4.32"/>
	<rect x="110.83" y="255.42" width="683.10" height="1162.10" style="fill:#FFFFFF"/>
	<rect x="112.33" y="256.92" width="680.10" height="1159.10" style="fill:none;stroke:#FFFFFF;stroke-width:3.00"/>
	<rect x="304.56" y="373.15" width="438.89" height="764.52" style="fill:#E0E0E0"/>
	<rect x="306.06" y="374.65" width="435.89" height="761.52" style="fill:none;stroke:#FFFFFF;stroke-width:3.00"/>
	<line x1="304.56" y1="1137.66" x2="743.45" y2="1137.66" style="stroke:#FFFFFF;stroke-width:3.00"/>
	<line x1="304.56" y1="1035.60" x2="743.45" y2="1035.60" style="stroke:#FFFFFF;stroke-width:3.00"/>
	<line x1="304.56" y1="933.54" x2="743.45" y2="933.54" style="stroke:#FFFFFF;stroke-width:3.00"/>
	<line x1="304.56" y1="831.61" x2="743.45" y2="831.61" style="stroke:#FFFFFF;stroke-width:3.00"/>
	<line x1="304.56" y1="729.55" x2="743.45" y2="729.55" style="stroke:#FFFFFF;stroke-width:3.00"/>
	<line x1="304.56" y1="627.49" x2="743.45" y2="627.49" style="stroke:#FFFFFF;stroke-width:3.00"/>
	<line x1="304.56" y1="525.56" x2="743.45" y2="525.56" style="stroke:#FFFFFF;stroke-width:3.00"/>
	<line x1="304.56" y1="423.50" x2="743.45" y2="423.50" style="stroke:#FFFFFF;stroke-width:3.00"/>
	<rect x="365.58" y="991.86" width="52.65" height="145.80" style="fill:#808080"/>
	<rect x="367.08" y="993.36" width="49.65" height="142.80" style="fill:none;stroke:#000000;stroke-width:3.00"/>
	<rect x="453.60" y="991.86" width="52.78" height="145.80" style="fill:#808080"/>
	<rect x="455.10" y="993.36" width="49.78" height="142.80" style="fill:none;stroke:#000000;stroke-width:3.00"/>
	<rect x="541.76" y="445.37" width="52.65" height="692.29" style="fill:#808080"/>
	<rect x="543.26" y="446.87" width="49.65" height="689.29" style="fill:none;stroke:#000000;stroke-width:3.00"/>
	<rect x="629.77" y="1101.21" width="52.78" height="36.45" style="fill:#808080"/>
	<rect x="631.27" y="1102.71" width="49.78" height="33.45" style="fill:none;stroke:#000000;stroke-width:3.00"/>
	<line x1="304.56" y1="1137.66" x2="284.58" y2="1137.66" style="stroke:#606060;stroke-width:3.00"/>
	<text x="274.59" y="1151.68" style="font-family:'Helvetica';font-size:39.96px;fill:#606060" text-anchor="end">0</text>
	<line x1="304.56" y1="1035.60" x2="284.58" y2="1035.60" style="stroke:#606060;stroke-width:3.00"/>
	<text x="274.59" y="1049.62" style="font-family:'Helvetica';font-size:39.96px;fill:#606060" text-anchor="end">10</text>
	<line x1="304.56" y1="933.54" x2="284.58" y2="933.54" style="stroke:#606060;stroke-width:3.00"/>
	<text x="274.59" y="947.56" style="font-family:'Helvetica';font-size:39.96px;fill:#606060" text-anchor="end">20</text>
	<line x1="304.56" y1="831.61" x2="284.58" y2="831.61" style="stroke:#606060;stroke-width:3.00"/>
	<text x="274.59" y="845.63" style="font-family:'Helvetica';font-size:39.96px;fill:#606060" text-anchor="end">30</text>
	<line x1="304.56" y1="729.55" x2="284.58" y2="729.55" style="stroke:#606060;stroke-width:3.00"/>
	<text x="274.59" y="743.57" style="font-family:'Helvetica';font-size:39.96px;fill:#606060" text-anchor="end">40</text>
	<line x1="304.56" y1="627.49" x2="284.58" y2="627.49" style="stroke:#606060;stroke-width:3.00"/>
	<text x="274.59" y="641.51" style="font-family:'Helvetica';font-size:39.96px;fill:#606060" text-anchor="end">50</text>
	<line x1="304.56" y1="525.56" x2="284.58" y2="525.56" style="stroke:#606060;stroke-width:3.00"/>
	<text x="274.59" y="539.58" style="font-family:'Helvetica';font-size:39.96px;fill:#606060" text-anchor="end">60</text>
	<line x1="304.56" y1="423.50" x2="284.58" y2="423.50" style="stroke:#606060;stroke-width:3.00"/>
	<text x="274.59" y="437.52" style="font-family:'Helvetica';font-size:39.96px;fill:#606060" text-anchor="end">70</text>
	<line x1="304.56" y1="1137.66" x2="304.56" y2="423.50" style="stroke:#000000;stroke-width:3.00"/>
	<text x="199.22" y="755.34" style="font-family:'Helvetica';font-size:39.96px;fill:#000000" transform="rotate(-90 199.22,755.34)" text-anchor="middle">Percentage</text>
	<text x="405.92" y="1157.64" style="font-family:'Helvetica';font-size:39.96px;fill:#606060" transform="rotate(-90 405.92,1157.64)" text-anchor="end">Ongoing</text>
	<text x="494.08" y="1157.64" style="font-family:'Helvetica';font-size:39.96px;fill:#606060" transform="rotate(-90 494.08,1157.64)" text-anchor="end">Submitted</text>
	<text x="582.10" y="1157.64" style="font-family:'Helvetica';font-size:39.96px;fill:#606060" transform="rotate(-90 582.10,1157.64)" text-anchor="end">Published</text>
	<text x="670.25" y="1157.64" style="font-family:'Helvetica';font-size:39.96px;fill:#606060" transform="rotate(-90 670.25,1157.64)" text-anchor="end">Finished</text>
	<text x="524.07" y="349.45" style="font-family:'Helvetica';font-size:49.95px;fill:#000000" text-anchor="middle">Status</text>
	<rect x="793.93" y="255.42" width="682.97" height="1162.10" style="fill:#FFFFFF"/>
	<rect x="795.43" y="256.92" width="679.97" height="1159.10" style="fill:none;stroke:#FFFFFF;stroke-width:3.00"/>
	<rect x="987.66" y="373.15" width="438.89" height="696.88" style="fill:#E0E0E0"/>
	<rect x="989.16" y="374.65" width="435.89" height="693.88" style="fill:none;stroke:#FFFFFF;stroke-width:3.00"/>
	<line x1="987.66" y1="1070.03" x2="1426.55" y2="1070.03" style="stroke:#FFFFFF;stroke-width:3.00"/>
	<line x1="987.66" y1="994.56" x2="1426.55" y2="994.56" style="stroke:#FFFFFF;stroke-width:3.00"/>
	<line x1="987.66" y1="919.09" x2="1426.55" y2="919.09" style="stroke:#FFFFFF;stroke-width:3.00"/>
	<line x1="987.66" y1="843.76" x2="1426.55" y2="843.76" style="stroke:#FFFFFF;stroke-width:3.00"/>
	<line x1="987.66" y1="768.30" x2="1426.55" y2="768.30" style="stroke:#FFFFFF;stroke-width:3.00"/>
	<line x1="987.66" y1="692.83" x2="1426.55" y2="692.83" style="stroke:#FFFFFF;stroke-width:3.00"/>
	<line x1="987.66" y1="617.50" x2="1426.55" y2="617.50" style="stroke:#FFFFFF;stroke-width:3.00"/>
	<line x1="987.66" y1="542.03" x2="1426.55" y2="542.03" style="stroke:#FFFFFF;stroke-width:3.00"/>
	<line x1="987.66" y1="466.57" x2="1426.55" y2="466.57" style="stroke:#FFFFFF;stroke-width:3.00"/>
	<rect x="1048.55" y="423.50" width="52.78" height="646.53" style="fill:#808080"/>
	<rect x="1050.05" y="425.00" width="49.78" height="643.53" style="fill:none;stroke:#000000;stroke-width:3.00"/>
	<rect x="1136.70" y="1016.16" width="52.65" height="53.87" style="fill:#808080"/>
	<rect x="1138.20" y="1017.66" width="49.65" height="50.87" style="fill:none;stroke:#000000;stroke-width:3.00"/>
	<rect x="1224.72" y="1043.03" width="52.79" height="27.00" style="fill:#808080"/>
	<rect x="1226.22" y="1044.53" width="49.79" height="24.00" style="fill:none;stroke:#000000;stroke-width:3.00"/>
	<rect x="1312.88" y="1043.03" width="52.65" height="27.00" style="fill:#808080"/>
	<rect x="1314.38" y="1044.53" width="49.65" height="24.00" style="fill:none;stroke:#000000;stroke-width:3.00"/>
	<line x1="987.66" y1="1070.03" x2="967.54" y2="1070.03" style="stroke:#606060;stroke-width:3.00"/>
	<text x="957.55" y="1084.05" style="font-family:'Helvetica';font-size:39.96px;fill:#606060" text-anchor="end">0</text>
	<line x1="987.66" y1="994.56" x2="967.54" y2="994.56" style="stroke:#606060;stroke-width:3.00"/>
	<text x="957.55" y="1008.58" style="font-family:'Helvetica';font-size:39.96px;fill:#606060" text-anchor="end">10</text>
	<line x1="987.66" y1="919.09" x2="967.54" y2="919.09" style="stroke:#606060;stroke-width:3.00"/>
	<text x="957.55" y="933.11" style="font-family:'Helvetica';font-size:39.96px;fill:#606060" text-anchor="end">20</text>
	<line x1="987.66" y1="843.76" x2="967.54" y2="843.76" style="stroke:#606060;stroke-width:3.00"/>
	<text x="957.55" y="857.78" style="font-family:'Helvetica';font-size:39.96px;fill:#606060" text-anchor="end">30</text>
	<line x1="987.66" y1="768.30" x2="967.54" y2="768.30" style="stroke:#606060;stroke-width:3.00"/>
	<text x="957.55" y="782.32" style="font-family:'Helvetica';font-size:39.96px;fill:#606060" text-anchor="end">40</text>
	<line x1="987.66" y1="692.83" x2="967.54" y2="692.83" style="stroke:#606060;stroke-width:3.00"/>
	<text x="957.55" y="706.85" style="font-family:'Helvetica';font-size:39.96px;fill:#606060" text-anchor="end">50</text>
	<line x1="987.66" y1="617.50" x2="967.54" y2="617.50" style="stroke:#606060;stroke-width:3.00"/>
	<text x="957.55" y="631.52" style="font-family:'Helvetica';font-size:39.96px;fill:#606060" text-anchor="end">60</text>
	<line x1="987.66" y1="542.03" x2="967.54" y2="542.03" style="stroke:#606060;stroke-width:3.00"/>
	<text x="957.55" y="556.05" style="font-family:'Helvetica';font-size:39.96px;fill:#606060" text-anchor="end">70</text>
	<line x1="987.66" y1="466.57" x2="967.54" y2="466.57" style="stroke:#606060;stroke-width:3.00"/>
	<text x="957.55" y="480.59" style="font-family:'Helvetica';font-size:39.96px;fill:#606060" text-anchor="end">80</text>
	<line x1="987.66" y1="1070.03" x2="987.66" y2="466.57" style="stroke:#000000;stroke-width:3.00"/>
	<text x="882.18" y="721.59" style="font-family:'Helvetica';font-size:39.96px;fill:#000000" transform="rotate(-90 882.18,721.59)" text-anchor="middle">Percentage</text>
	<text x="1088.89" y="1090.01" style="font-family:'Helvetica';font-size:39.96px;fill:#606060" transform="rotate(-90 1088.89,1090.01)" text-anchor="end">Journal article</text>
	<text x="1177.04" y="1090.01" style="font-family:'Helvetica';font-size:39.96px;fill:#606060" transform="rotate(-90 1177.04,1090.01)" text-anchor="end">Book chapter</text>
	<text x="1265.20" y="1090.01" style="font-family:'Helvetica';font-size:39.96px;fill:#606060" transform="rotate(-90 1265.20,1090.01)" text-anchor="end">Book</text>
	<text x="1353.22" y="1090.01" style="font-family:'Helvetica';font-size:39.96px;fill:#606060" transform="rotate(-90 1353.22,1090.01)" text-anchor="end">WP only</text>
	<text x="1207.04" y="349.45" style="font-family:'Helvetica';font-size:49.95px;fill:#000000" text-anchor="middle">Type</text>
	<rect x="1476.90" y="255.42" width="683.10" height="1162.10" style="fill:#FFFFFF"/>
	<rect x="1478.40" y="256.92" width="680.10" height="1159.10" style="fill:none;stroke:#FFFFFF;stroke-width:3.00"/>
	<rect x="1670.63" y="373.15" width="438.89" height="805.29" style="fill:#E0E0E0"/>
	<rect x="1672.13" y="374.65" width="435.89" height="802.29" style="fill:none;stroke:#FFFFFF;stroke-width:3.00"/>
	<line x1="1670.63" y1="1178.43" x2="2109.51" y2="1178.43" style="stroke:#FFFFFF;stroke-width:3.00"/>
	<line x1="1670.63" y1="943.53" x2="2109.51" y2="943.53" style="stroke:#FFFFFF;stroke-width:3.00"/>
	<line x1="1670.63" y1="708.76" x2="2109.51" y2="708.76" style="stroke:#FFFFFF;stroke-width:3.00"/>
	<line x1="1670.63" y1="473.86" x2="2109.51" y2="473.86" style="stroke:#FFFFFF;stroke-width:3.00"/>
	<rect x="1735.29" y="842.95" width="71.41" height="335.48" style="fill:#808080"/>
	<rect x="1736.79" y="844.45" width="68.41" height="332.48" style="fill:none;stroke:#000000;stroke-width:3.00"/>
	<rect x="1854.49" y="1094.60" width="71.28" height="83.84" style="fill:#808080"/>
	<rect x="1855.99" y="1096.10" width="68.28" height="80.84" style="fill:none;stroke:#000000;stroke-width:3.00"/>
	<rect x="1973.57" y="423.50" width="71.28" height="754.93" style="fill:#808080"/>
	<rect x="1975.07" y="425.00" width="68.28" height="751.93" style="fill:none;stroke:#000000;stroke-width:3.00"/>
	<line x1="1670.63" y1="1178.43" x2="1650.65" y2="1178.43" style="stroke:#606060;stroke-width:3.00"/>
	<text x="1640.66" y="1192.45" style="font-family:'Helvetica';font-size:39.96px;fill:#606060" text-anchor="end">0</text>
	<line x1="1670.63" y1="943.53" x2="1650.65" y2="943.53" style="stroke:#606060;stroke-width:3.00"/>
	<text x="1640.66" y="957.55" style="font-family:'Helvetica';font-size:39.96px;fill:#606060" text-anchor="end">20</text>
	<line x1="1670.63" y1="708.76" x2="1650.65" y2="708.76" style="stroke:#606060;stroke-width:3.00"/>
	<text x="1640.66" y="722.78" style="font-family:'Helvetica';font-size:39.96px;fill:#606060" text-anchor="end">40</text>
	<line x1="1670.63" y1="473.86" x2="1650.65" y2="473.86" style="stroke:#606060;stroke-width:3.00"/>
	<text x="1640.66" y="487.88" style="font-family:'Helvetica';font-size:39.96px;fill:#606060" text-anchor="end">60</text>
	<line x1="1670.63" y1="1178.43" x2="1670.63" y2="473.86" style="stroke:#000000;stroke-width:3.00"/>
	<text x="1565.28" y="775.72" style="font-family:'Helvetica';font-size:39.96px;fill:#000000" transform="rotate(-90 1565.28,775.72)" text-anchor="middle">Percentage</text>
	<text x="1784.95" y="1198.41" style="font-family:'Helvetica';font-size:39.96px;fill:#606060" transform="rotate(-90 1784.95,1198.41)" text-anchor="end">Men</text>
	<text x="1904.15" y="1198.41" style="font-family:'Helvetica';font-size:39.96px;fill:#606060" transform="rotate(-90 1904.15,1198.41)" text-anchor="end">Women</text>
	<text x="2023.22" y="1198.41" style="font-family:'Helvetica';font-size:39.96px;fill:#606060" transform="rotate(-90 2023.22,1198.41)" text-anchor="end">Mixed</text>
	<text x="1890.14" y="349.45" style="font-family:'Helvetica';font-size:49.95px;fill:#000000" text-anchor="middle">Team 1</text>
	<rect x="2160.00" y="255.42" width="682.97" height="1162.10" style="fill:#FFFFFF"/>
	<rect x="2161.50" y="256.92" width="679.97" height="1159.10" style="fill:none;stroke:#FFFFFF;stroke-width:3.00"/>
	<rect x="2353.72" y="373.15" width="438.89" height="850.78" style="fill:#E0E0E0"/>
	<rect x="2355.22" y="374.65" width="435.89" height="847.78" style="fill:none;stroke:#FFFFFF;stroke-width:3.00"/>
	<line x1="2353.72" y1="1223.93" x2="2792.61" y2="1223.93" style="stroke:#FFFFFF;stroke-width:3.00"/>
	<line x1="2353.72" y1="957.16" x2="2792.61" y2="957.16" style="stroke:#FFFFFF;stroke-width:3.00"/>
	<line x1="2353.72" y1="690.27" x2="2792.61" y2="690.27" style="stroke:#FFFFFF;stroke-width:3.00"/>
	<line x1="2353.72" y1="423.50" x2="2792.61" y2="423.50" style="stroke:#FFFFFF;stroke-width:3.00"/>
	<rect x="2426.09" y="461.57" width="110.16" height="762.36" style="fill:#808080"/>
	<rect x="2427.59" y="463.07" width="107.16" height="759.36" style="fill:none;stroke:#000000;stroke-width:3.00"/>
	<rect x="2610.09" y="652.20" width="110.02" height="571.73" style="fill:#808080"/>
	<rect x="2611.59" y="653.70" width="107.02" height="568.73" style="fill:none;stroke:#000000;stroke-width:3.00"/>
	<line x1="2353.72" y1="1223.93" x2="2333.61" y2="1223.93" style="stroke:#606060;stroke-width:3.00"/>
	<text x="2323.62" y="1237.95" style="font-family:'Helvetica';font-size:39.96px;fill:#606060" text-anchor="end">0</text>
	<line x1="2353.72" y1="957.16" x2="2333.61" y2="957.16" style="stroke:#606060;stroke-width:3.00"/>
	<text x="2323.62" y="971.18" style="font-family:'Helvetica';font-size:39.96px;fill:#606060" text-anchor="end">20</text>
	<line x1="2353.72" y1="690.27" x2="2333.61" y2="690.27" style="stroke:#606060;stroke-width:3.00"/>
	<text x="2323.62" y="704.29" style="font-family:'Helvetica';font-size:39.96px;fill:#606060" text-anchor="end">40</text>
	<line x1="2353.72" y1="423.50" x2="2333.61" y2="423.50" style="stroke:#606060;stroke-width:3.00"/>
	<text x="2323.62" y="437.52" style="font-family:'Helvetica';font-size:39.96px;fill:#606060" text-anchor="end">60</text>
	<line x1="2353.72" y1="1223.93" x2="2353.72" y2="423.50" style="stroke:#000000;stroke-width:3.00"/>
	<text x="2248.25" y="798.54" style="font-family:'Helvetica';font-size:39.96px;fill:#000000" transform="rotate(-90 2248.25,798.54)" text-anchor="middle">Percentage</text>
	<text x="2495.18" y="1243.91" style="font-family:'Helvetica';font-size:39.96px;fill:#606060" transform="rotate(-90 2495.18,1243.91)" text-anchor="end">North</text>
	<text x="2679.05" y="1243.91" style="font-family:'Helvetica';font-size:39.96px;fill:#606060" transform="rotate(-90 2679.05,1243.91)" text-anchor="end">Mixed</text>
	<text x="2573.10" y="349.45" style="font-family:'Helvetica';font-size:49.95px;fill:#000000" text-anchor="middle">Team 2</text>
	<rect x="2842.97" y="255.42" width="683.10" height="1162.10" style="fill:#FFFFFF"/>
	<rect x="2844.47" y="256.92" width="680.10" height="1159.10" style="fill:none;stroke:#FFFFFF;stroke-width:3.00"/>
	<rect x="3036.69" y="373.15" width="438.88" height="827.43" style="fill:#E0E0E0"/>
	<rect x="3038.19" y="374.65" width="435.88" height="824.43" style="fill:none;stroke:#FFFFFF;stroke-width:3.00"/>
	<line x1="3036.69" y1="1200.57" x2="3475.57" y2="1200.57" style="stroke:#FFFFFF;stroke-width:3.00"/>
	<line x1="3036.69" y1="1019.27" x2="3475.57" y2="1019.27" style="stroke:#FFFFFF;stroke-width:3.00"/>
	<line x1="3036.69" y1="837.96" x2="3475.57" y2="837.96" style="stroke:#FFFFFF;stroke-width:3.00"/>
	<line x1="3036.69" y1="656.65" x2="3475.57" y2="656.65" style="stroke:#FFFFFF;stroke-width:3.00"/>
	<line x1="3036.69" y1="475.34" x2="3475.57" y2="475.34" style="stroke:#FFFFFF;stroke-width:3.00"/>
	<rect x="3109.18" y="423.50" width="110.03" height="777.07" style="fill:#808080"/>
	<rect x="3110.68" y="425.00" width="107.03" height="774.07" style="fill:none;stroke:#000000;stroke-width:3.00"/>
	<rect x="3293.05" y="1071.11" width="110.16" height="129.47" style="fill:#808080"/>
	<rect x="3294.55" y="1072.61" width="107.16" height="126.47" style="fill:none;stroke:#000000;stroke-width:3.00"/>
	<line x1="3036.69" y1="1200.57" x2="3016.71" y2="1200.57" style="stroke:#606060;stroke-width:3.00"/>
	<text x="3006.72" y="1214.59" style="font-family:'Helvetica';font-size:39.96px;fill:#606060" text-anchor="end">0</text>
	<line x1="3036.69" y1="1019.27" x2="3016.71" y2="1019.27" style="stroke:#606060;stroke-width:3.00"/>
	<text x="3006.72" y="1033.29" style="font-family:'Helvetica';font-size:39.96px;fill:#606060" text-anchor="end">20</text>
	<line x1="3036.69" y1="837.96" x2="3016.71" y2="837.96" style="stroke:#606060;stroke-width:3.00"/>
	<text x="3006.72" y="851.98" style="font-family:'Helvetica';font-size:39.96px;fill:#606060" text-anchor="end">40</text>
	<line x1="3036.69" y1="656.65" x2="3016.71" y2="656.65" style="stroke:#606060;stroke-width:3.00"/>
	<text x="3006.72" y="670.67" style="font-family:'Helvetica';font-size:39.96px;fill:#606060" text-anchor="end">60</text>
	<line x1="3036.69" y1="475.34" x2="3016.71" y2="475.34" style="stroke:#606060;stroke-width:3.00"/>
	<text x="3006.72" y="489.36" style="font-family:'Helvetica';font-size:39.96px;fill:#606060" text-anchor="end">80</text>
	<line x1="3036.69" y1="1200.57" x2="3036.69" y2="475.34" style="stroke:#000000;stroke-width:3.00"/>
	<text x="2931.35" y="786.93" style="font-family:'Helvetica';font-size:39.96px;fill:#000000" transform="rotate(-90 2931.35,786.93)" text-anchor="middle">Percentage</text>
	<text x="3178.15" y="1220.55" style="font-family:'Helvetica';font-size:39.96px;fill:#606060" transform="rotate(-90 3178.15,1220.55)" text-anchor="end">Interns</text>
	<text x="3362.15" y="1220.55" style="font-family:'Helvetica';font-size:39.96px;fill:#606060" transform="rotate(-90 3362.15,1220.55)" text-anchor="end">Mixed</text>
	<text x="3256.20" y="349.45" style="font-family:'Helvetica';font-size:49.95px;fill:#000000" text-anchor="middle">Team 3</text>
	<rect x="3526.07" y="255.42" width="682.96" height="1162.10" style="fill:#FFFFFF"/>
	<rect x="3527.57" y="256.92" width="679.96" height="1159.10" style="fill:none;stroke:#FFFFFF;stroke-width:3.00"/>
	<rect x="3719.79" y="373.15" width="438.89" height="697.96" style="fill:#E0E0E0"/>
	<rect x="3721.29" y="374.65" width="435.89" height="694.96" style="fill:none;stroke:#FFFFFF;stroke-width:3.00"/>
	<line x1="3719.79" y1="1071.11" x2="4158.68" y2="1071.11" style="stroke:#FFFFFF;stroke-width:3.00"/>
	<line x1="3719.79" y1="855.24" x2="4158.68" y2="855.24" style="stroke:#FFFFFF;stroke-width:3.00"/>
	<line x1="3719.79" y1="639.37" x2="4158.68" y2="639.37" style="stroke:#FFFFFF;stroke-width:3.00"/>
	<line x1="3719.79" y1="423.50" x2="4158.68" y2="423.50" style="stroke:#FFFFFF;stroke-width:3.00"/>
	<rect x="3792.15" y="531.50" width="110.16" height="539.60" style="fill:#808080"/>
	<rect x="3793.65" y="533.00" width="107.16" height="536.60" style="fill:none;stroke:#000000;stroke-width:3.00"/>
	<rect x="3976.02" y="531.50" width="110.16" height="539.60" style="fill:#808080"/>
	<rect x="3977.52" y="533.00" width="107.16" height="536.60" style="fill:none;stroke:#000000;stroke-width:3.00"/>
	<line x1="3719.79" y1="1071.11" x2="3699.68" y2="1071.11" style="stroke:#606060;stroke-width:3.00"/>
	<text x="3689.68" y="1085.13" style="font-family:'Helvetica';font-size:39.96px;fill:#606060" text-anchor="end">0</text>
	<line x1="3719.79" y1="855.24" x2="3699.68" y2="855.24" style="stroke:#606060;stroke-width:3.00"/>
	<text x="3689.68" y="869.26" style="font-family:'Helvetica';font-size:39.96px;fill:#606060" text-anchor="end">20</text>
	<line x1="3719.79" y1="639.37" x2="3699.68" y2="639.37" style="stroke:#606060;stroke-width:3.00"/>
	<text x="3689.68" y="653.39" style="font-family:'Helvetica';font-size:39.96px;fill:#606060" text-anchor="end">40</text>
	<line x1="3719.79" y1="423.50" x2="3699.68" y2="423.50" style="stroke:#606060;stroke-width:3.00"/>
	<text x="3689.68" y="437.52" style="font-family:'Helvetica';font-size:39.96px;fill:#606060" text-anchor="end">60</text>
	<line x1="3719.79" y1="1071.11" x2="3719.79" y2="423.50" style="stroke:#000000;stroke-width:3.00"/>
	<text x="3614.31" y="722.13" style="font-family:'Helvetica';font-size:39.96px;fill:#000000" transform="rotate(-90 3614.31,722.13)" text-anchor="middle">Percentage</text>
	<text x="3861.25" y="1091.22" style="font-family:'Helvetica';font-size:39.96px;fill:#606060" transform="rotate(-90 3861.25,1091.22)" text-anchor="end">Cross-section</text>
	<text x="4045.12" y="1091.22" style="font-family:'Helvetica';font-size:39.96px;fill:#606060" transform="rotate(-90 4045.12,1091.22)" text-anchor="end">Panel</text>
	<text x="3939.17" y="349.45" style="font-family:'Helvetica';font-size:49.95px;fill:#000000" text-anchor="middle">Analysis</text>
	<rect x="63.31" y="1465.04" width="4193.24" height="1257.00" style="fill:#FFFFFF"/>
	<rect x="65.47" y="1467.20" width="4188.92" height="1252.68" style="fill:none;stroke:#FFFFFF;stroke-width:4.32"/>
	<rect x="110.83" y="1512.56" width="1366.07" height="1161.96" style="fill:#FFFFFF"/>
	<rect x="112.45" y="1514.18" width="1362.83" height="1158.72" style="fill:none;stroke:#FFFFFF;stroke-width:3.24"/>
	<rect x="328.73" y="1644.87" width="1091.47" height="674.20" style="fill:#E0E0E0"/>
	<rect x="330.34" y="1646.49" width="1088.24" height="670.96" style="fill:none;stroke:#FFFFFF;stroke-width:3.24"/>
	<line x1="328.73" y1="2319.07" x2="1420.20" y2="2319.07" style="stroke:#FFFFFF;stroke-width:3.24"/>
	<line x1="328.73" y1="2164.76" x2="1420.20" y2="2164.76" style="stroke:#FFFFFF;stroke-width:3.24"/>
	<line x1="328.73" y1="2010.32" x2="1420.20" y2="2010.32" style="stroke:#FFFFFF;stroke-width:3.24"/>
	<line x1="328.73" y1="1856.01" x2="1420.20" y2="1856.01" style="stroke:#FFFFFF;stroke-width:3.24"/>
	<rect x="426.74" y="1933.10" width="206.41" height="385.97" style="fill:#808080"/>
	<rect x="428.35" y="1934.72" width="203.18" height="382.73" style="fill:none;stroke:#000000;stroke-width:3.24"/>
	<rect x="771.39" y="1795.39" width="206.28" height="523.67" style="fill:#808080"/>
	<rect x="773.01" y="1797.01" width="203.04" height="520.43" style="fill:none;stroke:#000000;stroke-width:3.24"/>
	<rect x="1115.91" y="1822.93" width="206.41" height="496.13" style="fill:#808080"/>
	<rect x="1117.53" y="1824.55" width="203.18" height="492.89" style="fill:none;stroke:#000000;stroke-width:3.24"/>
	<line x1="328.73" y1="2319.07" x2="306.32" y2="2319.07" style="stroke:#606060;stroke-width:3.24"/>
	<text x="295.11" y="2334.83" style="font-family:'Helvetica';font-size:44.95px;fill:#606060" text-anchor="end">0</text>
	<line x1="328.73" y1="2164.76" x2="306.32" y2="2164.76" style="stroke:#606060;stroke-width:3.24"/>
	<text x="295.11" y="2180.53" style="font-family:'Helvetica';font-size:44.95px;fill:#606060" text-anchor="end">20</text>
	<line x1="328.73" y1="2010.32" x2="306.32" y2="2010.32" style="stroke:#606060;stroke-width:3.24"/>
	<text x="295.11" y="2026.08" style="font-family:'Helvetica';font-size:44.95px;fill:#606060" text-anchor="end">40</text>
	<line x1="328.73" y1="1856.01" x2="306.32" y2="1856.01" style="stroke:#606060;stroke-width:3.24"/>
	<text x="295.11" y="1871.78" style="font-family:'Helvetica';font-size:44.95px;fill:#606060" text-anchor="end">60</text>
	<line x1="328.73" y1="1701.57" x2="306.32" y2="1701.57" style="stroke:#606060;stroke-width:3.24"/>
	<text x="295.11" y="1717.33" style="font-family:'Helvetica';font-size:44.95px;fill:#606060" text-anchor="end">80</text>
	<line x1="328.73" y1="2319.07" x2="328.73" y2="1701.57" style="stroke:#000000;stroke-width:3.24"/>
	<text x="210.28" y="1981.97" style="font-family:'Helvetica';font-size:44.95px;fill:#000000" transform="rotate(-90 210.28,1981.97)" text-anchor="middle">Percentage</text>
	<text x="545.64" y="2341.61" style="font-family:'Helvetica';font-size:44.95px;fill:#606060" transform="rotate(-90 545.64,2341.61)" text-anchor="end">RUME</text>
	<text x="890.30" y="2341.61" style="font-family:'Helvetica';font-size:44.95px;fill:#606060" transform="rotate(-90 890.30,2341.61)" text-anchor="end">NEEMSIS-1</text>
	<text x="1234.82" y="2341.61" style="font-family:'Helvetica';font-size:44.95px;fill:#606060" transform="rotate(-90 1234.82,2341.61)" text-anchor="end">NEEMSIS-2</text>
	<text x="874.53" y="1618.19" style="font-family:'Helvetica';font-size:56.30px;fill:#000000" text-anchor="middle">Data used</text>
	<rect x="1476.90" y="1512.56" width="1366.07" height="1161.96" style="fill:#FFFFFF"/>
	<rect x="1478.52" y="1514.18" width="1362.83" height="1158.72" style="fill:none;stroke:#FFFFFF;stroke-width:3.24"/>
	<rect x="1694.79" y="1644.87" width="1091.47" height="601.97" style="fill:#E0E0E0"/>
	<rect x="1696.41" y="1646.49" width="1088.24" height="598.73" style="fill:none;stroke:#FFFFFF;stroke-width:3.24"/>
	<line x1="1694.79" y1="2246.84" x2="2786.26" y2="2246.84" style="stroke:#FFFFFF;stroke-width:3.24"/>
	<line x1="1694.79" y1="2067.29" x2="2786.26" y2="2067.29" style="stroke:#FFFFFF;stroke-width:3.24"/>
	<line x1="1694.79" y1="1887.60" x2="2786.26" y2="1887.60" style="stroke:#FFFFFF;stroke-width:3.24"/>
	<line x1="1694.79" y1="1708.05" x2="2786.26" y2="1708.05" style="stroke:#FFFFFF;stroke-width:3.24"/>
	<rect x="1757.43" y="1701.57" width="29.56" height="545.27" style="fill:#808080"/>
	<rect x="1759.05" y="1703.19" width="26.33" height="542.03" style="fill:none;stroke:#000000;stroke-width:3.24"/>
	<rect x="1806.70" y="1990.34" width="29.57" height="256.50" style="fill:#808080"/>
	<rect x="1808.32" y="1991.96" width="26.33" height="253.26" style="fill:none;stroke:#000000;stroke-width:3.24"/>
	<rect x="1856.12" y="2022.33" width="29.43" height="224.51" style="fill:#808080"/>
	<rect x="1857.73" y="2023.95" width="26.19" height="221.27" style="fill:none;stroke:#000000;stroke-width:3.24"/>
	<rect x="1905.39" y="2022.33" width="29.43" height="224.51" style="fill:#808080"/>
	<rect x="1907.01" y="2023.95" width="26.19" height="221.27" style="fill:none;stroke:#000000;stroke-width:3.24"/>
	<rect x="1954.67" y="2054.46" width="29.57" height="192.38" style="fill:#808080"/>
	<rect x="1956.28" y="2056.08" width="26.33" height="189.14" style="fill:none;stroke:#000000;stroke-width:3.24"/>
	<rect x="2003.94" y="2054.46" width="29.57" height="192.38" style="fill:#808080"/>
	<rect x="2005.56" y="2056.08" width="26.33" height="189.14" style="fill:none;stroke:#000000;stroke-width:3.24"/>
	<rect x="2053.22" y="2118.59" width="29.57" height="128.25" style="fill:#808080"/>
	<rect x="2054.83" y="2120.21" width="26.33" height="125.01" style="fill:none;stroke:#000000;stroke-width:3.24"/>
	<rect x="2102.63" y="2150.72" width="29.43" height="96.12" style="fill:#808080"/>
	<rect x="2104.24" y="2152.34" width="26.19" height="92.88" style="fill:none;stroke:#000000;stroke-width:3.24"/>
	<rect x="2151.90" y="2150.72" width="29.43" height="96.12" style="fill:#808080"/>
	<rect x="2153.52" y="2152.34" width="26.19" height="92.88" style="fill:none;stroke:#000000;stroke-width:3.24"/>
	<rect x="2201.18" y="2182.71" width="29.56" height="64.13" style="fill:#808080"/>
	<rect x="2202.79" y="2184.33" width="26.33" height="60.89" style="fill:none;stroke:#000000;stroke-width:3.24"/>
	<rect x="2250.45" y="2182.71" width="29.57" height="64.13" style="fill:#808080"/>
	<rect x="2252.07" y="2184.33" width="26.33" height="60.89" style="fill:none;stroke:#000000;stroke-width:3.24"/>
	<rect x="2299.72" y="2182.71" width="29.57" height="64.13" style="fill:#808080"/>
	<rect x="2301.34" y="2184.33" width="26.33" height="60.89" style="fill:none;stroke:#000000;stroke-width:3.24"/>
	<rect x="2349.00" y="2214.84" width="29.57" height="32.00" style="fill:#808080"/>
	<rect x="2350.62" y="2216.46" width="26.33" height="28.76" style="fill:none;stroke:#000000;stroke-width:3.24"/>
	<rect x="2398.41" y="2214.84" width="29.43" height="32.00" style="fill:#808080"/>
	<rect x="2400.03" y="2216.46" width="26.19" height="28.76" style="fill:none;stroke:#000000;stroke-width:3.24"/>
	<rect x="2447.68" y="2214.84" width="29.57" height="32.00" style="fill:#808080"/>
	<rect x="2449.30" y="2216.46" width="26.33" height="28.76" style="fill:none;stroke:#000000;stroke-width:3.24"/>
	<rect x="2496.96" y="2214.84" width="29.57" height="32.00" style="fill:#808080"/>
	<rect x="2498.58" y="2216.46" width="26.33" height="28.76" style="fill:none;stroke:#000000;stroke-width:3.24"/>
	<rect x="2546.24" y="2214.84" width="29.57" height="32.00" style="fill:#808080"/>
	<rect x="2547.85" y="2216.46" width="26.33" height="28.76" style="fill:none;stroke:#000000;stroke-width:3.24"/>
	<rect x="2595.51" y="2214.84" width="29.56" height="32.00" style="fill:#808080"/>
	<rect x="2597.13" y="2216.46" width="26.33" height="28.76" style="fill:none;stroke:#000000;stroke-width:3.24"/>
	<rect x="2644.92" y="2214.84" width="29.43" height="32.00" style="fill:#808080"/>
	<rect x="2646.54" y="2216.46" width="26.19" height="28.76" style="fill:none;stroke:#000000;stroke-width:3.24"/>
	<rect x="2694.20" y="2214.84" width="29.57" height="32.00" style="fill:#808080"/>
	<rect x="2695.81" y="2216.46" width="26.33" height="28.76" style="fill:none;stroke:#000000;stroke-width:3.24"/>
	<line x1="1694.79" y1="2246.84" x2="1672.38" y2="2246.84" style="stroke:#606060;stroke-width:3.24"/>
	<text x="1661.04" y="2262.61" style="font-family:'Helvetica';font-size:44.95px;fill:#606060" text-anchor="end">0</text>
	<line x1="1694.79" y1="2067.29" x2="1672.38" y2="2067.29" style="stroke:#606060;stroke-width:3.24"/>
	<text x="1661.04" y="2083.06" style="font-family:'Helvetica';font-size:44.95px;fill:#606060" text-anchor="end">20</text>
	<line x1="1694.79" y1="1887.60" x2="1672.38" y2="1887.60" style="stroke:#606060;stroke-width:3.24"/>
	<text x="1661.04" y="1903.37" style="font-family:'Helvetica';font-size:44.95px;fill:#606060" text-anchor="end">40</text>
	<line x1="1694.79" y1="1708.05" x2="1672.38" y2="1708.05" style="stroke:#606060;stroke-width:3.24"/>
	<text x="1661.04" y="1723.81" style="font-family:'Helvetica';font-size:44.95px;fill:#606060" text-anchor="end">60</text>
	<line x1="1694.79" y1="2246.84" x2="1694.79" y2="1708.05" style="stroke:#000000;stroke-width:3.24"/>
	<text x="1576.34" y="1945.92" style="font-family:'Helvetica';font-size:44.95px;fill:#000000" transform="rotate(-90 1576.34,1945.92)" text-anchor="middle">Percentage</text>
	<text x="1788.05" y="2269.39" style="font-family:'Helvetica';font-size:44.95px;fill:#606060" transform="rotate(-90 1788.05,2269.39)" text-anchor="end">Debt</text>
	<text x="1837.32" y="2269.39" style="font-family:'Helvetica';font-size:44.95px;fill:#606060" transform="rotate(-90 1837.32,2269.39)" text-anchor="end">Employment</text>
	<text x="1886.60" y="2269.39" style="font-family:'Helvetica';font-size:44.95px;fill:#606060" transform="rotate(-90 1886.60,2269.39)" text-anchor="end">Gender</text>
	<text x="1935.87" y="2269.39" style="font-family:'Helvetica';font-size:44.95px;fill:#606060" transform="rotate(-90 1935.87,2269.39)" text-anchor="end">Networks</text>
	<text x="1985.15" y="2269.39" style="font-family:'Helvetica';font-size:44.95px;fill:#606060" transform="rotate(-90 1985.15,2269.39)" text-anchor="end">Caste</text>
	<text x="2034.42" y="2269.39" style="font-family:'Helvetica';font-size:44.95px;fill:#606060" transform="rotate(-90 2034.42,2269.39)" text-anchor="end">Personality</text>
	<text x="2083.83" y="2269.39" style="font-family:'Helvetica';font-size:44.95px;fill:#606060" transform="rotate(-90 2083.83,2269.39)" text-anchor="end">Inequality</text>
	<text x="2133.11" y="2269.39" style="font-family:'Helvetica';font-size:44.95px;fill:#606060" transform="rotate(-90 2133.11,2269.39)" text-anchor="end">Covid</text>
	<text x="2182.38" y="2269.39" style="font-family:'Helvetica';font-size:44.95px;fill:#606060" transform="rotate(-90 2182.38,2269.39)" text-anchor="end">Demonetisation</text>
	<text x="2231.66" y="2269.39" style="font-family:'Helvetica';font-size:44.95px;fill:#606060" transform="rotate(-90 2231.66,2269.39)" text-anchor="end">Agriculture</text>
	<text x="2280.93" y="2269.39" style="font-family:'Helvetica';font-size:44.95px;fill:#606060" transform="rotate(-90 2280.93,2269.39)" text-anchor="end">Education</text>
	<text x="2330.34" y="2269.39" style="font-family:'Helvetica';font-size:44.95px;fill:#606060" transform="rotate(-90 2330.34,2269.39)" text-anchor="end">Income</text>
	<text x="2379.62" y="2269.39" style="font-family:'Helvetica';font-size:44.95px;fill:#606060" transform="rotate(-90 2379.62,2269.39)" text-anchor="end">Consumption</text>
	<text x="2428.89" y="2269.39" style="font-family:'Helvetica';font-size:44.95px;fill:#606060" transform="rotate(-90 2428.89,2269.39)" text-anchor="end">Decisionmaking</text>
	<text x="2478.17" y="2269.39" style="font-family:'Helvetica';font-size:44.95px;fill:#606060" transform="rotate(-90 2478.17,2269.39)" text-anchor="end">Marriage</text>
	<text x="2527.44" y="2269.39" style="font-family:'Helvetica';font-size:44.95px;fill:#606060" transform="rotate(-90 2527.44,2269.39)" text-anchor="end">Migration</text>
	<text x="2576.85" y="2269.39" style="font-family:'Helvetica';font-size:44.95px;fill:#606060" transform="rotate(-90 2576.85,2269.39)" text-anchor="end">Mobility</text>
	<text x="2626.13" y="2269.39" style="font-family:'Helvetica';font-size:44.95px;fill:#606060" transform="rotate(-90 2626.13,2269.39)" text-anchor="end">Saving</text>
	<text x="2675.40" y="2269.39" style="font-family:'Helvetica';font-size:44.95px;fill:#606060" transform="rotate(-90 2675.40,2269.39)" text-anchor="end">Trust</text>
	<text x="2724.68" y="2269.39" style="font-family:'Helvetica';font-size:44.95px;fill:#606060" transform="rotate(-90 2724.68,2269.39)" text-anchor="end">Wealth</text>
	<text x="2240.59" y="1618.19" style="font-family:'Helvetica';font-size:56.30px;fill:#000000" text-anchor="middle">Topics</text>
	<rect x="2842.97" y="1512.56" width="1366.06" height="1161.96" style="fill:#FFFFFF"/>
	<rect x="2844.58" y="1514.18" width="1362.83" height="1158.72" style="fill:none;stroke:#FFFFFF;stroke-width:3.24"/>
	<rect x="3060.86" y="1644.87" width="1091.47" height="714.84" style="fill:#E0E0E0"/>
	<rect x="3062.47" y="1646.49" width="1088.24" height="711.60" style="fill:none;stroke:#FFFFFF;stroke-width:3.24"/>
	<line x1="3060.86" y1="2359.70" x2="4152.33" y2="2359.70" style="stroke:#FFFFFF;stroke-width:3.24"/>
	<line x1="3060.86" y1="2155.04" x2="4152.33" y2="2155.04" style="stroke:#FFFFFF;stroke-width:3.24"/>
	<line x1="3060.86" y1="1950.24" x2="4152.33" y2="1950.24" style="stroke:#FFFFFF;stroke-width:3.24"/>
	<line x1="3060.86" y1="1745.44" x2="4152.33" y2="1745.44" style="stroke:#FFFFFF;stroke-width:3.24"/>
	<rect x="3124.98" y="1701.57" width="36.99" height="658.14" style="fill:#808080"/>
	<rect x="3126.60" y="1703.19" width="33.75" height="654.90" style="fill:none;stroke:#000000;stroke-width:3.24"/>
	<rect x="3186.81" y="1847.91" width="36.86" height="511.79" style="fill:#808080"/>
	<rect x="3188.43" y="1849.53" width="33.62" height="508.55" style="fill:none;stroke:#000000;stroke-width:3.24"/>
	<rect x="3248.51" y="1920.95" width="36.99" height="438.76" style="fill:#808080"/>
	<rect x="3250.12" y="1922.56" width="33.75" height="435.52" style="fill:none;stroke:#000000;stroke-width:3.24"/>
	<rect x="3310.20" y="1920.95" width="36.99" height="438.76" style="fill:#808080"/>
	<rect x="3311.82" y="1922.56" width="33.75" height="435.52" style="fill:none;stroke:#000000;stroke-width:3.24"/>
	<rect x="3372.03" y="2103.74" width="36.99" height="255.96" style="fill:#808080"/>
	<rect x="3373.65" y="2105.36" width="33.75" height="252.72" style="fill:none;stroke:#000000;stroke-width:3.24"/>
	<rect x="3433.72" y="2140.32" width="36.99" height="219.38" style="fill:#808080"/>
	<rect x="3435.34" y="2141.94" width="33.75" height="216.14" style="fill:none;stroke:#000000;stroke-width:3.24"/>
	<rect x="3495.55" y="2250.08" width="36.99" height="109.62" style="fill:#808080"/>
	<rect x="3497.17" y="2251.70" width="33.75" height="106.38" style="fill:none;stroke:#000000;stroke-width:3.24"/>
	<rect x="3557.25" y="2250.08" width="36.99" height="109.62" style="fill:#808080"/>
	<rect x="3558.87" y="2251.70" width="33.75" height="106.38" style="fill:none;stroke:#000000;stroke-width:3.24"/>
	<rect x="3619.08" y="2286.67" width="36.86" height="73.04" style="fill:#808080"/>
	<rect x="3620.70" y="2288.29" width="33.62" height="69.80" style="fill:none;stroke:#000000;stroke-width:3.24"/>
	<rect x="3680.78" y="2323.12" width="36.99" height="36.59" style="fill:#808080"/>
	<rect x="3682.39" y="2324.74" width="33.75" height="33.35" style="fill:none;stroke:#000000;stroke-width:3.24"/>
	<rect x="3742.47" y="2323.12" width="36.99" height="36.59" style="fill:#808080"/>
	<rect x="3744.09" y="2324.74" width="33.75" height="33.35" style="fill:none;stroke:#000000;stroke-width:3.24"/>
	<rect x="3804.30" y="2323.12" width="36.99" height="36.59" style="fill:#808080"/>
	<rect x="3805.92" y="2324.74" width="33.75" height="33.35" style="fill:none;stroke:#000000;stroke-width:3.24"/>
	<rect x="3865.99" y="2323.12" width="36.99" height="36.59" style="fill:#808080"/>
	<rect x="3867.61" y="2324.74" width="33.75" height="33.35" style="fill:none;stroke:#000000;stroke-width:3.24"/>
	<rect x="3927.82" y="2323.12" width="36.99" height="36.59" style="fill:#808080"/>
	<rect x="3929.44" y="2324.74" width="33.75" height="33.35" style="fill:none;stroke:#000000;stroke-width:3.24"/>
	<rect x="3989.52" y="2323.12" width="36.99" height="36.59" style="fill:#808080"/>
	<rect x="3991.14" y="2324.74" width="33.75" height="33.35" style="fill:none;stroke:#000000;stroke-width:3.24"/>
	<rect x="4051.35" y="2323.12" width="36.86" height="36.59" style="fill:#808080"/>
	<rect x="4052.97" y="2324.74" width="33.62" height="33.35" style="fill:none;stroke:#000000;stroke-width:3.24"/>
	<line x1="3060.86" y1="2359.70" x2="3038.45" y2="2359.70" style="stroke:#606060;stroke-width:3.24"/>
	<text x="3027.11" y="2375.47" style="font-family:'Helvetica';font-size:44.95px;fill:#606060" text-anchor="end">0</text>
	<line x1="3060.86" y1="2155.04" x2="3038.45" y2="2155.04" style="stroke:#606060;stroke-width:3.24"/>
	<text x="3027.11" y="2170.81" style="font-family:'Helvetica';font-size:44.95px;fill:#606060" text-anchor="end">20</text>
	<line x1="3060.86" y1="1950.24" x2="3038.45" y2="1950.24" style="stroke:#606060;stroke-width:3.24"/>
	<text x="3027.11" y="1966.01" style="font-family:'Helvetica';font-size:44.95px;fill:#606060" text-anchor="end">40</text>
	<line x1="3060.86" y1="1745.44" x2="3038.45" y2="1745.44" style="stroke:#606060;stroke-width:3.24"/>
	<text x="3027.11" y="1761.21" style="font-family:'Helvetica';font-size:44.95px;fill:#606060" text-anchor="end">60</text>
	<line x1="3060.86" y1="2359.70" x2="3060.86" y2="1745.44" style="stroke:#000000;stroke-width:3.24"/>
	<text x="2942.41" y="2002.35" style="font-family:'Helvetica';font-size:44.95px;fill:#000000" transform="rotate(-90 2942.41,2002.35)" text-anchor="middle">Percentage</text>
	<text x="3159.24" y="2382.25" style="font-family:'Helvetica';font-size:44.95px;fill:#606060" transform="rotate(-90 3159.24,2382.25)" text-anchor="end">Nordman</text>
	<text x="3221.07" y="2382.25" style="font-family:'Helvetica';font-size:44.95px;fill:#606060" transform="rotate(-90 3221.07,2382.25)" text-anchor="end">Guérin</text>
	<text x="3282.77" y="2382.25" style="font-family:'Helvetica';font-size:44.95px;fill:#606060" transform="rotate(-90 3282.77,2382.25)" text-anchor="end">Natal</text>
	<text x="3344.46" y="2382.25" style="font-family:'Helvetica';font-size:44.95px;fill:#606060" transform="rotate(-90 3344.46,2382.25)" text-anchor="end">Venkat</text>
	<text x="3406.29" y="2382.25" style="font-family:'Helvetica';font-size:44.95px;fill:#606060" transform="rotate(-90 3406.29,2382.25)" text-anchor="end">Michiels</text>
	<text x="3467.99" y="2382.25" style="font-family:'Helvetica';font-size:44.95px;fill:#606060" transform="rotate(-90 3467.99,2382.25)" text-anchor="end">Mouchel</text>
	<text x="3529.82" y="2382.25" style="font-family:'Helvetica';font-size:44.95px;fill:#606060" transform="rotate(-90 3529.82,2382.25)" text-anchor="end">DEspallier</text>
	<text x="3591.51" y="2382.25" style="font-family:'Helvetica';font-size:44.95px;fill:#606060" transform="rotate(-90 3591.51,2382.25)" text-anchor="end">DiSantolo</text>
	<text x="3653.34" y="2382.25" style="font-family:'Helvetica';font-size:44.95px;fill:#606060" transform="rotate(-90 3653.34,2382.25)" text-anchor="end">Reboul</text>
	<text x="3715.04" y="2382.25" style="font-family:'Helvetica';font-size:44.95px;fill:#606060" transform="rotate(-90 3715.04,2382.25)" text-anchor="end">Girollet</text>
	<text x="3776.73" y="2382.25" style="font-family:'Helvetica';font-size:44.95px;fill:#606060" transform="rotate(-90 3776.73,2382.25)" text-anchor="end">Goedecke</text>
	<text x="3838.56" y="2382.25" style="font-family:'Helvetica';font-size:44.95px;fill:#606060" transform="rotate(-90 3838.56,2382.25)" text-anchor="end">Hilger</text>
	<text x="3900.26" y="2382.25" style="font-family:'Helvetica';font-size:44.95px;fill:#606060" transform="rotate(-90 3900.26,2382.25)" text-anchor="end">Kumar</text>
	<text x="3962.09" y="2382.25" style="font-family:'Helvetica';font-size:44.95px;fill:#606060" transform="rotate(-90 3962.09,2382.25)" text-anchor="end">Lanos</text>
	<text x="4023.78" y="2382.25" style="font-family:'Helvetica';font-size:44.95px;fill:#606060" transform="rotate(-90 4023.78,2382.25)" text-anchor="end">Roesch</text>
	<text x="4085.48" y="2382.25" style="font-family:'Helvetica';font-size:44.95px;fill:#606060" transform="rotate(-90 4085.48,2382.25)" text-anchor="end">Seetahul</text>
	<text x="3606.66" y="1618.19" style="font-family:'Helvetica';font-size:56.30px;fill:#000000" text-anchor="middle">Authors</text>
	<text x="80.59" y="2781.35" style="fill:#000000">
		<tspan style="font-family:'Helvetica';font-style:italic;font-size:59.94px">Source:</tspan>
		<tspan style="font-family:'Helvetica';font-size:59.94px"> A. Natal. Updated in October 2025.</tspan>
	</text>
	<text x="2160.00" y="157.55" style="font-family:'Helvetica';font-size:110.03px;fill:#000000" text-anchor="middle">Research papers (N=28)</text>
</svg>
