<?xml version="1.0" encoding="UTF-8" standalone="no"?>
<!-- This is a Stata 15.1 generated SVG file (http://www.stata.com) -->

<svg version="1.1" width="5.50in" height="4.00in" viewBox="0 0 3960 2880" xmlns="http://www.w3.org/2000/svg" xmlns:xlink="http://www.w3.org/1999/xlink">
	<desc>Stata Graph - lead</desc>
	<rect x="0" y="0" width="3960" height="2880" style="fill:#FFFFFF;stroke:none"/>
	<rect x="0.00" y="0.00" width="3959.88" height="2880.00" style="fill:#FFFFFF"/>
	<rect x="2.88" y="2.88" width="3954.12" height="2874.24" style="fill:none;stroke:#FFFFFF;stroke-width:5.76"/>
	<rect x="393.68" y="278.23" width="3462.46" height="2113.53" style="fill:none;stroke:#000000;stroke-width:5.76"/>
	<circle cx="788.29" cy="2231.65" r="26.35" style="fill:#606060"/>
	<circle cx="788.29" cy="2231.65" r="22.03" style="fill:none;stroke:#606060;stroke-width:8.64"/>
	<text x="830.24" y="2259.67" style="font-family:'Helvetica';font-size:79.94px;fill:#000000">Goedecke</text>
	<circle cx="788.29" cy="2231.65" r="26.35" style="fill:#606060"/>
	<circle cx="788.29" cy="2231.65" r="22.03" style="fill:none;stroke:#606060;stroke-width:8.64"/>
	<text x="788.29" y="2329.51" style="font-family:'Helvetica';font-size:79.94px;fill:#000000" text-anchor="middle">Hilger</text>
	<circle cx="788.29" cy="2132.03" r="26.35" style="fill:#606060"/>
	<circle cx="788.29" cy="2132.03" r="22.03" style="fill:none;stroke:#606060;stroke-width:8.64"/>
	<text x="830.24" y="2160.04" style="font-family:'Helvetica';font-size:79.94px;fill:#000000">Reboul</text>
	<circle cx="788.29" cy="2032.41" r="26.35" style="fill:#606060"/>
	<circle cx="788.29" cy="2032.41" r="22.03" style="fill:none;stroke:#606060;stroke-width:8.64"/>
	<text x="830.24" y="2060.42" style="font-family:'Helvetica';font-size:79.94px;fill:#000000">DiSantolo</text>
	<circle cx="788.29" cy="1633.92" r="26.35" style="fill:#606060"/>
	<circle cx="788.29" cy="1633.92" r="22.03" style="fill:none;stroke:#606060;stroke-width:8.64"/>
	<text x="830.24" y="1661.93" style="font-family:'Helvetica';font-size:79.94px;fill:#000000">Michiels</text>
	<circle cx="788.29" cy="537.96" r="26.35" style="fill:#606060"/>
	<circle cx="788.29" cy="537.96" r="22.03" style="fill:none;stroke:#606060;stroke-width:8.64"/>
	<text x="830.24" y="565.97" style="font-family:'Helvetica';font-size:79.94px;fill:#000000">Nordman</text>
	<circle cx="1790.79" cy="1733.54" r="26.35" style="fill:#606060"/>
	<circle cx="1790.79" cy="1733.54" r="22.03" style="fill:none;stroke:#606060;stroke-width:8.64"/>
	<text x="1832.74" y="1761.56" style="font-family:'Helvetica';font-size:79.94px;fill:#000000">Mouchel</text>
	<circle cx="3461.53" cy="1135.69" r="26.35" style="fill:#606060"/>
	<circle cx="3461.53" cy="1135.69" r="22.03" style="fill:none;stroke:#606060;stroke-width:8.64"/>
	<text x="3503.49" y="1163.70" style="font-family:'Helvetica';font-size:79.94px;fill:#000000">Natal</text>
	<circle cx="3461.53" cy="936.45" r="26.35" style="fill:#606060"/>
	<circle cx="3461.53" cy="936.45" r="22.03" style="fill:none;stroke:#606060;stroke-width:8.64"/>
	<text x="3503.49" y="964.46" style="font-family:'Helvetica';font-size:79.94px;fill:#000000">Guérin</text>
	<line x1="390.80" y1="2394.64" x2="390.80" y2="275.35" style="stroke:#000000;stroke-width:5.76"/>
	<line x1="390.80" y1="2331.28" x2="350.83" y2="2331.28" style="stroke:#000000;stroke-width:5.76"/>
	<text x="300.72" y="2331.28" style="font-family:'Helvetica';font-size:99.99px;fill:#000000" transform="rotate(-90 300.72,2331.28)" text-anchor="middle">0</text>
	<line x1="390.80" y1="2132.03" x2="350.83" y2="2132.03" style="stroke:#000000;stroke-width:5.76"/>
	<text x="300.72" y="2132.03" style="font-family:'Helvetica';font-size:99.99px;fill:#000000" transform="rotate(-90 300.72,2132.03)" text-anchor="middle">2</text>
	<line x1="390.80" y1="1932.79" x2="350.83" y2="1932.79" style="stroke:#000000;stroke-width:5.76"/>
	<text x="300.72" y="1932.79" style="font-family:'Helvetica';font-size:99.99px;fill:#000000" transform="rotate(-90 300.72,1932.79)" text-anchor="middle">4</text>
	<line x1="390.80" y1="1733.54" x2="350.83" y2="1733.54" style="stroke:#000000;stroke-width:5.76"/>
	<text x="300.72" y="1733.54" style="font-family:'Helvetica';font-size:99.99px;fill:#000000" transform="rotate(-90 300.72,1733.54)" text-anchor="middle">6</text>
	<line x1="390.80" y1="1534.30" x2="350.83" y2="1534.30" style="stroke:#000000;stroke-width:5.76"/>
	<text x="300.72" y="1534.30" style="font-family:'Helvetica';font-size:99.99px;fill:#000000" transform="rotate(-90 300.72,1534.30)" text-anchor="middle">8</text>
	<line x1="390.80" y1="1335.06" x2="350.83" y2="1335.06" style="stroke:#000000;stroke-width:5.76"/>
	<text x="300.72" y="1335.06" style="font-family:'Helvetica';font-size:99.99px;fill:#000000" transform="rotate(-90 300.72,1335.06)" text-anchor="middle">10</text>
	<line x1="390.80" y1="1135.69" x2="350.83" y2="1135.69" style="stroke:#000000;stroke-width:5.76"/>
	<text x="300.72" y="1135.69" style="font-family:'Helvetica';font-size:99.99px;fill:#000000" transform="rotate(-90 300.72,1135.69)" text-anchor="middle">12</text>
	<line x1="390.80" y1="936.45" x2="350.83" y2="936.45" style="stroke:#000000;stroke-width:5.76"/>
	<text x="300.72" y="936.45" style="font-family:'Helvetica';font-size:99.99px;fill:#000000" transform="rotate(-90 300.72,936.45)" text-anchor="middle">14</text>
	<line x1="390.80" y1="737.20" x2="350.83" y2="737.20" style="stroke:#000000;stroke-width:5.76"/>
	<text x="300.72" y="737.20" style="font-family:'Helvetica';font-size:99.99px;fill:#000000" transform="rotate(-90 300.72,737.20)" text-anchor="middle">16</text>
	<line x1="390.80" y1="537.96" x2="350.83" y2="537.96" style="stroke:#000000;stroke-width:5.76"/>
	<text x="300.72" y="537.96" style="font-family:'Helvetica';font-size:99.99px;fill:#000000" transform="rotate(-90 300.72,537.96)" text-anchor="middle">18</text>
	<line x1="390.80" y1="338.71" x2="350.83" y2="338.71" style="stroke:#000000;stroke-width:5.76"/>
	<text x="300.72" y="338.71" style="font-family:'Helvetica';font-size:99.99px;fill:#000000" transform="rotate(-90 300.72,338.71)" text-anchor="middle">20</text>
	<text x="190.71" y="1335.06" style="font-family:'Helvetica';font-size:99.99px;fill:#000000" transform="rotate(-90 190.71,1335.06)" text-anchor="middle">Paper as author</text>
	<line x1="390.80" y1="2394.64" x2="3859.02" y2="2394.64" style="stroke:#000000;stroke-width:5.76"/>
	<line x1="454.16" y1="2394.64" x2="454.16" y2="2434.61" style="stroke:#000000;stroke-width:5.76"/>
	<text x="454.16" y="2524.59" style="font-family:'Helvetica';font-size:99.99px;fill:#000000" text-anchor="middle">0</text>
	<line x1="788.29" y1="2394.64" x2="788.29" y2="2434.61" style="stroke:#000000;stroke-width:5.76"/>
	<text x="788.29" y="2524.59" style="font-family:'Helvetica';font-size:99.99px;fill:#000000" text-anchor="middle">1</text>
	<line x1="1122.41" y1="2394.64" x2="1122.41" y2="2434.61" style="stroke:#000000;stroke-width:5.76"/>
	<text x="1122.41" y="2524.59" style="font-family:'Helvetica';font-size:99.99px;fill:#000000" text-anchor="middle">2</text>
	<line x1="1456.66" y1="2394.64" x2="1456.66" y2="2434.61" style="stroke:#000000;stroke-width:5.76"/>
	<text x="1456.66" y="2524.59" style="font-family:'Helvetica';font-size:99.99px;fill:#000000" text-anchor="middle">3</text>
	<line x1="1790.79" y1="2394.64" x2="1790.79" y2="2434.61" style="stroke:#000000;stroke-width:5.76"/>
	<text x="1790.79" y="2524.59" style="font-family:'Helvetica';font-size:99.99px;fill:#000000" text-anchor="middle">4</text>
	<line x1="2124.91" y1="2394.64" x2="2124.91" y2="2434.61" style="stroke:#000000;stroke-width:5.76"/>
	<text x="2124.91" y="2524.59" style="font-family:'Helvetica';font-size:99.99px;fill:#000000" text-anchor="middle">5</text>
	<line x1="2459.04" y1="2394.64" x2="2459.04" y2="2434.61" style="stroke:#000000;stroke-width:5.76"/>
	<text x="2459.04" y="2524.59" style="font-family:'Helvetica';font-size:99.99px;fill:#000000" text-anchor="middle">6</text>
	<line x1="2793.28" y1="2394.64" x2="2793.28" y2="2434.61" style="stroke:#000000;stroke-width:5.76"/>
	<text x="2793.28" y="2524.59" style="font-family:'Helvetica';font-size:99.99px;fill:#000000" text-anchor="middle">7</text>
	<line x1="3127.41" y1="2394.64" x2="3127.41" y2="2434.61" style="stroke:#000000;stroke-width:5.76"/>
	<text x="3127.41" y="2524.59" style="font-family:'Helvetica';font-size:99.99px;fill:#000000" text-anchor="middle">8</text>
	<line x1="3461.53" y1="2394.64" x2="3461.53" y2="2434.61" style="stroke:#000000;stroke-width:5.76"/>
	<text x="3461.53" y="2524.59" style="font-family:'Helvetica';font-size:99.99px;fill:#000000" text-anchor="middle">9</text>
	<line x1="3795.66" y1="2394.64" x2="3795.66" y2="2434.61" style="stroke:#000000;stroke-width:5.76"/>
	<text x="3795.66" y="2524.59" style="font-family:'Helvetica';font-size:99.99px;fill:#000000" text-anchor="middle">10</text>
	<text x="2124.91" y="2634.61" style="font-family:'Helvetica';font-size:99.99px;fill:#000000" text-anchor="middle">Paper as lead author</text>
	<text x="408.00" y="2743.87" style="fill:#000000">
		<tspan style="font-family:'Helvetica';font-style:italic;font-size:60.02px">Source:</tspan>
		<tspan style="font-family:'Helvetica';font-size:60.02px"> A. Natal. Updated in October 2025.</tspan>
	</text>
	<text x="2124.91" y="215.98" style="font-family:'Helvetica';font-size:139.96px;fill:#000000" text-anchor="middle">Lead author and papers (N=28)</text>
</svg>
