<?xml version="1.0" encoding="UTF-8" standalone="no"?>
<!-- This is a Stata 15.1 generated SVG file (http://www.stata.com) -->

<svg version="1.1" width="6.00in" height="4.00in" viewBox="0 0 4320 2880" xmlns="http://www.w3.org/2000/svg" xmlns:xlink="http://www.w3.org/1999/xlink">
	<desc>Stata Graph - lead</desc>
	<rect x="0" y="0" width="4320" height="2880" style="fill:#FFFFFF;stroke:none"/>
	<rect x="0.00" y="0.00" width="4320.00" height="2880.00" style="fill:#FFFFFF"/>
	<rect x="2.88" y="2.88" width="4314.24" height="2874.24" style="fill:none;stroke:#FFFFFF;stroke-width:5.76"/>
	<rect x="387.45" y="235.31" width="3831.70" height="2199.32" style="fill:#E0E0E0"/>
	<rect x="390.33" y="238.19" width="3825.95" height="2193.56" style="fill:none;stroke:#FFFFFF;stroke-width:5.76"/>
	<line x1="387.45" y1="2371.31" x2="4219.15" y2="2371.31" style="stroke:#FFFFFF;stroke-width:5.76"/>
	<line x1="387.45" y1="2164.08" x2="4219.15" y2="2164.08" style="stroke:#FFFFFF;stroke-width:5.76"/>
	<line x1="387.45" y1="1956.86" x2="4219.15" y2="1956.86" style="stroke:#FFFFFF;stroke-width:5.76"/>
	<line x1="387.45" y1="1749.49" x2="4219.15" y2="1749.49" style="stroke:#FFFFFF;stroke-width:5.76"/>
	<line x1="387.45" y1="1542.26" x2="4219.15" y2="1542.26" style="stroke:#FFFFFF;stroke-width:5.76"/>
	<line x1="387.45" y1="1335.04" x2="4219.15" y2="1335.04" style="stroke:#FFFFFF;stroke-width:5.76"/>
	<line x1="387.45" y1="1127.81" x2="4219.15" y2="1127.81" style="stroke:#FFFFFF;stroke-width:5.76"/>
	<line x1="387.45" y1="920.44" x2="4219.15" y2="920.44" style="stroke:#FFFFFF;stroke-width:5.76"/>
	<line x1="387.45" y1="713.22" x2="4219.15" y2="713.22" style="stroke:#FFFFFF;stroke-width:5.76"/>
	<line x1="387.45" y1="505.99" x2="4219.15" y2="505.99" style="stroke:#FFFFFF;stroke-width:5.76"/>
	<line x1="821.21" y1="2434.63" x2="821.21" y2="235.31" style="stroke:#FFFFFF;stroke-width:5.76"/>
	<line x1="1191.78" y1="2434.63" x2="1191.78" y2="235.31" style="stroke:#FFFFFF;stroke-width:5.76"/>
	<line x1="1562.22" y1="2434.63" x2="1562.22" y2="235.31" style="stroke:#FFFFFF;stroke-width:5.76"/>
	<line x1="1932.80" y1="2434.63" x2="1932.80" y2="235.31" style="stroke:#FFFFFF;stroke-width:5.76"/>
	<line x1="2303.24" y1="2434.63" x2="2303.24" y2="235.31" style="stroke:#FFFFFF;stroke-width:5.76"/>
	<line x1="2673.81" y1="2434.63" x2="2673.81" y2="235.31" style="stroke:#FFFFFF;stroke-width:5.76"/>
	<line x1="3044.25" y1="2434.63" x2="3044.25" y2="235.31" style="stroke:#FFFFFF;stroke-width:5.76"/>
	<line x1="3414.82" y1="2434.63" x2="3414.82" y2="235.31" style="stroke:#FFFFFF;stroke-width:5.76"/>
	<line x1="3785.26" y1="2434.63" x2="3785.26" y2="235.31" style="stroke:#FFFFFF;stroke-width:5.76"/>
	<circle cx="821.21" cy="2267.77" r="17.86" style="fill:#000000"/>
	<circle cx="821.21" cy="2267.77" r="14.98" style="fill:none;stroke:#000000;stroke-width:5.76"/>
	<text x="856.17" y="2295.77" style="font-family:'Helvetica';font-size:79.92px;fill:#000000">Goedecke</text>
	<circle cx="821.21" cy="2267.77" r="17.86" style="fill:#000000"/>
	<circle cx="821.21" cy="2267.77" r="14.98" style="fill:none;stroke:#000000;stroke-width:5.76"/>
	<text x="821.21" y="2358.61" style="font-family:'Helvetica';font-size:79.92px;fill:#000000" text-anchor="middle">Hilger</text>
	<circle cx="821.21" cy="2164.08" r="17.86" style="fill:#000000"/>
	<circle cx="821.21" cy="2164.08" r="14.98" style="fill:none;stroke:#000000;stroke-width:5.76"/>
	<text x="856.17" y="2192.09" style="font-family:'Helvetica';font-size:79.92px;fill:#000000">Reboul</text>
	<circle cx="821.21" cy="2060.40" r="17.86" style="fill:#000000"/>
	<circle cx="821.21" cy="2060.40" r="14.98" style="fill:none;stroke:#000000;stroke-width:5.76"/>
	<text x="856.17" y="2088.41" style="font-family:'Helvetica';font-size:79.92px;fill:#000000">DiSantolo</text>
	<circle cx="821.21" cy="1645.95" r="17.86" style="fill:#000000"/>
	<circle cx="821.21" cy="1645.95" r="14.98" style="fill:none;stroke:#000000;stroke-width:5.76"/>
	<text x="856.17" y="1673.95" style="font-family:'Helvetica';font-size:79.92px;fill:#000000">Michiels</text>
	<circle cx="821.21" cy="505.99" r="17.86" style="fill:#000000"/>
	<circle cx="821.21" cy="505.99" r="14.98" style="fill:none;stroke:#000000;stroke-width:5.76"/>
	<text x="856.17" y="533.99" style="font-family:'Helvetica';font-size:79.92px;fill:#000000">Nordman</text>
	<circle cx="1932.80" cy="1749.49" r="17.86" style="fill:#000000"/>
	<circle cx="1932.80" cy="1749.49" r="14.98" style="fill:none;stroke:#000000;stroke-width:5.76"/>
	<text x="1967.76" y="1777.50" style="font-family:'Helvetica';font-size:79.92px;fill:#000000">Mouchel</text>
	<circle cx="3785.26" cy="1127.81" r="17.86" style="fill:#000000"/>
	<circle cx="3785.26" cy="1127.81" r="14.98" style="fill:none;stroke:#000000;stroke-width:5.76"/>
	<text x="3820.23" y="1155.81" style="font-family:'Helvetica';font-size:79.92px;fill:#000000">Natal</text>
	<circle cx="3785.26" cy="920.44" r="17.86" style="fill:#000000"/>
	<circle cx="3785.26" cy="920.44" r="14.98" style="fill:none;stroke:#000000;stroke-width:5.76"/>
	<text x="3820.23" y="948.45" style="font-family:'Helvetica';font-size:79.92px;fill:#000000">Guérin</text>
	<line x1="387.45" y1="2371.31" x2="347.36" y2="2371.31" style="stroke:#606060;stroke-width:5.76"/>
	<text x="327.38" y="2399.32" style="font-family:'Helvetica';font-size:79.92px;fill:#606060" text-anchor="end">0</text>
	<line x1="387.45" y1="2164.08" x2="347.36" y2="2164.08" style="stroke:#606060;stroke-width:5.76"/>
	<text x="327.38" y="2192.09" style="font-family:'Helvetica';font-size:79.92px;fill:#606060" text-anchor="end">2</text>
	<line x1="387.45" y1="1956.86" x2="347.36" y2="1956.86" style="stroke:#606060;stroke-width:5.76"/>
	<text x="327.38" y="1984.86" style="font-family:'Helvetica';font-size:79.92px;fill:#606060" text-anchor="end">4</text>
	<line x1="387.45" y1="1749.49" x2="347.36" y2="1749.49" style="stroke:#606060;stroke-width:5.76"/>
	<text x="327.38" y="1777.50" style="font-family:'Helvetica';font-size:79.92px;fill:#606060" text-anchor="end">6</text>
	<line x1="387.45" y1="1542.26" x2="347.36" y2="1542.26" style="stroke:#606060;stroke-width:5.76"/>
	<text x="327.38" y="1570.27" style="font-family:'Helvetica';font-size:79.92px;fill:#606060" text-anchor="end">8</text>
	<line x1="387.45" y1="1335.04" x2="347.36" y2="1335.04" style="stroke:#606060;stroke-width:5.76"/>
	<text x="327.38" y="1363.04" style="font-family:'Helvetica';font-size:79.92px;fill:#606060" text-anchor="end">10</text>
	<line x1="387.45" y1="1127.81" x2="347.36" y2="1127.81" style="stroke:#606060;stroke-width:5.76"/>
	<text x="327.38" y="1155.81" style="font-family:'Helvetica';font-size:79.92px;fill:#606060" text-anchor="end">12</text>
	<line x1="387.45" y1="920.44" x2="347.36" y2="920.44" style="stroke:#606060;stroke-width:5.76"/>
	<text x="327.38" y="948.45" style="font-family:'Helvetica';font-size:79.92px;fill:#606060" text-anchor="end">14</text>
	<line x1="387.45" y1="713.22" x2="347.36" y2="713.22" style="stroke:#606060;stroke-width:5.76"/>
	<text x="327.38" y="741.22" style="font-family:'Helvetica';font-size:79.92px;fill:#606060" text-anchor="end">16</text>
	<line x1="387.45" y1="505.99" x2="347.36" y2="505.99" style="stroke:#606060;stroke-width:5.76"/>
	<text x="327.38" y="533.99" style="font-family:'Helvetica';font-size:79.92px;fill:#606060" text-anchor="end">18</text>
	<line x1="387.45" y1="298.76" x2="347.36" y2="298.76" style="stroke:#606060;stroke-width:5.76"/>
	<text x="327.38" y="326.77" style="font-family:'Helvetica';font-size:79.92px;fill:#606060" text-anchor="end">20</text>
	<text x="176.70" y="1335.04" style="font-family:'Helvetica';font-size:79.92px;fill:#000000" transform="rotate(-90 176.70,1335.04)" text-anchor="middle">Paper as author</text>
	<line x1="450.76" y1="2434.63" x2="450.76" y2="2474.72" style="stroke:#606060;stroke-width:5.76"/>
	<text x="450.76" y="2550.58" style="font-family:'Helvetica';font-size:79.92px;fill:#606060" text-anchor="middle">0</text>
	<line x1="821.21" y1="2434.63" x2="821.21" y2="2474.72" style="stroke:#606060;stroke-width:5.76"/>
	<text x="821.21" y="2550.58" style="font-family:'Helvetica';font-size:79.92px;fill:#606060" text-anchor="middle">1</text>
	<line x1="1191.78" y1="2434.63" x2="1191.78" y2="2474.72" style="stroke:#606060;stroke-width:5.76"/>
	<text x="1191.78" y="2550.58" style="font-family:'Helvetica';font-size:79.92px;fill:#606060" text-anchor="middle">2</text>
	<line x1="1562.22" y1="2434.63" x2="1562.22" y2="2474.72" style="stroke:#606060;stroke-width:5.76"/>
	<text x="1562.22" y="2550.58" style="font-family:'Helvetica';font-size:79.92px;fill:#606060" text-anchor="middle">3</text>
	<line x1="1932.80" y1="2434.63" x2="1932.80" y2="2474.72" style="stroke:#606060;stroke-width:5.76"/>
	<text x="1932.80" y="2550.58" style="font-family:'Helvetica';font-size:79.92px;fill:#606060" text-anchor="middle">4</text>
	<line x1="2303.24" y1="2434.63" x2="2303.24" y2="2474.72" style="stroke:#606060;stroke-width:5.76"/>
	<text x="2303.24" y="2550.58" style="font-family:'Helvetica';font-size:79.92px;fill:#606060" text-anchor="middle">5</text>
	<line x1="2673.81" y1="2434.63" x2="2673.81" y2="2474.72" style="stroke:#606060;stroke-width:5.76"/>
	<text x="2673.81" y="2550.58" style="font-family:'Helvetica';font-size:79.92px;fill:#606060" text-anchor="middle">6</text>
	<line x1="3044.25" y1="2434.63" x2="3044.25" y2="2474.72" style="stroke:#606060;stroke-width:5.76"/>
	<text x="3044.25" y="2550.58" style="font-family:'Helvetica';font-size:79.92px;fill:#606060" text-anchor="middle">7</text>
	<line x1="3414.82" y1="2434.63" x2="3414.82" y2="2474.72" style="stroke:#606060;stroke-width:5.76"/>
	<text x="3414.82" y="2550.58" style="font-family:'Helvetica';font-size:79.92px;fill:#606060" text-anchor="middle">8</text>
	<line x1="3785.26" y1="2434.63" x2="3785.26" y2="2474.72" style="stroke:#606060;stroke-width:5.76"/>
	<text x="3785.26" y="2550.58" style="font-family:'Helvetica';font-size:79.92px;fill:#606060" text-anchor="middle">9</text>
	<line x1="4155.84" y1="2434.63" x2="4155.84" y2="2474.72" style="stroke:#606060;stroke-width:5.76"/>
	<text x="4155.84" y="2550.58" style="font-family:'Helvetica';font-size:79.92px;fill:#606060" text-anchor="middle">10</text>
	<text x="2303.24" y="2640.63" style="font-family:'Helvetica';font-size:79.92px;fill:#000000" text-anchor="middle">Paper as lead author</text>
	<text x="404.73" y="2743.82" style="fill:#000000">
		<tspan style="font-family:'Helvetica';font-style:italic;font-size:59.94px">Source:</tspan>
		<tspan style="font-family:'Helvetica';font-size:59.94px"> A. Natal. Updated in October 2025.</tspan>
	</text>
	<text x="2303.24" y="187.95" style="font-family:'Helvetica';font-size:100.04px;fill:#000000" text-anchor="middle">Lead author and papers (N=28)</text>
</svg>
