<?xml version="1.0" encoding="UTF-8" standalone="no"?>
<!-- This is a Stata 15.1 generated SVG file (http://www.stata.com) -->

<svg version="1.1" width="6.00in" height="4.00in" viewBox="0 0 4320 2880" xmlns="http://www.w3.org/2000/svg" xmlns:xlink="http://www.w3.org/1999/xlink">
	<desc>Stata Graph - origin</desc>
	<rect x="0" y="0" width="4320" height="2880" style="fill:#FFFFFF;stroke:none"/>
	<rect x="0.00" y="0.00" width="4320.00" height="2880.00" style="fill:#FFFFFF"/>
	<rect x="2.88" y="2.88" width="4314.24" height="2874.24" style="fill:none;stroke:#FFFFFF;stroke-width:5.76"/>
	<rect x="63.31" y="207.90" width="1397.79" height="2514.14" style="fill:#FFFFFF"/>
	<rect x="65.47" y="210.06" width="1393.47" height="2509.82" style="fill:none;stroke:#FFFFFF;stroke-width:4.32"/>
	<rect x="353.97" y="384.49" width="1031.54" height="1707.91" style="fill:#E0E0E0"/>
	<rect x="356.13" y="386.65" width="1027.22" height="1703.59" style="fill:none;stroke:#FFFFFF;stroke-width:4.32"/>
	<line x1="353.97" y1="2092.40" x2="1385.51" y2="2092.40" style="stroke:#FFFFFF;stroke-width:4.32"/>
	<line x1="353.97" y1="1888.27" x2="1385.51" y2="1888.27" style="stroke:#FFFFFF;stroke-width:4.32"/>
	<line x1="353.97" y1="1684.29" x2="1385.51" y2="1684.29" style="stroke:#FFFFFF;stroke-width:4.32"/>
	<line x1="353.97" y1="1480.30" x2="1385.51" y2="1480.30" style="stroke:#FFFFFF;stroke-width:4.32"/>
	<line x1="353.97" y1="1276.17" x2="1385.51" y2="1276.17" style="stroke:#FFFFFF;stroke-width:4.32"/>
	<line x1="353.97" y1="1072.19" x2="1385.51" y2="1072.19" style="stroke:#FFFFFF;stroke-width:4.32"/>
	<line x1="353.97" y1="868.06" x2="1385.51" y2="868.06" style="stroke:#FFFFFF;stroke-width:4.32"/>
	<line x1="353.97" y1="664.08" x2="1385.51" y2="664.08" style="stroke:#FFFFFF;stroke-width:4.32"/>
	<rect x="486.81" y="853.48" width="286.87" height="1238.91" style="fill:#808080"/>
	<rect x="488.97" y="855.64" width="282.56" height="1234.59" style="fill:none;stroke:#000000;stroke-width:4.32"/>
	<rect x="965.79" y="1290.76" width="286.74" height="801.64" style="fill:#808080"/>
	<rect x="967.95" y="1292.92" width="282.42" height="797.32" style="fill:none;stroke:#000000;stroke-width:4.32"/>
	<line x1="353.97" y1="2092.40" x2="323.87" y2="2092.40" style="stroke:#606060;stroke-width:4.32"/>
	<text x="308.88" y="2113.41" style="font-family:'Helvetica';font-size:59.94px;fill:#606060" text-anchor="end">0</text>
	<line x1="353.97" y1="1888.27" x2="323.87" y2="1888.27" style="stroke:#606060;stroke-width:4.32"/>
	<text x="308.88" y="1909.29" style="font-family:'Helvetica';font-size:59.94px;fill:#606060" text-anchor="end">10</text>
	<line x1="353.97" y1="1684.29" x2="323.87" y2="1684.29" style="stroke:#606060;stroke-width:4.32"/>
	<text x="308.88" y="1705.30" style="font-family:'Helvetica';font-size:59.94px;fill:#606060" text-anchor="end">20</text>
	<line x1="353.97" y1="1480.30" x2="323.87" y2="1480.30" style="stroke:#606060;stroke-width:4.32"/>
	<text x="308.88" y="1501.31" style="font-family:'Helvetica';font-size:59.94px;fill:#606060" text-anchor="end">30</text>
	<line x1="353.97" y1="1276.17" x2="323.87" y2="1276.17" style="stroke:#606060;stroke-width:4.32"/>
	<text x="308.88" y="1297.19" style="font-family:'Helvetica';font-size:59.94px;fill:#606060" text-anchor="end">40</text>
	<line x1="353.97" y1="1072.19" x2="323.87" y2="1072.19" style="stroke:#606060;stroke-width:4.32"/>
	<text x="308.88" y="1093.20" style="font-family:'Helvetica';font-size:59.94px;fill:#606060" text-anchor="end">50</text>
	<line x1="353.97" y1="868.06" x2="323.87" y2="868.06" style="stroke:#606060;stroke-width:4.32"/>
	<text x="308.88" y="889.08" style="font-family:'Helvetica';font-size:59.94px;fill:#606060" text-anchor="end">60</text>
	<line x1="353.97" y1="664.08" x2="323.87" y2="664.08" style="stroke:#606060;stroke-width:4.32"/>
	<text x="308.88" y="685.09" style="font-family:'Helvetica';font-size:59.94px;fill:#606060" text-anchor="end">70</text>
	<line x1="353.97" y1="460.09" x2="323.87" y2="460.09" style="stroke:#606060;stroke-width:4.32"/>
	<text x="308.88" y="481.10" style="font-family:'Helvetica';font-size:59.94px;fill:#606060" text-anchor="end">80</text>
	<line x1="353.97" y1="2092.40" x2="353.97" y2="460.09" style="stroke:#000000;stroke-width:4.32"/>
	<text x="195.93" y="1238.37" style="font-family:'Helvetica';font-size:59.94px;fill:#000000" transform="rotate(-90 195.93,1238.37)" text-anchor="middle">Percentage</text>
	<text x="651.33" y="2122.37" style="font-family:'Helvetica';font-size:59.94px;fill:#606060" transform="rotate(-90 651.33,2122.37)" text-anchor="end">Original paper</text>
	<text x="1130.17" y="2122.37" style="font-family:'Helvetica';font-size:59.94px;fill:#606060" transform="rotate(-90 1130.17,2122.37)" text-anchor="end">Paper from thesis</text>
	<text x="869.67" y="348.94" style="font-family:'Helvetica';font-size:75.06px;fill:#000000" text-anchor="middle">From?</text>
	<rect x="1461.11" y="207.90" width="1397.79" height="2514.14" style="fill:#FFFFFF"/>
	<rect x="1463.26" y="210.06" width="1393.47" height="2509.82" style="fill:none;stroke:#FFFFFF;stroke-width:4.32"/>
	<rect x="1786.59" y="384.49" width="996.71" height="1917.84" style="fill:#E0E0E0"/>
	<rect x="1788.75" y="386.65" width="992.39" height="1913.52" style="fill:none;stroke:#FFFFFF;stroke-width:4.32"/>
	<line x1="1786.59" y1="2302.33" x2="2783.30" y2="2302.33" style="stroke:#FFFFFF;stroke-width:4.32"/>
	<line x1="1786.59" y1="1933.91" x2="2783.30" y2="1933.91" style="stroke:#FFFFFF;stroke-width:4.32"/>
	<line x1="1786.59" y1="1565.35" x2="2783.30" y2="1565.35" style="stroke:#FFFFFF;stroke-width:4.32"/>
	<line x1="1786.59" y1="1196.93" x2="2783.30" y2="1196.93" style="stroke:#FFFFFF;stroke-width:4.32"/>
	<line x1="1786.59" y1="828.51" x2="2783.30" y2="828.51" style="stroke:#FFFFFF;stroke-width:4.32"/>
	<rect x="1869.62" y="1110.26" width="36.59" height="1192.07" style="fill:#808080"/>
	<rect x="1871.77" y="1112.42" width="32.27" height="1187.75" style="fill:none;stroke:#000000;stroke-width:4.32"/>
	<rect x="1930.64" y="1218.66" width="36.59" height="1083.66" style="fill:#808080"/>
	<rect x="1932.79" y="1220.82" width="32.27" height="1079.34" style="fill:none;stroke:#000000;stroke-width:4.32"/>
	<rect x="1991.79" y="1326.94" width="36.59" height="975.39" style="fill:#808080"/>
	<rect x="1993.95" y="1329.10" width="32.27" height="971.07" style="fill:none;stroke:#000000;stroke-width:4.32"/>
	<rect x="2052.81" y="1652.16" width="36.59" height="650.17" style="fill:#808080"/>
	<rect x="2054.97" y="1654.32" width="32.27" height="645.85" style="fill:none;stroke:#000000;stroke-width:4.32"/>
	<rect x="2113.97" y="1760.43" width="36.59" height="541.90" style="fill:#808080"/>
	<rect x="2116.12" y="1762.59" width="32.27" height="537.58" style="fill:none;stroke:#000000;stroke-width:4.32"/>
	<rect x="2174.99" y="1977.24" width="36.59" height="325.09" style="fill:#808080"/>
	<rect x="2177.14" y="1979.40" width="32.27" height="320.77" style="fill:none;stroke:#000000;stroke-width:4.32"/>
	<rect x="2236.14" y="2085.51" width="36.59" height="216.81" style="fill:#808080"/>
	<rect x="2238.30" y="2087.67" width="32.27" height="212.49" style="fill:none;stroke:#000000;stroke-width:4.32"/>
	<rect x="2297.16" y="2193.92" width="36.59" height="108.41" style="fill:#808080"/>
	<rect x="2299.32" y="2196.08" width="32.27" height="104.09" style="fill:none;stroke:#000000;stroke-width:4.32"/>
	<rect x="2358.32" y="2193.92" width="36.59" height="108.41" style="fill:#808080"/>
	<rect x="2360.47" y="2196.08" width="32.27" height="104.09" style="fill:none;stroke:#000000;stroke-width:4.32"/>
	<rect x="2419.34" y="2193.92" width="36.59" height="108.41" style="fill:#808080"/>
	<rect x="2421.49" y="2196.08" width="32.27" height="104.09" style="fill:none;stroke:#000000;stroke-width:4.32"/>
	<rect x="2480.49" y="2193.92" width="36.59" height="108.41" style="fill:#808080"/>
	<rect x="2482.65" y="2196.08" width="32.27" height="104.09" style="fill:none;stroke:#000000;stroke-width:4.32"/>
	<rect x="2541.51" y="2193.92" width="36.58" height="108.41" style="fill:#808080"/>
	<rect x="2543.67" y="2196.08" width="32.27" height="104.09" style="fill:none;stroke:#000000;stroke-width:4.32"/>
	<rect x="2602.67" y="2193.92" width="36.59" height="108.41" style="fill:#808080"/>
	<rect x="2604.82" y="2196.08" width="32.27" height="104.09" style="fill:none;stroke:#000000;stroke-width:4.32"/>
	<rect x="2663.68" y="2193.92" width="36.59" height="108.41" style="fill:#808080"/>
	<rect x="2665.84" y="2196.08" width="32.27" height="104.09" style="fill:none;stroke:#000000;stroke-width:4.32"/>
	<line x1="1786.59" y1="2302.33" x2="1756.62" y2="2302.33" style="stroke:#606060;stroke-width:4.32"/>
	<text x="1741.64" y="2323.34" style="font-family:'Helvetica';font-size:59.94px;fill:#606060" text-anchor="end">0</text>
	<line x1="1786.59" y1="1933.91" x2="1756.62" y2="1933.91" style="stroke:#606060;stroke-width:4.32"/>
	<text x="1741.64" y="1954.92" style="font-family:'Helvetica';font-size:59.94px;fill:#606060" text-anchor="end">20</text>
	<line x1="1786.59" y1="1565.35" x2="1756.62" y2="1565.35" style="stroke:#606060;stroke-width:4.32"/>
	<text x="1741.64" y="1586.36" style="font-family:'Helvetica';font-size:59.94px;fill:#606060" text-anchor="end">40</text>
	<line x1="1786.59" y1="1196.93" x2="1756.62" y2="1196.93" style="stroke:#606060;stroke-width:4.32"/>
	<text x="1741.64" y="1217.94" style="font-family:'Helvetica';font-size:59.94px;fill:#606060" text-anchor="end">60</text>
	<line x1="1786.59" y1="828.51" x2="1756.62" y2="828.51" style="stroke:#606060;stroke-width:4.32"/>
	<text x="1741.64" y="849.52" style="font-family:'Helvetica';font-size:59.94px;fill:#606060" text-anchor="end">80</text>
	<line x1="1786.59" y1="460.09" x2="1756.62" y2="460.09" style="stroke:#606060;stroke-width:4.32"/>
	<text x="1741.64" y="481.10" style="font-family:'Helvetica';font-size:59.94px;fill:#606060" text-anchor="end">100</text>
	<line x1="1786.59" y1="2302.33" x2="1786.59" y2="460.09" style="stroke:#000000;stroke-width:4.32"/>
	<text x="1593.58" y="1343.41" style="font-family:'Helvetica';font-size:59.94px;fill:#000000" transform="rotate(-90 1593.58,1343.41)" text-anchor="middle">Percentage</text>
	<text x="1908.85" y="2332.30" style="font-family:'Helvetica';font-size:59.94px;fill:#606060" transform="rotate(-90 1908.85,2332.30)" text-anchor="end">Guérin</text>
	<text x="1970.01" y="2332.30" style="font-family:'Helvetica';font-size:59.94px;fill:#606060" transform="rotate(-90 1970.01,2332.30)" text-anchor="end">Venkat</text>
	<text x="2031.03" y="2332.30" style="font-family:'Helvetica';font-size:59.94px;fill:#606060" transform="rotate(-90 2031.03,2332.30)" text-anchor="end">Nordman</text>
	<text x="2092.18" y="2332.30" style="font-family:'Helvetica';font-size:59.94px;fill:#606060" transform="rotate(-90 2092.18,2332.30)" text-anchor="end">Natal</text>
	<text x="2153.20" y="2332.30" style="font-family:'Helvetica';font-size:59.94px;fill:#606060" transform="rotate(-90 2153.20,2332.30)" text-anchor="end">Michiels</text>
	<text x="2214.36" y="2332.30" style="font-family:'Helvetica';font-size:59.94px;fill:#606060" transform="rotate(-90 2214.36,2332.30)" text-anchor="end">DEspallier</text>
	<text x="2275.38" y="2332.30" style="font-family:'Helvetica';font-size:59.94px;fill:#606060" transform="rotate(-90 2275.38,2332.30)" text-anchor="end">Mouchel</text>
	<text x="2336.53" y="2332.30" style="font-family:'Helvetica';font-size:59.94px;fill:#606060" transform="rotate(-90 2336.53,2332.30)" text-anchor="end">Girollet</text>
	<text x="2397.55" y="2332.30" style="font-family:'Helvetica';font-size:59.94px;fill:#606060" transform="rotate(-90 2397.55,2332.30)" text-anchor="end">Goedecke</text>
	<text x="2458.71" y="2332.30" style="font-family:'Helvetica';font-size:59.94px;fill:#606060" transform="rotate(-90 2458.71,2332.30)" text-anchor="end">Kumar</text>
	<text x="2519.73" y="2332.30" style="font-family:'Helvetica';font-size:59.94px;fill:#606060" transform="rotate(-90 2519.73,2332.30)" text-anchor="end">Lanos</text>
	<text x="2580.88" y="2332.30" style="font-family:'Helvetica';font-size:59.94px;fill:#606060" transform="rotate(-90 2580.88,2332.30)" text-anchor="end">Reboul</text>
	<text x="2641.90" y="2332.30" style="font-family:'Helvetica';font-size:59.94px;fill:#606060" transform="rotate(-90 2641.90,2332.30)" text-anchor="end">Roesch</text>
	<text x="2703.06" y="2332.30" style="font-family:'Helvetica';font-size:59.94px;fill:#606060" transform="rotate(-90 2703.06,2332.30)" text-anchor="end">Seetahul</text>
	<text x="2284.88" y="348.94" style="font-family:'Helvetica';font-size:75.06px;fill:#000000" text-anchor="middle">Original papers (N=17)</text>
	<rect x="2858.90" y="207.90" width="1397.66" height="2514.14" style="fill:#FFFFFF"/>
	<rect x="2861.05" y="210.06" width="1393.34" height="2509.82" style="fill:none;stroke:#FFFFFF;stroke-width:4.32"/>
	<rect x="3184.38" y="384.49" width="996.57" height="1931.88" style="fill:#E0E0E0"/>
	<rect x="3186.54" y="386.65" width="992.25" height="1927.56" style="fill:none;stroke:#FFFFFF;stroke-width:4.32"/>
	<line x1="3184.38" y1="2316.37" x2="4180.95" y2="2316.37" style="stroke:#FFFFFF;stroke-width:4.32"/>
	<line x1="3184.38" y1="1945.11" x2="4180.95" y2="1945.11" style="stroke:#FFFFFF;stroke-width:4.32"/>
	<line x1="3184.38" y1="1573.85" x2="4180.95" y2="1573.85" style="stroke:#FFFFFF;stroke-width:4.32"/>
	<line x1="3184.38" y1="1202.60" x2="4180.95" y2="1202.60" style="stroke:#FFFFFF;stroke-width:4.32"/>
	<line x1="3184.38" y1="831.34" x2="4180.95" y2="831.34" style="stroke:#FFFFFF;stroke-width:4.32"/>
	<rect x="3271.45" y="797.59" width="57.24" height="1518.77" style="fill:#808080"/>
	<rect x="3273.61" y="799.75" width="52.92" height="1514.45" style="fill:none;stroke:#000000;stroke-width:4.32"/>
	<rect x="3367.03" y="1303.85" width="57.38" height="1012.52" style="fill:#808080"/>
	<rect x="3369.19" y="1306.01" width="53.06" height="1008.20" style="fill:none;stroke:#000000;stroke-width:4.32"/>
	<rect x="3462.75" y="1641.36" width="57.24" height="675.01" style="fill:#808080"/>
	<rect x="3464.91" y="1643.52" width="52.92" height="670.69" style="fill:none;stroke:#000000;stroke-width:4.32"/>
	<rect x="3558.33" y="1810.11" width="57.38" height="506.26" style="fill:#808080"/>
	<rect x="3560.49" y="1812.27" width="53.06" height="501.94" style="fill:none;stroke:#000000;stroke-width:4.32"/>
	<rect x="3654.05" y="1810.11" width="57.24" height="506.26" style="fill:#808080"/>
	<rect x="3656.20" y="1812.27" width="52.92" height="501.94" style="fill:none;stroke:#000000;stroke-width:4.32"/>
	<rect x="3749.63" y="1978.86" width="57.38" height="337.51" style="fill:#808080"/>
	<rect x="3751.78" y="1981.02" width="53.06" height="333.19" style="fill:none;stroke:#000000;stroke-width:4.32"/>
	<rect x="3845.34" y="1978.86" width="57.24" height="337.51" style="fill:#808080"/>
	<rect x="3847.50" y="1981.02" width="52.92" height="333.19" style="fill:none;stroke:#000000;stroke-width:4.32"/>
	<rect x="3941.05" y="2147.61" width="57.24" height="168.75" style="fill:#808080"/>
	<rect x="3943.21" y="2149.77" width="52.92" height="164.43" style="fill:none;stroke:#000000;stroke-width:4.32"/>
	<rect x="4036.64" y="2147.61" width="57.24" height="168.75" style="fill:#808080"/>
	<rect x="4038.79" y="2149.77" width="52.92" height="164.43" style="fill:none;stroke:#000000;stroke-width:4.32"/>
	<line x1="3184.38" y1="2316.37" x2="3154.41" y2="2316.37" style="stroke:#606060;stroke-width:4.32"/>
	<text x="3139.43" y="2337.38" style="font-family:'Helvetica';font-size:59.94px;fill:#606060" text-anchor="end">0</text>
	<line x1="3184.38" y1="1945.11" x2="3154.41" y2="1945.11" style="stroke:#606060;stroke-width:4.32"/>
	<text x="3139.43" y="1966.12" style="font-family:'Helvetica';font-size:59.94px;fill:#606060" text-anchor="end">20</text>
	<line x1="3184.38" y1="1573.85" x2="3154.41" y2="1573.85" style="stroke:#606060;stroke-width:4.32"/>
	<text x="3139.43" y="1594.87" style="font-family:'Helvetica';font-size:59.94px;fill:#606060" text-anchor="end">40</text>
	<line x1="3184.38" y1="1202.60" x2="3154.41" y2="1202.60" style="stroke:#606060;stroke-width:4.32"/>
	<text x="3139.43" y="1223.61" style="font-family:'Helvetica';font-size:59.94px;fill:#606060" text-anchor="end">60</text>
	<line x1="3184.38" y1="831.34" x2="3154.41" y2="831.34" style="stroke:#606060;stroke-width:4.32"/>
	<text x="3139.43" y="852.36" style="font-family:'Helvetica';font-size:59.94px;fill:#606060" text-anchor="end">80</text>
	<line x1="3184.38" y1="460.09" x2="3154.41" y2="460.09" style="stroke:#606060;stroke-width:4.32"/>
	<text x="3139.43" y="481.10" style="font-family:'Helvetica';font-size:59.94px;fill:#606060" text-anchor="end">100</text>
	<line x1="3184.38" y1="2316.37" x2="3184.38" y2="460.09" style="stroke:#000000;stroke-width:4.32"/>
	<text x="2991.37" y="1350.43" style="font-family:'Helvetica';font-size:59.94px;fill:#000000" transform="rotate(-90 2991.37,1350.43)" text-anchor="middle">Percentage</text>
	<text x="3321.09" y="2346.34" style="font-family:'Helvetica';font-size:59.94px;fill:#606060" transform="rotate(-90 3321.09,2346.34)" text-anchor="end">Nordman</text>
	<text x="3416.67" y="2346.34" style="font-family:'Helvetica';font-size:59.94px;fill:#606060" transform="rotate(-90 3416.67,2346.34)" text-anchor="end">Natal</text>
	<text x="3512.38" y="2346.34" style="font-family:'Helvetica';font-size:59.94px;fill:#606060" transform="rotate(-90 3512.38,2346.34)" text-anchor="end">Mouchel</text>
	<text x="3608.10" y="2346.34" style="font-family:'Helvetica';font-size:59.94px;fill:#606060" transform="rotate(-90 3608.10,2346.34)" text-anchor="end">DiSantolo</text>
	<text x="3703.68" y="2346.34" style="font-family:'Helvetica';font-size:59.94px;fill:#606060" transform="rotate(-90 3703.68,2346.34)" text-anchor="end">Guérin</text>
	<text x="3799.39" y="2346.34" style="font-family:'Helvetica';font-size:59.94px;fill:#606060" transform="rotate(-90 3799.39,2346.34)" text-anchor="end">Michiels</text>
	<text x="3894.97" y="2346.34" style="font-family:'Helvetica';font-size:59.94px;fill:#606060" transform="rotate(-90 3894.97,2346.34)" text-anchor="end">Venkat</text>
	<text x="3990.69" y="2346.34" style="font-family:'Helvetica';font-size:59.94px;fill:#606060" transform="rotate(-90 3990.69,2346.34)" text-anchor="end">Hilger</text>
	<text x="4086.27" y="2346.34" style="font-family:'Helvetica';font-size:59.94px;fill:#606060" transform="rotate(-90 4086.27,2346.34)" text-anchor="end">Reboul</text>
	<text x="3682.67" y="348.94" style="font-family:'Helvetica';font-size:75.06px;fill:#000000" text-anchor="middle">From thesis (N=11)</text>
	<text x="80.59" y="2781.35" style="fill:#000000">
		<tspan style="font-family:'Helvetica';font-style:italic;font-size:59.94px">Source:</tspan>
		<tspan style="font-family:'Helvetica';font-size:59.94px"> A. Natal. Updated in October 2025.</tspan>
	</text>
	<text x="2160.00" y="157.55" style="font-family:'Helvetica';font-size:110.03px;fill:#000000" text-anchor="middle">Origin of the papers and authors (N=28)</text>
</svg>
