<?xml version="1.0" encoding="UTF-8" standalone="no"?>
<!-- This is a Stata 15.1 generated SVG file (http://www.stata.com) -->

<svg version="1.1" width="5.50in" height="4.00in" viewBox="0 0 3960 2880" xmlns="http://www.w3.org/2000/svg" xmlns:xlink="http://www.w3.org/1999/xlink">
	<desc>Stata Graph - origin</desc>
	<rect x="0" y="0" width="3960" height="2880" style="fill:#FFFFFF;stroke:none"/>
	<rect x="0.00" y="0.00" width="3959.88" height="2880.00" style="fill:#FFFFFF"/>
	<rect x="2.88" y="2.88" width="3954.12" height="2874.24" style="fill:none;stroke:#FFFFFF;stroke-width:5.76"/>
	<rect x="63.36" y="207.91" width="1277.72" height="2514.18" style="fill:#FFFFFF"/>
	<rect x="65.52" y="210.07" width="1273.40" height="2509.86" style="fill:none;stroke:#FFFFFF;stroke-width:4.32"/>
	<rect x="328.61" y="386.54" width="934.70" height="1703.73" style="fill:none;stroke:#000000;stroke-width:4.32"/>
	<line x1="326.45" y1="2092.43" x2="1265.47" y2="2092.43" style="stroke:#E0E0E0;stroke-width:6.48"/>
	<line x1="326.45" y1="1888.36" x2="1265.47" y2="1888.36" style="stroke:#E0E0E0;stroke-width:6.48"/>
	<line x1="326.45" y1="1684.29" x2="1265.47" y2="1684.29" style="stroke:#E0E0E0;stroke-width:6.48"/>
	<line x1="326.45" y1="1480.22" x2="1265.47" y2="1480.22" style="stroke:#E0E0E0;stroke-width:6.48"/>
	<line x1="326.45" y1="1276.15" x2="1265.47" y2="1276.15" style="stroke:#E0E0E0;stroke-width:6.48"/>
	<line x1="326.45" y1="1072.20" x2="1265.47" y2="1072.20" style="stroke:#E0E0E0;stroke-width:6.48"/>
	<line x1="326.45" y1="868.13" x2="1265.47" y2="868.13" style="stroke:#E0E0E0;stroke-width:6.48"/>
	<line x1="326.45" y1="664.06" x2="1265.47" y2="664.06" style="stroke:#E0E0E0;stroke-width:6.48"/>
	<rect x="453.30" y="853.53" width="256.66" height="1238.90" style="fill:#606060"/>
	<rect x="455.46" y="855.69" width="252.34" height="1234.58" style="fill:none;stroke:#606060;stroke-width:4.32"/>
	<rect x="881.97" y="1290.75" width="256.53" height="801.68" style="fill:#606060"/>
	<rect x="884.13" y="1292.91" width="252.21" height="797.36" style="fill:none;stroke:#606060;stroke-width:4.32"/>
	<line x1="326.45" y1="2092.43" x2="326.45" y2="384.38" style="stroke:#000000;stroke-width:4.32"/>
	<line x1="326.45" y1="2092.43" x2="296.38" y2="2092.43" style="stroke:#000000;stroke-width:4.32"/>
	<text x="263.34" y="2092.43" style="font-family:'Helvetica';font-size:60.02px;fill:#000000" transform="rotate(-90 263.34,2092.43)" text-anchor="middle">0</text>
	<line x1="326.45" y1="1888.36" x2="296.38" y2="1888.36" style="stroke:#000000;stroke-width:4.32"/>
	<text x="263.34" y="1888.36" style="font-family:'Helvetica';font-size:60.02px;fill:#000000" transform="rotate(-90 263.34,1888.36)" text-anchor="middle">10</text>
	<line x1="326.45" y1="1684.29" x2="296.38" y2="1684.29" style="stroke:#000000;stroke-width:4.32"/>
	<text x="263.34" y="1684.29" style="font-family:'Helvetica';font-size:60.02px;fill:#000000" transform="rotate(-90 263.34,1684.29)" text-anchor="middle">20</text>
	<line x1="326.45" y1="1480.22" x2="296.38" y2="1480.22" style="stroke:#000000;stroke-width:4.32"/>
	<text x="263.34" y="1480.22" style="font-family:'Helvetica';font-size:60.02px;fill:#000000" transform="rotate(-90 263.34,1480.22)" text-anchor="middle">30</text>
	<line x1="326.45" y1="1276.15" x2="296.38" y2="1276.15" style="stroke:#000000;stroke-width:4.32"/>
	<text x="263.34" y="1276.15" style="font-family:'Helvetica';font-size:60.02px;fill:#000000" transform="rotate(-90 263.34,1276.15)" text-anchor="middle">40</text>
	<line x1="326.45" y1="1072.20" x2="296.38" y2="1072.20" style="stroke:#000000;stroke-width:4.32"/>
	<text x="263.34" y="1072.20" style="font-family:'Helvetica';font-size:60.02px;fill:#000000" transform="rotate(-90 263.34,1072.20)" text-anchor="middle">50</text>
	<line x1="326.45" y1="868.13" x2="296.38" y2="868.13" style="stroke:#000000;stroke-width:4.32"/>
	<text x="263.34" y="868.13" style="font-family:'Helvetica';font-size:60.02px;fill:#000000" transform="rotate(-90 263.34,868.13)" text-anchor="middle">60</text>
	<line x1="326.45" y1="664.06" x2="296.38" y2="664.06" style="stroke:#000000;stroke-width:4.32"/>
	<text x="263.34" y="664.06" style="font-family:'Helvetica';font-size:60.02px;fill:#000000" transform="rotate(-90 263.34,664.06)" text-anchor="middle">70</text>
	<line x1="326.45" y1="459.99" x2="296.38" y2="459.99" style="stroke:#000000;stroke-width:4.32"/>
	<text x="263.34" y="459.99" style="font-family:'Helvetica';font-size:60.02px;fill:#000000" transform="rotate(-90 263.34,459.99)" text-anchor="middle">80</text>
	<text x="195.90" y="1238.40" style="font-family:'Helvetica';font-size:60.02px;fill:#000000" transform="rotate(-90 195.90,1238.40)" text-anchor="middle">Percentage</text>
	<line x1="326.45" y1="2092.43" x2="1265.47" y2="2092.43" style="stroke:#000000;stroke-width:4.32"/>
	<text x="602.66" y="2122.38" style="font-family:'Helvetica';font-size:60.02px;fill:#000000" transform="rotate(-90 602.66,2122.38)" text-anchor="end">Original paper</text>
	<text x="1031.33" y="2122.38" style="font-family:'Helvetica';font-size:60.02px;fill:#000000" transform="rotate(-90 1031.33,2122.38)" text-anchor="end">Paper from thesis</text>
	<text x="795.96" y="348.95" style="font-family:'Helvetica';font-size:74.99px;fill:#000000" text-anchor="middle">From?</text>
	<rect x="1341.08" y="207.91" width="1277.72" height="2514.18" style="fill:#FFFFFF"/>
	<rect x="1343.24" y="210.07" width="1273.40" height="2509.86" style="fill:none;stroke:#FFFFFF;stroke-width:4.32"/>
	<rect x="1606.33" y="386.54" width="934.70" height="1913.62" style="fill:none;stroke:#000000;stroke-width:4.32"/>
	<line x1="1604.17" y1="2302.32" x2="2543.19" y2="2302.32" style="stroke:#E0E0E0;stroke-width:6.48"/>
	<line x1="1604.17" y1="1933.90" x2="2543.19" y2="1933.90" style="stroke:#E0E0E0;stroke-width:6.48"/>
	<line x1="1604.17" y1="1565.36" x2="2543.19" y2="1565.36" style="stroke:#E0E0E0;stroke-width:6.48"/>
	<line x1="1604.17" y1="1196.95" x2="2543.19" y2="1196.95" style="stroke:#E0E0E0;stroke-width:6.48"/>
	<line x1="1604.17" y1="828.53" x2="2543.19" y2="828.53" style="stroke:#E0E0E0;stroke-width:6.48"/>
	<rect x="1686.59" y="1110.20" width="34.03" height="1192.12" style="fill:#606060"/>
	<rect x="1688.75" y="1112.36" width="29.71" height="1187.80" style="fill:none;stroke:#606060;stroke-width:4.32"/>
	<rect x="1743.51" y="1218.60" width="34.03" height="1083.71" style="fill:#606060"/>
	<rect x="1745.67" y="1220.76" width="29.71" height="1079.39" style="fill:none;stroke:#606060;stroke-width:4.32"/>
	<rect x="1800.44" y="1327.01" width="34.03" height="975.30" style="fill:#606060"/>
	<rect x="1802.60" y="1329.17" width="29.71" height="970.98" style="fill:none;stroke:#606060;stroke-width:4.32"/>
	<rect x="1857.36" y="1652.11" width="34.03" height="650.20" style="fill:#606060"/>
	<rect x="1859.52" y="1654.27" width="29.71" height="645.88" style="fill:none;stroke:#606060;stroke-width:4.32"/>
	<rect x="1914.29" y="1760.52" width="34.03" height="541.79" style="fill:#606060"/>
	<rect x="1916.45" y="1762.68" width="29.71" height="537.47" style="fill:none;stroke:#606060;stroke-width:4.32"/>
	<rect x="1971.21" y="1977.22" width="34.16" height="325.10" style="fill:#606060"/>
	<rect x="1973.37" y="1979.38" width="29.84" height="320.78" style="fill:none;stroke:#606060;stroke-width:4.32"/>
	<rect x="2028.14" y="2085.62" width="34.15" height="216.69" style="fill:#606060"/>
	<rect x="2030.30" y="2087.78" width="29.84" height="212.37" style="fill:none;stroke:#606060;stroke-width:4.32"/>
	<rect x="2085.06" y="2193.91" width="34.16" height="108.41" style="fill:#606060"/>
	<rect x="2087.22" y="2196.07" width="29.84" height="104.09" style="fill:none;stroke:#606060;stroke-width:4.32"/>
	<rect x="2141.99" y="2193.91" width="34.16" height="108.41" style="fill:#606060"/>
	<rect x="2144.15" y="2196.07" width="29.84" height="104.09" style="fill:none;stroke:#606060;stroke-width:4.32"/>
	<rect x="2198.91" y="2193.91" width="34.15" height="108.41" style="fill:#606060"/>
	<rect x="2201.07" y="2196.07" width="29.84" height="104.09" style="fill:none;stroke:#606060;stroke-width:4.32"/>
	<rect x="2255.84" y="2193.91" width="34.16" height="108.41" style="fill:#606060"/>
	<rect x="2258.00" y="2196.07" width="29.84" height="104.09" style="fill:none;stroke:#606060;stroke-width:4.32"/>
	<rect x="2312.76" y="2193.91" width="34.15" height="108.41" style="fill:#606060"/>
	<rect x="2314.92" y="2196.07" width="29.84" height="104.09" style="fill:none;stroke:#606060;stroke-width:4.32"/>
	<rect x="2369.81" y="2193.91" width="34.03" height="108.41" style="fill:#606060"/>
	<rect x="2371.97" y="2196.07" width="29.71" height="104.09" style="fill:none;stroke:#606060;stroke-width:4.32"/>
	<rect x="2426.74" y="2193.91" width="34.03" height="108.41" style="fill:#606060"/>
	<rect x="2428.90" y="2196.07" width="29.71" height="104.09" style="fill:none;stroke:#606060;stroke-width:4.32"/>
	<line x1="1604.17" y1="2302.32" x2="1604.17" y2="384.38" style="stroke:#000000;stroke-width:4.32"/>
	<line x1="1604.17" y1="2302.32" x2="1574.10" y2="2302.32" style="stroke:#000000;stroke-width:4.32"/>
	<text x="1541.06" y="2302.32" style="font-family:'Helvetica';font-size:60.02px;fill:#000000" transform="rotate(-90 1541.06,2302.32)" text-anchor="middle">0</text>
	<line x1="1604.17" y1="1933.90" x2="1574.10" y2="1933.90" style="stroke:#000000;stroke-width:4.32"/>
	<text x="1541.06" y="1933.90" style="font-family:'Helvetica';font-size:60.02px;fill:#000000" transform="rotate(-90 1541.06,1933.90)" text-anchor="middle">20</text>
	<line x1="1604.17" y1="1565.36" x2="1574.10" y2="1565.36" style="stroke:#000000;stroke-width:4.32"/>
	<text x="1541.06" y="1565.36" style="font-family:'Helvetica';font-size:60.02px;fill:#000000" transform="rotate(-90 1541.06,1565.36)" text-anchor="middle">40</text>
	<line x1="1604.17" y1="1196.95" x2="1574.10" y2="1196.95" style="stroke:#000000;stroke-width:4.32"/>
	<text x="1541.06" y="1196.95" style="font-family:'Helvetica';font-size:60.02px;fill:#000000" transform="rotate(-90 1541.06,1196.95)" text-anchor="middle">60</text>
	<line x1="1604.17" y1="828.53" x2="1574.10" y2="828.53" style="stroke:#000000;stroke-width:4.32"/>
	<text x="1541.06" y="828.53" style="font-family:'Helvetica';font-size:60.02px;fill:#000000" transform="rotate(-90 1541.06,828.53)" text-anchor="middle">80</text>
	<line x1="1604.17" y1="459.99" x2="1574.10" y2="459.99" style="stroke:#000000;stroke-width:4.32"/>
	<text x="1541.06" y="459.99" style="font-family:'Helvetica';font-size:60.02px;fill:#000000" transform="rotate(-90 1541.06,459.99)" text-anchor="middle">100</text>
	<text x="1473.61" y="1343.35" style="font-family:'Helvetica';font-size:60.02px;fill:#000000" transform="rotate(-90 1473.61,1343.35)" text-anchor="middle">Percentage</text>
	<line x1="1604.17" y1="2302.32" x2="2543.19" y2="2302.32" style="stroke:#000000;stroke-width:4.32"/>
	<text x="1724.58" y="2332.27" style="font-family:'Helvetica';font-size:60.02px;fill:#000000" transform="rotate(-90 1724.58,2332.27)" text-anchor="end">Guérin</text>
	<text x="1781.50" y="2332.27" style="font-family:'Helvetica';font-size:60.02px;fill:#000000" transform="rotate(-90 1781.50,2332.27)" text-anchor="end">Venkat</text>
	<text x="1838.55" y="2332.27" style="font-family:'Helvetica';font-size:60.02px;fill:#000000" transform="rotate(-90 1838.55,2332.27)" text-anchor="end">Nordman</text>
	<text x="1895.48" y="2332.27" style="font-family:'Helvetica';font-size:60.02px;fill:#000000" transform="rotate(-90 1895.48,2332.27)" text-anchor="end">Natal</text>
	<text x="1952.40" y="2332.27" style="font-family:'Helvetica';font-size:60.02px;fill:#000000" transform="rotate(-90 1952.40,2332.27)" text-anchor="end">Michiels</text>
	<text x="2009.33" y="2332.27" style="font-family:'Helvetica';font-size:60.02px;fill:#000000" transform="rotate(-90 2009.33,2332.27)" text-anchor="end">DEspallier</text>
	<text x="2066.25" y="2332.27" style="font-family:'Helvetica';font-size:60.02px;fill:#000000" transform="rotate(-90 2066.25,2332.27)" text-anchor="end">Mouchel</text>
	<text x="2123.18" y="2332.27" style="font-family:'Helvetica';font-size:60.02px;fill:#000000" transform="rotate(-90 2123.18,2332.27)" text-anchor="end">Girollet</text>
	<text x="2180.10" y="2332.27" style="font-family:'Helvetica';font-size:60.02px;fill:#000000" transform="rotate(-90 2180.10,2332.27)" text-anchor="end">Goedecke</text>
	<text x="2237.03" y="2332.27" style="font-family:'Helvetica';font-size:60.02px;fill:#000000" transform="rotate(-90 2237.03,2332.27)" text-anchor="end">Kumar</text>
	<text x="2293.95" y="2332.27" style="font-family:'Helvetica';font-size:60.02px;fill:#000000" transform="rotate(-90 2293.95,2332.27)" text-anchor="end">Lanos</text>
	<text x="2350.88" y="2332.27" style="font-family:'Helvetica';font-size:60.02px;fill:#000000" transform="rotate(-90 2350.88,2332.27)" text-anchor="end">Reboul</text>
	<text x="2407.80" y="2332.27" style="font-family:'Helvetica';font-size:60.02px;fill:#000000" transform="rotate(-90 2407.80,2332.27)" text-anchor="end">Roesch</text>
	<text x="2464.73" y="2332.27" style="font-family:'Helvetica';font-size:60.02px;fill:#000000" transform="rotate(-90 2464.73,2332.27)" text-anchor="end">Seetahul</text>
	<text x="2073.68" y="348.95" style="font-family:'Helvetica';font-size:74.99px;fill:#000000" text-anchor="middle">Original papers (N=17)</text>
	<rect x="2618.80" y="207.91" width="1277.72" height="2514.18" style="fill:#FFFFFF"/>
	<rect x="2620.96" y="210.07" width="1273.40" height="2509.86" style="fill:none;stroke:#FFFFFF;stroke-width:4.32"/>
	<rect x="2884.05" y="386.54" width="934.70" height="1927.60" style="fill:none;stroke:#000000;stroke-width:4.32"/>
	<line x1="2881.89" y1="2316.30" x2="3820.91" y2="2316.30" style="stroke:#E0E0E0;stroke-width:6.48"/>
	<line x1="2881.89" y1="1945.04" x2="3820.91" y2="1945.04" style="stroke:#E0E0E0;stroke-width:6.48"/>
	<line x1="2881.89" y1="1573.78" x2="3820.91" y2="1573.78" style="stroke:#E0E0E0;stroke-width:6.48"/>
	<line x1="2881.89" y1="1202.52" x2="3820.91" y2="1202.52" style="stroke:#E0E0E0;stroke-width:6.48"/>
	<line x1="2881.89" y1="831.25" x2="3820.91" y2="831.25" style="stroke:#E0E0E0;stroke-width:6.48"/>
	<rect x="2968.14" y="797.59" width="53.34" height="1518.71" style="fill:#606060"/>
	<rect x="2970.30" y="799.75" width="49.02" height="1514.39" style="fill:none;stroke:#606060;stroke-width:4.32"/>
	<rect x="3057.24" y="1303.75" width="53.46" height="1012.55" style="fill:#606060"/>
	<rect x="3059.40" y="1305.91" width="49.14" height="1008.23" style="fill:none;stroke:#606060;stroke-width:4.32"/>
	<rect x="3146.47" y="1641.35" width="53.34" height="674.95" style="fill:#606060"/>
	<rect x="3148.63" y="1643.51" width="49.02" height="670.63" style="fill:none;stroke:#606060;stroke-width:4.32"/>
	<rect x="3235.57" y="1810.02" width="53.34" height="506.28" style="fill:#606060"/>
	<rect x="3237.73" y="1812.18" width="49.02" height="501.96" style="fill:none;stroke:#606060;stroke-width:4.32"/>
	<rect x="3324.67" y="1810.02" width="53.46" height="506.28" style="fill:#606060"/>
	<rect x="3326.83" y="1812.18" width="49.14" height="501.96" style="fill:none;stroke:#606060;stroke-width:4.32"/>
	<rect x="3413.89" y="1978.82" width="53.34" height="337.48" style="fill:#606060"/>
	<rect x="3416.05" y="1980.98" width="49.02" height="333.16" style="fill:none;stroke:#606060;stroke-width:4.32"/>
	<rect x="3502.99" y="1978.82" width="53.34" height="337.48" style="fill:#606060"/>
	<rect x="3505.15" y="1980.98" width="49.02" height="333.16" style="fill:none;stroke:#606060;stroke-width:4.32"/>
	<rect x="3592.09" y="2147.50" width="53.46" height="168.80" style="fill:#606060"/>
	<rect x="3594.25" y="2149.66" width="49.14" height="164.48" style="fill:none;stroke:#606060;stroke-width:4.32"/>
	<rect x="3681.32" y="2147.50" width="53.34" height="168.80" style="fill:#606060"/>
	<rect x="3683.47" y="2149.66" width="49.02" height="164.48" style="fill:none;stroke:#606060;stroke-width:4.32"/>
	<line x1="2881.89" y1="2316.30" x2="2881.89" y2="384.38" style="stroke:#000000;stroke-width:4.32"/>
	<line x1="2881.89" y1="2316.30" x2="2851.82" y2="2316.30" style="stroke:#000000;stroke-width:4.32"/>
	<text x="2818.78" y="2316.30" style="font-family:'Helvetica';font-size:60.02px;fill:#000000" transform="rotate(-90 2818.78,2316.30)" text-anchor="middle">0</text>
	<line x1="2881.89" y1="1945.04" x2="2851.82" y2="1945.04" style="stroke:#000000;stroke-width:4.32"/>
	<text x="2818.78" y="1945.04" style="font-family:'Helvetica';font-size:60.02px;fill:#000000" transform="rotate(-90 2818.78,1945.04)" text-anchor="middle">20</text>
	<line x1="2881.89" y1="1573.78" x2="2851.82" y2="1573.78" style="stroke:#000000;stroke-width:4.32"/>
	<text x="2818.78" y="1573.78" style="font-family:'Helvetica';font-size:60.02px;fill:#000000" transform="rotate(-90 2818.78,1573.78)" text-anchor="middle">40</text>
	<line x1="2881.89" y1="1202.52" x2="2851.82" y2="1202.52" style="stroke:#000000;stroke-width:4.32"/>
	<text x="2818.78" y="1202.52" style="font-family:'Helvetica';font-size:60.02px;fill:#000000" transform="rotate(-90 2818.78,1202.52)" text-anchor="middle">60</text>
	<line x1="2881.89" y1="831.25" x2="2851.82" y2="831.25" style="stroke:#000000;stroke-width:4.32"/>
	<text x="2818.78" y="831.25" style="font-family:'Helvetica';font-size:60.02px;fill:#000000" transform="rotate(-90 2818.78,831.25)" text-anchor="middle">80</text>
	<line x1="2881.89" y1="459.99" x2="2851.82" y2="459.99" style="stroke:#000000;stroke-width:4.32"/>
	<text x="2818.78" y="459.99" style="font-family:'Helvetica';font-size:60.02px;fill:#000000" transform="rotate(-90 2818.78,459.99)" text-anchor="middle">100</text>
	<text x="2751.33" y="1350.40" style="font-family:'Helvetica';font-size:60.02px;fill:#000000" transform="rotate(-90 2751.33,1350.40)" text-anchor="middle">Percentage</text>
	<line x1="2881.89" y1="2316.30" x2="3820.91" y2="2316.30" style="stroke:#000000;stroke-width:4.32"/>
	<text x="3015.91" y="2346.37" style="font-family:'Helvetica';font-size:60.02px;fill:#000000" transform="rotate(-90 3015.91,2346.37)" text-anchor="end">Nordman</text>
	<text x="3105.01" y="2346.37" style="font-family:'Helvetica';font-size:60.02px;fill:#000000" transform="rotate(-90 3105.01,2346.37)" text-anchor="end">Natal</text>
	<text x="3194.11" y="2346.37" style="font-family:'Helvetica';font-size:60.02px;fill:#000000" transform="rotate(-90 3194.11,2346.37)" text-anchor="end">Mouchel</text>
	<text x="3283.34" y="2346.37" style="font-family:'Helvetica';font-size:60.02px;fill:#000000" transform="rotate(-90 3283.34,2346.37)" text-anchor="end">DiSantolo</text>
	<text x="3372.43" y="2346.37" style="font-family:'Helvetica';font-size:60.02px;fill:#000000" transform="rotate(-90 3372.43,2346.37)" text-anchor="end">Guérin</text>
	<text x="3461.53" y="2346.37" style="font-family:'Helvetica';font-size:60.02px;fill:#000000" transform="rotate(-90 3461.53,2346.37)" text-anchor="end">Michiels</text>
	<text x="3550.76" y="2346.37" style="font-family:'Helvetica';font-size:60.02px;fill:#000000" transform="rotate(-90 3550.76,2346.37)" text-anchor="end">Venkat</text>
	<text x="3639.86" y="2346.37" style="font-family:'Helvetica';font-size:60.02px;fill:#000000" transform="rotate(-90 3639.86,2346.37)" text-anchor="end">Hilger</text>
	<text x="3728.96" y="2346.37" style="font-family:'Helvetica';font-size:60.02px;fill:#000000" transform="rotate(-90 3728.96,2346.37)" text-anchor="end">Reboul</text>
	<text x="3351.40" y="348.95" style="font-family:'Helvetica';font-size:74.99px;fill:#000000" text-anchor="middle">From thesis (N=11)</text>
	<text x="80.69" y="2781.24" style="fill:#000000">
		<tspan style="font-family:'Helvetica';font-style:italic;font-size:60.02px">Source:</tspan>
		<tspan style="font-family:'Helvetica';font-size:60.02px"> A. Natal. Updated in October 2025.</tspan>
	</text>
	<text x="1979.88" y="157.51" style="font-family:'Helvetica';font-size:110.01px;fill:#000000" text-anchor="middle">Origin of the papers and authors (N=28)</text>
</svg>
