<?xml version="1.0" encoding="UTF-8" standalone="no"?>
<!-- This is a Stata 15.1 generated SVG file (http://www.stata.com) -->

<svg version="1.1" width="6.00in" height="4.00in" viewBox="0 0 4320 2880" xmlns="http://www.w3.org/2000/svg" xmlns:xlink="http://www.w3.org/1999/xlink">
	<desc>Stata Graph - authors</desc>
	<rect x="0" y="0" width="4320" height="2880" style="fill:#FFFFFF;stroke:none"/>
	<rect x="0.00" y="0.00" width="4320.00" height="2880.00" style="fill:#FFFFFF"/>
	<rect x="2.88" y="2.88" width="4314.24" height="2874.24" style="fill:none;stroke:#FFFFFF;stroke-width:5.76"/>
	<rect x="63.31" y="207.90" width="1397.79" height="2514.14" style="fill:#FFFFFF"/>
	<rect x="65.47" y="210.06" width="1393.47" height="2509.82" style="fill:none;stroke:#FFFFFF;stroke-width:4.32"/>
	<rect x="353.97" y="384.49" width="1031.54" height="1907.31" style="fill:#E0E0E0"/>
	<rect x="356.13" y="386.65" width="1027.22" height="1902.99" style="fill:none;stroke:#FFFFFF;stroke-width:4.32"/>
	<line x1="353.97" y1="2291.80" x2="1385.51" y2="2291.80" style="stroke:#FFFFFF;stroke-width:4.32"/>
	<line x1="353.97" y1="1864.38" x2="1385.51" y2="1864.38" style="stroke:#FFFFFF;stroke-width:4.32"/>
	<line x1="353.97" y1="1436.96" x2="1385.51" y2="1436.96" style="stroke:#FFFFFF;stroke-width:4.32"/>
	<line x1="353.97" y1="1009.55" x2="1385.51" y2="1009.55" style="stroke:#FFFFFF;stroke-width:4.32"/>
	<line x1="353.97" y1="582.13" x2="1385.51" y2="582.13" style="stroke:#FFFFFF;stroke-width:4.32"/>
	<rect x="437.13" y="460.09" width="38.07" height="1831.71" style="fill:#808080"/>
	<rect x="439.29" y="462.25" width="33.75" height="1827.39" style="fill:none;stroke:#000000;stroke-width:4.32"/>
	<rect x="500.71" y="1528.63" width="38.07" height="763.17" style="fill:#808080"/>
	<rect x="502.87" y="1530.79" width="33.75" height="758.85" style="fill:none;stroke:#000000;stroke-width:4.32"/>
	<rect x="564.30" y="1986.56" width="38.21" height="305.24" style="fill:#808080"/>
	<rect x="566.46" y="1988.72" width="33.89" height="300.92" style="fill:none;stroke:#000000;stroke-width:4.32"/>
	<rect x="628.02" y="1986.56" width="38.07" height="305.24" style="fill:#808080"/>
	<rect x="630.18" y="1988.72" width="33.75" height="300.92" style="fill:none;stroke:#000000;stroke-width:4.32"/>
	<rect x="691.61" y="1986.56" width="38.07" height="305.24" style="fill:#808080"/>
	<rect x="693.76" y="1988.72" width="33.75" height="300.92" style="fill:none;stroke:#000000;stroke-width:4.32"/>
	<rect x="755.19" y="1986.56" width="38.07" height="305.24" style="fill:#808080"/>
	<rect x="757.35" y="1988.72" width="33.75" height="300.92" style="fill:none;stroke:#000000;stroke-width:4.32"/>
	<rect x="818.91" y="1986.56" width="38.07" height="305.24" style="fill:#808080"/>
	<rect x="821.07" y="1988.72" width="33.75" height="300.92" style="fill:none;stroke:#000000;stroke-width:4.32"/>
	<rect x="882.50" y="2139.11" width="38.07" height="152.69" style="fill:#808080"/>
	<rect x="884.65" y="2141.27" width="33.75" height="148.37" style="fill:none;stroke:#000000;stroke-width:4.32"/>
	<rect x="946.08" y="2139.11" width="38.07" height="152.69" style="fill:#808080"/>
	<rect x="948.24" y="2141.27" width="33.75" height="148.37" style="fill:none;stroke:#000000;stroke-width:4.32"/>
	<rect x="1009.67" y="2139.11" width="38.07" height="152.69" style="fill:#808080"/>
	<rect x="1011.82" y="2141.27" width="33.75" height="148.37" style="fill:none;stroke:#000000;stroke-width:4.32"/>
	<rect x="1073.39" y="2139.11" width="38.07" height="152.69" style="fill:#808080"/>
	<rect x="1075.54" y="2141.27" width="33.75" height="148.37" style="fill:none;stroke:#000000;stroke-width:4.32"/>
	<rect x="1136.97" y="2139.11" width="38.07" height="152.69" style="fill:#808080"/>
	<rect x="1139.13" y="2141.27" width="33.75" height="148.37" style="fill:none;stroke:#000000;stroke-width:4.32"/>
	<rect x="1200.56" y="2139.11" width="38.07" height="152.69" style="fill:#808080"/>
	<rect x="1202.71" y="2141.27" width="33.75" height="148.37" style="fill:none;stroke:#000000;stroke-width:4.32"/>
	<rect x="1264.14" y="2139.11" width="38.20" height="152.69" style="fill:#808080"/>
	<rect x="1266.30" y="2141.27" width="33.89" height="148.37" style="fill:none;stroke:#000000;stroke-width:4.32"/>
	<line x1="353.97" y1="2291.80" x2="323.87" y2="2291.80" style="stroke:#606060;stroke-width:4.32"/>
	<text x="308.88" y="2312.81" style="font-family:'Helvetica';font-size:59.94px;fill:#606060" text-anchor="end">0</text>
	<line x1="353.97" y1="1864.38" x2="323.87" y2="1864.38" style="stroke:#606060;stroke-width:4.32"/>
	<text x="308.88" y="1885.39" style="font-family:'Helvetica';font-size:59.94px;fill:#606060" text-anchor="end">20</text>
	<line x1="353.97" y1="1436.96" x2="323.87" y2="1436.96" style="stroke:#606060;stroke-width:4.32"/>
	<text x="308.88" y="1457.98" style="font-family:'Helvetica';font-size:59.94px;fill:#606060" text-anchor="end">40</text>
	<line x1="353.97" y1="1009.55" x2="323.87" y2="1009.55" style="stroke:#606060;stroke-width:4.32"/>
	<text x="308.88" y="1030.56" style="font-family:'Helvetica';font-size:59.94px;fill:#606060" text-anchor="end">60</text>
	<line x1="353.97" y1="582.13" x2="323.87" y2="582.13" style="stroke:#606060;stroke-width:4.32"/>
	<text x="308.88" y="603.14" style="font-family:'Helvetica';font-size:59.94px;fill:#606060" text-anchor="end">80</text>
	<line x1="353.97" y1="2291.80" x2="353.97" y2="582.13" style="stroke:#000000;stroke-width:4.32"/>
	<text x="195.93" y="1338.14" style="font-family:'Helvetica';font-size:59.94px;fill:#000000" transform="rotate(-90 195.93,1338.14)" text-anchor="middle">Percentage</text>
	<text x="477.18" y="2321.77" style="font-family:'Helvetica';font-size:59.94px;fill:#606060" transform="rotate(-90 477.18,2321.77)" text-anchor="end">Debt</text>
	<text x="540.76" y="2321.77" style="font-family:'Helvetica';font-size:59.94px;fill:#606060" transform="rotate(-90 540.76,2321.77)" text-anchor="end">Employment</text>
	<text x="604.48" y="2321.77" style="font-family:'Helvetica';font-size:59.94px;fill:#606060" transform="rotate(-90 604.48,2321.77)" text-anchor="end">Agriculture</text>
	<text x="668.07" y="2321.77" style="font-family:'Helvetica';font-size:59.94px;fill:#606060" transform="rotate(-90 668.07,2321.77)" text-anchor="end">Education</text>
	<text x="731.65" y="2321.77" style="font-family:'Helvetica';font-size:59.94px;fill:#606060" transform="rotate(-90 731.65,2321.77)" text-anchor="end">Gender</text>
	<text x="795.24" y="2321.77" style="font-family:'Helvetica';font-size:59.94px;fill:#606060" transform="rotate(-90 795.24,2321.77)" text-anchor="end">Income</text>
	<text x="858.96" y="2321.77" style="font-family:'Helvetica';font-size:59.94px;fill:#606060" transform="rotate(-90 858.96,2321.77)" text-anchor="end">Inequality</text>
	<text x="922.54" y="2321.77" style="font-family:'Helvetica';font-size:59.94px;fill:#606060" transform="rotate(-90 922.54,2321.77)" text-anchor="end">Consumption</text>
	<text x="986.13" y="2321.77" style="font-family:'Helvetica';font-size:59.94px;fill:#606060" transform="rotate(-90 986.13,2321.77)" text-anchor="end">Marriage</text>
	<text x="1049.71" y="2321.77" style="font-family:'Helvetica';font-size:59.94px;fill:#606060" transform="rotate(-90 1049.71,2321.77)" text-anchor="end">Migration</text>
	<text x="1113.43" y="2321.77" style="font-family:'Helvetica';font-size:59.94px;fill:#606060" transform="rotate(-90 1113.43,2321.77)" text-anchor="end">Networks</text>
	<text x="1177.02" y="2321.77" style="font-family:'Helvetica';font-size:59.94px;fill:#606060" transform="rotate(-90 1177.02,2321.77)" text-anchor="end">Personality</text>
	<text x="1240.60" y="2321.77" style="font-family:'Helvetica';font-size:59.94px;fill:#606060" transform="rotate(-90 1240.60,2321.77)" text-anchor="end">Saving</text>
	<text x="1304.19" y="2321.77" style="font-family:'Helvetica';font-size:59.94px;fill:#606060" transform="rotate(-90 1304.19,2321.77)" text-anchor="end">Wealth</text>
	<text x="869.67" y="348.94" style="font-family:'Helvetica';font-size:75.06px;fill:#000000" text-anchor="middle">RUME (N=14)</text>
	<rect x="1461.11" y="207.90" width="1397.79" height="2514.14" style="fill:#FFFFFF"/>
	<rect x="1463.26" y="210.06" width="1393.47" height="2509.82" style="fill:none;stroke:#FFFFFF;stroke-width:4.32"/>
	<rect x="1751.63" y="384.49" width="1031.67" height="1767.31" style="fill:#E0E0E0"/>
	<rect x="1753.78" y="386.65" width="1027.35" height="1762.99" style="fill:none;stroke:#FFFFFF;stroke-width:4.32"/>
	<line x1="1751.63" y1="2151.80" x2="2783.30" y2="2151.80" style="stroke:#FFFFFF;stroke-width:4.32"/>
	<line x1="1751.63" y1="1728.84" x2="2783.30" y2="1728.84" style="stroke:#FFFFFF;stroke-width:4.32"/>
	<line x1="1751.63" y1="1306.01" x2="2783.30" y2="1306.01" style="stroke:#FFFFFF;stroke-width:4.32"/>
	<line x1="1751.63" y1="883.05" x2="2783.30" y2="883.05" style="stroke:#FFFFFF;stroke-width:4.32"/>
	<rect x="1833.17" y="927.46" width="29.57" height="1224.33" style="fill:#808080"/>
	<rect x="1835.32" y="929.62" width="25.25" height="1220.01" style="fill:none;stroke:#000000;stroke-width:4.32"/>
	<rect x="1882.58" y="1706.70" width="29.43" height="445.10" style="fill:#808080"/>
	<rect x="1884.73" y="1708.86" width="25.11" height="440.78" style="fill:none;stroke:#000000;stroke-width:4.32"/>
	<rect x="1931.85" y="1706.70" width="29.57" height="445.10" style="fill:#808080"/>
	<rect x="1934.01" y="1708.86" width="25.25" height="440.78" style="fill:none;stroke:#000000;stroke-width:4.32"/>
	<rect x="1981.26" y="1706.70" width="29.57" height="445.10" style="fill:#808080"/>
	<rect x="1983.42" y="1708.86" width="25.25" height="440.78" style="fill:none;stroke:#000000;stroke-width:4.32"/>
	<rect x="2030.54" y="1706.70" width="29.56" height="445.10" style="fill:#808080"/>
	<rect x="2032.69" y="1708.86" width="25.25" height="440.78" style="fill:none;stroke:#000000;stroke-width:4.32"/>
	<rect x="2079.95" y="1817.94" width="29.57" height="333.86" style="fill:#808080"/>
	<rect x="2082.10" y="1820.10" width="25.25" height="329.54" style="fill:none;stroke:#000000;stroke-width:4.32"/>
	<rect x="2129.22" y="1817.94" width="29.57" height="333.86" style="fill:#808080"/>
	<rect x="2131.38" y="1820.10" width="25.25" height="329.54" style="fill:none;stroke:#000000;stroke-width:4.32"/>
	<rect x="2178.63" y="1817.94" width="29.57" height="333.86" style="fill:#808080"/>
	<rect x="2180.79" y="1820.10" width="25.25" height="329.54" style="fill:none;stroke:#000000;stroke-width:4.32"/>
	<rect x="2228.04" y="1929.32" width="29.57" height="222.48" style="fill:#808080"/>
	<rect x="2230.20" y="1931.48" width="25.25" height="218.16" style="fill:none;stroke:#000000;stroke-width:4.32"/>
	<rect x="2277.32" y="1929.32" width="29.57" height="222.48" style="fill:#808080"/>
	<rect x="2279.47" y="1931.48" width="25.25" height="218.16" style="fill:none;stroke:#000000;stroke-width:4.32"/>
	<rect x="2326.72" y="1929.32" width="29.57" height="222.48" style="fill:#808080"/>
	<rect x="2328.88" y="1931.48" width="25.25" height="218.16" style="fill:none;stroke:#000000;stroke-width:4.32"/>
	<rect x="2376.00" y="1929.32" width="29.57" height="222.48" style="fill:#808080"/>
	<rect x="2378.16" y="1931.48" width="25.25" height="218.16" style="fill:none;stroke:#000000;stroke-width:4.32"/>
	<rect x="2425.41" y="2040.56" width="29.57" height="111.24" style="fill:#808080"/>
	<rect x="2427.57" y="2042.72" width="25.25" height="106.92" style="fill:none;stroke:#000000;stroke-width:4.32"/>
	<rect x="2474.82" y="2040.56" width="29.43" height="111.24" style="fill:#808080"/>
	<rect x="2476.98" y="2042.72" width="25.11" height="106.92" style="fill:none;stroke:#000000;stroke-width:4.32"/>
	<rect x="2524.09" y="2040.56" width="29.57" height="111.24" style="fill:#808080"/>
	<rect x="2526.25" y="2042.72" width="25.25" height="106.92" style="fill:none;stroke:#000000;stroke-width:4.32"/>
	<rect x="2573.51" y="2040.56" width="29.57" height="111.24" style="fill:#808080"/>
	<rect x="2575.66" y="2042.72" width="25.25" height="106.92" style="fill:none;stroke:#000000;stroke-width:4.32"/>
	<rect x="2622.78" y="2040.56" width="29.56" height="111.24" style="fill:#808080"/>
	<rect x="2624.94" y="2042.72" width="25.25" height="106.92" style="fill:none;stroke:#000000;stroke-width:4.32"/>
	<rect x="2672.19" y="2040.56" width="29.57" height="111.24" style="fill:#808080"/>
	<rect x="2674.35" y="2042.72" width="25.25" height="106.92" style="fill:none;stroke:#000000;stroke-width:4.32"/>
	<line x1="1751.63" y1="2151.80" x2="1721.66" y2="2151.80" style="stroke:#606060;stroke-width:4.32"/>
	<text x="1706.67" y="2172.81" style="font-family:'Helvetica';font-size:59.94px;fill:#606060" text-anchor="end">0</text>
	<line x1="1751.63" y1="1728.84" x2="1721.66" y2="1728.84" style="stroke:#606060;stroke-width:4.32"/>
	<text x="1706.67" y="1749.85" style="font-family:'Helvetica';font-size:59.94px;fill:#606060" text-anchor="end">20</text>
	<line x1="1751.63" y1="1306.01" x2="1721.66" y2="1306.01" style="stroke:#606060;stroke-width:4.32"/>
	<text x="1706.67" y="1327.02" style="font-family:'Helvetica';font-size:59.94px;fill:#606060" text-anchor="end">40</text>
	<line x1="1751.63" y1="883.05" x2="1721.66" y2="883.05" style="stroke:#606060;stroke-width:4.32"/>
	<text x="1706.67" y="904.06" style="font-family:'Helvetica';font-size:59.94px;fill:#606060" text-anchor="end">60</text>
	<line x1="1751.63" y1="460.09" x2="1721.66" y2="460.09" style="stroke:#606060;stroke-width:4.32"/>
	<text x="1706.67" y="481.10" style="font-family:'Helvetica';font-size:59.94px;fill:#606060" text-anchor="end">80</text>
	<line x1="1751.63" y1="2151.80" x2="1751.63" y2="460.09" style="stroke:#000000;stroke-width:4.32"/>
	<text x="1593.58" y="1268.21" style="font-family:'Helvetica';font-size:59.94px;fill:#000000" transform="rotate(-90 1593.58,1268.21)" text-anchor="middle">Percentage</text>
	<text x="1868.89" y="2181.90" style="font-family:'Helvetica';font-size:59.94px;fill:#606060" transform="rotate(-90 1868.89,2181.90)" text-anchor="end">Debt</text>
	<text x="1918.30" y="2181.90" style="font-family:'Helvetica';font-size:59.94px;fill:#606060" transform="rotate(-90 1918.30,2181.90)" text-anchor="end">Employment</text>
	<text x="1967.71" y="2181.90" style="font-family:'Helvetica';font-size:59.94px;fill:#606060" transform="rotate(-90 1967.71,2181.90)" text-anchor="end">Gender</text>
	<text x="2016.99" y="2181.90" style="font-family:'Helvetica';font-size:59.94px;fill:#606060" transform="rotate(-90 2016.99,2181.90)" text-anchor="end">Networks</text>
	<text x="2066.40" y="2181.90" style="font-family:'Helvetica';font-size:59.94px;fill:#606060" transform="rotate(-90 2066.40,2181.90)" text-anchor="end">Personality</text>
	<text x="2115.67" y="2181.90" style="font-family:'Helvetica';font-size:59.94px;fill:#606060" transform="rotate(-90 2115.67,2181.90)" text-anchor="end">Covid</text>
	<text x="2165.08" y="2181.90" style="font-family:'Helvetica';font-size:59.94px;fill:#606060" transform="rotate(-90 2165.08,2181.90)" text-anchor="end">Demonetisation</text>
	<text x="2214.36" y="2181.90" style="font-family:'Helvetica';font-size:59.94px;fill:#606060" transform="rotate(-90 2214.36,2181.90)" text-anchor="end">Inequality</text>
	<text x="2263.77" y="2181.90" style="font-family:'Helvetica';font-size:59.94px;fill:#606060" transform="rotate(-90 2263.77,2181.90)" text-anchor="end">Agriculture</text>
	<text x="2313.18" y="2181.90" style="font-family:'Helvetica';font-size:59.94px;fill:#606060" transform="rotate(-90 2313.18,2181.90)" text-anchor="end">Caste</text>
	<text x="2362.45" y="2181.90" style="font-family:'Helvetica';font-size:59.94px;fill:#606060" transform="rotate(-90 2362.45,2181.90)" text-anchor="end">Education</text>
	<text x="2411.86" y="2181.90" style="font-family:'Helvetica';font-size:59.94px;fill:#606060" transform="rotate(-90 2411.86,2181.90)" text-anchor="end">Income</text>
	<text x="2461.14" y="2181.90" style="font-family:'Helvetica';font-size:59.94px;fill:#606060" transform="rotate(-90 2461.14,2181.90)" text-anchor="end">Consumption</text>
	<text x="2510.55" y="2181.90" style="font-family:'Helvetica';font-size:59.94px;fill:#606060" transform="rotate(-90 2510.55,2181.90)" text-anchor="end">Marriage</text>
	<text x="2559.96" y="2181.90" style="font-family:'Helvetica';font-size:59.94px;fill:#606060" transform="rotate(-90 2559.96,2181.90)" text-anchor="end">Migration</text>
	<text x="2609.23" y="2181.90" style="font-family:'Helvetica';font-size:59.94px;fill:#606060" transform="rotate(-90 2609.23,2181.90)" text-anchor="end">Mobility</text>
	<text x="2658.64" y="2181.90" style="font-family:'Helvetica';font-size:59.94px;fill:#606060" transform="rotate(-90 2658.64,2181.90)" text-anchor="end">Trust</text>
	<text x="2707.92" y="2181.90" style="font-family:'Helvetica';font-size:59.94px;fill:#606060" transform="rotate(-90 2707.92,2181.90)" text-anchor="end">Wealth</text>
	<text x="2267.46" y="348.94" style="font-family:'Helvetica';font-size:75.06px;fill:#000000" text-anchor="middle">NEEMSIS-1 (N=19)</text>
	<rect x="2858.90" y="207.90" width="1397.66" height="2514.14" style="fill:#FFFFFF"/>
	<rect x="2861.05" y="210.06" width="1393.34" height="2509.82" style="fill:none;stroke:#FFFFFF;stroke-width:4.32"/>
	<rect x="3149.42" y="384.49" width="1031.53" height="1760.43" style="fill:#E0E0E0"/>
	<rect x="3151.57" y="386.65" width="1027.22" height="1756.11" style="fill:none;stroke:#FFFFFF;stroke-width:4.32"/>
	<line x1="3149.42" y1="2144.91" x2="4180.95" y2="2144.91" style="stroke:#FFFFFF;stroke-width:4.32"/>
	<line x1="3149.42" y1="1723.71" x2="4180.95" y2="1723.71" style="stroke:#FFFFFF;stroke-width:4.32"/>
	<line x1="3149.42" y1="1302.50" x2="4180.95" y2="1302.50" style="stroke:#FFFFFF;stroke-width:4.32"/>
	<line x1="3149.42" y1="881.29" x2="4180.95" y2="881.29" style="stroke:#FFFFFF;stroke-width:4.32"/>
	<rect x="3231.22" y="974.85" width="31.32" height="1170.06" style="fill:#808080"/>
	<rect x="3233.38" y="977.01" width="27.00" height="1165.74" style="fill:none;stroke:#000000;stroke-width:4.32"/>
	<rect x="3283.47" y="1442.90" width="31.32" height="702.01" style="fill:#808080"/>
	<rect x="3285.63" y="1445.06" width="27.00" height="697.69" style="fill:none;stroke:#000000;stroke-width:4.32"/>
	<rect x="3335.85" y="1442.90" width="31.32" height="702.01" style="fill:#808080"/>
	<rect x="3338.01" y="1445.06" width="27.00" height="697.69" style="fill:none;stroke:#000000;stroke-width:4.32"/>
	<rect x="3388.09" y="1442.90" width="31.32" height="702.01" style="fill:#808080"/>
	<rect x="3390.25" y="1445.06" width="27.00" height="697.69" style="fill:none;stroke:#000000;stroke-width:4.32"/>
	<rect x="3440.34" y="1559.81" width="31.32" height="585.10" style="fill:#808080"/>
	<rect x="3442.50" y="1561.97" width="27.00" height="580.78" style="fill:none;stroke:#000000;stroke-width:4.32"/>
	<rect x="3492.72" y="1559.81" width="31.32" height="585.10" style="fill:#808080"/>
	<rect x="3494.88" y="1561.97" width="27.00" height="580.78" style="fill:none;stroke:#000000;stroke-width:4.32"/>
	<rect x="3544.97" y="1676.86" width="31.32" height="468.05" style="fill:#808080"/>
	<rect x="3547.12" y="1679.02" width="27.00" height="463.73" style="fill:none;stroke:#000000;stroke-width:4.32"/>
	<rect x="3597.21" y="1910.82" width="31.32" height="234.09" style="fill:#808080"/>
	<rect x="3599.37" y="1912.98" width="27.00" height="229.77" style="fill:none;stroke:#000000;stroke-width:4.32"/>
	<rect x="3649.59" y="1910.82" width="31.18" height="234.09" style="fill:#808080"/>
	<rect x="3651.75" y="1912.98" width="26.87" height="229.77" style="fill:none;stroke:#000000;stroke-width:4.32"/>
	<rect x="3701.84" y="1910.82" width="31.32" height="234.09" style="fill:#808080"/>
	<rect x="3703.99" y="1912.98" width="27.00" height="229.77" style="fill:none;stroke:#000000;stroke-width:4.32"/>
	<rect x="3754.08" y="1910.82" width="31.32" height="234.09" style="fill:#808080"/>
	<rect x="3756.24" y="1912.98" width="27.00" height="229.77" style="fill:none;stroke:#000000;stroke-width:4.32"/>
	<rect x="3806.32" y="2027.87" width="31.32" height="117.05" style="fill:#808080"/>
	<rect x="3808.48" y="2030.03" width="27.00" height="112.73" style="fill:none;stroke:#000000;stroke-width:4.32"/>
	<rect x="3858.70" y="2027.87" width="31.32" height="117.05" style="fill:#808080"/>
	<rect x="3860.86" y="2030.03" width="27.00" height="112.73" style="fill:none;stroke:#000000;stroke-width:4.32"/>
	<rect x="3910.95" y="2027.87" width="31.32" height="117.05" style="fill:#808080"/>
	<rect x="3913.11" y="2030.03" width="27.00" height="112.73" style="fill:none;stroke:#000000;stroke-width:4.32"/>
	<rect x="3963.20" y="2027.87" width="31.32" height="117.05" style="fill:#808080"/>
	<rect x="3965.35" y="2030.03" width="27.00" height="112.73" style="fill:none;stroke:#000000;stroke-width:4.32"/>
	<rect x="4015.57" y="2027.87" width="31.32" height="117.05" style="fill:#808080"/>
	<rect x="4017.73" y="2030.03" width="27.00" height="112.73" style="fill:none;stroke:#000000;stroke-width:4.32"/>
	<rect x="4067.82" y="2027.87" width="31.32" height="117.05" style="fill:#808080"/>
	<rect x="4069.98" y="2030.03" width="27.00" height="112.73" style="fill:none;stroke:#000000;stroke-width:4.32"/>
	<line x1="3149.42" y1="2144.91" x2="3119.45" y2="2144.91" style="stroke:#606060;stroke-width:4.32"/>
	<text x="3104.32" y="2165.93" style="font-family:'Helvetica';font-size:59.94px;fill:#606060" text-anchor="end">0</text>
	<line x1="3149.42" y1="1723.71" x2="3119.45" y2="1723.71" style="stroke:#606060;stroke-width:4.32"/>
	<text x="3104.32" y="1744.72" style="font-family:'Helvetica';font-size:59.94px;fill:#606060" text-anchor="end">20</text>
	<line x1="3149.42" y1="1302.50" x2="3119.45" y2="1302.50" style="stroke:#606060;stroke-width:4.32"/>
	<text x="3104.32" y="1323.51" style="font-family:'Helvetica';font-size:59.94px;fill:#606060" text-anchor="end">40</text>
	<line x1="3149.42" y1="881.29" x2="3119.45" y2="881.29" style="stroke:#606060;stroke-width:4.32"/>
	<text x="3104.32" y="902.31" style="font-family:'Helvetica';font-size:59.94px;fill:#606060" text-anchor="end">60</text>
	<line x1="3149.42" y1="460.09" x2="3119.45" y2="460.09" style="stroke:#606060;stroke-width:4.32"/>
	<text x="3104.32" y="481.10" style="font-family:'Helvetica';font-size:59.94px;fill:#606060" text-anchor="end">80</text>
	<line x1="3149.42" y1="2144.91" x2="3149.42" y2="460.09" style="stroke:#000000;stroke-width:4.32"/>
	<text x="2991.37" y="1264.70" style="font-family:'Helvetica';font-size:59.94px;fill:#000000" transform="rotate(-90 2991.37,1264.70)" text-anchor="middle">Percentage</text>
	<text x="3267.90" y="2174.88" style="font-family:'Helvetica';font-size:59.94px;fill:#606060" transform="rotate(-90 3267.90,2174.88)" text-anchor="end">Debt</text>
	<text x="3320.14" y="2174.88" style="font-family:'Helvetica';font-size:59.94px;fill:#606060" transform="rotate(-90 3320.14,2174.88)" text-anchor="end">Caste</text>
	<text x="3372.52" y="2174.88" style="font-family:'Helvetica';font-size:59.94px;fill:#606060" transform="rotate(-90 3372.52,2174.88)" text-anchor="end">Employment</text>
	<text x="3424.77" y="2174.88" style="font-family:'Helvetica';font-size:59.94px;fill:#606060" transform="rotate(-90 3424.77,2174.88)" text-anchor="end">Networks</text>
	<text x="3477.01" y="2174.88" style="font-family:'Helvetica';font-size:59.94px;fill:#606060" transform="rotate(-90 3477.01,2174.88)" text-anchor="end">Gender</text>
	<text x="3529.39" y="2174.88" style="font-family:'Helvetica';font-size:59.94px;fill:#606060" transform="rotate(-90 3529.39,2174.88)" text-anchor="end">Personality</text>
	<text x="3581.64" y="2174.88" style="font-family:'Helvetica';font-size:59.94px;fill:#606060" transform="rotate(-90 3581.64,2174.88)" text-anchor="end">Inequality</text>
	<text x="3633.88" y="2174.88" style="font-family:'Helvetica';font-size:59.94px;fill:#606060" transform="rotate(-90 3633.88,2174.88)" text-anchor="end">Agriculture</text>
	<text x="3686.13" y="2174.88" style="font-family:'Helvetica';font-size:59.94px;fill:#606060" transform="rotate(-90 3686.13,2174.88)" text-anchor="end">Covid</text>
	<text x="3738.51" y="2174.88" style="font-family:'Helvetica';font-size:59.94px;fill:#606060" transform="rotate(-90 3738.51,2174.88)" text-anchor="end">Education</text>
	<text x="3790.75" y="2174.88" style="font-family:'Helvetica';font-size:59.94px;fill:#606060" transform="rotate(-90 3790.75,2174.88)" text-anchor="end">Income</text>
	<text x="3843.00" y="2174.88" style="font-family:'Helvetica';font-size:59.94px;fill:#606060" transform="rotate(-90 3843.00,2174.88)" text-anchor="end">Consumption</text>
	<text x="3895.38" y="2174.88" style="font-family:'Helvetica';font-size:59.94px;fill:#606060" transform="rotate(-90 3895.38,2174.88)" text-anchor="end">Decisionmaking</text>
	<text x="3947.62" y="2174.88" style="font-family:'Helvetica';font-size:59.94px;fill:#606060" transform="rotate(-90 3947.62,2174.88)" text-anchor="end">Demonetisation</text>
	<text x="3999.87" y="2174.88" style="font-family:'Helvetica';font-size:59.94px;fill:#606060" transform="rotate(-90 3999.87,2174.88)" text-anchor="end">Marriage</text>
	<text x="4052.25" y="2174.88" style="font-family:'Helvetica';font-size:59.94px;fill:#606060" transform="rotate(-90 4052.25,2174.88)" text-anchor="end">Migration</text>
	<text x="4104.49" y="2174.88" style="font-family:'Helvetica';font-size:59.94px;fill:#606060" transform="rotate(-90 4104.49,2174.88)" text-anchor="end">Wealth</text>
	<text x="3665.11" y="348.94" style="font-family:'Helvetica';font-size:75.06px;fill:#000000" text-anchor="middle">NEEMSIS-2 (N=18)</text>
	<text x="80.59" y="2781.35" style="fill:#000000">
		<tspan style="font-family:'Helvetica';font-style:italic;font-size:59.94px">Source:</tspan>
		<tspan style="font-family:'Helvetica';font-size:59.94px"> A. Natal. Updated in October 2025.</tspan>
	</text>
	<text x="2160.00" y="157.55" style="font-family:'Helvetica';font-size:110.03px;fill:#000000" text-anchor="middle">Topics by wave for research papers</text>
</svg>
