<?xml version="1.0" encoding="UTF-8" standalone="no"?>
<!-- This is a Stata 15.1 generated SVG file (http://www.stata.com) -->

<svg version="1.1" width="6.00in" height="4.00in" viewBox="0 0 4320 2880" xmlns="http://www.w3.org/2000/svg" xmlns:xlink="http://www.w3.org/1999/xlink">
	<desc>Stata Graph - wpglobal</desc>
	<rect x="0" y="0" width="4320" height="2880" style="fill:#FFFFFF;stroke:none"/>
	<rect x="0.00" y="0.00" width="4320.00" height="2880.00" style="fill:#FFFFFF"/>
	<rect x="2.88" y="2.88" width="4314.24" height="2874.24" style="fill:none;stroke:#FFFFFF;stroke-width:5.76"/>
	<rect x="63.31" y="207.90" width="4193.24" height="1257.14" style="fill:#FFFFFF"/>
	<rect x="65.47" y="210.06" width="4188.92" height="1252.82" style="fill:none;stroke:#FFFFFF;stroke-width:4.32"/>
	<rect x="110.83" y="255.42" width="2049.17" height="1162.10" style="fill:#FFFFFF"/>
	<rect x="112.45" y="257.04" width="2045.93" height="1158.86" style="fill:none;stroke:#FFFFFF;stroke-width:3.24"/>
	<rect x="328.73" y="387.86" width="1774.58" height="807.99" style="fill:#E0E0E0"/>
	<rect x="330.34" y="389.48" width="1771.34" height="804.75" style="fill:none;stroke:#FFFFFF;stroke-width:3.24"/>
	<line x1="328.73" y1="1195.85" x2="2103.30" y2="1195.85" style="stroke:#FFFFFF;stroke-width:3.24"/>
	<line x1="328.73" y1="1045.59" x2="2103.30" y2="1045.59" style="stroke:#FFFFFF;stroke-width:3.24"/>
	<line x1="328.73" y1="895.33" x2="2103.30" y2="895.33" style="stroke:#FFFFFF;stroke-width:3.24"/>
	<line x1="328.73" y1="745.08" x2="2103.30" y2="745.08" style="stroke:#FFFFFF;stroke-width:3.24"/>
	<line x1="328.73" y1="594.82" x2="2103.30" y2="594.82" style="stroke:#FFFFFF;stroke-width:3.24"/>
	<rect x="622.76" y="444.56" width="1186.51" height="751.29" style="fill:#808080"/>
	<rect x="624.37" y="446.18" width="1183.28" height="748.05" style="fill:none;stroke:#000000;stroke-width:3.24"/>
	<line x1="328.73" y1="1195.85" x2="306.32" y2="1195.85" style="stroke:#606060;stroke-width:3.24"/>
	<text x="295.11" y="1211.62" style="font-family:'Helvetica';font-size:44.95px;fill:#606060" text-anchor="end">0</text>
	<line x1="328.73" y1="1045.59" x2="306.32" y2="1045.59" style="stroke:#606060;stroke-width:3.24"/>
	<text x="295.11" y="1061.36" style="font-family:'Helvetica';font-size:44.95px;fill:#606060" text-anchor="end">20</text>
	<line x1="328.73" y1="895.33" x2="306.32" y2="895.33" style="stroke:#606060;stroke-width:3.24"/>
	<text x="295.11" y="911.10" style="font-family:'Helvetica';font-size:44.95px;fill:#606060" text-anchor="end">40</text>
	<line x1="328.73" y1="745.08" x2="306.32" y2="745.08" style="stroke:#606060;stroke-width:3.24"/>
	<text x="295.11" y="760.84" style="font-family:'Helvetica';font-size:44.95px;fill:#606060" text-anchor="end">60</text>
	<line x1="328.73" y1="594.82" x2="306.32" y2="594.82" style="stroke:#606060;stroke-width:3.24"/>
	<text x="295.11" y="610.59" style="font-family:'Helvetica';font-size:44.95px;fill:#606060" text-anchor="end">80</text>
	<line x1="328.73" y1="1195.85" x2="328.73" y2="594.82" style="stroke:#000000;stroke-width:3.24"/>
	<text x="210.28" y="791.79" style="font-family:'Helvetica';font-size:44.95px;fill:#000000" transform="rotate(-90 210.28,791.79)" text-anchor="middle">Percentage</text>
	<text x="1231.85" y="1218.26" style="font-family:'Helvetica';font-size:44.95px;fill:#606060" transform="rotate(-90 1231.85,1218.26)" text-anchor="end">Panel</text>
	<text x="1216.08" y="361.18" style="font-family:'Helvetica';font-size:56.30px;fill:#000000" text-anchor="middle">Analysis</text>
	<rect x="2160.00" y="255.42" width="2049.03" height="1162.10" style="fill:#FFFFFF"/>
	<rect x="2161.62" y="257.04" width="2045.79" height="1158.86" style="fill:none;stroke:#FFFFFF;stroke-width:3.24"/>
	<rect x="2404.08" y="387.86" width="1748.25" height="674.07" style="fill:#E0E0E0"/>
	<rect x="2405.70" y="389.48" width="1745.01" height="670.83" style="fill:none;stroke:#FFFFFF;stroke-width:3.24"/>
	<line x1="2404.08" y1="1061.93" x2="4152.33" y2="1061.93" style="stroke:#FFFFFF;stroke-width:3.24"/>
	<line x1="2404.08" y1="938.53" x2="4152.33" y2="938.53" style="stroke:#FFFFFF;stroke-width:3.24"/>
	<line x1="2404.08" y1="815.01" x2="4152.33" y2="815.01" style="stroke:#FFFFFF;stroke-width:3.24"/>
	<line x1="2404.08" y1="691.48" x2="4152.33" y2="691.48" style="stroke:#FFFFFF;stroke-width:3.24"/>
	<line x1="2404.08" y1="567.95" x2="4152.33" y2="567.95" style="stroke:#FFFFFF;stroke-width:3.24"/>
	<line x1="2404.08" y1="444.56" x2="4152.33" y2="444.56" style="stroke:#FFFFFF;stroke-width:3.24"/>
	<rect x="2529.76" y="444.56" width="344.93" height="617.36" style="fill:#808080"/>
	<rect x="2531.38" y="446.18" width="341.69" height="614.12" style="fill:none;stroke:#000000;stroke-width:3.24"/>
	<rect x="3105.81" y="444.56" width="344.93" height="617.36" style="fill:#808080"/>
	<rect x="3107.43" y="446.18" width="341.69" height="614.12" style="fill:none;stroke:#000000;stroke-width:3.24"/>
	<rect x="3681.72" y="444.56" width="344.93" height="617.36" style="fill:#808080"/>
	<rect x="3683.34" y="446.18" width="341.69" height="614.12" style="fill:none;stroke:#000000;stroke-width:3.24"/>
	<line x1="2404.08" y1="1061.93" x2="2381.67" y2="1061.93" style="stroke:#606060;stroke-width:3.24"/>
	<text x="2370.33" y="1077.69" style="font-family:'Helvetica';font-size:44.95px;fill:#606060" text-anchor="end">0</text>
	<line x1="2404.08" y1="938.53" x2="2381.67" y2="938.53" style="stroke:#606060;stroke-width:3.24"/>
	<text x="2370.33" y="954.30" style="font-family:'Helvetica';font-size:44.95px;fill:#606060" text-anchor="end">20</text>
	<line x1="2404.08" y1="815.01" x2="2381.67" y2="815.01" style="stroke:#606060;stroke-width:3.24"/>
	<text x="2370.33" y="830.78" style="font-family:'Helvetica';font-size:44.95px;fill:#606060" text-anchor="end">40</text>
	<line x1="2404.08" y1="691.48" x2="2381.67" y2="691.48" style="stroke:#606060;stroke-width:3.24"/>
	<text x="2370.33" y="707.25" style="font-family:'Helvetica';font-size:44.95px;fill:#606060" text-anchor="end">60</text>
	<line x1="2404.08" y1="567.95" x2="2381.67" y2="567.95" style="stroke:#606060;stroke-width:3.24"/>
	<text x="2370.33" y="583.72" style="font-family:'Helvetica';font-size:44.95px;fill:#606060" text-anchor="end">80</text>
	<line x1="2404.08" y1="444.56" x2="2381.67" y2="444.56" style="stroke:#606060;stroke-width:3.24"/>
	<text x="2370.33" y="460.33" style="font-family:'Helvetica';font-size:44.95px;fill:#606060" text-anchor="end">100</text>
	<line x1="2404.08" y1="1061.93" x2="2404.08" y2="444.56" style="stroke:#000000;stroke-width:3.24"/>
	<text x="2259.31" y="724.96" style="font-family:'Helvetica';font-size:44.95px;fill:#000000" transform="rotate(-90 2259.31,724.96)" text-anchor="middle">Percentage</text>
	<text x="2718.06" y="1084.47" style="font-family:'Helvetica';font-size:44.95px;fill:#606060" transform="rotate(-90 2718.06,1084.47)" text-anchor="end">RUME</text>
	<text x="3293.97" y="1084.47" style="font-family:'Helvetica';font-size:44.95px;fill:#606060" transform="rotate(-90 3293.97,1084.47)" text-anchor="end">NEEMSIS-1</text>
	<text x="3870.02" y="1084.47" style="font-family:'Helvetica';font-size:44.95px;fill:#606060" transform="rotate(-90 3870.02,1084.47)" text-anchor="end">NEEMSIS-2</text>
	<text x="3278.20" y="361.18" style="font-family:'Helvetica';font-size:56.30px;fill:#000000" text-anchor="middle">Data used</text>
	<rect x="63.31" y="1465.04" width="4193.24" height="1257.00" style="fill:#FFFFFF"/>
	<rect x="65.47" y="1467.20" width="4188.92" height="1252.68" style="fill:none;stroke:#FFFFFF;stroke-width:4.32"/>
	<rect x="110.83" y="1512.56" width="2049.17" height="1161.96" style="fill:#FFFFFF"/>
	<rect x="112.45" y="1514.18" width="2045.93" height="1158.72" style="fill:none;stroke:#FFFFFF;stroke-width:3.24"/>
	<rect x="328.73" y="1644.87" width="1774.58" height="651.93" style="fill:#E0E0E0"/>
	<rect x="330.34" y="1646.49" width="1771.34" height="648.69" style="fill:none;stroke:#FFFFFF;stroke-width:3.24"/>
	<line x1="328.73" y1="2296.79" x2="2103.30" y2="2296.79" style="stroke:#FFFFFF;stroke-width:3.24"/>
	<line x1="328.73" y1="2148.02" x2="2103.30" y2="2148.02" style="stroke:#FFFFFF;stroke-width:3.24"/>
	<line x1="328.73" y1="1999.25" x2="2103.30" y2="1999.25" style="stroke:#FFFFFF;stroke-width:3.24"/>
	<line x1="328.73" y1="1850.34" x2="2103.30" y2="1850.34" style="stroke:#FFFFFF;stroke-width:3.24"/>
	<rect x="419.58" y="1924.73" width="170.37" height="372.07" style="fill:#808080"/>
	<rect x="421.20" y="1926.35" width="167.13" height="368.83" style="fill:none;stroke:#000000;stroke-width:3.24"/>
	<rect x="704.02" y="1924.73" width="170.37" height="372.07" style="fill:#808080"/>
	<rect x="705.64" y="1926.35" width="167.13" height="368.83" style="fill:none;stroke:#000000;stroke-width:3.24"/>
	<rect x="988.61" y="1924.73" width="170.37" height="372.07" style="fill:#808080"/>
	<rect x="990.22" y="1926.35" width="167.13" height="368.83" style="fill:none;stroke:#000000;stroke-width:3.24"/>
	<rect x="1273.05" y="2110.76" width="170.37" height="186.03" style="fill:#808080"/>
	<rect x="1274.67" y="2112.38" width="167.13" height="182.79" style="fill:none;stroke:#000000;stroke-width:3.24"/>
	<rect x="1557.63" y="2110.76" width="170.37" height="186.03" style="fill:#808080"/>
	<rect x="1559.25" y="2112.38" width="167.13" height="182.79" style="fill:none;stroke:#000000;stroke-width:3.24"/>
	<rect x="1842.08" y="2110.76" width="170.37" height="186.03" style="fill:#808080"/>
	<rect x="1843.69" y="2112.38" width="167.13" height="182.79" style="fill:none;stroke:#000000;stroke-width:3.24"/>
	<line x1="328.73" y1="2296.79" x2="306.32" y2="2296.79" style="stroke:#606060;stroke-width:3.24"/>
	<text x="295.11" y="2312.56" style="font-family:'Helvetica';font-size:44.95px;fill:#606060" text-anchor="end">0</text>
	<line x1="328.73" y1="2148.02" x2="306.32" y2="2148.02" style="stroke:#606060;stroke-width:3.24"/>
	<text x="295.11" y="2163.79" style="font-family:'Helvetica';font-size:44.95px;fill:#606060" text-anchor="end">20</text>
	<line x1="328.73" y1="1999.25" x2="306.32" y2="1999.25" style="stroke:#606060;stroke-width:3.24"/>
	<text x="295.11" y="2015.01" style="font-family:'Helvetica';font-size:44.95px;fill:#606060" text-anchor="end">40</text>
	<line x1="328.73" y1="1850.34" x2="306.32" y2="1850.34" style="stroke:#606060;stroke-width:3.24"/>
	<text x="295.11" y="1866.11" style="font-family:'Helvetica';font-size:44.95px;fill:#606060" text-anchor="end">60</text>
	<line x1="328.73" y1="1701.57" x2="306.32" y2="1701.57" style="stroke:#606060;stroke-width:3.24"/>
	<text x="295.11" y="1717.33" style="font-family:'Helvetica';font-size:44.95px;fill:#606060" text-anchor="end">80</text>
	<line x1="328.73" y1="2296.79" x2="328.73" y2="1701.57" style="stroke:#000000;stroke-width:3.24"/>
	<text x="210.28" y="1970.90" style="font-family:'Helvetica';font-size:44.95px;fill:#000000" transform="rotate(-90 210.28,1970.90)" text-anchor="middle">Percentage</text>
	<text x="520.53" y="2319.20" style="font-family:'Helvetica';font-size:44.95px;fill:#606060" transform="rotate(-90 520.53,2319.20)" text-anchor="end">Debt</text>
	<text x="804.98" y="2319.20" style="font-family:'Helvetica';font-size:44.95px;fill:#606060" transform="rotate(-90 804.98,2319.20)" text-anchor="end">Income</text>
	<text x="1089.56" y="2319.20" style="font-family:'Helvetica';font-size:44.95px;fill:#606060" transform="rotate(-90 1089.56,2319.20)" text-anchor="end">Inequality</text>
	<text x="1374.00" y="2319.20" style="font-family:'Helvetica';font-size:44.95px;fill:#606060" transform="rotate(-90 1374.00,2319.20)" text-anchor="end">Consumption</text>
	<text x="1658.58" y="2319.20" style="font-family:'Helvetica';font-size:44.95px;fill:#606060" transform="rotate(-90 1658.58,2319.20)" text-anchor="end">Employment</text>
	<text x="1943.03" y="2319.20" style="font-family:'Helvetica';font-size:44.95px;fill:#606060" transform="rotate(-90 1943.03,2319.20)" text-anchor="end">Wealth</text>
	<text x="1216.08" y="1618.19" style="font-family:'Helvetica';font-size:56.30px;fill:#000000" text-anchor="middle">Topics</text>
	<rect x="2160.00" y="1512.56" width="2049.03" height="1161.96" style="fill:#FFFFFF"/>
	<rect x="2161.62" y="1514.18" width="2045.79" height="1158.72" style="fill:none;stroke:#FFFFFF;stroke-width:3.24"/>
	<rect x="2377.89" y="1644.87" width="1774.44" height="731.98" style="fill:#E0E0E0"/>
	<rect x="2379.51" y="1646.49" width="1771.20" height="728.74" style="fill:none;stroke:#FFFFFF;stroke-width:3.24"/>
	<line x1="2377.89" y1="2376.85" x2="4152.33" y2="2376.85" style="stroke:#FFFFFF;stroke-width:3.24"/>
	<line x1="2377.89" y1="2241.71" x2="4152.33" y2="2241.71" style="stroke:#FFFFFF;stroke-width:3.24"/>
	<line x1="2377.89" y1="2106.71" x2="4152.33" y2="2106.71" style="stroke:#FFFFFF;stroke-width:3.24"/>
	<line x1="2377.89" y1="1971.71" x2="4152.33" y2="1971.71" style="stroke:#FFFFFF;stroke-width:3.24"/>
	<rect x="2542.72" y="1701.57" width="541.08" height="675.28" style="fill:#808080"/>
	<rect x="2544.34" y="1703.19" width="537.84" height="672.04" style="fill:none;stroke:#000000;stroke-width:3.24"/>
	<rect x="3446.42" y="1870.45" width="541.08" height="506.39" style="fill:#808080"/>
	<rect x="3448.03" y="1872.07" width="537.84" height="503.15" style="fill:none;stroke:#000000;stroke-width:3.24"/>
	<line x1="2377.89" y1="2376.85" x2="2355.34" y2="2376.85" style="stroke:#606060;stroke-width:3.24"/>
	<text x="2344.14" y="2392.62" style="font-family:'Helvetica';font-size:44.95px;fill:#606060" text-anchor="end">0</text>
	<line x1="2377.89" y1="2241.71" x2="2355.34" y2="2241.71" style="stroke:#606060;stroke-width:3.24"/>
	<text x="2344.14" y="2257.48" style="font-family:'Helvetica';font-size:44.95px;fill:#606060" text-anchor="end">20</text>
	<line x1="2377.89" y1="2106.71" x2="2355.34" y2="2106.71" style="stroke:#606060;stroke-width:3.24"/>
	<text x="2344.14" y="2122.48" style="font-family:'Helvetica';font-size:44.95px;fill:#606060" text-anchor="end">40</text>
	<line x1="2377.89" y1="1971.71" x2="2355.34" y2="1971.71" style="stroke:#606060;stroke-width:3.24"/>
	<text x="2344.14" y="1987.47" style="font-family:'Helvetica';font-size:44.95px;fill:#606060" text-anchor="end">60</text>
	<line x1="2377.89" y1="2376.85" x2="2377.89" y2="1971.71" style="stroke:#000000;stroke-width:3.24"/>
	<text x="2259.31" y="2010.86" style="font-family:'Helvetica';font-size:44.95px;fill:#000000" transform="rotate(-90 2259.31,2010.86)" text-anchor="middle">Percentage</text>
	<text x="2829.03" y="2399.26" style="font-family:'Helvetica';font-size:44.95px;fill:#606060" transform="rotate(-90 2829.03,2399.26)" text-anchor="end">Natal</text>
	<text x="3732.72" y="2399.26" style="font-family:'Helvetica';font-size:44.95px;fill:#606060" transform="rotate(-90 3732.72,2399.26)" text-anchor="end">Nordman</text>
	<text x="3265.11" y="1618.19" style="font-family:'Helvetica';font-size:56.30px;fill:#000000" text-anchor="middle">Authors</text>
	<text x="80.59" y="2781.35" style="fill:#000000">
		<tspan style="font-family:'Helvetica';font-style:italic;font-size:59.94px">Source:</tspan>
		<tspan style="font-family:'Helvetica';font-size:59.94px"> A. Natal. Updated in October 2025.</tspan>
	</text>
	<text x="2160.00" y="157.55" style="font-family:'Helvetica';font-size:110.03px;fill:#000000" text-anchor="middle">Submitted papers (N=4)</text>
</svg>
